<svg xmlns="http://www.w3.org/2000/svg" width="85" height="85" viewBox="0 0 85 85">
  <g id="Grupo_1115326" data-name="Grupo 1115326" transform="translate(-337.051 -1769)">
    <circle id="Elipse_11710" data-name="Elipse 11710" cx="42.5" cy="42.5" r="42.5" transform="translate(337.051 1769)" fill="#fff"/>
    <g id="perno-de-tuerca" transform="translate(347.589 1779.25)">
      <path id="Trazado_902650" data-name="Trazado 902650" d="M59.12,30.46,46.9,9.29a3.091,3.091,0,0,0-2.67-1.54H19.78a3.091,3.091,0,0,0-2.67,1.54L4.88,30.46a3.081,3.081,0,0,0,0,3.08L17.1,54.71a3.091,3.091,0,0,0,2.67,1.54H44.22a3.091,3.091,0,0,0,2.67-1.54L59.11,33.54a3.081,3.081,0,0,0,0-3.08ZM32,43.69A11.69,11.69,0,1,1,43.69,32,11.685,11.685,0,0,1,32,43.69Z" fill="#9eabc4"/>
      <path id="Trazado_902651" data-name="Trazado 902651" d="M32,15.76A16.24,16.24,0,1,0,48.24,32,16.239,16.239,0,0,0,32,15.76Zm0,27.93A11.69,11.69,0,1,1,43.69,32,11.685,11.685,0,0,1,32,43.69Z" fill="#737e9b"/>
      <path id="Trazado_902652" data-name="Trazado 902652" d="M44.22,57.25H19.77a4.106,4.106,0,0,1-3.54-2.04L4.01,34.04a4.074,4.074,0,0,1,0-4.08L16.23,8.79a4.094,4.094,0,0,1,3.54-2.04H44.22a4.106,4.106,0,0,1,3.54,2.04L59.98,29.96a4.074,4.074,0,0,1,0,4.08L47.76,55.21A4.094,4.094,0,0,1,44.22,57.25ZM19.78,8.75a2.087,2.087,0,0,0-1.8,1.04L5.75,30.96a2.088,2.088,0,0,0,0,2.08L17.97,54.21a2.087,2.087,0,0,0,1.8,1.04H44.22a2.087,2.087,0,0,0,1.8-1.04L58.24,33.04a2.088,2.088,0,0,0,0-2.08L46.02,9.79a2.087,2.087,0,0,0-1.8-1.04H19.77ZM32,44.69A12.69,12.69,0,1,1,44.69,32,12.7,12.7,0,0,1,32,44.69Zm0-23.38A10.69,10.69,0,1,0,42.69,32,10.7,10.7,0,0,0,32,21.31Zm0,27.93A17.24,17.24,0,1,1,49.24,32,17.261,17.261,0,0,1,32,49.24Zm0-32.48A15.24,15.24,0,1,0,47.24,32,15.255,15.255,0,0,0,32,16.76Z" fill="#1a2c3d"/>
    </g>
  </g>
</svg>
