<svg xmlns="http://www.w3.org/2000/svg" width="85" height="85" viewBox="0 0 85 85">
  <g id="Grupo_1115329" data-name="Grupo 1115329" transform="translate(-757.051 -1769)">
    <circle id="Elipse_11711" data-name="Elipse 11711" cx="42.5" cy="42.5" r="42.5" transform="translate(757.051 1769)" fill="#fff"/>
    <g id="medida_1_" data-name="medida (1)" transform="translate(771.051 1692.6)">
      <path id="Trazado_902653" data-name="Trazado 902653" d="M55.507,290.133H.941a.944.944,0,0,0-.941.941v11.29a.944.944,0,0,0,.941.941H55.507a.944.944,0,0,0,.941-.941v-11.29A.943.943,0,0,0,55.507,290.133Zm-.941,11.29H1.882v-9.408H4.7V293.9a.941.941,0,0,0,1.882,0v-1.882h3.763v3.763a.941.941,0,0,0,1.882,0v-3.763h3.763V293.9a.941.941,0,0,0,1.882,0v-1.882h3.763v3.763a.941.941,0,0,0,1.882,0v-3.763h3.763V293.9a.941.941,0,0,0,1.882,0v-1.882h3.763v3.763a.941.941,0,0,0,1.882,0v-3.763h3.763V293.9a.941.941,0,1,0,1.882,0v-1.882h3.763v3.763a.941.941,0,0,0,1.882,0v-3.763h3.763V293.9a.941.941,0,0,0,1.882,0v-1.882h2.822v9.408Z" transform="translate(0 -167.035)"/>
      <g id="Grupo_1115327" data-name="Grupo 1115327" transform="translate(1.882 124.979)">
        <rect id="Rectángulo_407469" data-name="Rectángulo 407469" width="2.822" height="1.882" fill="#f6981e"/>
        <rect id="Rectángulo_407470" data-name="Rectángulo 407470" width="3.763" height="1.882" transform="translate(4.704)" fill="#f6981e"/>
        <rect id="Rectángulo_407471" data-name="Rectángulo 407471" width="3.763" height="1.882" transform="translate(10.349)" fill="#f6981e"/>
        <rect id="Rectángulo_407472" data-name="Rectángulo 407472" width="3.763" height="1.882" transform="translate(15.994)" fill="#f6981e"/>
        <rect id="Rectángulo_407473" data-name="Rectángulo 407473" width="3.763" height="1.882" transform="translate(21.638)" fill="#f6981e"/>
        <rect id="Rectángulo_407474" data-name="Rectángulo 407474" width="3.763" height="1.882" transform="translate(27.283)" fill="#f6981e"/>
        <rect id="Rectángulo_407475" data-name="Rectángulo 407475" width="3.763" height="1.882" transform="translate(32.928)" fill="#f6981e"/>
        <rect id="Rectángulo_407476" data-name="Rectángulo 407476" width="3.763" height="1.882" transform="translate(38.573)" fill="#f6981e"/>
        <rect id="Rectángulo_407477" data-name="Rectángulo 407477" width="3.763" height="1.882" transform="translate(44.218)" fill="#f6981e"/>
        <rect id="Rectángulo_407478" data-name="Rectángulo 407478" width="2.822" height="1.882" transform="translate(49.863)" fill="#f6981e"/>
        <path id="Trazado_902654" data-name="Trazado 902654" d="M464.563,324.267v7.527H460.8v-6.586a.944.944,0,0,0,.941-.941Z" transform="translate(-411.878 -322.385)" fill="#f6981e"/>
      </g>
      <path id="Trazado_902655" data-name="Trazado 902655" d="M65.989,325.207v6.586H17.067v-7.526h2.822a.941.941,0,0,0,1.882,0h3.763v1.882a.941.941,0,0,0,1.882,0v-1.882h3.763a.941.941,0,0,0,1.882,0h3.763v1.882a.941.941,0,0,0,1.882,0v-1.882h3.763a.941.941,0,0,0,1.882,0h3.763v1.882a.941.941,0,0,0,1.882,0v-1.882h3.763a.941.941,0,0,0,1.882,0H59.4v1.882a.941.941,0,0,0,1.882,0v-1.882h3.763A.945.945,0,0,0,65.989,325.207Z" transform="translate(-15.185 -197.405)" fill="#fdb50d"/>
      <path id="Trazado_902656" data-name="Trazado 902656" d="M.941,102.4a.94.94,0,0,0-.941.941v15.994a.941.941,0,0,0,1.882,0V103.341A.94.94,0,0,0,.941,102.4Z" transform="translate(0 0)"/>
      <path id="Trazado_902657" data-name="Trazado 902657" d="M495.875,102.4a.94.94,0,0,0-.941.941v15.994a.941.941,0,1,0,1.882,0V103.341A.94.94,0,0,0,495.875,102.4Z" transform="translate(-440.367 0)"/>
      <path id="Trazado_902658" data-name="Trazado 902658" d="M82.858,133.988l-4.375-5.645a.843.843,0,0,0-.969-.282.932.932,0,0,0-.574.884v4.7H40.249v-4.7a.932.932,0,0,0-.574-.884.83.83,0,0,0-.969.282l-4.375,5.645a1,1,0,0,0-.2.6.983.983,0,0,0,.2.6l4.375,5.645a.829.829,0,0,0,.969.282.932.932,0,0,0,.574-.884v-4.7H76.941v4.7a.932.932,0,0,0,.574.884.829.829,0,0,0,.969-.282l4.375-5.645a1.016,1.016,0,0,0,0-1.2ZM38.5,137.638l-2.352-3.048,2.352-3.048Zm40.191,0v-6.1l2.352,3.048Z" transform="translate(-30.371 -22.782)"/>
      <g id="Grupo_1115328" data-name="Grupo 1115328" transform="translate(5.777 108.76)">
        <path id="Trazado_902659" data-name="Trazado 902659" d="M440.624,163.133l-2.352,3.048v-6.1Z" transform="translate(-395.729 -160.085)" fill="#f9f9f9"/>
        <path id="Trazado_902660" data-name="Trazado 902660" d="M54.747,160.085v6.1l-2.352-3.048Z" transform="translate(-52.395 -160.085)" fill="#f9f9f9"/>
      </g>
    </g>
  </g>
</svg>
