<svg xmlns="http://www.w3.org/2000/svg" width="85" height="85" viewBox="0 0 85 85">
  <g id="Grupo_1115332" data-name="Grupo 1115332" transform="translate(-1177.051 -1769)">
    <circle id="Elipse_11712" data-name="Elipse 11712" cx="42.5" cy="42.5" r="42.5" transform="translate(1177.051 1769)" fill="#fff"/>
    <g id="sierra-circular" transform="translate(1191.051 1783)">
      <g id="Grupo_1115330" data-name="Grupo 1115330" transform="translate(0.841 0.84)">
        <path id="Trazado_902661" data-name="Trazado 902661" d="M63.949,322.159H107v6.851H63.949Z" transform="translate(-57.622 -286.892)" fill="#cbe5e8"/>
        <path id="Trazado_902662" data-name="Trazado 902662" d="M46.45,333.348h3.473v16.307H46.45Z" transform="translate(-42.085 -296.827)" fill="#eef5f6"/>
        <path id="Trazado_902663" data-name="Trazado 902663" d="M63.949,333.348h2.073v16.307H63.949Z" transform="translate(-57.622 -296.827)" fill="#deecf1"/>
        <path id="Trazado_902664" data-name="Trazado 902664" d="M35.03,475.125v1.65a.224.224,0,0,1-.224.224l-3.7.224H27.188a.224.224,0,0,1-.224-.224v-2.1a1.12,1.12,0,0,1,1.121-1.121h3.024l2.8.224A1.121,1.121,0,0,1,35.03,475.125Z" transform="translate(-24.783 -421.52)" fill="#deecf1"/>
        <path id="Trazado_902665" data-name="Trazado 902665" d="M68.094,474.9V477a.224.224,0,0,1-.224.224H63.949V473.78h3.024A1.121,1.121,0,0,1,68.094,474.9Z" transform="translate(-57.622 -421.52)" fill="#cbe5e8"/>
        <path id="Trazado_902666" data-name="Trazado 902666" d="M430.556,333.348h3.473v16.307h-3.473Z" transform="translate(-383.141 -296.827)" fill="#eef5f6"/>
        <path id="Trazado_902667" data-name="Trazado 902667" d="M448.055,333.348h2.073v16.307h-2.073Z" transform="translate(-398.678 -296.827)" fill="#deecf1"/>
        <path id="Trazado_902668" data-name="Trazado 902668" d="M126.112,26.23a20.106,20.106,0,0,0-.437-4.074.223.223,0,0,1,.105-.246l.548-.316a2.41,2.41,0,0,1,1.83-.48h.112c.207.056.266-.167.159-.353l-.3-.519a3.275,3.275,0,0,0-2.483-1.6l-1.35-.362a.222.222,0,0,1-.134-.1,20.335,20.335,0,0,0-2.532-3.255.223.223,0,0,1-.032-.266l.318-.551a2.792,2.792,0,0,1,1.666-1.192.241.241,0,0,0,.058-.441l-.3-.076a4.644,4.644,0,0,0-3.524-.464l-1.349.362a.222.222,0,0,1-.168-.022,16.594,16.594,0,0,0-3.361-1.659.223.223,0,0,1-.161-.214V9.764a2.672,2.672,0,0,1,.756-1.816.241.241,0,0,0-.177-.4h-.6a4.644,4.644,0,0,0-3.284,1.36l-.99.99a.223.223,0,0,1-.156.065,15.945,15.945,0,0,0-3.625.437.223.223,0,0,1-.246-.105l-.316-.548a2.674,2.674,0,0,1-.253-1.951.241.241,0,0,0-.355-.262l-.519.3a4.644,4.644,0,0,0-2.164,2.819L102.489,12a.222.222,0,0,1-.1.134,15.973,15.973,0,0,0-2.919,2.2.223.223,0,0,1-.266.032l-.551-.318a2.674,2.674,0,0,1-1.195-1.562.241.241,0,0,0-.439-.049l-.3.519a4.644,4.644,0,0,0-.464,3.524l.362,1.35a.222.222,0,0,1-.022.168,15.826,15.826,0,0,0-1.435,3.361.223.223,0,0,1-.214.161h-.631a2.674,2.674,0,0,1-1.816-.756.241.241,0,0,0-.4.177v.6a4.644,4.644,0,0,0,1.36,3.284l1.055,1.055a15.949,15.949,0,0,0,.477,3.879l-.693.4a2.673,2.673,0,0,1-1.95.253.241.241,0,0,0-.262.355l.3.519a4.644,4.644,0,0,0,2.82,2.164l1.438.385a15.973,15.973,0,0,0,2.358,3.118l-.4.7a2.672,2.672,0,0,1-1.562,1.195.241.241,0,0,0-.049.439l.519.3a4.644,4.644,0,0,0,3.524.464l1.438-.385a15.82,15.82,0,0,0,3.6,1.527v.8a2.673,2.673,0,0,1-.756,1.816.241.241,0,0,0,.177.4h.6a4.644,4.644,0,0,0,3.284-1.36l1.055-1.055a15.949,15.949,0,0,0,3.879-.477l.4.693a2.559,2.559,0,0,1,.256,1.942.274.274,0,0,0,.411.237l.461-.266a4.644,4.644,0,0,0,2.164-2.82l.385-1.438A15.973,15.973,0,0,0,121.5,37.3l1.191.688a1.4,1.4,0,0,1,.7,1.208.237.237,0,0,0,.441.118l.3-.519a4.644,4.644,0,0,0,.464-3.524l-.385-1.438a15.819,15.819,0,0,0,1.527-3.6h.8a2.674,2.674,0,0,1,1.816.756.241.241,0,0,0,.4-.177v-.6a4.644,4.644,0,0,0-1.36-3.284l-1.214-.542a.222.222,0,0,1-.065-.156Z" transform="translate(-82.571 -7.497)" fill="#a79ba7"/>
        <path id="Trazado_902669" data-name="Trazado 902669" d="M284.672,45.127a4.644,4.644,0,0,0-2.82-2.164L280.5,42.6a.222.222,0,0,1-.134-.1,15.968,15.968,0,0,0-2.2-2.919.223.223,0,0,1-.032-.266l.318-.551a2.559,2.559,0,0,1,1.554-1.192.241.241,0,0,0,.058-.441l-.519-.3a4.644,4.644,0,0,0-3.524-.464l-1.349.362a.222.222,0,0,1-.168-.022,15.826,15.826,0,0,0-3.361-1.435A15.572,15.572,0,0,1,274.6,45.1c0,6.034-4.077,8.748-6.631,8.748h16.871a4.643,4.643,0,0,0-1.244-2.258l-.99-.542a.223.223,0,0,1-.065-.156,20.109,20.109,0,0,0-.437-4.074.223.223,0,0,1,.105-.246l.548-.316A2.559,2.559,0,0,1,284.7,46a.241.241,0,0,0,.271-.353Z" transform="translate(-238.778 -32.158)" fill="#918291"/>
        <path id="Trazado_902670" data-name="Trazado 902670" d="M172.122,76.1c0,6.647-4.828,12.036-11.476,12.036a12.036,12.036,0,1,1,7.45-21.49C170.89,68.85,172.122,72.265,172.122,76.1Z" transform="translate(-132.795 -57.724)" fill="#918291"/>
        <path id="Trazado_902671" data-name="Trazado 902671" d="M278.667,96.559a12.012,12.012,0,0,0-4.586-9.454,15.677,15.677,0,0,1,.523,4.019c0,6.034-4.077,8.748-6.631,8.748h10.232A12.048,12.048,0,0,0,278.667,96.559Z" transform="translate(-238.78 -78.183)" fill="#7a6d79"/>
        <circle id="Elipse_11721" data-name="Elipse 11721" cx="3.313" cy="3.313" r="3.313" transform="translate(24.539 15.063)" fill="#a79ba7"/>
        <path id="Trazado_902672" data-name="Trazado 902672" d="M77.505,224.306l-3.347.224H27.536a.573.573,0,0,1-.573-.573v-13.8H78.079v13.577A.573.573,0,0,1,77.505,224.306Z" transform="translate(-24.782 -187.442)" fill="#8ebac5"/>
        <path id="Trazado_902673" data-name="Trazado 902673" d="M62.418,178.874l-5.093.224H8.06a.56.56,0,0,1-.56-.56v-3.522c0-.309,1.763-.56.56-.56H56.876l5.542.224a.569.569,0,0,1,.56.56v3.074A.56.56,0,0,1,62.418,178.874Z" transform="translate(-7.5 -155.743)" fill="#7ca1b1"/>
        <circle id="Elipse_11722" data-name="Elipse 11722" cx="1.721" cy="1.721" r="1.721" transform="translate(13.53 29.392)" fill="#ffe07d"/>
        <circle id="Elipse_11723" data-name="Elipse 11723" cx="1.721" cy="1.721" r="1.721" transform="translate(20.335 29.392)" fill="#ffe07d"/>
        <path id="Trazado_902674" data-name="Trazado 902674" d="M262.473,246.328v6.112a.224.224,0,0,1-.224.224l-3.248.224H245.874a.224.224,0,0,1-.224-.224V246.1a.224.224,0,0,1,.224-.224H259l3.248.224A.224.224,0,0,1,262.473,246.328Z" transform="translate(-218.959 -219.163)" fill="#eef5f6"/>
        <path id="Trazado_902675" data-name="Trazado 902675" d="M61.363,243.754H57.187a.224.224,0,0,0-.224.224V247.5l2.312,1.121,2.312-1.121v-3.518A.224.224,0,0,0,61.363,243.754Z" transform="translate(-51.419 -217.275)" fill="#ffe07d"/>
        <path id="Trazado_902676" data-name="Trazado 902676" d="M56.963,277.146v3.518a.224.224,0,0,0,.224.224h4.176a.224.224,0,0,0,.224-.224v-3.518Z" transform="translate(-51.419 -246.924)" fill="#ffd064"/>
        <path id="Trazado_902677" data-name="Trazado 902677" d="M452.2,220.175V207l-3.7-1.121v13.941a1.121,1.121,0,0,1-.328.793l-.12.12h3.584A.56.56,0,0,0,452.2,220.175Z" transform="translate(-398.678 -183.647)" fill="#7ca1b1"/>
        <path id="Trazado_902678" data-name="Trazado 902678" d="M419.136,475.125v1.65a.224.224,0,0,1-.224.224l-3.7.224h-3.921a.224.224,0,0,1-.224-.224v-2.1a1.12,1.12,0,0,1,1.121-1.121h3.024l2.8.224A1.121,1.121,0,0,1,419.136,475.125Z" transform="translate(-365.839 -421.52)" fill="#deecf1"/>
        <path id="Trazado_902679" data-name="Trazado 902679" d="M453.821,174.455h-5.766l.12.12a1.121,1.121,0,0,1,.328.793V179.1h5.318a.56.56,0,0,0,.56-.56v-3.522A.56.56,0,0,0,453.821,174.455Z" transform="translate(-398.678 -155.743)" fill="#678d98"/>
        <path id="Trazado_902680" data-name="Trazado 902680" d="M452.2,474.9V477a.224.224,0,0,1-.224.224h-3.921V473.78h3.024A1.121,1.121,0,0,1,452.2,474.9Z" transform="translate(-398.678 -421.52)" fill="#cbe5e8"/>
        <path id="Trazado_902681" data-name="Trazado 902681" d="M368.466,246.1v6.56a.224.224,0,0,1-.224.224H364.77V245.88h3.472A.224.224,0,0,1,368.466,246.1Z" transform="translate(-324.728 -219.163)" fill="#deecf1"/>
      </g>
      <g id="Grupo_1115331" data-name="Grupo 1115331" transform="translate(0 0)">
        <path id="Trazado_902682" data-name="Trazado 902682" d="M55.983,18.712H45.439a16.826,16.826,0,0,0-.352-2.958l.155-.089a1.707,1.707,0,0,1,1.3-.172,1.082,1.082,0,0,0,1.216-1.585l-.3-.519a5.448,5.448,0,0,0-3.33-2.555l-1.107-.3a16.823,16.823,0,0,0-1.867-2.514l.091-.157a1.707,1.707,0,0,1,1.043-.8,1.082,1.082,0,0,0,.261-1.981l-.519-.3a5.448,5.448,0,0,0-4.161-.548l-1.106.3a16.691,16.691,0,0,0-2.875-1.248V3.107a1.707,1.707,0,0,1,.5-1.215A1.082,1.082,0,0,0,33.63.046h-.6a5.448,5.448,0,0,0-3.878,1.606l-.812.812a16.837,16.837,0,0,0-3.11.356l-.089-.155a1.707,1.707,0,0,1-.172-1.3A1.082,1.082,0,0,0,23.383.145l-.519.3a5.448,5.448,0,0,0-2.555,3.33l-.3,1.107A16.831,16.831,0,0,0,17.5,6.75l-.158-.091a1.707,1.707,0,0,1-.8-1.043,1.082,1.082,0,0,0-1.981-.261l-.3.519a5.449,5.449,0,0,0-.548,4.161l.3,1.106a16.688,16.688,0,0,0-1.248,2.875h-.177a1.707,1.707,0,0,1-1.215-.5,1.082,1.082,0,0,0-1.846.765v.6a5.447,5.447,0,0,0,1.565,3.835H1.4a1.4,1.4,0,0,0-1.4,1.4v3.521a1.4,1.4,0,0,0,1.4,1.4h.78V37.368a1.4,1.4,0,0,0,1.4,1.4h.783v6.717a.841.841,0,1,0,1.681,0V38.769H8.287V52.26H6.047V49.408a.841.841,0,1,0-1.681,0V52.26H4.143a1.964,1.964,0,0,0-1.961,1.961v2.322a.841.841,0,0,0,.841.841h8.291a.841.841,0,0,0,.841-.841V54.221a1.964,1.964,0,0,0-1.961-1.961H9.969V43.8H47.415V52.26h-.223a1.964,1.964,0,0,0-1.961,1.961v2.322a.841.841,0,0,0,.841.841h8.291a.841.841,0,0,0,.841-.841V54.221a1.964,1.964,0,0,0-1.961-1.961h-.223V38.769H53.8a1.4,1.4,0,0,0,1.4-1.4V25.036h.78a1.4,1.4,0,0,0,1.4-1.4V20.113a1.4,1.4,0,0,0-1.4-1.4ZM10.472,54.221V55.7H3.862V54.221a.281.281,0,0,1,.28-.28h6.049A.281.281,0,0,1,10.472,54.221Zm2.9-35.6-1.055-1.055a3.774,3.774,0,0,1-1.075-2.143,3.391,3.391,0,0,0,1.341.274h.8a.84.84,0,0,0,.809-.611,15,15,0,0,1,1.446-3.41.84.84,0,0,0,.084-.639L15.335,9.6a3.775,3.775,0,0,1,.14-2.393,3.393,3.393,0,0,0,1.025.908l.7.4A.841.841,0,0,0,18.2,8.392a15.146,15.146,0,0,1,2.954-2.234.841.841,0,0,0,.391-.51l.385-1.438a3.774,3.774,0,0,1,1.318-2,3.391,3.391,0,0,0,.434,1.3l.4.693a.841.841,0,0,0,.932.4,15.134,15.134,0,0,1,3.675-.452.84.84,0,0,0,.594-.246l1.055-1.055a3.773,3.773,0,0,1,2.143-1.075,3.392,3.392,0,0,0-.274,1.341v.8a.84.84,0,0,0,.611.809,15,15,0,0,1,3.41,1.446.84.84,0,0,0,.639.084l1.438-.385A3.774,3.774,0,0,1,40.7,6a3.393,3.393,0,0,0-.908,1.025l-.4.7a.84.84,0,0,0,.124,1.005A15.141,15.141,0,0,1,41.75,11.68a.841.841,0,0,0,.51.391l1.438.385a3.774,3.774,0,0,1,2,1.318,3.394,3.394,0,0,0-1.3.434l-.693.4a.841.841,0,0,0-.4.932,15.12,15.12,0,0,1,.443,3.171h-2.2a12.769,12.769,0,0,0-2.516-7.158.841.841,0,0,0-1.351,1,11.1,11.1,0,0,1,2.183,6.157H32.814a4.152,4.152,0,0,0-8.243,0H17.508a11.195,11.195,0,0,1,17.562-8.7.841.841,0,1,0,.96-1.38,12.876,12.876,0,0,0-20.2,10.078H13.449a.847.847,0,0,0-.077-.091Zm17.74.091H26.271a2.472,2.472,0,0,1,4.841,0ZM53.521,54.221V55.7H46.912V54.221a.281.281,0,0,1,.28-.28h6.049A.281.281,0,0,1,53.521,54.221ZM51.337,52.26H49.1V38.769h2.241ZM55.7,23.355H18.053a.841.841,0,0,0,0,1.681H53.522V37.087h-9.25a.841.841,0,1,0,0,1.681h3.143v3.349H9.969V38.769H40.349a.841.841,0,0,0,0-1.681H3.862V25.036H14.131a.841.841,0,0,0,0-1.681H1.681V20.394H55.7Z" transform="translate(0 0)"/>
        <path id="Trazado_902683" data-name="Trazado 902683" d="M120.725,250.681a2.562,2.562,0,1,0,3.4-2.419v-1.085a.841.841,0,0,0-1.681,0v1.085A2.565,2.565,0,0,0,120.725,250.681Zm2.562.88a.88.88,0,1,1,.88-.88A.881.881,0,0,1,123.287,251.562Z" transform="translate(-107.194 -218.728)"/>
        <path id="Trazado_902684" data-name="Trazado 902684" d="M184,253.243a2.561,2.561,0,0,0,.841-4.981v-1.085a.841.841,0,0,0-1.681,0v1.085a2.561,2.561,0,0,0,.841,4.981Zm0-3.442a.88.88,0,1,1-.88.88A.881.881,0,0,1,184,249.8Z" transform="translate(-161.101 -218.728)"/>
        <path id="Trazado_902685" data-name="Trazado 902685" d="M242.987,247.071h17.048a.841.841,0,0,0,.841-.841v-7.008a.841.841,0,0,0-.841-.841H242.987a.841.841,0,0,0-.841.841v7.008A.841.841,0,0,0,242.987,247.071Zm.841-7.008h15.367v5.327H243.827Z" transform="translate(-215.007 -211.665)"/>
        <path id="Trazado_902686" data-name="Trazado 902686" d="M425.1,250.653h1.249l-.7,1.393a.841.841,0,1,0,1.5.752l1.3-2.609a.841.841,0,0,0-.752-1.216h-1.249l.7-1.393a.841.841,0,0,0-1.5-.752l-1.3,2.609a.841.841,0,0,0,.752,1.216Z" transform="translate(-376.705 -218.75)"/>
        <path id="Trazado_902687" data-name="Trazado 902687" d="M54.928,236.254H50.3a.841.841,0,0,0-.841.841v7.485a.841.841,0,0,0,.841.841h4.624a.841.841,0,0,0,.841-.841v-7.485A.84.84,0,0,0,54.928,236.254Zm-.841,1.681V240H51.144v-2.061Zm-2.943,5.8v-2.061h2.943v2.061Z" transform="translate(-43.919 -209.775)"/>
      </g>
    </g>
  </g>
</svg>
