<svg xmlns="http://www.w3.org/2000/svg" width="85" height="85" viewBox="0 0 85 85">
  <g id="Grupo_1106231" data-name="Grupo 1106231" transform="translate(-180 -1159)">
    <circle id="Elipse_11698" data-name="Elipse 11698" cx="42.5" cy="42.5" r="42.5" transform="translate(180 1159)" fill="#3c6d9d"/>
    <g id="tractor_1_" data-name="tractor (1)" transform="translate(191 1141.655)">
      <path id="Trazado_893959" data-name="Trazado 893959" d="M108.209,89.781H88.169l-4.96-19.612H58.391V99.094a10.592,10.592,0,0,1,14.962,9.65,10.7,10.7,0,0,1-.068,1.189H95.391a7.482,7.482,0,0,1,14.461,0h.838a2.266,2.266,0,0,0,2.266-2.266V94.529A4.748,4.748,0,0,0,108.209,89.781Z" transform="translate(-51.249 -33.198)" fill="#ff5023"/>
      <path id="Trazado_893960" data-name="Trazado 893960" d="M475.517,284.905h1.755v-4.239h-1.755a2.039,2.039,0,0,0-2.039,2.039v.161A2.039,2.039,0,0,0,475.517,284.905Z" transform="translate(-415.564 -217.948)" fill="#fff"/>
      <rect id="Rectángulo_402149" data-name="Rectángulo 402149" width="2.672" height="9.035" transform="translate(4.471 53.684)" fill="#e0e0e2"/>
      <rect id="Rectángulo_402150" data-name="Rectángulo 402150" width="13.505" height="2.853" transform="translate(42.652 53.684)" fill="#fed322"/>
      <g id="Grupo_1104005" data-name="Grupo 1104005" transform="translate(7.142 36.971)">
        <path id="Trazado_893961" data-name="Trazado 893961" d="M461.635,366.2a7.479,7.479,0,0,1,2.138,3.556h.839a2.266,2.266,0,0,0,2.266-2.266V366.2h-5.243Z" transform="translate(-412.312 -329.988)" fill="#cd2a01"/>
        <path id="Trazado_893962" data-name="Trazado 893962" d="M62.76,94.158c-.225,0-.448.007-.67.017V70.169h-3.7V99.094a10.592,10.592,0,0,1,14.962,9.65,10.7,10.7,0,0,1-.068,1.189H95.391a7.478,7.478,0,0,1,2.138-3.556H77.154A14.589,14.589,0,0,0,62.76,94.158Z" transform="translate(-58.391 -70.169)" fill="#cd2a01"/>
      </g>
      <rect id="Rectángulo_402151" data-name="Rectángulo 402151" width="28.126" height="3.709" transform="translate(5.805 33.262)" fill="#fece00"/>
      <g id="Grupo_1104006" data-name="Grupo 1104006" transform="translate(0.917 45.507)">
        <rect id="Rectángulo_402152" data-name="Rectángulo 402152" width="3.222" height="11.03" transform="translate(38.514 0)" fill="#77767e"/>
        <path id="Trazado_893963" data-name="Trazado 893963" d="M373.553,355.386a7.484,7.484,0,1,0,.251,1.923A7.483,7.483,0,0,0,373.553,355.386Z" transform="translate(-315.867 -324.157)" fill="#77767e"/>
        <path id="Trazado_893964" data-name="Trazado 893964" d="M18.094,298.936A10.594,10.594,0,1,0,28.62,310.719a10.584,10.584,0,0,0-10.525-11.783Z" transform="translate(-7.501 -279.49)" fill="#77767e"/>
      </g>
      <path id="Trazado_893965" data-name="Trazado 893965" d="M42.8,327.092a7.15,7.15,0,1,0,7.1,7.953,7.143,7.143,0,0,0-7.1-7.953Z" transform="translate(-31.294 -258.695)" fill="#57565c"/>
      <circle id="Elipse_11648" data-name="Elipse 11648" cx="4.369" cy="4.369" r="4.369" transform="translate(7.142 71.178)" fill="#e0e0e2"/>
      <path id="Trazado_893966" data-name="Trazado 893966" d="M393.258,378.974a4.309,4.309,0,1,0,.144,1.107A4.309,4.309,0,0,0,393.258,378.974Z" transform="translate(-337.722 -301.422)" fill="#57565c"/>
      <path id="Trazado_893967" data-name="Trazado 893967" d="M408.064,396.7a1.923,1.923,0,1,0,.065.494A1.923,1.923,0,0,0,408.064,396.7Z" transform="translate(-354.833 -318.532)" fill="#e0e0e2"/>
      <path id="Trazado_893968" data-name="Trazado 893968" d="M114.494,111.82H95.763V99.453h15.5Z" transform="translate(-84.05 -58.9)" fill="#97c7ef"/>
      <g id="Grupo_1104007" data-name="Grupo 1104007" transform="translate(14.408 43.591)">
        <rect id="Rectángulo_402153" data-name="Rectángulo 402153" width="8.571" height="1.835" transform="translate(6.06 7.358) rotate(-135)" fill="#fff"/>
        <rect id="Rectángulo_402154" data-name="Rectángulo 402154" width="6.635" height="1.835" transform="translate(9.098 6.295) rotate(-135)" fill="#fff"/>
      </g>
      <path id="Trazado_893969" data-name="Trazado 893969" d="M56.176,342.326a5.286,5.286,0,1,0,5.286,5.286A5.292,5.292,0,0,0,56.176,342.326Zm0,8.737a3.451,3.451,0,1,1,3.451-3.451A3.455,3.455,0,0,1,56.176,351.063Z" transform="translate(-44.665 -272.066)"/>
      <path id="Trazado_893970" data-name="Trazado 893970" d="M57.075,55.669v-2.9H43.57V44.59H41.959V41.871a1.3,1.3,0,0,1,1.3-1.3V38.74a3.135,3.135,0,0,0-3.132,3.132V44.59H38.514V55.666h-.879l-4.5-17.777H34.85V32.345H4.888v5.544H6.225V52.766H3.553v10.87H6.225v1.689a11.509,11.509,0,1,0,16.6,12.329H36V79H27.126v1.835H37.838V77.654h5.2a8.4,8.4,0,1,0,16.673-.012,3.187,3.187,0,0,0,2.917-3.172V61.331A5.67,5.67,0,0,0,57.075,55.669ZM43.57,54.6H55.239v1.018H43.57Zm-3.222-8.177h1.387v9.194H40.348ZM6.723,34.18H33.015v1.874H6.723ZM5.388,61.8V54.6h.837v7.2ZM21.183,75.813c-.008.268-.028.544-.059.822h0a9.666,9.666,0,1,1,.063-1.088Q21.187,75.678,21.183,75.813Zm22.91-1.342c-.023.041-.047.081-.07.123-.032.058-.063.117-.093.175-.021.04-.043.08-.063.121-.031.063-.061.126-.091.19-.018.038-.036.075-.054.114-.033.073-.065.148-.1.223-.012.029-.026.058-.038.088q-.063.155-.12.314H23.018q0-.137,0-.272a11.6,11.6,0,0,0-.064-1.217H44.175C44.147,74.376,44.121,74.423,44.093,74.471Zm7.28,10.752A6.564,6.564,0,1,1,53,72.3q.261.067.514.154.126.044.251.092a6.563,6.563,0,0,1-2.389,12.677ZM60.791,74.47a1.35,1.35,0,0,1-1.349,1.349h-.164q-.057-.159-.12-.315c-.011-.026-.022-.052-.033-.078-.033-.078-.065-.156-.1-.233-.017-.037-.034-.072-.051-.109-.031-.065-.061-.131-.094-.2-.02-.039-.041-.078-.061-.117-.031-.06-.063-.12-.1-.18-.022-.04-.045-.08-.068-.119s-.055-.1-.084-.144h2.22v.141Zm0-8.43h-.838a1.123,1.123,0,0,1-1.121-1.121v-.161a1.123,1.123,0,0,1,1.121-1.121h.838Zm0-4.239h-.838A2.96,2.96,0,0,0,57,64.757v.161a2.96,2.96,0,0,0,2.956,2.956h.838v4.619H57.074l-.083-.077c-.052-.047-.106-.093-.16-.139l-.089-.076c-.061-.05-.122-.1-.184-.148L56.485,72q-.262-.2-.54-.381l-.066-.041c-.071-.045-.141-.089-.213-.132l-.1-.057c-.062-.036-.124-.071-.187-.106l-.114-.06c-.059-.031-.119-.062-.178-.092l-.123-.059c-.058-.028-.117-.055-.176-.081l-.13-.056-.175-.073-.135-.052-.176-.065-.138-.048-.178-.057-.142-.043-.18-.05-.144-.037-.183-.043-.145-.032c-.062-.013-.125-.024-.188-.036l-.143-.026c-.064-.011-.129-.02-.194-.029l-.141-.019c-.068-.008-.136-.015-.2-.022l-.134-.013c-.076-.006-.152-.01-.228-.014l-.114-.007q-.172-.007-.344-.007t-.344.007l-.114.007c-.076,0-.152.008-.228.014l-.134.013c-.068.007-.137.013-.2.022l-.141.019-.195.029-.143.026-.188.036-.144.032-.183.043-.143.037-.18.05-.141.042-.178.057-.138.047-.176.065-.134.052-.176.073-.129.056c-.059.026-.118.054-.177.082l-.122.058c-.06.03-.12.061-.179.092l-.113.059c-.063.034-.126.07-.188.106l-.1.056c-.072.043-.143.088-.214.133l-.065.041q-.277.18-.54.381l-.072.057c-.062.049-.124.1-.184.148l-.089.076c-.053.046-.107.091-.159.138l-.083.077H22.61a11.531,11.531,0,0,0-11.1-8.458c-.132,0-.263,0-.394.007l-.106,0q-.166.007-.331.019l-.067,0q-.193.015-.385.037l-.1.012q-.155.019-.309.041l-.093.014q-.19.03-.378.065l-.076.015q-.156.031-.312.066l-.1.024c-.125.03-.25.061-.374.095l-.028.008q-.174.048-.347.1l-.049.015v-7.11h6.784V55.619H8.06V37.889H31.246l4.5,17.777H17.331V57.5H56.961a3.834,3.834,0,0,1,3.83,3.83Z" transform="translate(0)"/>
      <path id="Trazado_893971" data-name="Trazado 893971" d="M105.386,91.952H88.261v14.2H109.1ZM90.1,93.787h13.873l2.752,10.532H90.1Z" transform="translate(-77.465 -52.316)"/>
      <rect id="Rectángulo_402155" data-name="Rectángulo 402155" width="11.332" height="1.835" transform="translate(39.431 60.105)"/>
      <rect id="Rectángulo_402156" data-name="Rectángulo 402156" width="11.332" height="1.835" transform="translate(39.431 62.596)"/>
      <rect id="Rectángulo_402157" data-name="Rectángulo 402157" width="11.332" height="1.835" transform="translate(39.431 65.086)"/>
      <path id="Trazado_893972" data-name="Trazado 893972" d="M399.62,387.767a2.84,2.84,0,1,0,2.745,2.111A2.843,2.843,0,0,0,399.62,387.767Zm0,3.846a1.006,1.006,0,1,1,1.005-1.005A1.007,1.007,0,0,1,399.62,391.613Z" transform="translate(-348.248 -311.948)"/>
    </g>
  </g>
</svg>
