<svg xmlns="http://www.w3.org/2000/svg" xmlns:xlink="http://www.w3.org/1999/xlink" width="505" height="310" viewBox="0 0 505 310">
  <defs>
    <clipPath id="clip-path">
      <rect id="Rectángulo_401511" data-name="Rectángulo 401511" width="505" height="310" transform="translate(915 813)" fill="#c8e2aa"/>
    </clipPath>
    <clipPath id="clip-path-2">
      <path id="Trazado_896124" data-name="Trazado 896124" d="M16.07,170.881v254.61H525.428V285.215c-53.008-.186-106.178-1.645-158.12-11.826a399.484,399.484,0,0,1-92.4-29.771c-14.179-6.63-27.878-14.087-42.009-20.806q-21.167-10.067-42.975-18.964c-16.482-6.684-33.584-12.909-51.09-18.167-.673-.2-1.349-.4-2.022-.6q-1.608-.475-3.217-.939-1.98-.568-3.972-1.119c-.472-.131-.944-.264-1.417-.393q-2.509-.686-5.027-1.346l-.52-.138q-2.752-.714-5.516-1.393c-.065-.016-.131-.035-.2-.05q-2.792-.685-5.6-1.331c-.1-.021-.2-.045-.3-.067q-2.673-.613-5.35-1.188l-.737-.157q-2.411-.515-4.83-1l-1.457-.287q-2.029-.394-4.064-.768-1.222-.223-2.446-.438-1.525-.269-3.052-.523-1.844-.309-3.691-.6-.906-.141-1.813-.278-2.587-.388-5.175-.737l-.345-.048a288.684,288.684,0,0,0-37.822-2.573c-8.07,0-16.144.373-24.2,1.161" transform="translate(-16.07 -169.72)" fill="none"/>
    </clipPath>
  </defs>
  <g id="Enmascarar_grupo_1098680" data-name="Enmascarar grupo 1098680" transform="translate(-915 -813)" clip-path="url(#clip-path)">
    <g id="Grupo_1106230" data-name="Grupo 1106230" transform="translate(0 -18.083)">
      <g id="Grupo_1106229" data-name="Grupo 1106229" transform="translate(-10.051 -591)">
        <path id="Trazado_896296" data-name="Trazado 896296" d="M0,0H329.718V313H0Z" transform="translate(1013.051 1401)" fill="#cbf0f5"/>
        <g id="Grupo_1106228" data-name="Grupo 1106228" transform="translate(1013.051 1385.08)">
          <g id="Grupo_1106223" data-name="Grupo 1106223" transform="translate(-98.26 -61.353)">
            <g id="Grupo_1106222" data-name="Grupo 1106222">
              <path id="Trazado_896113" data-name="Trazado 896113" d="M295.9,188.742c3.9-11.98-3.105-26.374-15.01-30.847-10.538-3.959-22.7-.637-33.392-4.18-12.877-4.268-20.46-17.293-25.308-29.828s-8.474-26.151-17.9-35.817c-12.108-12.423-30.979-15.425-48.433-15.748S120.4,73.585,103.968,67.77C88.632,62.342,76.3,51.024,62.329,42.741s-32.066-13.409-46.26-5.508V213H296.062Z" transform="translate(-16.069 1.742)" fill="#e4f7fa"/>
              <path id="Trazado_896114" data-name="Trazado 896114" d="M508.242.884C494.609-2.3,479.3,3.327,471.085,14.544c-10.878,14.862-9.669,37.308-24.063,48.89-10.859,8.737-26.4,7.781-40.366,6.74s-29.8-1.052-39.659,8.779c-8.15,8.132-9.587,20.473-11.782,31.711s-6.827,23.676-17.605,27.865c-9.506,3.695-20.757-.4-30.237,3.357-8.15,3.231-13.143,11.764-14.5,20.336s.3,17.3,1.951,25.821H527.773V0h-16.53" transform="translate(-1.614)" fill="#e4f7fa"/>
              <path id="Trazado_896115" data-name="Trazado 896115" d="M40.818,224.133a413.565,413.565,0,0,0,78.959-8.656c36.922-7.45,72.793-18.489,108.512-29.644,37.417-11.686,75.194-21.888,114.2-28.227,66.23-10.764,134.021-11.069,199.735,1.187v295.78H16.069V223.315q12.339.89,24.749.819" transform="translate(-16.069 7.825)" fill="#72ac78"/>
              <path id="Trazado_896116" data-name="Trazado 896116" d="M80.135,172.378l.357.049q2.674.357,5.345.76.938.142,1.874.287,1.907.3,3.811.616,1.577.264,3.154.541,1.263.223,2.527.452,2.1.387,4.2.793.753.147,1.506.3,2.5.5,4.989,1.028c.255.053.506.107.76.162q2.767.6,5.528,1.227l.3.07q2.9.669,5.78,1.375c.069.016.137.035.205.05q2.854.7,5.7,1.44l.536.141q2.6.68,5.194,1.391c.488.133.977.27,1.463.405q2.055.571,4.1,1.156,1.664.48,3.322.969c.7.206,1.394.409,2.089.618,18.084,5.431,35.749,11.861,52.775,18.765q22.537,9.138,44.392,19.59c14.6,6.942,28.749,14.645,43.394,21.494a412.72,412.72,0,0,0,95.454,30.753c53.656,10.516,108.579,12.024,163.335,12.216v144.9H16.069V170.92a280.249,280.249,0,0,1,64.066,1.459" transform="translate(-16.069 8.879)" fill="#324241"/>
              <path id="Trazado_896117" data-name="Trazado 896117" d="M80.135,172.378l.357.049q2.674.357,5.345.76.938.142,1.874.287,1.907.3,3.811.616,1.577.264,3.154.541,1.263.223,2.527.452,2.1.387,4.2.793.753.147,1.506.3,2.5.5,4.989,1.028c.255.053.506.107.76.162q2.767.6,5.528,1.227l.3.07q2.9.669,5.78,1.375c.069.016.137.035.205.05q2.854.7,5.7,1.44l.536.141q2.6.68,5.194,1.391c.488.133.977.27,1.463.405q2.055.571,4.1,1.156,1.664.48,3.322.969c.7.206,1.394.409,2.089.618,18.084,5.431,35.749,11.861,52.775,18.765q22.537,9.138,44.392,19.59c14.6,6.942,28.749,14.645,43.394,21.494a412.72,412.72,0,0,0,95.454,30.753c53.656,10.516,108.579,12.024,163.335,12.216v144.9H16.069V170.92a280.249,280.249,0,0,1,64.066,1.459" transform="translate(-16.069 8.879)" fill="#324241"/>
            </g>
          </g>
          <g id="Grupo_1106225" data-name="Grupo 1106225" transform="translate(-98.261 112.923)">
            <g id="Grupo_1106224" data-name="Grupo 1106224" clip-path="url(#clip-path-2)">
              <path id="Trazado_896118" data-name="Trazado 896118" d="M193.6,194.523c-5.521,5.716-11.3,11.187-16.994,16.724-7.415,7.2-14.755,14.487-21.873,21.986-8.645,9.108-16.971,18.519-24.883,28.271-9.449,11.645-18.353,23.735-26.594,36.265a438.959,438.959,0,0,0-25.2,43.619Q76.5,344.458,75,347.552c-1.162,2.393-.731,5.617,1.828,6.969,2.286,1.207,5.726.731,6.969-1.828a443.454,443.454,0,0,1,24.984-44.736q6.247-9.794,13.015-19.244,3.178-4.438,6.467-8.795.79-1.045,1.586-2.087.394-.516.792-1.033l.339-.44c.436-.567-.754.97-.005.008q1.569-2.019,3.157-4.023c7.93-9.984,16.293-19.619,25-28.934,7.217-7.719,14.673-15.205,22.235-22.585,5.9-5.761,11.9-11.434,17.689-17.31q.877-.889,1.745-1.789a5.094,5.094,0,0,0-7.2-7.2" transform="translate(-14.978 -169.283)" fill="#d0e9bb"/>
              <path id="Trazado_896119" data-name="Trazado 896119" d="M154.168,181.185a104.872,104.872,0,0,0-10.456,7.141c-4.951,3.74-9.761,7.661-14.469,11.7-11.534,9.905-22.531,20.441-33.138,31.329-12.3,12.623-24.068,25.774-35.115,39.5a365.609,365.609,0,0,0-30.578,43.4C22.747,327.289,15.845,341.252,12.257,356q-.57,2.344-1.008,4.717c-.481,2.612.716,5.619,3.557,6.266,2.5.569,5.75-.756,6.266-3.557a103.771,103.771,0,0,1,5.792-19.476c.3-.763.615-1.522.929-2.28.4-.962-.5,1.156-.084.2l.219-.51q.3-.7.614-1.407,1.151-2.6,2.39-5.159c1.692-3.5,3.5-6.95,5.39-10.349,4.047-7.274,8.485-14.327,13.166-21.21q3.643-5.353,7.476-10.573,1.967-2.68,3.975-5.329,1.009-1.331,2.028-2.654c.173-.225.527-.777-.183.236.127-.181.274-.355.411-.53q.616-.795,1.237-1.585c10.867-13.869,22.5-27.135,34.669-39.878,10.734-11.245,21.886-22.115,33.554-32.393,4.593-4.045,9.269-8,14.084-11.782q.4-.315.8-.629l.318-.247c.652-.509-.962.737-.479.37.542-.412,1.079-.827,1.622-1.236q1.456-1.1,2.936-2.166c1.689-1.216,3.4-2.4,5.16-3.516q1.091-.694,2.209-1.345a5.094,5.094,0,1,0-5.141-8.8" transform="translate(-16.162 -169.518)" fill="#d0e9bb"/>
              <path id="Trazado_896120" data-name="Trazado 896120" d="M111.513,170.922c-7.885,3.972-15.035,9.48-21.94,14.924a340.3,340.3,0,0,0-27.1,23.988,357.269,357.269,0,0,0-27.463,29.958,226,226,0,0,0-22.782,32.875C6.846,282.4,2.1,293.011.539,304.107.321,305.653.123,307.2.01,308.756A5.118,5.118,0,0,0,5.1,313.85a5.218,5.218,0,0,0,5.094-5.094q.061-.848.15-1.7c.029-.266.063-.532.092-.8.084-.781-.1.685-.093.666.033-.191.054-.384.083-.576q.26-1.759.633-3.5a70.182,70.182,0,0,1,2-7.33q.633-1.927,1.358-3.821.333-.876.685-1.744c.134-.334.276-.666.411-1,.2-.511-.282.66-.25.589.093-.208.178-.42.269-.628,1.136-2.631,2.378-5.218,3.7-7.762a169.631,169.631,0,0,1,9.429-15.84q2.692-4.043,5.56-7.964,1.482-2.031,3-4.032.345-.455.693-.909l.3-.388c.549-.717-.179.18-.2.254.15-.634,1.211-1.553,1.619-2.068a346.62,346.62,0,0,1,26.839-30.005,355.341,355.341,0,0,1,27.116-24.6q1.533-1.247,3.085-2.471.752-.594,1.509-1.183c.9-.705-.792.606-.135.1l.885-.678q2.839-2.162,5.752-4.227A108.529,108.529,0,0,1,114.6,180.8q1.016-.562,2.053-1.086a5.128,5.128,0,0,0,1.828-6.969,5.218,5.218,0,0,0-6.969-1.828" transform="translate(-16.371 -169.709)" fill="#d0e9bb"/>
              <path id="Trazado_896121" data-name="Trazado 896121" d="M68.177,158.277a214.179,214.179,0,0,0-49.843,46.069Q12.25,212.159,6.765,220.4a5.131,5.131,0,0,0,1.828,6.969,5.212,5.212,0,0,0,6.969-1.828q4.548-6.86,9.53-13.414l.5-.647c-.752.979.085-.106.2-.254q.562-.721,1.132-1.435,1.325-1.666,2.681-3.306,2.581-3.117,5.28-6.133a202.692,202.692,0,0,1,23.471-22.309q.986-.8,1.979-1.581.333-.263.667-.525c.1-.08,1.23-.952.313-.247q1.869-1.436,3.767-2.836,4.056-2.984,8.239-5.784c2.209-1.483,3.382-4.558,1.828-6.969-1.419-2.2-4.6-3.416-6.969-1.828" transform="translate(-16.257 -169.948)" fill="#d0e9bb"/>
              <path id="Trazado_896122" data-name="Trazado 896122" d="M226.507,214.476A150.115,150.115,0,0,0,207,233.674c-7.677,8.748-14.84,17.951-21.749,27.313q-10.877,14.738-20.893,30.088-9.521,14.5-18.37,29.431c-4.784,8.093-9.43,16.28-13.695,24.661q-.633,1.244-1.252,2.494c-1.181,2.385-.719,5.623,1.828,6.969,2.3,1.215,5.707.722,6.969-1.828,3.985-8.05,8.376-15.9,12.895-23.661q8.543-14.666,17.8-28.9,9.91-15.3,20.578-30.092,2.65-3.655,5.356-7.269,1.307-1.745,2.63-3.478.628-.824,1.262-1.646c.1-.137.211-.272.315-.409,0,0-.617.8-.271.351q.368-.474.736-.946,5.166-6.632,10.613-13.041a172.934,172.934,0,0,1,19.738-20.22q1.1-.923,2.224-1.81c2.1-1.656,1.864-5.492,0-7.2-2.231-2.048-4.96-1.768-7.2,0" transform="translate(-13.929 -168.909)" fill="#d0e9bb"/>
              <path id="Trazado_896123" data-name="Trazado 896123" d="M260.665,231.011c-10.319,13.325-19.655,27.433-28.891,41.518-10.957,16.712-21.66,33.624-31.632,50.945a239.617,239.617,0,0,0-11.347,21.441c-1.086,2.426-.783,5.59,1.828,6.969,2.222,1.174,5.807.769,6.969-1.828,2.844-6.353,6.243-12.464,9.674-18.513,4.657-8.209,9.526-16.3,14.484-24.325q15.7-25.424,32.592-50.093,3.832-5.576,7.765-11.084,1.7-2.378,3.441-4.73.776-1.05,1.563-2.094.341-.451.684-.9l.332-.434c.675-.884-.735.947-.257.331a5.576,5.576,0,0,0,1.492-3.6,5.182,5.182,0,0,0-1.492-3.6c-1.821-1.673-5.461-2.25-7.2,0" transform="translate(-12.848 -168.6)" fill="#d0e9bb"/>
            </g>
          </g>
          <g id="Grupo_1106227" data-name="Grupo 1106227" transform="translate(-98.261 36.26)">
            <g id="Grupo_1106226" data-name="Grupo 1106226">
              <path id="Trazado_896125" data-name="Trazado 896125" d="M542.229,308.445a5.8,5.8,0,0,0-5.164-4.542c-2.414-.119-6.96,2.959-7.707,5.364a21.713,21.713,0,0,0-14.485-12.846c-6.385-1.6-14.067-.477-19.094,3.944a17.319,17.319,0,0,0-12.691-6.937c-4.914-.282-7.744.286-11.178,3.975a22.4,22.4,0,0,0-16.638-12.367c-7.012-.99-14.316.586-19.075,6.064a19.027,19.027,0,0,0-16.868-10.188,18.381,18.381,0,0,0-16.283,10.419c-11.117-4.516-24.981.579-31.124,11.272a17.32,17.32,0,0,0-11.945-11.948c-5.6-1.449-12.3-.56-16.33,3.757a16.74,16.74,0,0,0-4.769-15.648c-4.131-3.795-10.9-5.494-16.043-3.453-13.577-7.289-32.4-.362-41.093,12.76-4.354-6.506-15.539-8.351-20.663-2.492-4.888-5.333-10.944-9.89-17.908-11.115s-15.381.394-18.853,6.828a25.5,25.5,0,0,0-23.5-9.077c-8.616,1.429-15.5,11.047-18.831,19.482a15.326,15.326,0,0,0-15.615-5.984c-5.715,1.353-11.375,7.346-12.543,13.354a17.5,17.5,0,0,0-14.5-7.761c-5.65.083-10.414,2.078-13.526,7.013-4.25-6.66-9.809-12.9-17.1-15.342s-15.769-1.622-19.19,5.542A15.046,15.046,0,0,0,75.941,280.3c-5.506.193-9.477,4.668-11.732,9.927a16.048,16.048,0,0,0-9.665-10.811c-4.623-1.708-10.748-.189-14.74,2.788a15.286,15.286,0,0,0-11.252-7.4,14.964,14.964,0,0,0-12.483,4.767v74.739h526.16Z" transform="translate(-16.069 -101.75)" fill="#d0e9bb"/>
              <path id="Trazado_896126" data-name="Trazado 896126" d="M541.545,508.777H16.354V338.867s123.92-23.715,261.161-27.052c156.5-3.806,264.03,27.052,264.03,27.052Z" transform="translate(-16.054 -99.679)" fill="#d2984e"/>
              <path id="Trazado_896127" data-name="Trazado 896127" d="M281.185,448.313a6.926,6.926,0,0,1,6.278-.452,7.03,7.03,0,0,1,4.005,4.9c4.744-6.1,13.811-8.786,20.791-5.548" transform="translate(-2.198 -92.65)" fill="none" stroke="#f3d171" stroke-linecap="round" stroke-linejoin="round" stroke-width="1"/>
              <path id="Trazado_896128" data-name="Trazado 896128" d="M65.057,469.915a10.04,10.04,0,0,1,7.2,3.595A12.2,12.2,0,0,1,85,464.331" transform="translate(-13.506 -91.686)" fill="none" stroke="#f3d171" stroke-linecap="round" stroke-linejoin="round" stroke-width="1"/>
              <path id="Trazado_896129" data-name="Trazado 896129" d="M459.4,475.288a10.289,10.289,0,0,1,11.54,4.011c.374-1.671,1.631-1.917,3.261-2.4a4.852,4.852,0,0,1,4.706,1.209c2.321-5.532,9.727-9.514,15.572-8.367" transform="translate(7.127 -91.409)" fill="none" stroke="#f3d171" stroke-linecap="round" stroke-linejoin="round" stroke-width="1"/>
              <path id="Trazado_896130" data-name="Trazado 896130" d="M468.279,448.954a8.359,8.359,0,0,1,3.891-5.94,8.209,8.209,0,0,1,7.026-.649,11.89,11.89,0,0,1,5.763-7.824,12.382,12.382,0,0,1,9.91-.939" transform="translate(7.591 -93.323)" fill="none" stroke="#f3d171" stroke-linecap="round" stroke-linejoin="round" stroke-width="1"/>
              <path id="Trazado_896131" data-name="Trazado 896131" d="M30.548,426.676a18.848,18.848,0,0,1,16.312,8.182c4.549-4.769,11.661-4.943,16.861-.907" transform="translate(-15.311 -93.654)" fill="none" stroke="#f3d171" stroke-linecap="round" stroke-linejoin="round" stroke-width="1"/>
              <path id="Trazado_896132" data-name="Trazado 896132" d="M34.7,356.317a14.44,14.44,0,0,1,13.975,3.705" transform="translate(-15.094 -97.361)" fill="none" stroke="#f3d171" stroke-linecap="round" stroke-linejoin="round" stroke-width="1"/>
              <path id="Trazado_896133" data-name="Trazado 896133" d="M229.246,378.3a6.2,6.2,0,0,1,6.389,2.775,8.8,8.8,0,0,1,8.758-4.732" transform="translate(-4.915 -96.288)" fill="none" stroke="#f3d171" stroke-linecap="round" stroke-linejoin="round" stroke-width="1"/>
              <path id="Trazado_896134" data-name="Trazado 896134" d="M308.117,348.391a14.827,14.827,0,0,1,14.057,5.09c3.582-4.31,9.043-5.114,14.254-3.115" transform="translate(-0.789 -97.762)" fill="none" stroke="#f3d171" stroke-linecap="round" stroke-linejoin="round" stroke-width="1"/>
              <path id="Trazado_896135" data-name="Trazado 896135" d="M521.1,404.048c0,10.381-45.93,18.8-102.588,18.8s-102.588-8.415-102.588-18.8,45.931-18.8,102.588-18.8,102.588,8.415,102.588,18.8" transform="translate(-0.38 -95.82)"/>
              <path id="Trazado_896136" data-name="Trazado 896136" d="M314.922,289.757s-15.445-5.384-17.407-5.669-10.679-2.438-10.891-.331,10.232,6.993,10.232,6.993-.819.691-6.727,2.77c-5.289,1.859-24.5,2.639-24.579,4.538-.195,4.7,14.444,2.491,16.551,2.7s5.082-.016,3.342,1.224-19.155,3.471-19.808,4.342-1.511,4.673,6.257,3.757c0,0-1.766,3.746,2.955,3.165,2.342-.289,6.643.027,12.659-1.4,0,0-9.431,2.569-9.28,4.674s12.05-.981,18.434-2.377,24.262-12.059,24.262-12.059Z" transform="translate(-3.033 -101.178)" fill="#8f7d81"/>
              <path id="Trazado_896137" data-name="Trazado 896137" d="M374.89,278.028c-.1-8.065-4.981-17.44-14.234-14.5-4.424,1.407-17.535,8.63-30.018,15.788,3.2,5.842,6.015,11.832,8.954,17.626,17.232-5.712,35.366-13.219,35.3-18.919" transform="translate(0.389 -102.217)" fill="#eec3ae"/>
              <path id="Trazado_896138" data-name="Trazado 896138" d="M271.559,308.84S283,307.1,286.028,306.618" transform="translate(-2.702 -99.934)" fill="none" stroke="#000" stroke-linecap="round" stroke-linejoin="round" stroke-width="1"/>
              <path id="Trazado_896139" data-name="Trazado 896139" d="M283.207,311.14a36.074,36.074,0,0,0,5.413-1.168" transform="translate(-2.092 -99.759)" fill="none" stroke="#000" stroke-linecap="round" stroke-linejoin="round" stroke-width="1"/>
              <path id="Trazado_896140" data-name="Trazado 896140" d="M305.419,294.16l5.106,10.5c.407.313,17.567-3.352,32.916-8.438-2.939-5.8-6.6-13.474-9.808-19.316-13.642,7.822-28.214,17.258-28.214,17.258" transform="translate(-0.93 -101.489)" fill="#8f7d81"/>
              <path id="Trazado_896141" data-name="Trazado 896141" d="M352.6,267.188l6.48,21.719,8.879-4.217Z" transform="translate(1.538 -101.997)"/>
              <path id="Trazado_896142" data-name="Trazado 896142" d="M355.863,259.777s-4.621.91-4.982,4.8,12.832,29.527,24.16,26.116,14.44-8.9,14.44-8.9,27.614-35.76,27.315-48.125,9.578-19.06-10.356-37.973-35.381,13.514-36.7,21.529-13.874,42.547-13.874,42.547" transform="translate(1.448 -106.043)" fill="#fff"/>
              <path id="Trazado_896143" data-name="Trazado 896143" d="M371.313,390.724s25.576-9.611,38.227-11.462c25.188-3.681,17.862-3.723,64.594-7.717,2.277-.195,5.833,14.183,3.516,15.287-47.026,22.421-45.641,33.457-100.969,33.081-21.648-7.994-16.232-24.4-5.367-29.189" transform="translate(2.02 -96.537)"/>
              <path id="Trazado_896144" data-name="Trazado 896144" d="M498.841,373.214s13.271,24.6,12.874,35.1c-2.628,1.439-7.1,2.032-11.524-6.032-5.3-9.665-20.881-13.772-21.324-13.1-.363.547-33.676,17.428-46.1,23.711l-14.949-35.382c15.12-5.259,54.724-8.487,55.9-14.331.82-4.1,7.872-7.959,13.137-10.3l5.971,14.132Z" transform="translate(4.951 -97.514)" fill="#f3d171"/>
              <path id="Trazado_896145" data-name="Trazado 896145" d="M428.391,414s-11.5-27.21-14.979-35.455a16.3,16.3,0,0,1,4.634-2.253L433,411.671l-4.6,2.326" transform="translate(4.72 -96.289)" fill="#324241"/>
              <path id="Trazado_896146" data-name="Trazado 896146" d="M489.238,350.671l5.354,12.676-2.473,1.046,5.48,6.067,12.1,28.654s2.278,6.5-.087,8.419a9.006,9.006,0,0,1-1.336.9c.4-10.5-12.873-35.1-12.873-35.1l-6.021-6.2-5.971-14.133c3.251-1.449,5.822-2.322,5.822-2.322" transform="translate(8.383 -97.629)" fill="#324241"/>
              <path id="Trazado_896147" data-name="Trazado 896147" d="M493.939,342.834c2.474-4-16.558-58.724-18.384-59.665s-63.927,14.516-63.927,14.516c.114.342.845,8.771,1.988,18.548-67.044,31.943-90.239,46.121-96.361,58.5-4.219,8.526.224,18.112,6.355,23.54a8.007,8.007,0,0,0,4.529,3.461c13.249,3.594,23.131,5.335,31.272,6.014,3.758,8.125,12.816,13.738,19.066,11.879a402.686,402.686,0,0,0,40.1-14.244c3.606.214,7.517.548,11.811,1.044.913.105,2.014-3.23,2.95-7.566,32.382-15.141,49.694-28.955,49.694-28.955a28.444,28.444,0,0,0,10.912-27.067" transform="translate(-0.398 -101.163)"/>
              <path id="Trazado_896148" data-name="Trazado 896148" d="M376.811,230.653c7.295,41.655,29.206,56.943,32.387,88.277.382,3.77,66.234-1.5,74.873-10.526,5.965-6.232-2.688-80.955-36.14-118.786-12.423-14.05-36.445-14.312-53.993-3.161-16.627,10.564-17.87,39.953-17.127,44.2" transform="translate(2.797 -106.635)" fill="#fff"/>
              <path id="Trazado_896149" data-name="Trazado 896149" d="M374.628,208.354c-.357.72,4.77,28.8,7.966,37.291" transform="translate(2.69 -105.075)" fill="none" stroke="#000" stroke-linecap="round" stroke-linejoin="round" stroke-width="1"/>
              <path id="Trazado_896150" data-name="Trazado 896150" d="M355.68,257.157s9.284,15.167,19.039,20.2" transform="translate(1.7 -102.522)" fill="none" stroke="#000" stroke-linecap="round" stroke-linejoin="round" stroke-width="1"/>
              <path id="Trazado_896151" data-name="Trazado 896151" d="M358,254.327c1.3,1.3,13.34,11.95,25.463,15.982" transform="translate(1.821 -102.67)" fill="none" stroke="#000" stroke-linecap="round" stroke-linejoin="round" stroke-width="1"/>
              <path id="Trazado_896152" data-name="Trazado 896152" d="M389.346,197.878s12.322,2.11,20.584-3.957" transform="translate(3.461 -105.831)" fill="none" stroke="#000" stroke-linecap="round" stroke-linejoin="round" stroke-width="1"/>
              <path id="Trazado_896153" data-name="Trazado 896153" d="M383.656,215.661s25.772-2.88,31.562-3.865c17.1,76.624,58.364,75.029,71.961,85.79,24.52,19.408-100.98,97.765-100.98,97.765a51.282,51.282,0,0,1-21.115-7.363c-9.054-5.739-11.342-11.6-20.771-16.73a45.909,45.909,0,0,0-17.733-5.279c8.622-6.916,19.02-13.825,30.574-21.222,16.748-10.722,36.416-21.664,48.1-22.549-5.8-.715-3.265-6.227-3.265-6.227s-10.011-12.788-18.331-100.32" transform="translate(0.177 -104.895)" fill="#87767a"/>
              <path id="Trazado_896154" data-name="Trazado 896154" d="M383.1,222.374a1.726,1.726,0,0,1-1.724-1.642c-.05-.983-1.058-24.235,11.093-37.554a1.727,1.727,0,1,1,2.552,2.329c-11.174,12.247-10.206,34.829-10.194,35.055a1.73,1.73,0,0,1-1.643,1.81c-.027,0-.057,0-.085,0" transform="translate(3.042 -106.422)" fill="#87767a"/>
              <path id="Trazado_896155" data-name="Trazado 896155" d="M410.17,216.707a1.728,1.728,0,0,1-1.609-1.609c-.068-1.029-1.55-25.318,10.219-33.607,5.089-3.585,8.692-3.393,16.746.112.875.38,4.588,2.531,3.713,2.15-6.873-2.989-14.432-2.279-18.468.564-10.2,7.183-8.776,30.318-8.761,30.551a1.728,1.728,0,0,1-1.609,1.839,1.68,1.68,0,0,1-.231,0" transform="translate(4.462 -106.617)" fill="#87767a"/>
              <path id="Trazado_896156" data-name="Trazado 896156" d="M493.116,326.53c-.095-4.461-9.314-16.25-15.1-22.633l-.155-.173-2.816.915,1.592-2.264-4.846-5.344,6.358,3.195c.177-.247.448-.622.8-1.093l-2.187-.594c.577-2.128,5.871-20.842,14.044-22.657,1.826-.4,4.608-.165,7.517,3.277,2.126,2.516,2.989,5.13,2.57,7.786,2.031,1.846,3.307,5.242,3.875,10.27.536,4.733-.6,8.111-3.361,10.038-4.15,2.893-10.975,1.539-16.123-.185,4.718,5.771,11.184,14.543,11.288,19.388Zm-10.844-24.322c4.863,2.086,13.388,4.842,17.16,2.209,1.644-1.146,2.284-3.438,1.9-6.815a18.139,18.139,0,0,0-1.887-6.939c-3.642,5.786-12.842,9.875-17.175,11.545m14.306-13.453c-3.233.016-8.031,4.4-11.743,8.621,4.472-2.079,9.643-5.149,11.743-8.621m-4.422-9.573a2.579,2.579,0,0,0-.6.074c-4.066.9-8.3,10.171-10.609,17.334,3.91-4.75,10.872-11.994,16.576-11.225a6.914,6.914,0,0,0-1.839-3.975c-1.587-1.878-2.8-2.208-3.527-2.208" transform="translate(7.775 -101.55)" fill="#87767a"/>
              <path id="Trazado_896157" data-name="Trazado 896157" d="M484.137,321.782c-2.253-10.106-9.116-18-9.186-18.082l2.6-2.281c.306.348,7.519,8.651,9.962,19.612Z" transform="translate(7.94 -100.206)" fill="#87767a"/>
              <path id="Trazado_896158" data-name="Trazado 896158" d="M400.832,316.718s27.789,8.5,52.7,5.327" transform="translate(4.062 -99.406)" fill="none" stroke="#000" stroke-linecap="round" stroke-linejoin="round" stroke-width="1"/>
              <path id="Trazado_896159" data-name="Trazado 896159" d="M398.643,310.941s41.179,4.968,64.034-4.9" transform="translate(3.948 -99.964)" fill="none" stroke="#000" stroke-linecap="round" stroke-linejoin="round" stroke-width="1"/>
              <path id="Trazado_896160" data-name="Trazado 896160" d="M478.089,297.088s-16.591-9.071-34.432-12.478" transform="translate(6.303 -101.086)" fill="none" stroke="#000" stroke-linecap="round" stroke-linejoin="round" stroke-width="1"/>
              <path id="Trazado_896161" data-name="Trazado 896161" d="M477.687,293.147a5.875,5.875,0,0,1,2.853,4.405c.365-.313.886.362,1.025.822a2.028,2.028,0,0,1-.242,1.388,16.548,16.548,0,0,1-7.137,7.647" transform="translate(7.9 -100.639)" fill="none" stroke="#000" stroke-linecap="round" stroke-linejoin="round" stroke-width="1"/>
              <path id="Trazado_896162" data-name="Trazado 896162" d="M480.037,301.361a14.154,14.154,0,0,1-1.336,9.871" transform="translate(8.136 -100.209)" fill="none" stroke="#000" stroke-linecap="round" stroke-linejoin="round" stroke-width="1"/>
              <path id="Trazado_896163" data-name="Trazado 896163" d="M494.379,287.687a5.856,5.856,0,0,1,3.775,3.12" transform="translate(8.957 -100.925)" fill="none" stroke="#000" stroke-linecap="round" stroke-linejoin="round" stroke-width="1"/>
              <path id="Trazado_896164" data-name="Trazado 896164" d="M496.837,284.924a7.588,7.588,0,0,1,3.251,1.968" transform="translate(9.085 -101.069)" fill="none" stroke="#000" stroke-linecap="round" stroke-linejoin="round" stroke-width="1"/>
              <path id="Trazado_896165" data-name="Trazado 896165" d="M480.99,303.24A8.339,8.339,0,0,0,486,305.317" transform="translate(8.256 -100.111)" fill="none" stroke="#000" stroke-linecap="round" stroke-linejoin="round" stroke-width="1"/>
              <path id="Trazado_896166" data-name="Trazado 896166" d="M381.127,215.558l3.418-.625" transform="translate(3.031 -104.731)" fill="none" stroke="#000" stroke-linecap="round" stroke-linejoin="round" stroke-width="1"/>
              <path id="Trazado_896167" data-name="Trazado 896167" d="M408.47,212.238l3.221-.4" transform="translate(4.462 -104.893)" fill="none" stroke="#000" stroke-linecap="round" stroke-linejoin="round" stroke-width="1"/>
              <path id="Trazado_896168" data-name="Trazado 896168" d="M428.706,196.127c-19.857,9.381-24.317,82.9-23.986,89.817.231,4.9,4.151,13,15.772,4,6.3-4.871,18.533-12.5,32.549-77.716,1.007-4.689-10.12-22.822-24.335-16.1" transform="translate(4.265 -105.792)" fill="#a5cbee"/>
              <path id="Trazado_896169" data-name="Trazado 896169" d="M424.867,279.724c-1.311-7.959-7.548-16.492-16.255-12.187-4.41,2.18-17.489,12.292-29.322,21.741,3.122,5.607,7.766,10.056,11.543,15.468,16.753-8.4,35-19.168,34.034-25.022" transform="translate(2.935 -102.039)" fill="#eec3ae"/>
              <path id="Trazado_896170" data-name="Trazado 896170" d="M398.092,273.279s3.492,15.742,9.219,21.673l7.014-4.527-13.748-18.583Z" transform="translate(3.919 -101.754)"/>
              <path id="Trazado_896171" data-name="Trazado 896171" d="M395.524,304.2c-3.778-5.413-10-12.52-13.127-18.127a226.32,226.32,0,0,1-18.947,13.618c-4.965,0-13.824.125-15.393.136-1.892.014-10.426-.765-10.324,1.252S348.39,306.2,348.39,306.2s-.673.769-5.947,3.579c-4.723,2.514-22.733,6.012-22.536,7.814.491,4.459,13.983.274,16,.172s4.792-.745,3.33.674-17.574,6.028-18.062,6.943-.755,4.626,6.442,2.645c0,0-1.128,3.787,3.241,2.561,2.169-.609,6.272-.929,11.743-3.136,0,0-8.528,3.777-8.084,5.743s11.228-2.657,17.05-4.891c4.91-1.887,17.616-9.414,21.156-12.276,5.369-1.865,13.694-7.265,22.8-11.833" transform="translate(-0.172 -101.009)" fill="#8f7d81"/>
              <path id="Trazado_896172" data-name="Trazado 896172" d="M327.236,326.152s10.541-3.287,13.331-4.175" transform="translate(0.212 -99.131)" fill="none" stroke="#000" stroke-linecap="round" stroke-linejoin="round" stroke-width="1"/>
              <path id="Trazado_896173" data-name="Trazado 896173" d="M338.561,326.582A34.384,34.384,0,0,0,343.5,324.7" transform="translate(0.804 -98.988)" fill="none" stroke="#000" stroke-linecap="round" stroke-linejoin="round" stroke-width="1"/>
              <line id="Línea_571" data-name="Línea 571" x2="13.053" y2="16.878" transform="translate(378.399 188.205)" fill="none" stroke="#000" stroke-linecap="round" stroke-linejoin="round" stroke-width="1"/>
              <path id="Trazado_896174" data-name="Trazado 896174" d="M399.838,264.9s-4.516,1.469-4.516,5.774,15.508,31.086,26.471,26.19,13.556-11.231,13.556-11.231,24.19-42.042,22.749-55.576,7.776-21.886-13.822-40.6-33.979,18.43-34.555,27.357-9.882,48.09-9.882,48.09" transform="translate(3.774 -106.336)" fill="#fff"/>
              <path id="Trazado_896175" data-name="Trazado 896175" d="M418.086,296.335s13.486-2.461,21.637-22.955,18.729-57.209,12.145-68.584" transform="translate(4.965 -105.262)" fill="none" stroke="#000" stroke-linecap="round" stroke-linejoin="round" stroke-width="1"/>
              <path id="Trazado_896176" data-name="Trazado 896176" d="M400.453,261.168s17.932,5.471,23.348,12.67" transform="translate(4.042 -102.312)" fill="none" stroke="#000" stroke-linecap="round" stroke-linejoin="round" stroke-width="1"/>
              <path id="Trazado_896177" data-name="Trazado 896177" d="M401.516,257.49s18.573-1.584,28.8,2.159" transform="translate(4.098 -102.522)" fill="none" stroke="#000" stroke-linecap="round" stroke-linejoin="round" stroke-width="1"/>
              <path id="Trazado_896178" data-name="Trazado 896178" d="M413.518,200.393s12.24-11.581,24.047-5.657" transform="translate(4.726 -105.876)" fill="none" stroke="#000" stroke-linecap="round" stroke-linejoin="round" stroke-width="1"/>
              <path id="Trazado_896179" data-name="Trazado 896179" d="M383.2,176.254c.214.226,5.013,10.7,7.613,16.4a5.679,5.679,0,0,0,6.027,3.244c4.818-.721,12.62-2.91,18.3-9.522a5.69,5.69,0,0,0,.388-6.905L395.1,149.46Z" transform="translate(3.139 -108.157)" fill="#eec3ae"/>
              <path id="Trazado_896180" data-name="Trazado 896180" d="M370.255,128.654C343.1,138.353,361.4,179.6,361.4,179.6l4.072-1.252s7.862,17.316,8.7,17.05c11.271-3.592,19.4-12.777,19.976-14.805.3-.909.533-8.224-1.044-12.056-.474-.033,13.693-9,3.936-30.614-2.406-4.538-17.681-12.519-26.79-9.266" transform="translate(1.683 -109.285)" fill="#eec3ae"/>
              <path id="Trazado_896181" data-name="Trazado 896181" d="M354.708,146.69c12.164,2.461,7.56,2.159,15.7-1.008s5.359,5.409,5.359,5.409,6.986,10.717,7.984,8.846a34.8,34.8,0,0,0,1.967-6.248s1.979-3.955,4.732-2.429,6.224,3,5.949,8.885a22.306,22.306,0,0,0,2.746,11.022l9.215-4.159s-3.019-25.043-6.282-33.132c-16.324-40.46-59.461,10.366-47.366,12.814" transform="translate(1.539 -109.787)" fill="#324241"/>
              <path id="Trazado_896182" data-name="Trazado 896182" d="M370.192,178.446a5.482,5.482,0,0,0,4.242-3.993" transform="translate(2.459 -106.849)" fill="none" stroke="#000" stroke-linecap="round" stroke-linejoin="round" stroke-width="1"/>
              <path id="Trazado_896183" data-name="Trazado 896183" d="M368.074,163.26a1.158,1.158,0,1,1-1.393-.86,1.158,1.158,0,0,1,1.393.86" transform="translate(2.229 -107.481)"/>
              <path id="Trazado_896184" data-name="Trazado 896184" d="M370.625,157.684c-.385.6-2.55-.153-4.815.341s-3.925,2.073-4.524,1.688.643-3.484,3.976-4.207,5.75,1.581,5.364,2.178" transform="translate(1.985 -107.848)"/>
              <path id="Trazado_896185" data-name="Trazado 896185" d="M387.271,184.131l2.72-2.941s-.73,5.033-.948,6.379c-1.448-2.811-1.772-3.438-1.772-3.438" transform="translate(3.353 -106.497)" fill="#1c1e23"/>
              <path id="Trazado_896186" data-name="Trazado 896186" d="M385.371,155.522s3.487-7.076,6.852,0" transform="translate(3.253 -108.004)"/>
              <path id="Trazado_896187" data-name="Trazado 896187" d="M385.371,155.522s3.487-7.076,6.852,0" transform="translate(3.253 -108.004)" fill="none" stroke="#000" stroke-linecap="round" stroke-linejoin="round" stroke-width="1"/>
              <path id="Trazado_896188" data-name="Trazado 896188" d="M355.368,152.757s.26,4.891.735,7.553l24.23-15.165Z" transform="translate(1.683 -108.383)" fill="#1c1e23"/>
              <path id="Trazado_896189" data-name="Trazado 896189" d="M395.888,134.676l-2.714-5.252,6.594-2.873c-4.422-7.03-10.655-14.513-17.035-14.281-11.955.431-27.015,4.578-30.913,9.57S350.6,143.8,350.6,143.8c5.853,5.224,25.307,4.621,25.307,4.621l30.219-9.927s-1.09-2.538-2.944-6.032Z" transform="translate(1.387 -110.103)" fill="#f3d171"/>
              <path id="Trazado_896190" data-name="Trazado 896190" d="M334.139,153.412c3.336,4.236,11.673,8.082,32.442-1.15l10.182-5.413-25.307-4.622L336.264,146.8a4.208,4.208,0,0,0-2.125,6.612" transform="translate(0.526 -108.535)" fill="#fff"/>
              <path id="Trazado_896191" data-name="Trazado 896191" d="M369.517,114.493s9.7.577,16.684,29.186" transform="translate(2.424 -109.986)" fill="none" stroke="#000" stroke-linecap="round" stroke-linejoin="round" stroke-width="1"/>
              <path id="Trazado_896192" data-name="Trazado 896192" d="M273.342,328.822s-12.133-38.336,2.014-44.738,7.015,35.285-1.346,44.435" transform="translate(-2.862 -101.148)" fill="#72ac78"/>
              <path id="Trazado_896193" data-name="Trazado 896193" d="M274.031,342.615s-24.651-12.554-18.76-23.77,23.32,9.424,18.76,23.77" transform="translate(-3.601 -99.462)" fill="#72ac78"/>
              <path id="Trazado_896194" data-name="Trazado 896194" d="M273.281,345.914s15.881-36.746,24.5-20.279-18.742,22.374-24.5,20.279" transform="translate(-2.611 -99.161)" fill="#72ac78"/>
              <path id="Trazado_896195" data-name="Trazado 896195" d="M274.661,353.607s-35.717-4.7-28.927-16.911,28.635,11.389,28.927,16.911" transform="translate(-4.098 -98.541)" fill="#72ac78"/>
              <path id="Trazado_896196" data-name="Trazado 896196" d="M273.837,356.815s30.2-28.561,32.83-10.133c2.047,14.364-26.06,16.685-32.83,10.133" transform="translate(-2.582 -98.162)" fill="#72ac78"/>
              <path id="Trazado_896197" data-name="Trazado 896197" d="M275.064,361.169s-23.393-2.355-28.075-8.125,12.925-3.9,28.075,8.125" transform="translate(-4.027 -97.67)" fill="#72ac78"/>
              <path id="Trazado_896198" data-name="Trazado 896198" d="M278.029,395.313s-10.315-64.054-.241-103.741" transform="translate(-2.607 -100.721)" fill="none" stroke="#324241" stroke-linecap="round" stroke-linejoin="round" stroke-width="1"/>
              <path id="Trazado_896199" data-name="Trazado 896199" d="M274.015,345.077s13.966-5.46,19.438-16.625" transform="translate(-2.573 -98.792)" fill="none" stroke="#324241" stroke-linecap="round" stroke-linejoin="round" stroke-width="1"/>
              <path id="Trazado_896200" data-name="Trazado 896200" d="M259.027,319.759s13.544,12,15.128,18.719" transform="translate(-3.357 -99.247)" fill="none" stroke="#324241" stroke-linecap="round" stroke-linejoin="round" stroke-width="1"/>
              <path id="Trazado_896201" data-name="Trazado 896201" d="M274.556,357.068s19.155-2.055,25.2-9.4" transform="translate(-2.545 -97.786)" fill="none" stroke="#324241" stroke-linecap="round" stroke-linejoin="round" stroke-width="1"/>
              <line id="Línea_572" data-name="Línea 572" x2="24.505" y2="15.116" transform="translate(246.677 239.95)" fill="none" stroke="#324241" stroke-linecap="round" stroke-linejoin="round" stroke-width="1"/>
              <line id="Línea_573" data-name="Línea 573" x2="24.682" y2="8.435" transform="translate(247.253 255.065)" fill="none" stroke="#324241" stroke-linecap="round" stroke-linejoin="round" stroke-width="1"/>
              <path id="Trazado_896202" data-name="Trazado 896202" d="M300.483,425.492c0,3.289-12.126,5.955-27.085,5.955s-27.083-2.667-27.083-5.955,12.126-5.955,27.083-5.955,27.085,2.666,27.085,5.955" transform="translate(-4.022 -94.026)"/>
              <path id="Trazado_896203" data-name="Trazado 896203" d="M246.315,370.2h56.541l-5.366,45.433a15.762,15.762,0,0,1-15.652,13.913H267.333a15.762,15.762,0,0,1-15.652-13.912Z" transform="translate(-4.022 -96.608)" fill="#8b6800"/>
              <rect id="Rectángulo_401602" data-name="Rectángulo 401602" width="62.15" height="24.298" rx="7.993" transform="translate(239.488 269.383)" fill="#8b6800"/>
              <line id="Línea_574" data-name="Línea 574" x2="51.795" transform="translate(244.665 293.682)" fill="none" stroke="#000" stroke-linecap="round" stroke-linejoin="round" stroke-width="1"/>
              <path id="Trazado_896204" data-name="Trazado 896204" d="M250.392,405.75c0,10.381-45.93,18.8-102.588,18.8s-102.588-8.415-102.588-18.8,45.931-18.8,102.588-18.8,102.588,8.415,102.588,18.8" transform="translate(-14.544 -95.731)"/>
              <path id="Trazado_896205" data-name="Trazado 896205" d="M174.812,284.306c-2.809-14.131-9.156-42.986-19.041-70.214-4.625-12.764-28.773-13.525-10.83,30.943,1.683,4.175,7.64,36.3,12.066,49.412a11.31,11.31,0,0,0,.922,2.5c.689,1.677,1.327,2.752,1.884,3,.089.039.178.07.266.107a10.5,10.5,0,0,0,5.592,3.413c5.427.969,22.665-.4,45.587-1.637a110.924,110.924,0,0,1,2.535-14.6c-12.491-1.8-26.124-3.4-38.98-2.916" transform="translate(-9.669 -105.171)" fill="#eec3ae"/>
              <path id="Trazado_896206" data-name="Trazado 896206" d="M175.375,253.8l-38.752,4.6s-27.788-56.87-1.361-61.822c31.689-5.939,40.112,57.219,40.112,57.219" transform="translate(-10.429 -105.712)" fill="#a5cbee"/>
              <path id="Trazado_896207" data-name="Trazado 896207" d="M185.745,280.574l-2.7,19.343-3.958-.286Z" transform="translate(-7.539 -101.297)"/>
              <path id="Trazado_896208" data-name="Trazado 896208" d="M248.372,293.452c1.208.395,10.958,3.559,11.72,1.9.8-1.771-.495-2.57-7.012-5.582s-21.214-7.579-21.214-7.579,9.839-4.527,9.542-6.419c-.645-4.129-8.562-1.478-12.178-.254-2.551.855-16.438,5.275-16.684,5.262-14.24-.817-18.869-1.018-26.578-1.864-1.415,6.255-2.551,16.8-3.115,23.262,10.949-.592,13.677.193,29.181-2.134,0,0,33.715,7.969,37.97,7.38,5.574-.771-.727-3.787-1.071-3.924.517.1,8.49,3.743,9.654,1.386.939-1.891-4.885-4.438-6.565-4.842,1.951.375,7.642,3.1,8.631.393,1.058-2.9-11.1-6.522-12.281-6.981" transform="translate(-7.343 -101.665)" fill="#f3d171"/>
              <line id="Línea_575" data-name="Línea 575" x2="8.831" y2="3.839" transform="translate(235.848 189.21)" fill="none" stroke="#000" stroke-linecap="round" stroke-linejoin="round" stroke-width="1"/>
              <line id="Línea_576" data-name="Línea 576" x1="10.613" y1="3.988" transform="translate(234.066 194.388)" fill="none" stroke="#000" stroke-linecap="round" stroke-linejoin="round" stroke-width="1"/>
              <path id="Trazado_896209" data-name="Trazado 896209" d="M218.577,292.252s10.955,0,11.42-10.494" transform="translate(-5.474 -101.235)" fill="none" stroke="#000" stroke-linecap="round" stroke-linejoin="round" stroke-width="1"/>
              <line id="Línea_577" data-name="Línea 577" x1="8.963" y1="3.377" transform="translate(232.628 198.455)" fill="none" stroke="#000" stroke-linecap="round" stroke-linejoin="round" stroke-width="1"/>
              <line id="Línea_578" data-name="Línea 578" x1="2.215" y2="22.667" transform="translate(180.298 177.645)" fill="none" stroke="#000" stroke-linecap="round" stroke-linejoin="round" stroke-width="1"/>
              <path id="Trazado_896210" data-name="Trazado 896210" d="M138.671,360.8c-14.785-2.468-51.85.8-53.853-4.408-1.4-3.657-8.522-6.1-13.752-7.438-3.23-.824-5.74-1.225-5.74-1.225l-2.943,12.546,2.449.576-4.1,6.464-6.652,28.356S53,402.032,55.49,403.424a8.408,8.408,0,0,0,1.373.618c2.652.914,6.878.754,9.685-7.386,3.365-9.758,17.1-16.006,17.617-15.453.42.448,33.832,10.773,46.293,14.61l4.617,1.421,8.231-35.089a15.287,15.287,0,0,0-4.633-1.348" transform="translate(-14.092 -97.783)"/>
              <path id="Trazado_896211" data-name="Trazado 896211" d="M205.743,389.7s-33.038-9.508-49.245-11.3c-32.269-3.573-22.935-3.648-82.677-7.437-2.911-.185-1.124,21.358,2.039,22.2,61.617,16.482,53.89,26.414,124.385,25.788,13.662-.123,19.564-24.508,5.5-29.251" transform="translate(-13.124 -96.568)" fill="#324241"/>
              <path id="Trazado_896212" data-name="Trazado 896212" d="M43.325,379.814s-8.367,24.8-6.344,34.429c2.653.914,6.879.755,9.686-7.385,3.365-9.758,17.1-16.007,17.617-15.454.419.449,33.833,10.773,46.292,14.611L118.79,371c-14.785-2.468-51.85.8-53.854-4.408-1.4-3.657-8.522-6.1-13.751-7.437L47.9,373.139Z" transform="translate(-14.991 -97.185)" fill="#f3d171"/>
              <path id="Trazado_896213" data-name="Trazado 896213" d="M111.518,406.847l8.231-35.09a15.321,15.321,0,0,0-4.633-1.347L106.9,405.426l4.617,1.421" transform="translate(-11.317 -96.596)" fill="#324241"/>
              <path id="Trazado_896214" data-name="Trazado 896214" d="M45.58,357.989l-2.943,12.546,2.449.576-4.1,6.464-6.652,28.356s-1.077,6.365,1.409,7.757a8.417,8.417,0,0,0,1.373.618c-2.023-9.626,6.344-34.429,6.344-34.429l4.578-6.675,3.282-13.986c-3.23-.825-5.74-1.226-5.74-1.226" transform="translate(-15.126 -97.246)" fill="#324241"/>
              <path id="Trazado_896215" data-name="Trazado 896215" d="M41.64,407.943l2.013-2.818" transform="translate(-14.731 -94.78)" fill="none" stroke="#000" stroke-linecap="round" stroke-linejoin="round" stroke-width="1"/>
              <path id="Trazado_896216" data-name="Trazado 896216" d="M40.492,405.446l1.61-2.617" transform="translate(-14.791 -94.9)" fill="none" stroke="#000" stroke-linecap="round" stroke-linejoin="round" stroke-width="1"/>
              <path id="Trazado_896217" data-name="Trazado 896217" d="M64.212,386.953l6.039,3.02" transform="translate(-13.55 -95.731)" fill="none" stroke="#000" stroke-linecap="round" stroke-linejoin="round" stroke-width="1"/>
              <path id="Trazado_896218" data-name="Trazado 896218" d="M69.759,387.527l4.63,3.019" transform="translate(-13.26 -95.701)" fill="none" stroke="#000" stroke-linecap="round" stroke-linejoin="round" stroke-width="1"/>
              <path id="Trazado_896219" data-name="Trazado 896219" d="M212.894,360.825c-33.645-18.652-52-34.521-58.925-40.259-4.22-10.668-9.279-23.126-12.023-31.775-7.074-22.3-48.5-20.282-54.537.184-2.491,8.438-14.261,35.852-18.784,48.32-4.647,12.812,5.7,24.661,7.434,26.688,4.28,5.008,8.523,8.279,13.776,10.363a18.223,18.223,0,0,0,3.643,2.444c14.815,7.375,39.51,18.752,61.956,28.918,25.105,11.372,45.6,17.484,48.265,17.939,4.518.775,15.615-3.938,16.827-12.714,3.305.865,5.855.812,8.118-.372,22.656-11.863,11.5-34.627-15.75-49.736" transform="translate(-13.381 -101.702)" fill="#324241"/>
              <path id="Trazado_896220" data-name="Trazado 896220" d="M116.409,383.206s48.48,24.434,61.214,26.162" transform="translate(-10.819 -95.927)" fill="none" stroke="#000" stroke-linecap="round" stroke-linejoin="round" stroke-width="1"/>
              <path id="Trazado_896221" data-name="Trazado 896221" d="M194.2,374.141s22.339,18.567,19.811,30.95" transform="translate(-6.749 -96.401)" fill="none" stroke="#000" stroke-linecap="round" stroke-linejoin="round" stroke-width="1"/>
              <path id="Trazado_896222" data-name="Trazado 896222" d="M136.98,192.936c9.727,3.144,20.971,18.7,25.066,30.287,4.344,12.287,8.909,17.6-8.254,45.314-3.905,25.718-2.333,40.742-6.761,41.575-17.134,3.23-72.586,2.537-60.891-18.7-1.95-16.944-4.357-37.292-4.357-37.292s-4.631-38.576,1.581-49.877c4.6-8.374,17.328-12.127,30.423-13.943,4.553-.631,13.95-.357,23.194,2.634" transform="translate(-12.718 -106.034)" fill="#a5cbee"/>
              <path id="Trazado_896223" data-name="Trazado 896223" d="M159.327,323.9c1.98-1.223-4.789-6.3-4.789-6.3s-6.24-6.429,10.751-55.482c4.925-14.218,7.9-22.105-5.757-48.378l-.356.017c-1.378-5.342-5.777-16.988-19.618-21.807L135,191.62c11.947,4.16,17.967,16.339,20.272,22.323-6.988.319-20.936.942-29.3,1.208-1.669-6.174-5.94-17.795-15.217-22.37-6.185-3.051-10.515-.344-11.786.135a29.671,29.671,0,0,0-7.368,4.246c7.056-3.752,12.488-3.811,17.617-1.286,7.646,3.765,11.521,13.649,13.192,19.432a3.239,3.239,0,0,0-2.56,2.951c-4.623,69.145-21.595,63.635-33.278,72.213-2.042-6.151-6.624-17.556-12.916-18.953-1.824-.4-4.607-.163-7.516,3.277-2.126,2.516-2.989,5.13-2.571,7.786-2.03,1.846-3.305,5.242-3.874,10.271-.536,4.733.595,8.111,3.361,10.038,4.15,2.89,10.974,1.537,16.123-.186-4.718,5.771-11.185,14.544-11.288,19.388l3.456.075c.072-3.375,5.376-10.955,10.461-17.21.035.125.067.249.1.375a45.086,45.086,0,0,0-5.125,12.678l3.373.751a39.384,39.384,0,0,1,3.372-9.145c14.835,32.444,91.964,88.427,91.964,88.427a98.1,98.1,0,0,0,48.546-28.029c-8.285-6.859-17.214-13.842-64.708-46.112M68.773,277.028c2.172-2.571,3.645-2.244,4.126-2.135,4.067.9,8.3,10.171,10.611,17.334-3.719-4.52-10.205-11.28-15.734-11.28a6.4,6.4,0,0,0-.842.055,6.9,6.9,0,0,1,1.839-3.974m10.9,16.01c-4.486-2.081-9.692-5.16-11.8-8.648,3.2,0,7.95,4.233,11.8,8.648m-14.65,7.017c-1.645-1.145-2.285-3.439-1.9-6.816A18.14,18.14,0,0,1,65.01,286.3c3.428,5.447,11.78,9.389,16.361,11.226-.055.239-.109.477-.147.722-4.953,2.011-12.656,4.276-16.2,1.807" transform="translate(-13.794 -105.965)" fill="#63993f"/>
              <path id="Trazado_896224" data-name="Trazado 896224" d="M88.03,300.2s12.969,28.708,68.1,18.339" transform="translate(-12.304 -100.27)" fill="none" stroke="#000" stroke-linecap="round" stroke-linejoin="round" stroke-width="1"/>
              <path id="Trazado_896225" data-name="Trazado 896225" d="M88.03,294.16s12.238,16.654,32.705,16.862" transform="translate(-12.304 -100.586)" fill="none" stroke="#000" stroke-linecap="round" stroke-linejoin="round" stroke-width="1"/>
              <path id="Trazado_896226" data-name="Trazado 896226" d="M154.67,249.762s-11.23,22.318-24.908,32.972" transform="translate(-10.12 -102.909)" fill="none" stroke="#000" stroke-linecap="round" stroke-linejoin="round" stroke-width="1"/>
              <path id="Trazado_896227" data-name="Trazado 896227" d="M83.231,305.1A11.752,11.752,0,0,1,83.5,293.55c-1.251-2.039.024-5,1.894-6.495" transform="translate(-12.628 -100.958)" fill="none" stroke="#000" stroke-linecap="round" stroke-linejoin="round" stroke-width="1"/>
              <path id="Trazado_896228" data-name="Trazado 896228" d="M63.409,277.922a7.14,7.14,0,0,0,1.857,4.218" transform="translate(-13.592 -101.435)" fill="none" stroke="#000" stroke-linecap="round" stroke-linejoin="round" stroke-width="1"/>
              <path id="Trazado_896229" data-name="Trazado 896229" d="M66.689,276.773a6.093,6.093,0,0,0,1.423,3.014" transform="translate(-13.421 -101.496)" fill="none" stroke="#000" stroke-linecap="round" stroke-linejoin="round" stroke-width="1"/>
              <path id="Trazado_896230" data-name="Trazado 896230" d="M77.793,298.1c1.476-1.073,4.158-2.724,5.633-3.8a5.405,5.405,0,0,1-3.649-2.016" transform="translate(-12.84 -100.684)" fill="none" stroke="#000" stroke-linecap="round" stroke-linejoin="round" stroke-width="1"/>
              <path id="Trazado_896231" data-name="Trazado 896231" d="M119.493,214.24q2.316-.2,4.63-.4" transform="translate(-10.658 -104.789)" fill="none" stroke="#000" stroke-linecap="round" stroke-linejoin="round" stroke-width="1"/>
              <path id="Trazado_896232" data-name="Trazado 896232" d="M149.335,212.715l4.632-.367" transform="translate(-9.096 -104.866)" fill="none" stroke="#000" stroke-linecap="round" stroke-linejoin="round" stroke-width="1"/>
              <path id="Trazado_896233" data-name="Trazado 896233" d="M155.838,227.419a10.073,10.073,0,0,1,2.013,4.63" transform="translate(-8.756 -104.078)" fill="none" stroke="#000" stroke-linecap="round" stroke-linejoin="round" stroke-width="1"/>
              <path id="Trazado_896234" data-name="Trazado 896234" d="M154.117,230.1a13.528,13.528,0,0,1,1.207,5.435" transform="translate(-8.846 -103.938)" fill="none" stroke="#000" stroke-linecap="round" stroke-linejoin="round" stroke-width="1"/>
              <path id="Trazado_896235" data-name="Trazado 896235" d="M200.447,353.668a1.609,1.609,0,0,1-1.015-.36c-.264-.213-26.153-21.531-9.278-42.685,3.053-3.826,6.674-5.9,10.763-6.166,3.8-.251,9.966,1.032,17.715,8.525.107.1.189.184.247.237a1.62,1.62,0,0,1-1.591,2.793,2.759,2.759,0,0,1-.907-.7c-6.9-6.667-12.1-7.825-15.256-7.622-3.14.2-5.979,1.87-8.44,4.954-14.866,18.636,7.809,37.358,8.782,38.147a1.619,1.619,0,0,1-1.02,2.878" transform="translate(-7.259 -100.049)" fill="#d0e9bb"/>
              <path id="Trazado_896236" data-name="Trazado 896236" d="M291.905,342.667l-7.839-24.505-6.887,13.829-41.09,17.641c.725-1.8,1.2-3.031,1.251-3.241.221-1,12.784-21.194,12.784-21.194l-10.706-5.333-10.632-5.3-10.707-5.332s-8.548,22.189-9.215,22.97-13.784,23.2-13.784,23.2l10.707,5.332,10.632,5.3,10.707,5.333s1.021-2.449,2.415-5.809l50.767-28.114Z" transform="translate(-6.703 -99.797)" fill="#d0e9bb"/>
              <rect id="Rectángulo_401603" data-name="Rectángulo 401603" width="1.994" height="39.872" transform="translate(209.257 208.66) rotate(-63.522)" fill="#d0e9bb"/>
              <rect id="Rectángulo_401604" data-name="Rectángulo 401604" width="1.994" height="39.872" transform="translate(186.11 255.595) rotate(-63.522)" fill="#d0e9bb"/>
              <rect id="Rectángulo_401605" data-name="Rectángulo 401605" width="1.994" height="33.228" transform="translate(275.953 214.756) rotate(-17.913)" fill="#d0e9bb"/>
              <line id="Línea_579" data-name="Línea 579" x2="32.141" y2="15.717" transform="translate(211.28 209.682)" fill="none" stroke="#000" stroke-linecap="round" stroke-linejoin="round" stroke-width="1"/>
              <line id="Línea_580" data-name="Línea 580" x2="31.492" y2="15.686" transform="translate(189.141 254.877)" fill="none" stroke="#000" stroke-linecap="round" stroke-linejoin="round" stroke-width="1"/>
              <line id="Línea_581" data-name="Línea 581" x2="7.799" y2="24.124" transform="translate(277.216 218.661)" fill="none" stroke="#000" stroke-linecap="round" stroke-linejoin="round" stroke-width="1"/>
              <path id="Trazado_896237" data-name="Trazado 896237" d="M152.163,299.548c-8.164-4.01-20.3-9.665-32.5-13.037-1.832-15.734-5.981-45.151-13.854-73.431-1.263-4.55-4.879-8.287-9-9.3a8.368,8.368,0,0,0-8.315,2.442c-5.379,5.747-5.085,19.192.828,37.859.679,2.149,2.489,12.817,4.238,23.136,4.376,25.8,5.627,32.03,6.693,33.327a17.738,17.738,0,0,0,2.922,2.866,9.962,9.962,0,0,0,2.592,2.115c3.953,2.179,15.062,5.238,30.437,9.471,2.8.771,5.749,1.583,8.813,2.433l1.376.381.634-1.278a131.164,131.164,0,0,0,6-14.858l.517-1.449Z" transform="translate(-12.48 -105.329)" fill="#eec3ae"/>
              <path id="Trazado_896238" data-name="Trazado 896238" d="M119.064,250.28,81.89,253.618s-14.269-50.884,12.459-53.8c32.051-3.491,24.715,50.458,24.715,50.458" transform="translate(-12.824 -105.53)" fill="#a5cbee"/>
              <path id="Trazado_896239" data-name="Trazado 896239" d="M197.944,311.355c-5.032-4.784-4.872-5.714-8.564-5.716a81.9,81.9,0,0,0-10.926,1.791c-8.789-3.913-19.3-11.914-31.227-17.776-3.916,5.923-7.541,18.548-9.531,24.327,9.578,2.657,18.036,2.079,29.339,5.519,0,0,21.172,15.507,23.934,7.68.443.249,3.019.87,4.11-.159a2.45,2.45,0,0,0,.934-2.884,3.994,3.994,0,0,0,4.387-.267c1.845-1.639,1.323-2.357.755-3.75,2.134-1.14,1.819-3.982-3.212-8.764" transform="translate(-9.705 -100.822)" fill="#f3d171"/>
              <line id="Línea_582" data-name="Línea 582" x2="10.042" y2="9.87" transform="translate(181.41 208.223)" fill="none" stroke="#000" stroke-linecap="round" stroke-linejoin="round" stroke-width="1"/>
              <line id="Línea_583" data-name="Línea 583" x2="7.618" y2="7.242" transform="translate(177.816 215.553)" fill="none" stroke="#000" stroke-linecap="round" stroke-linejoin="round" stroke-width="1"/>
              <line id="Línea_584" data-name="Línea 584" x2="6.455" y2="5.774" transform="translate(173.073 220.583)" fill="none" stroke="#000" stroke-linecap="round" stroke-linejoin="round" stroke-width="1"/>
              <path id="Trazado_896240" data-name="Trazado 896240" d="M150.009,291.108s-7.851,20.772-8.311,23.787" transform="translate(-9.496 -100.746)" fill="none" stroke="#000" stroke-linecap="round" stroke-linejoin="round" stroke-width="1"/>
              <path id="Trazado_896241" data-name="Trazado 896241" d="M144.9,294.2l-11.25,16.05,4.923,1.356Z" transform="translate(-9.917 -100.584)"/>
              <path id="Trazado_896242" data-name="Trazado 896242" d="M112.332,247.763,91.55,256.939,90.528,251.1Z" transform="translate(-12.173 -103.013)"/>
              <path id="Trazado_896243" data-name="Trazado 896243" d="M81.7,253.606l37.174-3.338s4.5-47.134-16.172-50.376" transform="translate(-12.635 -105.518)" fill="none" stroke="#000" stroke-linecap="round" stroke-linejoin="round" stroke-width="1"/>
              <path id="Trazado_896244" data-name="Trazado 896244" d="M140.347,189.512s-24.045,2.409-31.148-2.006-9.3-2.777-13.822-3.637c-5.367-1.019-6-9.32-5.367-11.145,1.959-5.677,4.023-3.818,9.206-8.052s9.215-19.785,11.711-24.393,8.2-15.741,24.64-16.509,28.746,4.031,36.033,22.652-.393,16.2-1.352,16.262-15.934-3.883-15.934-3.883-13.919,1.393-13.966,2.09,0,28.621,0,28.621" transform="translate(-12.211 -109.505)" fill="#72ac78"/>
              <path id="Trazado_896245" data-name="Trazado 896245" d="M139.13,181.421s-3.445,17.239-3.6,18.646-17.464,4.887-22.43-6.453c.671-2.4,9.223-31.175,9.223-31.175Z" transform="translate(-10.992 -107.478)" fill="#eec3ae"/>
              <path id="Trazado_896246" data-name="Trazado 896246" d="M144.97,128.723c28.86,8.6,14.048,53.242,14.048,53.242l-4.321-1.08s-6.623,16.509-7.514,16.278c-11.951-3.119-22.919-12.859-23.633-14.939-.367-.933-1.627-6.565-.2-10.647.5-.065-14.775-8.626-5.8-31.7,2.255-4.866,17.744-14.041,27.419-11.15" transform="translate(-10.907 -109.271)" fill="#eec3ae"/>
              <path id="Trazado_896247" data-name="Trazado 896247" d="M143.652,177.814a4.319,4.319,0,0,0,3.25,4.946" transform="translate(-9.397 -106.673)" fill="none" stroke="#000" stroke-linecap="round" stroke-linejoin="round" stroke-width="1"/>
              <path id="Trazado_896248" data-name="Trazado 896248" d="M150.658,168.541a1.188,1.188,0,1,1-.234-1.664,1.19,1.19,0,0,1,.234,1.664" transform="translate(-9.139 -107.258)"/>
              <path id="Trazado_896249" data-name="Trazado 896249" d="M155.509,165.667c-.663.3-2.116-1.545-4.345-2.375s-4.535-.384-4.839-1.048,2.484-2.651,5.761-1.429,4.087,4.548,3.422,4.852" transform="translate(-9.255 -107.583)"/>
              <path id="Trazado_896250" data-name="Trazado 896250" d="M131.54,157.251s-1.157-2.383-2.888-1.909c-1.684.46-2.1,1.524-2.7,4.118" transform="translate(-10.32 -107.852)"/>
              <path id="Trazado_896251" data-name="Trazado 896251" d="M131.54,157.251s-1.157-2.383-2.888-1.909c-1.684.46-2.1,1.524-2.7,4.118" transform="translate(-10.32 -107.852)" fill="none" stroke="#000" stroke-linecap="round" stroke-linejoin="round" stroke-width="1"/>
              <path id="Trazado_896252" data-name="Trazado 896252" d="M136.271,189.993,130.6,186.45l4.87,7.669Z" transform="translate(-10.077 -106.221)"/>
              <path id="Trazado_896253" data-name="Trazado 896253" d="M162.683,137.763s10.017,16.525,5.472,17.506-13.124-1.956-17.8-2.35-8.844-.787-10.278,1.377.685,6.621-3.976,6.153c0,0-3.065-6.94-6.516-6.743s-7.36,2.545-7.36,6.743c0,5.242,4.284,8.256,4,9.811s2.647,18.66-1.067,20.934-6.5,0-8.844-1.958c-7.037-5.875-19.957-13.483-19.957-13.483l14.338-28.935,9.381-14.96s18.891-5.512,19.121-5.512,15.67,3.543,15.67,3.543Z" transform="translate(-11.868 -109.366)" fill="#72ac78"/>
              <path id="Trazado_896254" data-name="Trazado 896254" d="M115.541,187.193a7.768,7.768,0,0,1-2.513-11.908,11.26,11.26,0,0,1,1.206-11.49" transform="translate(-11.089 -107.407)" fill="none" stroke="#000" stroke-linecap="round" stroke-linejoin="round" stroke-width="1"/>
              <path id="Trazado_896255" data-name="Trazado 896255" d="M107.818,157.61a9.329,9.329,0,0,0-1.746,9.963,8.118,8.118,0,0,0-7.663,5.9,8.264,8.264,0,0,0,3.784,9.006" transform="translate(-11.774 -107.73)" fill="none" stroke="#000" stroke-linecap="round" stroke-linejoin="round" stroke-width="1"/>
              <path id="Trazado_896256" data-name="Trazado 896256" d="M105.228,151.433s28.612,6.055,40.679,6.295,27.895-2.09,27.895-2.09l-.864-4.205-66.093-3.018Z" transform="translate(-11.404 -108.212)"/>
              <path id="Trazado_896257" data-name="Trazado 896257" d="M165.71,133.89s17.388,6.772,24.12,7.916,12.284,4.247.025,8.61-39.4,7.624-65.244,3.633-36.619-.715-40.1.1c0,0-1.212-1.765,2.957-7.594S109.524,135.1,109.524,135.1s35.3,4.809,56.185-1.207" transform="translate(-12.497 -108.971)" fill="#d2984e"/>
              <path id="Trazado_896258" data-name="Trazado 896258" d="M164.458,135.129s-3.053-14.491-9.864-20.313-11.6-1.048-26.523-4.375c-10.376-2.314-18.4,13.211-19.8,25.894,0,0,37.417,8.588,56.186-1.207" transform="translate(-11.245 -110.21)" fill="#f3d171"/>
              <path id="Trazado_896259" data-name="Trazado 896259" d="M108.272,135.1s42.675,8.17,56.186-1.207" transform="translate(-11.245 -108.971)" fill="none" stroke="#000" stroke-linecap="round" stroke-linejoin="round" stroke-width="1"/>
              <path id="Trazado_896260" data-name="Trazado 896260" d="M152,119.8l1.039,3.323" transform="translate(-8.957 -109.709)" fill="none" stroke="#000" stroke-linecap="round" stroke-linejoin="round" stroke-width="1"/>
              <path id="Trazado_896261" data-name="Trazado 896261" d="M149.035,120.589q1.039,2.908,2.076,5.815" transform="translate(-9.112 -109.667)" fill="none" stroke="#000" stroke-linecap="round" stroke-linejoin="round" stroke-width="1"/>
              <path id="Trazado_896262" data-name="Trazado 896262" d="M91.014,148.58,96,145.257" transform="translate(-12.148 -108.377)" fill="none" stroke="#000" stroke-linecap="round" stroke-linejoin="round" stroke-width="1"/>
              <path id="Trazado_896263" data-name="Trazado 896263" d="M99.094,143.674a19.224,19.224,0,0,1,7.7-4.124" transform="translate(-11.725 -108.675)" fill="none" stroke="#000" stroke-linecap="round" stroke-linejoin="round" stroke-width="1"/>
              <path id="Trazado_896264" data-name="Trazado 896264" d="M483.309,434.616c0,3.027-13.389,5.479-29.9,5.479s-29.9-2.453-29.9-5.479,13.389-5.479,29.9-5.479,29.9,2.453,29.9,5.479" transform="translate(5.248 -93.524)"/>
              <path id="Trazado_896265" data-name="Trazado 896265" d="M427.034,383.083A18.86,18.86,0,0,1,435.02,369c7.985-5.884,13.239-3.783,13.239-3.783s5.229-2.582,8.4-3.152c5.885-1.055,13.239.42,17.442,7.775a41.459,41.459,0,0,1,5.043,13.239L456.664,394.43Z" transform="translate(5.433 -97.049)" fill="#d2984e"/>
              <path id="Trazado_896266" data-name="Trazado 896266" d="M442.211,367.852c0,.2-.335.355-.748.355s-.749-.159-.749-.355.336-.355.749-.355.748.159.748.355" transform="translate(6.149 -96.749)" fill="#f3d171"/>
              <path id="Trazado_896267" data-name="Trazado 896267" d="M461.169,372.337c0,.522-.723.946-1.615.946s-1.615-.424-1.615-.946.723-.946,1.615-.946,1.615.424,1.615.946" transform="translate(7.05 -96.545)" fill="#f3d171"/>
              <path id="Trazado_896268" data-name="Trazado 896268" d="M463.956,365.57c0,.217-.459.394-1.025.394s-1.024-.177-1.024-.394.459-.395,1.024-.395,1.025.176,1.025.395" transform="translate(7.258 -96.87)" fill="#f3d171"/>
              <path id="Trazado_896269" data-name="Trazado 896269" d="M465.529,367.284c0,.13-.241.236-.538.236s-.538-.105-.538-.236.24-.237.538-.237.538.105.538.237" transform="translate(7.391 -96.772)" fill="#f3d171"/>
              <path id="Trazado_896270" data-name="Trazado 896270" d="M435.03,374.477c0,.174-.371.315-.828.315s-.827-.141-.827-.315.37-.315.827-.315.828.14.828.315" transform="translate(5.765 -96.4)" fill="#f3d171"/>
              <path id="Trazado_896271" data-name="Trazado 896271" d="M424.513,376.233h58.263l-6.465,54.743a7.26,7.26,0,0,1-7.209,6.409H438.189a7.262,7.262,0,0,1-7.21-6.409Z" transform="translate(5.301 -96.292)" fill="#72ac78"/>
              <path id="Trazado_896272" data-name="Trazado 896272" d="M453.536,404.27c-31,0-32.974-26.33-32.991-26.6a1.052,1.052,0,0,1,.985-1.114,1.039,1.039,0,0,1,1.117.984c.064,1.005,1.907,24.622,30.89,24.622,29.028,0,30.476-23.6,30.523-24.606a1.032,1.032,0,0,1,1.1-1,1.053,1.053,0,0,1,1,1.1c-.013.266-1.614,26.612-32.626,26.612" transform="translate(5.094 -96.275)" fill="#d0e9bb"/>
              <rect id="Rectángulo_401606" data-name="Rectángulo 401606" width="61.624" height="2.785" transform="translate(427.636 279.941)" fill="#324241"/>
              <path id="Trazado_896273" data-name="Trazado 896273" d="M471.022,413.707q-.309,3.372-.618,6.742" transform="translate(7.702 -94.331)" fill="none" stroke="#000" stroke-linecap="round" stroke-linejoin="round" stroke-width="1"/>
              <line id="Línea_585" data-name="Línea 585" y2="5.763" transform="translate(476.245 322.316)" fill="none" stroke="#000" stroke-linecap="round" stroke-linejoin="round" stroke-width="1"/>
              <line id="Línea_586" data-name="Línea 586" x2="57.009" transform="translate(430.148 282.716)" fill="none" stroke="#000" stroke-linecap="round" stroke-linejoin="round" stroke-width="1"/>
              <path id="Trazado_896274" data-name="Trazado 896274" d="M433.872,415l2.077,8.584" transform="translate(5.791 -94.264)" fill="none" stroke="#000" stroke-linecap="round" stroke-linejoin="round" stroke-width="1"/>
              <path id="Trazado_896275" data-name="Trazado 896275" d="M434.167,407.527q1.648,8.056,4.009,15.947" transform="translate(5.806 -94.655)" fill="none" stroke="#000" stroke-linecap="round" stroke-linejoin="round" stroke-width="1"/>
              <path id="Trazado_896276" data-name="Trazado 896276" d="M442.255,373.344a3.385,3.385,0,0,1,3.972-3.039,3.332,3.332,0,0,1,1.278-2.333,2.944,2.944,0,0,1,2.4-.712" transform="translate(6.229 -96.763)" fill="none" stroke="#000" stroke-linecap="round" stroke-linejoin="round" stroke-width="1"/>
              <path id="Trazado_896277" data-name="Trazado 896277" d="M456.415,367.494a4.732,4.732,0,0,1,3.859,4.251" transform="translate(6.97 -96.749)" fill="none" stroke="#000" stroke-linecap="round" stroke-linejoin="round" stroke-width="1"/>
              <path id="Trazado_896278" data-name="Trazado 896278" d="M147.336,452.446c7.195,5.619,16.364,6.655,21.6,6.731a4.428,4.428,0,0,0,4.486-4.311c.134-5.233-.535-14.436-5.864-21.849a79.471,79.471,0,0,0-13.342-14.524,2.584,2.584,0,0,0-3.9.727l-2.6,4.623a21.03,21.03,0,0,1-8.749,8.406l-4.723,2.416a2.584,2.584,0,0,0-.882,3.87,79.453,79.453,0,0,0,13.98,13.912" transform="translate(-9.96 -94.112)" fill="#a5cbee"/>
              <line id="Línea_587" data-name="Línea 587" x1="22.391" y1="23.304" transform="translate(134.477 335.08)" fill="none" stroke="#000" stroke-linecap="round" stroke-linejoin="round" stroke-width="1"/>
              <rect id="Rectángulo_401607" data-name="Rectángulo 401607" width="3.586" height="14.896" transform="translate(118.172 320.699) rotate(-43.859)" fill="#a5cbee"/>
              <rect id="Rectángulo_401608" data-name="Rectángulo 401608" width="3.586" height="2.303" transform="translate(124.433 327.215) rotate(-43.859)"/>
              <path id="Trazado_896279" data-name="Trazado 896279" d="M142.917,434.784a14,14,0,0,0,7.065,3.659,2.872,2.872,0,0,0,3.446-3.311,14.018,14.018,0,0,0-3.375-7.206c-3.031-3.154-5.326-3.495-6.262-3.476l-3.922-4.082a1.671,1.671,0,0,0-2.364-.047l-1.688,1.622a1.671,1.671,0,0,0-.047,2.363l3.923,4.082c-.057.934.193,3.242,3.223,6.4" transform="translate(-9.83 -94.01)" fill="#e2a8be"/>
              <path id="Trazado_896280" data-name="Trazado 896280" d="M116.616,407.823c2.894,1.99,8.1,2.385,8.951,5.792.546,2.191,2.633,3.87,4.712,4.753l.8-.771,2.273-2.185.8-.77c-.8-2.113-2.393-4.264-4.561-4.9-3.371-.986-3.557-6.2-5.43-9.174s-4.377-5.836-7.77-6.74a6.43,6.43,0,0,0-4.327.3l-.129-.129a24.247,24.247,0,0,0-1.4,1.343l.124.135a6.427,6.427,0,0,0-.474,4.311c.768,3.428,3.531,6.044,6.424,8.033" transform="translate(-11.153 -95.384)" fill="#e2a8be"/>
              <path id="Trazado_896281" data-name="Trazado 896281" d="M116.177,403.841q-1.481-1.422-2.96-2.843" transform="translate(-10.986 -94.996)" fill="none" stroke="#000" stroke-linecap="round" stroke-linejoin="round" stroke-width="1"/>
              <path id="Trazado_896282" data-name="Trazado 896282" d="M116.421,402.071l-2.733-2.607" transform="translate(-10.961 -95.076)" fill="none" stroke="#000" stroke-linecap="round" stroke-linejoin="round" stroke-width="1"/>
              <path id="Trazado_896283" data-name="Trazado 896283" d="M138.972,425.327l1.818,1.893" transform="translate(-9.639 -93.723)" fill="none" stroke="#000" stroke-linecap="round" stroke-linejoin="round" stroke-width="1"/>
              <path id="Trazado_896284" data-name="Trazado 896284" d="M214.211,459.414c-5.116-5.631-10.36-11.27-16.732-15.427s-14.077-6.746-21.6-5.632-14.5,5.042-16.224,12.452a24.815,24.815,0,0,0-26.8,10.547Z" transform="translate(-9.959 -93.055)" fill="#d2984e"/>
              <path id="Trazado_896285" data-name="Trazado 896285" d="M138.836,461.585a14.967,14.967,0,0,1,20.044-10.605c1.416-4.528,5.4-8.02,9.836-9.694a15.942,15.942,0,0,1,13.69,1.274c.159-3.1,5.451-5.116,8.1-3.506" transform="translate(-9.646 -93.035)" fill="none" stroke="#f3d171" stroke-linecap="round" stroke-linejoin="round" stroke-width="1"/>
              <rect id="Rectángulo_401609" data-name="Rectángulo 401609" width="34.666" height="3.737" transform="matrix(0.594, -0.805, 0.805, 0.594, 372.051, 352.965)" fill="#a5cbee"/>
              <rect id="Rectángulo_401610" data-name="Rectángulo 401610" width="2.4" height="3.737" transform="translate(379.962 342.241) rotate(-53.601)"/>
              <path id="Trazado_896286" data-name="Trazado 896286" d="M395.526,405.752c-1.533,3.323-1.021,8.739-4.371,10.214-2.154.948-3.511,3.386-4.05,5.677l.932.688,2.645,1.95.933.688c2.029-1.193,3.958-3.21,4.227-5.548.418-3.637,5.743-4.747,8.465-7.195s5.223-5.524,5.553-9.169a6.707,6.707,0,0,0-1.071-4.391l.109-.155a4.163,4.163,0,0,0-.8-.617,4.1,4.1,0,0,0-.825-.582l-.116.15a6.7,6.7,0,0,0-4.512.274c-3.384,1.393-5.585,4.691-7.118,8.014" transform="translate(3.344 -95.195)" fill="#e2a8be"/>
              <path id="Trazado_896287" data-name="Trazado 896287" d="M398.569,404.635l2.4-3.541" transform="translate(3.944 -94.991)" fill="none" stroke="#000" stroke-linecap="round" stroke-linejoin="round" stroke-width="1"/>
              <path id="Trazado_896288" data-name="Trazado 896288" d="M400.421,404.573q1.1-1.632,2.2-3.266" transform="translate(4.041 -94.98)" fill="none" stroke="#000" stroke-linecap="round" stroke-linejoin="round" stroke-width="1"/>
              <path id="Trazado_896289" data-name="Trazado 896289" d="M352.162,447.517a29.821,29.821,0,0,0-2.383,6.261,1.434,1.434,0,0,0,2.574,1.166c.3-.442.6-.884.908-1.321,1.564-2.2,8.582-11.443,10.991-12.664s5.573-1.3,7.63.454c0,0-9.368,12.966-12.014,20.4a1.433,1.433,0,0,0,2.2,1.624c6.323-4.727,15.942-17.508,15.942-17.508,2.281,1.447,3.143,4.492,2.689,7.156s-7.208,12.1-8.85,14.242c-.326.425-.659.843-.993,1.259a1.434,1.434,0,0,0,1.875,2.114,29.854,29.854,0,0,0,5.276-4.127c3.074-3.1,10.479-14.46,10.038-18.8-.468-4.6-4.228-8.822-8.248-11.108-3.373-3.164-8.109-5.209-12.643-4.3-4.277.861-12.944,11.295-14.993,15.145" transform="translate(1.388 -93.366)" fill="#a5cbee"/>
              <path id="Trazado_896290" data-name="Trazado 896290" d="M383.624,451.211a10.293,10.293,0,0,0,.394-5.409" transform="translate(3.162 -92.652)" fill="none" stroke="#000" stroke-linecap="round" stroke-linejoin="round" stroke-width="1"/>
              <path id="Trazado_896291" data-name="Trazado 896291" d="M382.741,448.936a4.412,4.412,0,0,0-.4-3.057" transform="translate(3.094 -92.648)" fill="none" stroke="#000" stroke-linecap="round" stroke-linejoin="round" stroke-width="1"/>
              <path id="Trazado_896292" data-name="Trazado 896292" d="M372.591,442.016l-1.633-1.1" transform="translate(2.499 -92.907)" fill="none" stroke="#000" stroke-linecap="round" stroke-linejoin="round" stroke-width="1"/>
              <path id="Trazado_896293" data-name="Trazado 896293" d="M358.378,441.637a13.03,13.03,0,0,1,3.57-4.171" transform="translate(1.841 -93.088)" fill="none" stroke="#000" stroke-linecap="round" stroke-linejoin="round" stroke-width="1"/>
              <path id="Trazado_896294" data-name="Trazado 896294" d="M343.788,475.526H394.6c-4.03-5.156-8.83-10.011-14.934-12.372s-13.885-2.533-18.4,2.208A11.948,11.948,0,0,0,344.078,453.2Z" transform="translate(1.078 -92.328)" fill="#d2984e"/>
              <path id="Trazado_896295" data-name="Trazado 896295" d="M340.56,452.313a17.006,17.006,0,0,1,20.23,13.464c2.9-3.527,7.806-6.041,12.348-5.585a22.253,22.253,0,0,1,12.188,5.749,53.27,53.27,0,0,1,8.7,10.522c1.207-1.791,2.96-2.016,5.12-2.036a6.81,6.81,0,0,1,5.539,2.849" transform="translate(0.909 -92.33)" fill="none" stroke="#f3d171" stroke-linecap="round" stroke-linejoin="round" stroke-width="1"/>
            </g>
          </g>
        </g>
      </g>
    </g>
  </g>
</svg>
