<svg xmlns="http://www.w3.org/2000/svg" width="85" height="85" viewBox="0 0 85 85">
  <g id="Grupo_1115381" data-name="Grupo 1115381" transform="translate(-635.333 -542)">
    <circle id="Elipse_11732" data-name="Elipse 11732" cx="42.5" cy="42.5" r="42.5" transform="translate(635.333 542)" fill="#01b9d1"/>
    <g id="agricola" transform="translate(632.607 540.249)">
      <g id="Grupo_1115343" data-name="Grupo 1115343" transform="translate(16 43.277)">
        <path id="Trazado_902727" data-name="Trazado 902727" d="M74.451,240H16v28.252a.974.974,0,0,0,.974.974h56.5a.974.974,0,0,0,.974-.974Z" transform="translate(-16 -240)" fill="#5faa46"/>
      </g>
      <g id="Grupo_1115344" data-name="Grupo 1115344" transform="translate(16 49.122)">
        <path id="Trazado_902728" data-name="Trazado 902728" d="M73.477,311.381h-56.5a.974.974,0,0,1-.974-.974V288.974a.974.974,0,0,1,.974-.974h56.5a.974.974,0,0,1,.974.974v21.432A.974.974,0,0,1,73.477,311.381Z" transform="translate(-16 -288)" fill="#734119"/>
      </g>
      <g id="Grupo_1115361" data-name="Grupo 1115361" transform="translate(16 49.122)">
        <g id="Grupo_1115345" data-name="Grupo 1115345" transform="translate(25.329)">
          <path id="Trazado_902729" data-name="Trazado 902729" d="M226.923,288,224,311.381h7.794L228.871,288Z" transform="translate(-224 -288)" fill="#91c83c"/>
        </g>
        <g id="Grupo_1115346" data-name="Grupo 1115346" transform="translate(29.226)">
          <path id="Trazado_902730" data-name="Trazado 902730" d="M256,288v23.381h3.9L256.974,288Z" transform="translate(-256 -288)" fill="#5faa46"/>
        </g>
        <g id="Grupo_1115347" data-name="Grupo 1115347" transform="translate(31.823)">
          <path id="Trazado_902731" data-name="Trazado 902731" d="M277.333,288l9.092,23.381h7.794L279.281,288Z" transform="translate(-277.333 -288)" fill="#5faa46"/>
        </g>
        <g id="Grupo_1115348" data-name="Grupo 1115348" transform="translate(36.045)">
          <path id="Trazado_902732" data-name="Trazado 902732" d="M313.948,288H312l20.458,23.381h.974a.974.974,0,0,0,.974-.974v-4.222Z" transform="translate(-312 -288)" fill="#5faa46"/>
        </g>
        <g id="Grupo_1115349" data-name="Grupo 1115349" transform="translate(39.942)">
          <path id="Trazado_902733" data-name="Trazado 902733" d="M362.51,298.191,345.948,288H344l18.51,13.461Z" transform="translate(-344 -288)" fill="#5faa46"/>
        </g>
        <g id="Grupo_1115350" data-name="Grupo 1115350" transform="translate(43.839)">
          <path id="Trazado_902734" data-name="Trazado 902734" d="M390.613,293.96,377.948,288H376l14.613,7.794Z" transform="translate(-376 -288)" fill="#5faa46"/>
        </g>
        <g id="Grupo_1115351" data-name="Grupo 1115351" transform="translate(47.735)">
          <path id="Trazado_902735" data-name="Trazado 902735" d="M418.716,291.34,409.948,288H408l10.716,4.512Z" transform="translate(-408 -288)" fill="#5faa46"/>
        </g>
        <g id="Grupo_1115352" data-name="Grupo 1115352" transform="translate(51.632)">
          <path id="Trazado_902736" data-name="Trazado 902736" d="M446.819,289.559,441.948,288H440l6.819,2.372Z" transform="translate(-440 -288)" fill="#5faa46"/>
        </g>
        <g id="Grupo_1115353" data-name="Grupo 1115353" transform="translate(55.529)">
          <path id="Trazado_902737" data-name="Trazado 902737" d="M473.948,288H472l2.923.974A.974.974,0,0,0,473.948,288Z" transform="translate(-472 -288)" fill="#5faa46"/>
        </g>
        <g id="Grupo_1115354" data-name="Grupo 1115354" transform="translate(9.417)">
          <path id="Trazado_902738" data-name="Trazado 902738" d="M108.271,288,93.333,311.381h7.794L110.219,288Z" transform="translate(-93.333 -288)" fill="#91c83c"/>
        </g>
        <g id="Grupo_1115355" data-name="Grupo 1115355">
          <path id="Trazado_902739" data-name="Trazado 902739" d="M36.133,288,16,305.9v4.51a.974.974,0,0,0,.974.974h.649L38.082,288Z" transform="translate(-16 -288)" fill="#91c83c"/>
        </g>
        <g id="Grupo_1115356" data-name="Grupo 1115356">
          <path id="Trazado_902740" data-name="Trazado 902740" d="M16,301.225,34.185,288H32.236L16,297.992Z" transform="translate(-16 -288)" fill="#91c83c"/>
        </g>
        <g id="Grupo_1115357" data-name="Grupo 1115357">
          <path id="Trazado_902741" data-name="Trazado 902741" d="M16,295.62,30.288,288H28.34L16,293.807Z" transform="translate(-16 -288)" fill="#91c83c"/>
        </g>
        <g id="Grupo_1115358" data-name="Grupo 1115358">
          <path id="Trazado_902742" data-name="Trazado 902742" d="M16,292.375,26.391,288H24.443L16,291.216Z" transform="translate(-16 -288)" fill="#91c83c"/>
        </g>
        <g id="Grupo_1115359" data-name="Grupo 1115359">
          <path id="Trazado_902743" data-name="Trazado 902743" d="M16,290.259,22.495,288H20.546L16,289.455Z" transform="translate(-16 -288)" fill="#91c83c"/>
        </g>
        <g id="Grupo_1115360" data-name="Grupo 1115360">
          <path id="Trazado_902744" data-name="Trazado 902744" d="M16,288.974,18.6,288H16.974A.974.974,0,0,0,16,288.974Z" transform="translate(-16 -288)" fill="#91c83c"/>
        </g>
      </g>
      <g id="Grupo_1115364" data-name="Grupo 1115364" transform="translate(70.555 33.535)">
        <g id="Grupo_1115362" data-name="Grupo 1115362">
          <path id="Trazado_902745" data-name="Trazado 902745" d="M464,172.664v-4.226a7.784,7.784,0,0,1,.106-1.281l1.086-6.517a.767.767,0,0,1,1.512,0l1.086,6.517a7.788,7.788,0,0,1,.106,1.281v4.226a.974.974,0,0,1-.974.974h-1.948A.974.974,0,0,1,464,172.664Z" transform="translate(-464 -159.999)" fill="#91c83c"/>
        </g>
        <g id="Grupo_1115363" data-name="Grupo 1115363" transform="translate(1.299 13.639)">
          <path id="Trazado_902746" data-name="Trazado 902746" d="M474.667,272h1.3v1.948h-1.3Z" transform="translate(-474.667 -272)" fill="#734119"/>
        </g>
      </g>
      <g id="Grupo_1115367" data-name="Grupo 1115367" transform="translate(61.787 33.535)">
        <g id="Grupo_1115365" data-name="Grupo 1115365">
          <path id="Trazado_902747" data-name="Trazado 902747" d="M392,172.664v-4.226a7.787,7.787,0,0,1,.106-1.281l1.086-6.517a.767.767,0,0,1,1.512,0l1.086,6.517a7.782,7.782,0,0,1,.106,1.281v4.226a.974.974,0,0,1-.974.974h-1.948A.974.974,0,0,1,392,172.664Z" transform="translate(-392 -159.999)" fill="#91c83c"/>
        </g>
        <g id="Grupo_1115366" data-name="Grupo 1115366" transform="translate(1.299 13.639)">
          <path id="Trazado_902748" data-name="Trazado 902748" d="M402.667,272h1.3v1.948h-1.3Z" transform="translate(-402.667 -272)" fill="#734119"/>
        </g>
      </g>
      <g id="Grupo_1115370" data-name="Grupo 1115370" transform="translate(16 33.535)">
        <g id="Grupo_1115368" data-name="Grupo 1115368">
          <path id="Trazado_902749" data-name="Trazado 902749" d="M16,172.664v-4.226a7.789,7.789,0,0,1,.106-1.281l1.086-6.517a.767.767,0,0,1,1.512,0l1.086,6.517a7.787,7.787,0,0,1,.106,1.281v4.226a.974.974,0,0,1-.974.974H16.974A.974.974,0,0,1,16,172.664Z" transform="translate(-16 -160)" fill="#91c83c"/>
        </g>
        <g id="Grupo_1115369" data-name="Grupo 1115369" transform="translate(1.299 13.639)">
          <path id="Trazado_902750" data-name="Trazado 902750" d="M26.667,272h1.3v1.948h-1.3Z" transform="translate(-26.667 -272)" fill="#734119"/>
        </g>
      </g>
      <g id="Grupo_1115373" data-name="Grupo 1115373" transform="translate(24.768 33.535)">
        <g id="Grupo_1115371" data-name="Grupo 1115371">
          <path id="Trazado_902751" data-name="Trazado 902751" d="M88,172.664v-4.226a7.789,7.789,0,0,1,.106-1.281l1.086-6.517a.767.767,0,0,1,1.512,0l1.086,6.517a7.787,7.787,0,0,1,.106,1.281v4.226a.974.974,0,0,1-.974.974H88.974A.974.974,0,0,1,88,172.664Z" transform="translate(-88 -159.999)" fill="#91c83c"/>
        </g>
        <g id="Grupo_1115372" data-name="Grupo 1115372" transform="translate(1.299 13.639)">
          <path id="Trazado_902752" data-name="Trazado 902752" d="M98.667,272h1.3v1.948h-1.3Z" transform="translate(-98.667 -272)" fill="#734119"/>
        </g>
      </g>
      <g id="Grupo_1115380" data-name="Grupo 1115380" transform="translate(28.664 16)">
        <g id="Grupo_1115379" data-name="Grupo 1115379">
          <g id="Grupo_1115374" data-name="Grupo 1115374" transform="translate(4.871 4.871)">
            <path id="Trazado_902753" data-name="Trazado 902753" d="M182.112,63.794a1.269,1.269,0,0,1-1.185-.818q-.082-.216-.177-.425a1.27,1.27,0,0,1,.257-1.422h0a1.269,1.269,0,0,0,0-1.795l-.961-.961a1.265,1.265,0,0,0-.9-.372h-3.329a1.264,1.264,0,0,1-.234-.732A1.269,1.269,0,0,0,174.319,56h-5.255a1.269,1.269,0,0,0-1.269,1.269,1.265,1.265,0,0,1-.234.732h-3.329a1.265,1.265,0,0,0-.9.372l-.961.961a1.269,1.269,0,0,0,0,1.795h0a1.27,1.27,0,0,1,.257,1.422q-.094.209-.177.425a1.269,1.269,0,0,1-1.185.818A1.269,1.269,0,0,0,160,65.063v1.359a1.269,1.269,0,0,0,1.269,1.269,1.269,1.269,0,0,1,1.185.818q.082.216.177.425a1.27,1.27,0,0,1-.257,1.422h0a1.269,1.269,0,0,0,0,1.795l.961.961a1.265,1.265,0,0,0,.9.372h3.329a1.265,1.265,0,0,1,.234.732,1.269,1.269,0,0,0,1.269,1.269h5.255a1.269,1.269,0,0,0,1.269-1.269,1.265,1.265,0,0,1,.234-.732h3.329a1.265,1.265,0,0,0,.9-.372l.961-.961a1.269,1.269,0,0,0,0-1.795h0a1.27,1.27,0,0,1-.257-1.422q.094-.209.177-.425a1.269,1.269,0,0,1,1.185-.818,1.269,1.269,0,0,0,1.269-1.269V65.063A1.269,1.269,0,0,0,182.112,63.794Z" transform="translate(-160.001 -56)" fill="#faa019"/>
          </g>
          <g id="Grupo_1115376" data-name="Grupo 1115376" transform="translate(4.871 4.871)">
            <g id="Grupo_1115375" data-name="Grupo 1115375">
              <path id="Trazado_902754" data-name="Trazado 902754" d="M179.484,66.421V65.063a1.269,1.269,0,0,0-1.269-1.269,1.269,1.269,0,0,1-1.185-.818q-.082-.216-.177-.425a1.27,1.27,0,0,1,.257-1.422h0a1.269,1.269,0,0,0,0-1.795l-.961-.961a1.269,1.269,0,0,0-1.795,0h0a1.27,1.27,0,0,1-1.422.257q-.209-.094-.425-.177a1.269,1.269,0,0,1-.818-1.185A1.269,1.269,0,0,0,170.421,56h-1.359a1.269,1.269,0,0,0-1.269,1.269,1.269,1.269,0,0,1-.818,1.185q-.216.082-.425.177a1.27,1.27,0,0,1-1.422-.257h0a1.269,1.269,0,0,0-1.795,0l-.961.961a1.269,1.269,0,0,0,0,1.795h0a1.27,1.27,0,0,1,.257,1.422q-.094.209-.177.425a1.269,1.269,0,0,1-1.185.818A1.269,1.269,0,0,0,160,65.063v1.359a1.269,1.269,0,0,0,1.269,1.269,1.269,1.269,0,0,1,1.185.818q.082.216.177.425a1.27,1.27,0,0,1-.257,1.422h0a1.269,1.269,0,0,0,0,1.795l.961.961a1.269,1.269,0,0,0,1.795,0h0a1.27,1.27,0,0,1,1.422-.257q.209.094.425.177a1.269,1.269,0,0,1,.818,1.185,1.269,1.269,0,0,0,1.269,1.269h1.359a1.269,1.269,0,0,0,1.269-1.269,1.269,1.269,0,0,1,.818-1.185q.216-.082.425-.177a1.27,1.27,0,0,1,1.422.257h0a1.269,1.269,0,0,0,1.795,0l.961-.961a1.269,1.269,0,0,0,0-1.795h0a1.27,1.27,0,0,1-.257-1.422q.094-.209.177-.425a1.269,1.269,0,0,1,1.185-.818A1.269,1.269,0,0,0,179.484,66.421Z" transform="translate(-160 -56)" fill="#ffcd05"/>
            </g>
          </g>
          <g id="Grupo_1115377" data-name="Grupo 1115377">
            <path id="Trazado_902755" data-name="Trazado 902755" d="M145.516,116.852A12.664,12.664,0,0,1,123.9,107.9h1.243a.706.706,0,0,0,.528-1.175l-2.2-2.479a.723.723,0,0,0-1.081,0l-2.2,2.479a.706.706,0,0,0,.528,1.175h1.243a14.613,14.613,0,0,0,24.946,10.333.974.974,0,0,0-1.378-1.378Z" transform="translate(-120 -93.284)" fill="#2387c3"/>
            <path id="Trazado_902756" data-name="Trazado 902756" d="M195.277,30.613h-1.243A14.613,14.613,0,0,0,169.089,20.28a.974.974,0,0,0,1.378,1.378,12.665,12.665,0,0,1,21.62,8.955h-1.243a.706.706,0,0,0-.528,1.175l2.2,2.479a.723.723,0,0,0,1.081,0l2.2-2.479a.706.706,0,0,0-.528-1.175Z" transform="translate(-162.86 -16)" fill="#2387c3"/>
          </g>
          <g id="Grupo_1115378" data-name="Grupo 1115378" transform="translate(8.93 8.627)">
            <circle id="Elipse_11733" data-name="Elipse 11733" cx="5.996" cy="5.996" r="5.996" transform="translate(0 0)" fill="#555a6e"/>
          </g>
        </g>
        <path id="Trazado_902757" data-name="Trazado 902757" d="M222.346,107.061l-4.871-2.923a.974.974,0,0,0-1.475.835v5.845a.974.974,0,0,0,1.475.835l4.871-2.923a.974.974,0,0,0,0-1.671Z" transform="translate(-204.31 -93.284)" fill="#5ad7ff"/>
      </g>
    </g>
  </g>
</svg>
