<svg xmlns="http://www.w3.org/2000/svg" width="144" height="138" viewBox="0 0 144 138">
  <g id="Grupo_1106236" data-name="Grupo 1106236" transform="translate(-239.051 -4675)">
    <rect id="Rectángulo_401557" data-name="Rectángulo 401557" width="144" height="138" rx="12" transform="translate(239.051 4675)" fill="#01b9d1"/>
    <g id="voltaje" transform="translate(260.051 4697.5)">
      <path id="Trazado_896297" data-name="Trazado 896297" d="M48.86,12.854,8.907,82.054A9.5,9.5,0,0,0,17.137,96.31H97.043a9.5,9.5,0,0,0,8.231-14.256l-39.953-69.2A9.5,9.5,0,0,0,48.86,12.854Zm0,0" transform="translate(-6.102 -6.088)" fill="#65687f"/>
      <path id="Trazado_896298" data-name="Trazado 896298" d="M49.613,120.707a1.427,1.427,0,0,1-1.236-2.14l39.953-69.2a1.426,1.426,0,0,1,2.472,0l39.953,69.2a1.427,1.427,0,0,1-1.236,2.14Zm0,0" transform="translate(-38.578 -38.562)" fill="#ffe37d"/>
      <path id="Trazado_896299" data-name="Trazado 896299" d="M208.684,130.895l-17.766,25.339h10.821l-3.711,25.406,18.936-25.406h-10.11Zm0,0" transform="translate(-152.892 -104.423)" fill="#65687f"/>
      <path id="Trazado_896300" data-name="Trazado 896300" d="M100.484,75.21,71.366,24.776a1.514,1.514,0,0,0-2.623,1.514L97.86,76.725a7.99,7.99,0,0,1-6.919,11.984H11.034A7.991,7.991,0,0,1,4.115,76.724L44.07,7.523a7.906,7.906,0,0,1,6.917-3.994h0a7.911,7.911,0,0,1,6.92,4l7.806,13.521a1.514,1.514,0,1,0,2.623-1.515L60.531,6.009A10.908,10.908,0,0,0,50.989.5h0a10.9,10.9,0,0,0-9.539,5.509L1.493,75.21a11.019,11.019,0,0,0,9.542,16.528H90.941a11.019,11.019,0,0,0,9.543-16.528Zm0,0"/>
      <path id="Trazado_896301" data-name="Trazado 896301" d="M55.253,114.62a1.515,1.515,0,0,0,1.515,1.515h66.653a2.942,2.942,0,0,0,2.547-4.412l-39.953-69.2a2.941,2.941,0,0,0-5.095,0l-39.953,69.2a2.941,2.941,0,0,0,2.547,4.412H50.71a1.514,1.514,0,1,0,0-3.029H43.667l39.8-68.939,39.8,68.939h-66.5A1.514,1.514,0,0,0,55.253,114.62Zm0,0" transform="translate(-32.48 -32.474)"/>
      <path id="Trazado_896302" data-name="Trazado 896302" d="M203.1,123.377a1.514,1.514,0,0,0-1.747.557l-17.766,25.339a1.514,1.514,0,0,0,1.239,2.384H193.9l-3.458,23.672a1.514,1.514,0,0,0,2.712,1.124l18.937-25.406a1.515,1.515,0,0,0-1.214-2.42h-8.483l1.713-23.715A1.514,1.514,0,0,0,203.1,123.377Zm4.755,28.28L194.3,169.842l2.846-19.481a1.515,1.515,0,0,0-1.5-1.733h-7.909l12.95-18.469-1.436,19.875a1.514,1.514,0,0,0,1.511,1.623Zm0,0" transform="translate(-146.806 -98.333)"/>
    </g>
  </g>
</svg>
