<svg xmlns="http://www.w3.org/2000/svg" width="75.949" height="75.949" viewBox="0 0 75.949 75.949">
  <g id="Grupo_1106329" data-name="Grupo 1106329" transform="translate(-228.051 -1461)">
    <g id="Grupo_1106244" data-name="Grupo 1106244" transform="translate(0 -3575)">
      <g id="Grupo_1106147" data-name="Grupo 1106147" transform="translate(228.051 5036)">
        <g id="Grupo_1103990" data-name="Grupo 1103990" transform="translate(0 0)">
          <g id="Trazado_874102" data-name="Trazado 874102" transform="translate(0)" fill="#f3d02c">
            <path d="M 37.9746208190918 73.44922637939453 C 33.18447875976562 73.44922637939453 28.53894996643066 72.51162719726562 24.16706848144531 70.66248321533203 C 19.94307899475098 68.87588500976562 16.14902114868164 66.31768035888672 12.89029121398926 63.05895614624023 C 9.631549835205078 59.80021286010742 7.073350429534912 56.00615310668945 5.286750316619873 51.78216552734375 C 3.437608957290649 47.41028213500977 2.500009059906006 42.76475524902344 2.500009059906006 37.97461318969727 C 2.500009059906006 33.18447113037109 3.437608957290649 28.53894233703613 5.286750316619873 24.16706085205078 C 7.073350429534912 19.94307136535645 9.631549835205078 16.14901351928711 12.89029121398926 12.89027214050293 C 16.14902114868164 9.631542205810547 19.94307899475098 7.073342800140381 24.16706848144531 5.286742687225342 C 28.53894996643066 3.437601327896118 33.18447875976562 2.500001430511475 37.9746208190918 2.500001430511475 C 42.76476287841797 2.500001430511475 47.4102897644043 3.437601327896118 51.78217315673828 5.286742687225342 C 56.00616073608398 7.073342800140381 59.80022048950195 9.631542205810547 63.05896377563477 12.89027214050293 C 66.31768798828125 16.14901351928711 68.87589263916016 19.94307136535645 70.66249084472656 24.16706085205078 C 72.51163482666016 28.53894233703613 73.44923400878906 33.18447113037109 73.44923400878906 37.97461318969727 C 73.44923400878906 42.76475524902344 72.51163482666016 47.41028213500977 70.66249084472656 51.78216552734375 C 68.87589263916016 56.00615310668945 66.31768798828125 59.80021286010742 63.05896377563477 63.05895614624023 C 59.80022048950195 66.31768035888672 56.00616073608398 68.87588500976562 51.78217315673828 70.66248321533203 C 47.4102897644043 72.51162719726562 42.76476287841797 73.44922637939453 37.9746208190918 73.44922637939453 Z" stroke="none"/>
            <path d="M 37.9746208190918 5 C 33.52087783813477 5 29.20300674438477 5.87115478515625 25.14094924926758 7.589256286621094 C 21.21495056152344 9.24981689453125 17.68799209594727 11.62809753417969 14.65805053710938 14.65804290771484 C 11.62810516357422 17.68798446655273 9.249824523925781 21.21494293212891 7.589263916015625 25.14094161987305 C 5.871162414550781 29.20299911499023 5.000007629394531 33.52087020874023 5.000007629394531 37.97461318969727 C 5.000007629394531 42.4283561706543 5.871162414550781 46.7462272644043 7.589263916015625 50.80828475952148 C 9.249824523925781 54.73426818847656 11.62810516357422 58.26122665405273 14.65805053710938 61.29118347167969 C 17.68800735473633 64.32112884521484 21.21496200561523 66.69941711425781 25.14094924926758 68.35997009277344 C 29.20300674438477 70.07807159423828 33.52087783813477 70.94922637939453 37.9746208190918 70.94922637939453 C 42.42836380004883 70.94922637939453 46.74623489379883 70.07807159423828 50.80829238891602 68.35997009277344 C 54.73429107666016 66.69941711425781 58.26124954223633 64.32112884521484 61.29119110107422 61.29118347167969 C 64.32113647460938 58.2612419128418 66.69941711425781 54.73428344726562 68.35997772216797 50.80828475952148 C 70.07807922363281 46.7462272644043 70.94923400878906 42.4283561706543 70.94923400878906 37.97461318969727 C 70.94923400878906 33.52087020874023 70.07807922363281 29.20299911499023 68.35997772216797 25.14094161987305 C 66.69941711425781 21.21494293212891 64.32113647460938 17.68798446655273 61.29119110107422 14.65804290771484 C 58.26124954223633 11.62809753417969 54.73429107666016 9.24981689453125 50.80829238891602 7.589256286621094 C 46.74623489379883 5.87115478515625 42.42836380004883 5 37.9746208190918 5 M 37.9746208190918 0 C 58.94741821289062 0 75.94923400878906 17.00181198120117 75.94923400878906 37.97461318969727 C 75.94923400878906 58.9473991394043 58.94741821289062 75.94922637939453 37.9746208190918 75.94922637939453 C 17.00183486938477 75.94922637939453 7.62939453125e-06 58.9473991394043 7.62939453125e-06 37.97461318969727 C 7.62939453125e-06 17.00181198120117 17.00183486938477 0 37.9746208190918 0 Z" stroke="none" fill="#3c6d9d"/>
          </g>
        </g>
      </g>
    </g>
    <g id="codigo-binario" transform="translate(244.041 1477)">
      <g id="Grupo_1106280" data-name="Grupo 1106280" transform="translate(23.975 33.796)">
        <g id="Grupo_1106279" data-name="Grupo 1106279">
          <path id="Trazado_896931" data-name="Trazado 896931" d="M283.964,398.6a.848.848,0,0,0-1.2,0l-.035.034a.848.848,0,1,0,1.194,1.206l.039-.039A.848.848,0,0,0,283.964,398.6Z" transform="translate(-282.478 -398.347)"/>
        </g>
      </g>
      <g id="Grupo_1106282" data-name="Grupo 1106282" transform="translate(0.01 16.422)">
        <g id="Grupo_1106281" data-name="Grupo 1106281" transform="translate(0)">
          <path id="Trazado_896932" data-name="Trazado 896932" d="M28.443,202.257a11.03,11.03,0,1,0-20.263,7.971L.26,218.149a.848.848,0,1,0,1.2,1.2l5.281-5.281,1.44,1.44L4.558,219.13a.848.848,0,1,0,1.2,1.2l6.264-6.264a11,11,0,0,0,9.854.715.848.848,0,0,0-.647-1.568,9.332,9.332,0,1,1,5.222-5.478.848.848,0,1,0,1.6.571A11.052,11.052,0,0,0,28.443,202.257ZM9.177,211.632q.325.389.687.753t.753.687L9.38,214.308l-1.44-1.44Z" transform="translate(-0.011 -193.563)"/>
        </g>
      </g>
      <g id="Grupo_1106284" data-name="Grupo 1106284" transform="translate(9.686 26.545)">
        <g id="Grupo_1106283" data-name="Grupo 1106283">
          <path id="Trazado_896933" data-name="Trazado 896933" d="M114.918,312.889h-.006a.849.849,0,0,0-.848.842v.058a.848.848,0,1,0,1.7,0v-.045A.848.848,0,0,0,114.918,312.889Z" transform="translate(-114.063 -312.889)"/>
        </g>
      </g>
      <g id="Grupo_1106286" data-name="Grupo 1106286" transform="translate(10.56 19.471)">
        <g id="Grupo_1106285" data-name="Grupo 1106285">
          <path id="Trazado_896934" data-name="Trazado 896934" d="M131.459,229.5a7.979,7.979,0,0,0-7,4.145.848.848,0,1,0,1.488.816,6.278,6.278,0,1,1,.008,6.042.848.848,0,0,0-1.486.82,7.975,7.975,0,1,0,6.986-11.823Z" transform="translate(-124.358 -229.5)"/>
        </g>
      </g>
      <g id="Grupo_1106288" data-name="Grupo 1106288" transform="translate(0.01)">
        <g id="Grupo_1106287" data-name="Grupo 1106287" transform="translate(0)">
          <path id="Trazado_896935" data-name="Trazado 896935" d="M.858,0A.848.848,0,0,0,.01.848V8.314a.848.848,0,0,0,1.7,0V.848A.848.848,0,0,0,.858,0Z" transform="translate(-0.01)"/>
        </g>
      </g>
      <g id="Grupo_1106290" data-name="Grupo 1106290" transform="translate(3.403)">
        <g id="Grupo_1106289" data-name="Grupo 1106289">
          <path id="Trazado_896936" data-name="Trazado 896936" d="M43.027,0a3.022,3.022,0,0,0-3.019,3.019V6.144a3.019,3.019,0,0,0,6.037,0V3.019A3.022,3.022,0,0,0,43.027,0Zm1.322,6.144a1.322,1.322,0,0,1-2.644,0V3.019a1.322,1.322,0,1,1,2.644,0Z" transform="translate(-40.008)"/>
        </g>
      </g>
      <g id="Grupo_1106292" data-name="Grupo 1106292" transform="translate(11.137)">
        <g id="Grupo_1106291" data-name="Grupo 1106291">
          <path id="Trazado_896937" data-name="Trazado 896937" d="M132.015,0a.848.848,0,0,0-.848.848V8.314a.848.848,0,1,0,1.7,0V.848A.848.848,0,0,0,132.015,0Z" transform="translate(-131.167)"/>
        </g>
      </g>
      <g id="Grupo_1106294" data-name="Grupo 1106294" transform="translate(14.531)">
        <g id="Grupo_1106293" data-name="Grupo 1106293">
          <path id="Trazado_896938" data-name="Trazado 896938" d="M174.184,0a3.022,3.022,0,0,0-3.019,3.019V6.144a3.019,3.019,0,0,0,6.037,0V3.019A3.022,3.022,0,0,0,174.184,0Zm1.322,6.144a1.322,1.322,0,0,1-2.644,0V3.019a1.322,1.322,0,0,1,2.644,0Z" transform="translate(-171.165)"/>
        </g>
      </g>
      <g id="Grupo_1106296" data-name="Grupo 1106296" transform="translate(22.265)">
        <g id="Grupo_1106295" data-name="Grupo 1106295">
          <path id="Trazado_896939" data-name="Trazado 896939" d="M263.173,0a.848.848,0,0,0-.848.848V8.314a.848.848,0,0,0,1.7,0V.848A.848.848,0,0,0,263.173,0Z" transform="translate(-262.325)"/>
        </g>
      </g>
      <g id="Grupo_1106298" data-name="Grupo 1106298" transform="translate(41.75)">
        <g id="Grupo_1106297" data-name="Grupo 1106297">
          <path id="Trazado_896940" data-name="Trazado 896940" d="M492.838,0a.848.848,0,0,0-.848.848V8.314a.848.848,0,1,0,1.7,0V.848A.848.848,0,0,0,492.838,0Z" transform="translate(-491.99)"/>
        </g>
      </g>
      <g id="Grupo_1106300" data-name="Grupo 1106300" transform="translate(25.658)">
        <g id="Grupo_1106299" data-name="Grupo 1106299">
          <path id="Trazado_896941" data-name="Trazado 896941" d="M305.343,0a3.022,3.022,0,0,0-3.019,3.019V6.144a3.019,3.019,0,1,0,6.037,0V3.019A3.022,3.022,0,0,0,305.343,0Zm1.322,6.144a1.322,1.322,0,0,1-2.644,0V3.019a1.322,1.322,0,1,1,2.644,0Z" transform="translate(-302.324)"/>
        </g>
      </g>
      <g id="Grupo_1106302" data-name="Grupo 1106302" transform="translate(33.392)">
        <g id="Grupo_1106301" data-name="Grupo 1106301">
          <path id="Trazado_896942" data-name="Trazado 896942" d="M396.5,0a3.022,3.022,0,0,0-3.019,3.019V6.144a3.019,3.019,0,0,0,6.037,0V3.019A3.022,3.022,0,0,0,396.5,0Zm1.322,6.144a1.322,1.322,0,0,1-2.644,0V3.019a1.322,1.322,0,1,1,2.644,0Z" transform="translate(-393.482)"/>
        </g>
      </g>
      <g id="Grupo_1106304" data-name="Grupo 1106304" transform="translate(7.744 11.524)">
        <g id="Grupo_1106303" data-name="Grupo 1106303">
          <path id="Trazado_896943" data-name="Trazado 896943" d="M92.017,135.838a.848.848,0,0,0-.848.848v5.444a.848.848,0,0,0,1.7,0v-5.444A.848.848,0,0,0,92.017,135.838Z" transform="translate(-91.169 -135.838)"/>
        </g>
      </g>
      <g id="Grupo_1106306" data-name="Grupo 1106306" transform="translate(0.01 11.524)">
        <g id="Grupo_1106305" data-name="Grupo 1106305" transform="translate(0)">
          <path id="Trazado_896944" data-name="Trazado 896944" d="M3.029,135.838A3.022,3.022,0,0,0,.01,138.857v3.125a3.019,3.019,0,1,0,6.037,0v-3.125A3.022,3.022,0,0,0,3.029,135.838Zm1.322,6.144a1.322,1.322,0,1,1-2.644,0v-3.125a1.322,1.322,0,0,1,2.644,0Z" transform="translate(-0.01 -135.838)"/>
        </g>
      </g>
      <g id="Grupo_1106308" data-name="Grupo 1106308" transform="translate(11.137 11.524)">
        <g id="Grupo_1106307" data-name="Grupo 1106307">
          <path id="Trazado_896945" data-name="Trazado 896945" d="M132.015,135.838a.848.848,0,0,0-.848.848v2.644a.848.848,0,1,0,1.7,0v-2.644A.848.848,0,0,0,132.015,135.838Z" transform="translate(-131.167 -135.838)"/>
        </g>
      </g>
      <g id="Grupo_1106310" data-name="Grupo 1106310" transform="translate(14.531 11.524)">
        <g id="Grupo_1106309" data-name="Grupo 1106309">
          <path id="Trazado_896946" data-name="Trazado 896946" d="M174.185,135.838a3.022,3.022,0,0,0-3.019,3.019v.474a.848.848,0,1,0,1.7,0v-.474a1.322,1.322,0,0,1,2.644,0v.474a.848.848,0,1,0,1.7,0v-.474A3.022,3.022,0,0,0,174.185,135.838Z" transform="translate(-171.166 -135.838)"/>
        </g>
      </g>
      <g id="Grupo_1106312" data-name="Grupo 1106312" transform="translate(22.265 11.524)">
        <g id="Grupo_1106311" data-name="Grupo 1106311">
          <path id="Trazado_896947" data-name="Trazado 896947" d="M263.173,135.838a.848.848,0,0,0-.848.848v2.644a.848.848,0,1,0,1.7,0v-2.644A.848.848,0,0,0,263.173,135.838Z" transform="translate(-262.325 -135.838)"/>
        </g>
      </g>
      <g id="Grupo_1106314" data-name="Grupo 1106314" transform="translate(25.658 11.524)">
        <g id="Grupo_1106313" data-name="Grupo 1106313">
          <path id="Trazado_896948" data-name="Trazado 896948" d="M303.172,135.838a.848.848,0,0,0-.848.848v5.444a.848.848,0,1,0,1.7,0v-5.444A.848.848,0,0,0,303.172,135.838Z" transform="translate(-302.324 -135.838)"/>
        </g>
      </g>
      <g id="Grupo_1106316" data-name="Grupo 1106316" transform="translate(37.409 11.524)">
        <g id="Grupo_1106315" data-name="Grupo 1106315">
          <path id="Trazado_896949" data-name="Trazado 896949" d="M443.848,135.838a3.022,3.022,0,0,0-3.019,3.019v3.125a3.019,3.019,0,1,0,6.037,0v-3.125A3.022,3.022,0,0,0,443.848,135.838Zm1.322,6.144a1.322,1.322,0,1,1-2.644,0v-3.125a1.322,1.322,0,0,1,2.644,0Z" transform="translate(-440.829 -135.838)"/>
        </g>
      </g>
      <g id="Grupo_1106318" data-name="Grupo 1106318" transform="translate(29.675 11.524)">
        <g id="Grupo_1106317" data-name="Grupo 1106317">
          <path id="Trazado_896950" data-name="Trazado 896950" d="M352.688,135.838a3.022,3.022,0,0,0-3.019,3.019v3.125a3.019,3.019,0,0,0,6.037,0v-3.125A3.022,3.022,0,0,0,352.688,135.838Zm1.322,6.144a1.322,1.322,0,1,1-2.644,0v-3.125a1.322,1.322,0,0,1,2.644,0Z" transform="translate(-349.669 -135.838)"/>
        </g>
      </g>
      <g id="Grupo_1106320" data-name="Grupo 1106320" transform="translate(14.696 23.048)">
        <g id="Grupo_1106319" data-name="Grupo 1106319">
          <path id="Trazado_896951" data-name="Trazado 896951" d="M173.966,271.661a.848.848,0,0,0-.848.848v7.466a.848.848,0,1,0,1.7,0v-7.466A.849.849,0,0,0,173.966,271.661Z" transform="translate(-173.118 -271.661)"/>
        </g>
      </g>
      <g id="Grupo_1106322" data-name="Grupo 1106322" transform="translate(17.324 23.048)">
        <g id="Grupo_1106321" data-name="Grupo 1106321">
          <path id="Trazado_896952" data-name="Trazado 896952" d="M207.113,279.127a1.323,1.323,0,0,1-1.322-1.322V274.68a1.323,1.323,0,0,1,1.322-1.322.848.848,0,1,0,0-1.7,3.022,3.022,0,0,0-3.019,3.019V277.8a3.022,3.022,0,0,0,3.019,3.019.848.848,0,0,0,0-1.7Z" transform="translate(-204.094 -271.661)"/>
        </g>
      </g>
      <g id="Grupo_1106324" data-name="Grupo 1106324" transform="translate(29.999 23.048)">
        <g id="Grupo_1106323" data-name="Grupo 1106323">
          <path id="Trazado_896953" data-name="Trazado 896953" d="M354.332,271.661a.848.848,0,0,0-.848.848v7.466a.848.848,0,1,0,1.7,0v-7.466A.849.849,0,0,0,354.332,271.661Z" transform="translate(-353.484 -271.661)"/>
        </g>
      </g>
      <g id="Grupo_1106326" data-name="Grupo 1106326" transform="translate(41.75 23.048)">
        <g id="Grupo_1106325" data-name="Grupo 1106325">
          <path id="Trazado_896954" data-name="Trazado 896954" d="M492.838,271.661a.848.848,0,0,0-.848.848v7.466a.848.848,0,1,0,1.7,0v-7.466A.848.848,0,0,0,492.838,271.661Z" transform="translate(-491.99 -271.661)"/>
        </g>
      </g>
      <g id="Grupo_1106328" data-name="Grupo 1106328" transform="translate(33.392 23.048)">
        <g id="Grupo_1106327" data-name="Grupo 1106327">
          <path id="Trazado_896955" data-name="Trazado 896955" d="M396.5,271.661a3.022,3.022,0,0,0-3.019,3.019V277.8a3.019,3.019,0,0,0,6.037,0V274.68A3.022,3.022,0,0,0,396.5,271.661Zm1.322,6.144a1.322,1.322,0,0,1-2.644,0V274.68a1.322,1.322,0,0,1,2.644,0Z" transform="translate(-393.482 -271.661)"/>
        </g>
      </g>
    </g>
  </g>
</svg>
