<svg xmlns="http://www.w3.org/2000/svg" width="144" height="138" viewBox="0 0 144 138">
  <g id="Grupo_1115280" data-name="Grupo 1115280" transform="translate(-4192 6309)">
    <rect id="Rectángulo_401557" data-name="Rectángulo 401557" width="144" height="138" rx="12" transform="translate(4192 -6309)" fill="#78b62e"/>
    <g id="ingenieria" transform="translate(4216 -6289)">
      <g id="Grupo_1115278" data-name="Grupo 1115278" transform="translate(2.524 2.524)">
        <g id="Grupo_1115259" data-name="Grupo 1115259" transform="translate(0 12.194)">
          <circle id="Elipse_11714" data-name="Elipse 11714" cx="3" cy="3" r="3" transform="translate(0.476 0.282)" fill="#fcd770"/>
        </g>
        <g id="Grupo_1115260" data-name="Grupo 1115260" transform="translate(48.774 6.097)">
          <circle id="Elipse_11715" data-name="Elipse 11715" cx="3" cy="3" r="3" transform="translate(-0.298 0.379)" fill="#fcd770"/>
        </g>
        <g id="Grupo_1115261" data-name="Grupo 1115261" transform="translate(21.339 0)">
          <circle id="Elipse_11716" data-name="Elipse 11716" cx="3" cy="3" r="3" transform="translate(0.137 0.476)" fill="#fcd770"/>
        </g>
        <g id="Grupo_1115262" data-name="Grupo 1115262" transform="translate(0 44.202)">
          <path id="Trazado_902555" data-name="Trazado 902555" d="M50.774,41.669h-38.1a.869.869,0,0,1-.2-.015A10.637,10.637,0,0,1,2,31V67.581A10.662,10.662,0,0,0,12.669,78.25H53.823V41.669Z" transform="translate(-2 -31)" fill="#e6e9ed"/>
        </g>
        <g id="Grupo_1115263" data-name="Grupo 1115263" transform="translate(24.387 76.21)">
          <path id="Trazado_902556" data-name="Trazado 902556" d="M18,67.242V52H39.613a4.325,4.325,0,0,0,1.067,1.707,4.562,4.562,0,0,0,3.231,1.341h1.524V67.242Z" transform="translate(-18 -52)" fill="#fcd770"/>
        </g>
        <g id="Grupo_1115264" data-name="Grupo 1115264" transform="translate(30.484 60.968)">
          <path id="Trazado_902557" data-name="Trazado 902557" d="M22,42h9.145V57.242H22Z" transform="translate(-22 -42)" fill="#5cd6b3"/>
        </g>
        <g id="Grupo_1115265" data-name="Grupo 1115265" transform="translate(18.29 39.629)">
          <circle id="Elipse_11717" data-name="Elipse 11717" cx="6" cy="6" r="6" transform="translate(0.186 -0.153)" fill="#f0d0b4"/>
        </g>
        <g id="Grupo_1115266" data-name="Grupo 1115266" transform="translate(0 33.532)">
          <path id="Trazado_902558" data-name="Trazado 902558" d="M8.1,39.242l6.844,1.143c.107.32.244.64.381.945l-2.85,3.993A10.663,10.663,0,0,1,12.669,24h.046L11.3,25.418l4.024,5.64c-.137.3-.274.625-.381.945L8.1,33.145Z" transform="translate(-2 -24)" fill="#f0d0b4"/>
        </g>
        <g id="Grupo_1115267" data-name="Grupo 1115267" transform="translate(35.453 33.532)">
          <path id="Trazado_902559" data-name="Trazado 902559" d="M38.581,40.111v5.228H28.125L25.26,41.33c.137-.3.274-.625.381-.945l6.844-1.143v-6.1L25.641,32c-.107-.32-.244-.64-.381-.945l4.024-5.64L27.866,24H38.581Z" transform="translate(-25.26 -24)" fill="#f0d0b4"/>
        </g>
        <g id="Grupo_1115268" data-name="Grupo 1115268" transform="translate(6.097 27.435)">
          <path id="Trazado_902560" data-name="Trazado 902560" d="M38.221,47.435H10.573a.869.869,0,0,1-.2-.015l2.85-3.993c-.137-.3-.274-.625-.381-.945L6,41.339v-6.1L12.844,34.1c.107-.32.244-.64.381-.945L9.2,27.514,10.618,26.1l2.9-2.9,5.64,4.024c.3-.137.625-.274.945-.381L21.242,20h6.1l1.143,6.844c.32.107.64.244.945.381l5.64-4.024,2.9,2.9,1.417,1.417-4.024,5.64c.137.3.274.625.381.945l6.844,1.143v6.1l-6.844,1.143c-.107.32-.244.64-.381.945ZM24.29,44.387a6.1,6.1,0,1,0-6.1-6.1A6.1,6.1,0,0,0,24.29,44.387Z" transform="translate(-6 -20)" fill="#fcd770"/>
        </g>
        <g id="Grupo_1115269" data-name="Grupo 1115269" transform="translate(62.492 60.968)">
          <path id="Trazado_902561" data-name="Trazado 902561" d="M65.863,42V72.484H43V60.29h8.109a12.864,12.864,0,0,0,10.913-6.051A26.806,26.806,0,0,0,64.887,48.4a20.289,20.289,0,0,0,.975-6.4Z" transform="translate(-43 -42)" fill="#ff826e"/>
        </g>
        <g id="Grupo_1115270" data-name="Grupo 1115270" transform="translate(54.871 48.896)">
          <path id="Trazado_902562" data-name="Trazado 902562" d="M68.484,44.627v1.524a20.289,20.289,0,0,1-.975,6.4,26.806,26.806,0,0,1-2.865,5.838A12.864,12.864,0,0,1,53.73,64.442H38V55.3h7.621V49.733a14.31,14.31,0,0,1,.107-1.814,16.048,16.048,0,0,1,1.113-4.313,15.844,15.844,0,0,1,2.271-3.856,16.783,16.783,0,0,1,1.2-1.341,15.48,15.48,0,0,1,3.17-2.454l2.8,5.624,8.978-7.5a19.508,19.508,0,0,1,3.216,10.547Z" transform="translate(-38 -34.08)" fill="#ff826e"/>
        </g>
        <g id="Grupo_1115271" data-name="Grupo 1115271" transform="translate(48.774 49.643)">
          <path id="Trazado_902563" data-name="Trazado 902563" d="M34,34.57l17.208,4.923a15.844,15.844,0,0,0-2.271,3.856,16.048,16.048,0,0,0-1.113,4.313L37.048,44.584V39.8H34Z" transform="translate(-34 -34.57)" fill="#ff826e"/>
        </g>
        <g id="Grupo_1115272" data-name="Grupo 1115272" transform="translate(70.357 47.25)">
          <path id="Trazado_902564" data-name="Trazado 902564" d="M59.942,34.646l-8.978,7.5-2.8-5.624a12.75,12.75,0,0,1,1.28-.671,14.226,14.226,0,0,1,2.469-.945L58.585,33A11.145,11.145,0,0,1,59.942,34.646Z" transform="translate(-48.16 -33)" fill="#fc6e51"/>
        </g>
        <g id="Grupo_1115273" data-name="Grupo 1115273" transform="translate(45.726 70.113)">
          <path id="Trazado_902565" data-name="Trazado 902565" d="M41.145,48v9.145H36.573A4.562,4.562,0,0,1,33.341,55.8,4.325,4.325,0,0,1,32.274,54.1,4.225,4.225,0,0,1,32,52.573,4.566,4.566,0,0,1,36.573,48h4.573Z" transform="translate(-32 -48)" fill="#f0d0b4"/>
        </g>
        <g id="Grupo_1115274" data-name="Grupo 1115274" transform="translate(79.258 22.863)">
          <path id="Trazado_902566" data-name="Trazado 902566" d="M66.194,17v2.058a18.3,18.3,0,0,1-8.6,15.516l-2.8,1.738L54,30.718l1.966-1.966a3.668,3.668,0,0,0,1.082-2.606A3.071,3.071,0,0,0,54,23.1V17Z" transform="translate(-54 -17)" fill="#656d78"/>
        </g>
        <g id="Grupo_1115275" data-name="Grupo 1115275" transform="translate(64.793 7.62)">
          <path id="Trazado_902567" data-name="Trazado 902567" d="M71.168,20.886v1.357H58.975V17.67a1.529,1.529,0,0,0-1.524-1.524H44.51a13.719,13.719,0,0,1,26.658,4.74Z" transform="translate(-44.51 -6.999)" fill="#ffeaa7"/>
        </g>
        <g id="Grupo_1115276" data-name="Grupo 1115276" transform="translate(57.919 16.766)">
          <path id="Trazado_902568" data-name="Trazado 902568" d="M61.339,14.524V19.1H41.524A1.529,1.529,0,0,1,40,17.573V14.524A1.529,1.529,0,0,1,41.524,13h18.29A1.529,1.529,0,0,1,61.339,14.524Z" transform="translate(-40 -13)" fill="#fcd770"/>
        </g>
        <g id="Grupo_1115277" data-name="Grupo 1115277" transform="translate(60.968 22.863)">
          <path id="Trazado_902569" data-name="Trazado 902569" d="M61.083,36.312l.732,5.076-6.676,1.905a14.226,14.226,0,0,0-2.469.945V35.29H51.145a6.089,6.089,0,0,1-6.1-6.1H42A23.455,23.455,0,0,1,45.048,17H60.29v6.1a3.071,3.071,0,0,1,3.048,3.048,3.668,3.668,0,0,1-1.082,2.606L60.29,30.718Z" transform="translate(-42 -17)" fill="#f0d0b4"/>
        </g>
      </g>
      <g id="Grupo_1115279" data-name="Grupo 1115279" transform="translate(1 1)">
        <circle id="Elipse_11718" data-name="Elipse 11718" cx="1.5" cy="1.5" r="1.5" transform="translate(67 29)"/>
        <path id="Trazado_902570" data-name="Trazado 902570" d="M84.033,6.452A15.327,15.327,0,0,0,66.3,15.141h-4.33a3.051,3.051,0,0,0-3.048,3.048v3.048a3.051,3.051,0,0,0,3.048,3.048h2.088a27.171,27.171,0,0,0-2.088,10.669V36.48h3.2a7.634,7.634,0,0,0,7.467,6.1v6.508a17.488,17.488,0,0,0-4.01,2.968c-.218.218-.413.454-.619.681L52.823,48.395V31.907H41.214l-3.362-3.362L32.36,32.462l-1.11-6.652H22.573l-1.111,6.653-5.492-3.917-3.393,3.393A12.2,12.2,0,0,0,1,44.1V80.682A12.208,12.208,0,0,0,13.194,92.875H55.871V80.682h7.621V92.875H89.4V59.343c0-3.951-1.456-9.352-4.65-12.844l-.523-3.653,1.957-1.222a19.709,19.709,0,0,0,9.313-16.8V21.412A15.2,15.2,0,0,0,84.034,6.452Zm-.715,2.963a12.3,12.3,0,0,1,9.125,11.823H83.306V18.19a3.051,3.051,0,0,0-3.048-3.048H69.7A12.322,12.322,0,0,1,83.319,9.415ZM61.968,18.19h18.29v3.048H61.968ZM75.685,42.577h3.048V39.528h-6.1a4.578,4.578,0,0,1-4.573-4.573V33.432h-3a23,23,0,0,1,2.366-9.145H80.258v6.1h1.524a1.526,1.526,0,0,1,1.524,1.524,2.135,2.135,0,0,1-.631,1.524L80.167,35.94,81.61,46.049l-5.4,1.544c-.178.05-.344.13-.521.186Zm1.358,7.947,4.848-1.385-5.7,4.752-1.274-2.548A14.363,14.363,0,0,1,77.044,50.524ZM66.057,55.346A17.285,17.285,0,0,0,63.9,60.707l-8.033-2.3V53.246H52.823V51.565ZM49.774,74.585a3.051,3.051,0,0,1,3.048-3.048h3.048v6.1H52.823A3.051,3.051,0,0,1,49.774,74.585Zm6.1-6.1V61.582l7.655,2.187c-.009.226-.034.451-.034.68v4.039ZM43.8,34.956h5.976v18.29H41.621l-1.549-2.17,6.653-1.111V41.287l-6.653-1.111Zm-27.5-2.43,5.3,3.783.8-.36a8.423,8.423,0,0,1,.8-.325l.87-.29,1.085-6.476H28.67l1.082,6.476.87.29a8.262,8.262,0,0,1,.8.325l.8.36,5.3-3.783,2.489,2.489-3.783,5.3.358.8a8.5,8.5,0,0,1,.325.8l.288.873,6.478,1.082v3.516L37.2,48.466l-.288.873a8.5,8.5,0,0,1-.325.8l-.358.8,1.651,2.311H15.945l1.649-2.311-.358-.8a8.5,8.5,0,0,1-.325-.8l-.288-.873-6.478-1.084V43.866l6.478-1.082.288-.873a8.5,8.5,0,0,1,.325-.8l.358-.8-3.783-5.3Zm-5.943,2.894,3.394,4.754L7.1,41.286v8.677l6.653,1.111-1.514,2.12a9.136,9.136,0,0,1-1.879-17.774ZM4.048,80.682V52.14a12.156,12.156,0,0,0,9.145,4.155H52.823V68.488a6.1,6.1,0,0,0-6.1,6.1H43.677V59.343H31.484V74.585h-6.1V89.827H13.194a9.154,9.154,0,0,1-9.145-9.145Zm36.581-6.1h-6.1V62.391h6.1ZM52.823,89.827H28.435V77.633H47.573a6.077,6.077,0,0,0,5.249,3.048Zm33.532,0H66.54V80.682h6.589a14.3,14.3,0,0,0,12.2-6.761q.556-.889,1.027-1.741Zm0-28.96c0,4.073-1.012,7.28-3.611,11.438a11.275,11.275,0,0,1-9.615,5.329H58.919v-6.1h14.3a3.03,3.03,0,0,0,2.727-1.684l4.152-8.3-2.727-1.364-4.152,8.3H66.54V64.449a14.387,14.387,0,0,1,4.242-10.241,14.179,14.179,0,0,1,1.506-1.3L75.182,58.7l9.106-7.589a18.264,18.264,0,0,1,2.067,8.234ZM84.572,39.036l-.812.508L83.4,37.019l1.433-1.431a5.169,5.169,0,0,0,1.524-3.681A4.581,4.581,0,0,0,83.306,27.6V24.286h9.145v.532a16.674,16.674,0,0,1-7.88,14.218Z" transform="translate(-1 1.625)"/>
        <path id="Trazado_902571" data-name="Trazado 902571" d="M29,57h3.048v3.048H29Z" transform="translate(13.677 28.355)"/>
        <path id="Trazado_902572" data-name="Trazado 902572" d="M25,57h3.048v3.048H25Z" transform="translate(11.581 28.355)"/>
        <path id="Trazado_902573" data-name="Trazado 902573" d="M21,57h3.048v3.048H21Z" transform="translate(9.484 28.355)"/>
        <path id="Trazado_902574" data-name="Trazado 902574" d="M9,47H24.242v3.048H9Z" transform="translate(3.194 23.113)"/>
        <path id="Trazado_902575" data-name="Trazado 902575" d="M9,43H24.242v3.048H9Z" transform="translate(3.194 21.016)"/>
        <path id="Trazado_902576" data-name="Trazado 902576" d="M9,51h9.145v3.048H9Z" transform="translate(3.194 25.21)"/>
        <path id="Trazado_902577" data-name="Trazado 902577" d="M9,55h9.145v3.048H9Z" transform="translate(3.194 27.306)"/>
        <path id="Trazado_902578" data-name="Trazado 902578" d="M18.048,9.865V25.387H21.1V9.865a4.573,4.573,0,1,0-3.048,0Zm1.524-5.816a1.524,1.524,0,1,1-1.524,1.524A1.526,1.526,0,0,1,19.573,4.048Z" transform="translate(6.339 -1)"/>
        <path id="Trazado_902579" data-name="Trazado 902579" d="M5.573,18.145A4.566,4.566,0,0,0,9.865,15.1H19.29v6.1h3.048V12.048H9.865a4.565,4.565,0,1,0-4.292,6.1Zm0-6.1a1.524,1.524,0,1,1-1.524,1.524A1.526,1.526,0,0,1,5.573,12.048Z" transform="translate(-1 3.194)"/>
        <path id="Trazado_902580" data-name="Trazado 902580" d="M21,8.048V23.29h3.048V11.1H27.1v9.145h9.145V17.194h-6.1V11.1h9.426a4.573,4.573,0,1,0,0-3.048H30.145V5H27.1V8.048Zm22.863,0a1.524,1.524,0,1,1-1.524,1.524A1.526,1.526,0,0,1,43.863,8.048Z" transform="translate(9.484 1.097)"/>
        <path id="Trazado_902581" data-name="Trazado 902581" d="M18.145,8.048h-6.1V5H9v6.1h9.145Z" transform="translate(3.194 1.097)"/>
        <path id="Trazado_902582" data-name="Trazado 902582" d="M9,1h3.048V4.048H9Z" transform="translate(3.194 -1)"/>
        <path id="Trazado_902583" data-name="Trazado 902583" d="M28.242,34.621a7.621,7.621,0,1,0-7.621,7.621A7.63,7.63,0,0,0,28.242,34.621Zm-7.621,4.573a4.573,4.573,0,1,1,4.573-4.573A4.578,4.578,0,0,1,20.621,39.194Z" transform="translate(5.29 12.629)"/>
        <path id="Trazado_902584" data-name="Trazado 902584" d="M25,1h3.048V4.048H25Z" transform="translate(11.581 -1)"/>
        <path id="Trazado_902585" data-name="Trazado 902585" d="M33,13h3.048v3.048H33Z" transform="translate(15.774 5.29)"/>
      </g>
    </g>
  </g>
</svg>
