<svg xmlns="http://www.w3.org/2000/svg" width="144" height="138" viewBox="0 0 144 138">
  <g id="Grupo_1115281" data-name="Grupo 1115281" transform="translate(-4192 6031)">
    <rect id="Rectángulo_401557" data-name="Rectángulo 401557" width="144" height="138" rx="12" transform="translate(4192 -6031)" fill="#78b62e"/>
    <g id="brazo-mecanico" transform="translate(4209.648 -6016)">
      <path id="Trazado_902586" data-name="Trazado 902586" d="M40.352,416.7H92.283v12.535H40.352Zm0,0" transform="translate(-31.046 -323.424)" fill="#226c8a"/>
      <path id="Trazado_902587" data-name="Trazado 902587" d="M98.376,176.933,78.678,144.7l-14.326,5.372L82.259,182.3Zm0,0" transform="translate(-49.674 -112.309)" fill="#ffcd34"/>
      <path id="Trazado_902588" data-name="Trazado 902588" d="M344.944,9.711,336.594,27.64a1.766,1.766,0,0,0,1.634,2.508H355.89a1.777,1.777,0,0,0,1.791-1.769.751.751,0,0,0-.023-.224l-1.544-12.177-8.148-6.626a1.79,1.79,0,0,0-3.022.358Zm0,0" transform="translate(-260.852 -6.733)" fill="#2f7a92"/>
      <path id="Trazado_902589" data-name="Trazado 902589" d="M88.352,24.816,142.074,8.7l13.676,8.193A4.451,4.451,0,0,1,157.273,23a3.684,3.684,0,0,1-.247.38,4.439,4.439,0,0,1-5.865,1.141l-5.506-3.29L99.1,37.351" transform="translate(-68.302 -6.752)" fill="#ffcd34"/>
      <path id="Trazado_902590" data-name="Trazado 902590" d="M368.352,104.7h7.163v7.163h-7.163Zm0,0" transform="translate(-285.625 -81.263)" fill="#53a2ab"/>
      <path id="Trazado_902591" data-name="Trazado 902591" d="M344.352,136.7h17.907v7.163H344.352Zm0,0" transform="translate(-266.998 -106.1)" fill="#fbb03b"/>
      <path id="Trazado_902592" data-name="Trazado 902592" d="M317.724,168.7l-5.372,5.372,7.163,16.117h5.372V168.7Zm0,0" transform="translate(-242.161 -130.937)" fill="#ffcd34"/>
      <path id="Trazado_902593" data-name="Trazado 902593" d="M407.515,168.7l5.372,5.372-7.163,16.117h-5.372V168.7Zm0,0" transform="translate(-310.463 -130.937)" fill="#ffcd34"/>
      <path id="Trazado_902594" data-name="Trazado 902594" d="M56.352,352.7h19.7v14.326h-19.7Zm0,0" transform="translate(-43.465 -273.75)" fill="#53a2ab"/>
      <path id="Trazado_902595" data-name="Trazado 902595" d="M160.352,391.7h3.581v.448h-3.581Zm0,0" transform="translate(-124.185 -304.02)"/>
      <path id="Trazado_902596" data-name="Trazado 902596" d="M192.352,391.7h3.582v.448h-3.582Zm0,0" transform="translate(-149.022 -304.02)"/>
      <path id="Trazado_902597" data-name="Trazado 902597" d="M61.841,91.444A10.745,10.745,0,1,1,51.1,80.7,10.744,10.744,0,0,1,61.841,91.444Zm0,0" transform="translate(-31.046 -62.635)" fill="#2f7a92"/>
      <path id="Trazado_902598" data-name="Trazado 902598" d="M79.515,116.281a3.581,3.581,0,1,1-3.582-3.582A3.582,3.582,0,0,1,79.515,116.281Zm0,0" transform="translate(-55.883 -87.472)" fill="#ffcd34"/>
      <path id="Trazado_902599" data-name="Trazado 902599" d="M153.305,272.7a8.952,8.952,0,0,1,8.954,8.954v23.28H144.352v-23.28A8.951,8.951,0,0,1,153.305,272.7Zm0,0" transform="translate(-111.766 -211.657)" fill="#2f7a92"/>
      <path id="Trazado_902600" data-name="Trazado 902600" d="M175.515,300.281a3.582,3.582,0,1,1-3.581-3.581A3.582,3.582,0,0,1,175.515,300.281Zm0,0" transform="translate(-130.394 -230.285)" fill="#ffcd34"/>
      <path id="Trazado_902601" data-name="Trazado 902601" d="M63.028,91.485H52.283V70a10.7,10.7,0,0,0-2.06-6.312L31.712,33.375a13.7,13.7,0,0,0,.448-1.366L75.585,16.968l-1.477,3.178a3.54,3.54,0,0,0,.224,3.4,3.588,3.588,0,0,0,3.022,1.679h3.582v3.582H77.354A1.8,1.8,0,0,0,75.563,30.6v5.372a1.814,1.814,0,0,0-1.277.515l-5.372,5.372a1.825,1.825,0,0,0-.38,1.992L75.7,59.967a1.788,1.788,0,0,0,1.634,1.075H82.7a1.8,1.8,0,0,0,1.791-1.791v-19.7h3.582v19.7a1.8,1.8,0,0,0,1.791,1.791h5.372a1.788,1.788,0,0,0,1.634-1.075l7.163-16.117a1.785,1.785,0,0,0-.38-1.992l-5.372-5.372a1.775,1.775,0,0,0-1.277-.515V30.6a1.8,1.8,0,0,0-1.791-1.791H91.634V25.227H94.97a3.572,3.572,0,0,0,3.582-3.559,2.954,2.954,0,0,0-.023-.448l-1.544-12.2a1.851,1.851,0,0,0-.65-1.164L88.3,1.32A3.6,3.6,0,0,0,83.218,1.1a3.739,3.739,0,0,0-.828,1.119L81.36,4.454,73.951,0,19.736,16.3a12.509,12.509,0,0,0-6.111,23.257l17.17,30.913v6.693H11.1V91.485H7.515V104.02H.352V107.6H107.8V104.02H63.028Zm17.908-48.35H77.354v3.582h3.582v1.791H79.145v3.582h1.791v5.372H78.518l-6.2-13.923L76.3,39.553h4.634Zm19.362.4L94.1,57.461H91.68V52.088h1.791V48.507H91.68V46.716h3.582V43.135H91.68V39.553h4.633Zm-6.827-7.566H79.145V32.39H93.471ZM88.1,28.809H84.517V25.227H88.1ZM85.725,3.738a2.878,2.878,0,0,0,.268.268l7.589,6.178,1.455,11.461H82.748c-.045,0-.067.023-.112.023H77.354l1.857-3.985,2.732,1.634A6.238,6.238,0,0,0,88.434,8.663c-.023-.022-.045-.022-.067-.045l-3.85-2.306Zm.806,7.946A2.661,2.661,0,0,1,83.8,16.251l-6.222-3.739L32.562,28.092a12.6,12.6,0,0,0-6.133-10.073L73.549,3.895ZM11.1,28.809a8.954,8.954,0,1,1,17.908,0,8.67,8.67,0,0,1-1.142,4.276l-.4.246.135.224a8.916,8.916,0,0,1-16.5-4.745ZM20.05,41.344a12.478,12.478,0,0,0,9.58-4.477L43.419,59.431a10.617,10.617,0,0,0-11.461,5.731l-13.3-23.907A9.617,9.617,0,0,0,20.05,41.344ZM34.376,70A7.163,7.163,0,0,1,48.7,70V91.485H34.376ZM14.678,80.74H30.794V91.485H14.678ZM11.1,104.02V95.066h48.35v8.954Zm0,0"/>
      <path id="Trazado_902602" data-name="Trazado 902602" d="M165.724,299.444a5.372,5.372,0,1,0-5.372-5.372A5.36,5.36,0,0,0,165.724,299.444Zm0-7.163a1.791,1.791,0,1,1-1.791,1.791A1.8,1.8,0,0,1,165.724,292.281Zm0,0" transform="translate(-124.185 -224.076)"/>
      <path id="Trazado_902603" data-name="Trazado 902603" d="M69.724,115.444a5.372,5.372,0,1,0-5.372-5.372A5.36,5.36,0,0,0,69.724,115.444Zm0-7.163a1.791,1.791,0,1,1-1.791,1.791A1.8,1.8,0,0,1,69.724,108.281Zm0,0" transform="translate(-49.674 -81.263)"/>
      <path id="Trazado_902604" data-name="Trazado 902604" d="M72.352,368.7h3.581v3.582H72.352Zm0,0" transform="translate(-55.883 -286.168)"/>
      <path id="Trazado_902605" data-name="Trazado 902605" d="M160.352,384.7h3.581v3.581h-3.581Zm0,0" transform="translate(-124.185 -298.587)"/>
      <path id="Trazado_902606" data-name="Trazado 902606" d="M192.352,384.7h3.582v3.581h-3.582Zm0,0" transform="translate(-149.022 -298.587)"/>
    </g>
  </g>
</svg>
