<svg xmlns="http://www.w3.org/2000/svg" width="144" height="138" viewBox="0 0 144 138">
  <g id="Grupo_1115299" data-name="Grupo 1115299" transform="translate(-4192 5753)">
    <rect id="Rectángulo_401557" data-name="Rectángulo 401557" width="144" height="138" rx="12" transform="translate(4192 -5753)" fill="#78b62e"/>
    <g id="llave-inglesa_1_" data-name="llave-inglesa (1)" transform="translate(4214 -5734.422)">
      <g id="Grupo_1115282" data-name="Grupo 1115282" transform="translate(1.456 1.879)">
        <path id="Trazado_902607" data-name="Trazado 902607" d="M7.788,21.572A15.879,15.879,0,0,0,30.074,38.955l6.386,6.372h8.506l-.332-8.857L38.6,30.446A15.867,15.867,0,0,0,21.18,8.21c-5.252.988-1.278,3.749-.714,4.312l6.757,6.742a6.333,6.333,0,0,1,.293,8.631,6.367,6.367,0,0,1-8.65-.293L12.11,20.86c-.564-.563-3.332-4.528-4.322.712Z" transform="translate(-7.508 -7.931)" fill="#c1eaf4" fill-rule="evenodd"/>
      </g>
      <g id="Grupo_1115283" data-name="Grupo 1115283" transform="translate(39.736 37.927)">
        <path id="Trazado_902608" data-name="Trazado 902608" d="M207.805,207.367l3.514,10.359,15.789,8.907,4.77,4.76A15.866,15.866,0,0,0,249.3,253.628c5.252-.988,1.278-3.749.714-4.312l-6.757-6.742a5.916,5.916,0,1,1,8.356-8.338l6.757,6.742c.565.563,3.331,4.528,4.322-.712a15.879,15.879,0,0,0-22.286-17.383l-4.914-4.9a4.6,4.6,0,0,1-4.455-7.692l2.894-2.893a5.263,5.263,0,0,1-8.4-6.135c-1.871,2.43-10.875-6.367-11.262-6.753C210.362,191.376,199.7,198.554,207.805,207.367Z" transform="translate(-204.842 -193.76)" fill="#c1eaf4" fill-rule="evenodd"/>
      </g>
      <g id="Grupo_1115284" data-name="Grupo 1115284" transform="translate(64.587 46.156)">
        <path id="Trazado_902609" data-name="Trazado 902609" d="M334.294,244.48a4.6,4.6,0,0,0,4.455,7.692,4.551,4.551,0,0,0,2.064-1.187l6.973-6.957a4.607,4.607,0,1,0-6.525-6.5l-.105.1-3.968,3.959Z" transform="translate(-332.95 -236.181)" fill="#fed1a3" fill-rule="evenodd"/>
      </g>
      <g id="Grupo_1115285" data-name="Grupo 1115285" transform="translate(52.468 29.709)">
        <path id="Trazado_902610" data-name="Trazado 902610" d="M273.439,156.889l-1.516,1.513-.946,1.375c-2.114,3.059,2.917,9.116,7.632,7.035l4.239-1.082.614-3.976,1.395-1.391a5.261,5.261,0,0,0-7.449-7.432l-2.745,2.739Z" transform="translate(-270.48 -151.398)" fill="#fed1a3" fill-rule="evenodd"/>
      </g>
      <g id="Grupo_1115286" data-name="Grupo 1115286" transform="translate(45.255 22.277)">
        <path id="Trazado_902611" data-name="Trazado 902611" d="M239.986,114.614l-5.484,5.472c-3.791,3.782,2.081,9.994,7.449,7.432l4.405-1.314,1.079-4.158a5.261,5.261,0,0,0-7.449-7.432Z" transform="translate(-233.294 -113.082)" fill="#fed1a3" fill-rule="evenodd"/>
      </g>
      <g id="Grupo_1115287" data-name="Grupo 1115287" transform="translate(15.831 27.092)">
        <path id="Trazado_902612" data-name="Trazado 902612" d="M95.121,155.374c.249,4.108-1.666,8.261-7.344,13.92l-6.165,6.151,3.409,13.545,17.084,6.9,9.884-9.862c3.7-3.694,4.422-2.9,8.794-2.275,1.959.282,4.754-.762,7-2.143l-19.3-19.265c2.363-3.727,2.6-8.023.387-10.712-.028-.033-.006-.05.017-.028l3.426,3.418c3.282,3.164,10.332,5.848,13.9,1.215.055-.1.111-.2.171-.3.537-1.441-2.025-3.755-4.654-6.383l-2.031-2.027-7.449-7.432-1.372-1.369a2.845,2.845,0,0,0-4,.005l-2.507,2.5-6.453,6.438a9.051,9.051,0,0,0-1.721,2.419,10.654,10.654,0,0,0-1.068,5.285Z" transform="translate(-81.612 -137.906)" fill="#ffe5c1" fill-rule="evenodd"/>
      </g>
      <g id="Grupo_1115288" data-name="Grupo 1115288" transform="translate(12.443 1.879)">
        <path id="Trazado_902613" data-name="Trazado 902613" d="M77.291,15.7c4.588,4.578,5.152,10.7,2.933,16.4-.4,1.01.183,1.419.963,2.2l5.324,5.306.022.607,3.752-3.744-6.032-6.024A15.867,15.867,0,0,0,66.832,8.21c-3.237.607-2.972,1.894-2.153,2.921A15.913,15.913,0,0,1,77.291,15.7Z" transform="translate(-64.147 -7.931)" fill="#99cfe0" fill-rule="evenodd"/>
      </g>
      <g id="Grupo_1115289" data-name="Grupo 1115289" transform="translate(51.227 22.329)">
        <path id="Trazado_902614" data-name="Trazado 902614" d="M264.082,125.058l2.684,2.678,1.516-1.513,1.223-1.22,2.745-2.739a5.245,5.245,0,0,0-2.988-8.912,5.269,5.269,0,0,1-.421,6.957l-2.745,2.733Z" transform="translate(-264.082 -113.352)" fill="#ffbc85" fill-rule="evenodd"/>
      </g>
      <g id="Grupo_1115290" data-name="Grupo 1115290" transform="translate(58.422 29.778)">
        <path id="Trazado_902615" data-name="Trazado 902615" d="M306.028,158.356l-4.859,4.848c1.505,1.574,2.535,2.932,2.175,3.893a5.32,5.32,0,0,1,.78-.994l5.468-5.456a5.242,5.242,0,0,0-2.889-8.9A5.266,5.266,0,0,1,306.028,158.356Z" transform="translate(-301.169 -151.752)" fill="#ffbc85" fill-rule="evenodd"/>
      </g>
      <g id="Grupo_1115291" data-name="Grupo 1115291" transform="translate(64.957 46.26)">
        <path id="Trazado_902616" data-name="Trazado 902616" d="M334.861,249.99a4.53,4.53,0,0,0,.974,1.43,4.625,4.625,0,0,0,4.455,1.187,4.55,4.55,0,0,0,2.064-1.187l6.973-6.957a4.605,4.605,0,0,0,0-6.5,4.543,4.543,0,0,0-2.274-1.237,4.606,4.606,0,0,1-.974,5.075l-6.973,6.957a4.522,4.522,0,0,1-2.064,1.187A4.7,4.7,0,0,1,334.861,249.99Z" transform="translate(-334.861 -236.721)" fill="#ffbc85" fill-rule="evenodd"/>
      </g>
      <g id="Grupo_1115292" data-name="Grupo 1115292" transform="translate(46.059 43.476)">
        <path id="Trazado_902617" data-name="Trazado 902617" d="M267.149,250.54c10.41-2.866,17.587,2.695,21.815,12.783a15.879,15.879,0,0,0-22.286-17.383l-4.914-4.9a4.625,4.625,0,0,1-4.455-1.187,4.535,4.535,0,0,1-.974-1.43,4.606,4.606,0,0,1,.974-5.075l2.894-2.893a5.293,5.293,0,0,1-7.449,0,5.106,5.106,0,0,1-.714-.883,5.286,5.286,0,0,1-.238-5.251c-3.564,4.633-17.034-4.517-13.9-1.215l24.256,25.483C264.775,251.329,263.857,251.445,267.149,250.54Z" transform="translate(-237.437 -222.366)" fill="#99cfe0" fill-rule="evenodd"/>
      </g>
      <g id="Grupo_1115293" data-name="Grupo 1115293" transform="translate(42.106 36.96)">
        <path id="Trazado_902618" data-name="Trazado 902618" d="M221.483,196.027c3.282,3.164,10.332,5.848,13.9,1.215.055-.1.111-.2.171-.3.36-.961-.67-2.319-2.175-3.893a6.65,6.65,0,0,1-4.676,1.5c-.072-.005-.138-.005-.21-.011a13.732,13.732,0,0,1-8.08-3.689l-.714-.712c-.487-.48-.553-.558-1.145-1.143-.36-.447-1.047-.081-1.161.144a2.542,2.542,0,0,0-.242,1.96,2.749,2.749,0,0,0,.927,1.519C219.191,193.719,221.416,195.961,221.483,196.027Z" transform="translate(-217.059 -188.774)" fill="#fed1a3" fill-rule="evenodd"/>
      </g>
      <g id="Grupo_1115294" data-name="Grupo 1115294" transform="translate(2.756 63.667)">
        <path id="Trazado_902619" data-name="Trazado 902619" d="M15.173,339.5l20.493,20.447a3.272,3.272,0,0,0,1.832.922h1.024a3.253,3.253,0,0,0,1.832-.922l7.421-7.4a3.311,3.311,0,0,0,0-4.677L27.282,327.416a3.329,3.329,0,0,0-4.687,0l-7.421,7.4a3.311,3.311,0,0,0,0,4.677Z" transform="translate(-14.206 -326.451)" fill="#6bd9e7" fill-rule="evenodd"/>
      </g>
      <g id="Grupo_1115295" data-name="Grupo 1115295" transform="translate(18.322 79.192)">
        <path id="Trazado_902620" data-name="Trazado 902620" d="M94.45,418.574l5.894,5.881a3.272,3.272,0,0,0,1.832.922H103.2a3.252,3.252,0,0,0,1.832-.922l7.421-7.4a3.311,3.311,0,0,0,0-4.677l-5.9-5.886a3.311,3.311,0,0,1,0,4.677l-7.421,7.4a3.3,3.3,0,0,1-1.826.928H96.276a3.326,3.326,0,0,1-1.826-.922Z" transform="translate(-94.45 -406.487)" fill="#00c7dd" fill-rule="evenodd"/>
      </g>
      <g id="Grupo_1115296" data-name="Grupo 1115296" transform="translate(31.775 66.26)">
        <path id="Trazado_902621" data-name="Trazado 902621" d="M173.688,344.245l-9.884,9.862,4.549,4.533,9.884-9.862c3.7-3.694,4.422-2.9,8.794-2.275,1.959.282,4.754-.762,7-2.143l-4.543-4.539a18.483,18.483,0,0,1-1.788.966,10.035,10.035,0,0,1-5.219,1.176c-4.366-.624-5.092-1.413-8.794,2.281Z" transform="translate(-163.804 -339.822)" fill="#fed1a3" fill-rule="evenodd"/>
      </g>
      <g id="Grupo_1115297" data-name="Grupo 1115297" transform="translate(58.449 38.533)">
        <path id="Trazado_902622" data-name="Trazado 902622" d="M301.9,205.169a5.262,5.262,0,0,0,8.4,6.129l3.8-1.287,1.666-4.163a5.261,5.261,0,1,0-7.449-7.432l-5.462,5.45a5.168,5.168,0,0,0-.786,1A1.268,1.268,0,0,1,301.9,205.169Z" transform="translate(-301.311 -196.884)" fill="#fed1a3" fill-rule="evenodd"/>
      </g>
      <g id="Grupo_1115298" data-name="Grupo 1115298" transform="translate(59.274 38.552)">
        <path id="Trazado_902623" data-name="Trazado 902623" d="M315.962,196.984a5.265,5.265,0,0,1-.714,6.549l-5.462,5.456a5.277,5.277,0,0,1-4.222,1.507,4.9,4.9,0,0,0,.714.883,5.282,5.282,0,0,0,7.449,0l5.462-5.45a5.252,5.252,0,0,0-3.227-8.945Z" transform="translate(-305.563 -196.984)" fill="#ffbc85" fill-rule="evenodd"/>
      </g>
      <path id="Trazado_902624" data-name="Trazado 902624" d="M94.253,69.2a17.488,17.488,0,0,0-18.618-3.872l-2.795-2.788a6.069,6.069,0,0,0,.637-.551l6.973-6.957a6.06,6.06,0,0,0,0-8.565h0a6.06,6.06,0,0,0-4.622-1.76,6.849,6.849,0,0,0,.064-.926,6.7,6.7,0,0,0-6.405-6.7A6.7,6.7,0,0,0,62.341,28.3a6.884,6.884,0,0,0,.045-.772,6.657,6.657,0,0,0-1.963-4.746,6.739,6.739,0,0,0-9.5,0l-4.457,4.447-.345-.344a4.294,4.294,0,0,0-6.056.006l-1.479,1.476-4.31-4.3A17.319,17.319,0,0,0,14.86.728c-.811.153-3.28.617-3.787,2.506-.5,1.848,1.266,3.362,2.113,4.09.086.074,6.958,6.918,6.958,6.918a4.873,4.873,0,0,1,.29,6.568,4.907,4.907,0,0,1-6.591-.29s-6.86-6.858-6.934-6.943c-.73-.845-2.248-2.6-4.1-2.106C.925,11.979.459,14.441.306,15.25a17.315,17.315,0,0,0,4.763,15.5,17.489,17.489,0,0,0,18.618,3.872l4.99,4.979a12.036,12.036,0,0,0-.789,5.045c.237,3.9-1.833,7.732-6.919,12.8l-5.3,5.287a4.783,4.783,0,0,0-5.554.864L2.7,71.006a4.766,4.766,0,0,0,0,6.737L23.188,98.19a4.781,4.781,0,0,0,6.743,0l7.421-7.4a4.773,4.773,0,0,0,.87-5.546l9.013-8.993c2.672-2.666,3.106-2.593,5.936-2.121.476.08,1.016.17,1.623.256,2.47.355,5.338-.9,6.966-1.77l3.289,3.283a17.5,17.5,0,0,0-1.17,7.069,1.455,1.455,0,0,0,1.452,1.394h.062a1.455,1.455,0,0,0,1.392-1.515,14.528,14.528,0,0,1,1.306-6.673,1.455,1.455,0,0,0-.293-1.64L44.52,51.3a12.754,12.754,0,0,0,1.542-5.545A15.953,15.953,0,0,0,52.1,48.944a10.583,10.583,0,0,0,4.9.245c0,.016,0,.033,0,.049a6.7,6.7,0,0,0,6.4,6.693,6.092,6.092,0,0,0-.262,1.776,6.045,6.045,0,0,0,6.059,6.051,6.09,6.09,0,0,0,.708-.043l4.374,4.364a1.455,1.455,0,0,0,1.634.293A14.564,14.564,0,0,1,92.2,71.26a14.407,14.407,0,0,1,3.959,12.9,4.986,4.986,0,0,1-.428,1.405,6.257,6.257,0,0,1-1.113-1.094c-.126-.146-7.081-7.1-7.081-7.1a7.825,7.825,0,0,0-10.633-.36,1.5,1.5,0,0,0-.139.139,7.789,7.789,0,0,0,.361,10.618l8.208,8.169a5.038,5.038,0,0,1-1.408.426,14.41,14.41,0,0,1-15.575-7.572,1.455,1.455,0,1,0-2.589,1.327A17.3,17.3,0,0,0,81.2,99.53a17.6,17.6,0,0,0,3.263-.306c.811-.153,3.28-.617,3.787-2.506.5-1.847-1.266-3.362-2.113-4.09-.086-.074-6.958-6.918-6.958-6.918a4.465,4.465,0,1,1,6.3-6.278s6.86,6.858,6.934,6.943c.73.845,2.25,2.6,4.1,2.106,1.888-.508,2.354-2.97,2.507-3.778a17.314,17.314,0,0,0-4.762-15.5ZM65.815,32.27a3.815,3.815,0,0,1,.053,5.322l-4.677,4.666c-.8-1.163-5.221-5.545-5.221-5.545l4.452-4.442A3.824,3.824,0,0,1,65.815,32.27ZM52.974,24.839a3.824,3.824,0,0,1,5.394,0,3.809,3.809,0,0,1,0,5.373l-4.457,4.447-5.389-5.377ZM25.049,31.873a1.455,1.455,0,0,0-1.634-.293A14.564,14.564,0,0,1,7.125,28.693a14.407,14.407,0,0,1-3.959-12.9,4.987,4.987,0,0,1,.428-1.405,6.257,6.257,0,0,1,1.113,1.094c.126.146,7.081,7.1,7.081,7.1a7.825,7.825,0,0,0,10.633.36,1.494,1.494,0,0,0,.139-.139A7.789,7.789,0,0,0,22.2,12.183s-8.07-7.96-8.208-8.169A5.038,5.038,0,0,1,15.4,3.588a14.412,14.412,0,0,1,15.83,20.2,1.455,1.455,0,0,0,.293,1.638l5,4.994L31.1,35.827a10.206,10.206,0,0,0-.965,1.122ZM58.96,44.485a6.746,6.746,0,0,0-.975,1.232c-3.1,1.92-8-.195-10.438-2.544l-.3-.3c-2.229-2.222-3.415-3.4-3.524-3.516l-.006-.005-.016-.017-.023-.02a1.454,1.454,0,0,0-2.061,2.05l.029.03a5.514,5.514,0,0,1,1.518,4.014,11.253,11.253,0,0,1-3.516,7.615,1.455,1.455,0,0,0,2.055,2.06,16.549,16.549,0,0,0,1.178-1.313l16.714,16.68A8.778,8.778,0,0,1,55.207,71.5c-.575-.082-1.1-.169-1.557-.246-3.371-.563-4.882-.648-8.47,2.931l-8.856,8.837-7.318-7.3a1.455,1.455,0,1,0-2.055,2.06L35.294,86.1h0l0,0a1.856,1.856,0,0,1,0,2.617l-7.421,7.4a1.866,1.866,0,0,1-2.632,0L4.75,75.683a1.856,1.856,0,0,1,0-2.617l7.421-7.4a1.867,1.867,0,0,1,2.632,0l7.338,7.322a1.455,1.455,0,1,0,2.055-2.06l-6.306-6.292,5.132-5.121c5.738-5.719,8.061-10.217,7.769-15.038a8.776,8.776,0,0,1,2.364-6.586l8.96-8.94a1.4,1.4,0,0,1,1.946-.006l1.37,1.367,9.482,9.461c.256.255.511.508.763.757a23.963,23.963,0,0,1,3.414,3.827Zm4.752,8.544a3.8,3.8,0,0,1-2.7-6.484l5.462-5.45a3.824,3.824,0,0,1,5.393,0h0a3.8,3.8,0,0,1,0,5.37l0,0-5.463,5.451a3.782,3.782,0,0,1-2.7,1.11Zm3.247,6.9a3.15,3.15,0,0,1,0-4.445l6.967-6.957a3.169,3.169,0,0,1,4.469,0h0a3.151,3.151,0,0,1,0,4.445L71.423,59.93a3.166,3.166,0,0,1-4.464,0Z" transform="translate(0 0)"/>
    </g>
  </g>
</svg>
