<svg xmlns="http://www.w3.org/2000/svg" width="194.318" height="246" viewBox="0 0 194.318 246">
  <g id="Grupo_1115340" data-name="Grupo 1115340" transform="translate(-9116 7991)">
    <rect id="Rectángulo_407277" data-name="Rectángulo 407277" width="194.318" height="246" rx="12" transform="translate(9116 -7991)" fill="#3c6d9d"/>
    <g id="montaje-de-puntal" transform="translate(9130 -7971.826)">
      <g id="Grupo_1115338" data-name="Grupo 1115338" transform="translate(2.443 33.236)">
        <path id="Trazado_902698" data-name="Trazado 902698" d="M54.975,55.872l-40.9,62.156c-17.054,25.918,1.536,60.4,32.562,60.4h81.8c31.026,0,49.616-34.486,32.562-60.4L120.1,55.872a38.979,38.979,0,0,0-65.124,0Z" transform="translate(-7.595 -38.319)" fill="#685e68"/>
        <path id="Trazado_902699" data-name="Trazado 902699" d="M317.973,118.035l-40.9-62.156A38.807,38.807,0,0,0,239.02,38.712a38.575,38.575,0,0,1,27.069,17.167l40.9,62.156c17.054,25.918-1.536,60.4-32.562,60.4h10.986C316.436,178.439,335.027,143.953,317.973,118.035Z" transform="translate(-164.572 -38.326)" fill="#554e56"/>
        <circle id="Elipse_11724" data-name="Elipse 11724" cx="37.669" cy="37.669" r="37.669" transform="translate(42.272 37.054)" fill="#554e56"/>
        <path id="Trazado_902700" data-name="Trazado 902700" d="M248.062,153.5a38.137,38.137,0,0,0-3.81.191,37.672,37.672,0,0,1,0,74.957,38.133,38.133,0,0,0,3.81.191,37.67,37.67,0,0,0,0-75.339Z" transform="translate(-168.121 -116.449)" fill="#433f43"/>
        <circle id="Elipse_11725" data-name="Elipse 11725" cx="21.696" cy="21.696" r="21.696" transform="translate(58.246 53.028)" fill="#c5d3dd"/>
        <circle id="Elipse_11726" data-name="Elipse 11726" cx="16.122" cy="16.122" r="16.122" transform="translate(63.819 58.601)" fill="#d9e7ec"/>
        <circle id="Elipse_11727" data-name="Elipse 11727" cx="9.895" cy="9.895" r="9.895" transform="translate(70.046 64.828)" fill="#e8edf2"/>
        <circle id="Elipse_11728" data-name="Elipse 11728" cx="5.119" cy="5.119" r="5.119" transform="translate(74.823 69.604)" fill="#f5f8f9"/>
        <g id="Grupo_1115334" data-name="Grupo 1115334" transform="translate(74.73 13.043)">
          <circle id="Elipse_11729" data-name="Elipse 11729" cx="5.211" cy="5.211" r="5.211" fill="#f5f8f9"/>
        </g>
        <g id="Grupo_1115337" data-name="Grupo 1115337" transform="translate(19.838 105.118)">
          <g id="Grupo_1115335" data-name="Grupo 1115335" transform="translate(109.784)">
            <circle id="Elipse_11730" data-name="Elipse 11730" cx="5.211" cy="5.211" r="5.211" fill="#f5f8f9"/>
          </g>
          <g id="Grupo_1115336" data-name="Grupo 1115336">
            <circle id="Elipse_11731" data-name="Elipse 11731" cx="5.211" cy="5.211" r="5.211" fill="#f5f8f9"/>
          </g>
        </g>
      </g>
      <g id="Grupo_1115339" data-name="Grupo 1115339" transform="translate(0 30.826)">
        <path id="Trazado_902701" data-name="Trazado 902701" d="M242.451,244.647a12.308,12.308,0,1,0-12.308,12.308,12.322,12.322,0,0,0,12.308-12.308Zm-19.791,0a7.483,7.483,0,1,1,7.483,7.483A7.491,7.491,0,0,1,222.66,244.647Z" transform="translate(-147.759 -167.513)"/>
        <path id="Trazado_902702" data-name="Trazado 902702" d="M247.644,78.987a7.624,7.624,0,1,0-7.624,7.624A7.633,7.633,0,0,0,247.644,78.987Zm-10.423,0a2.8,2.8,0,1,1,2.8,2.8A2.8,2.8,0,0,1,237.221,78.987Z" transform="translate(-157.635 -58.322)"/>
        <path id="Trazado_902703" data-name="Trazado 902703" d="M410.654,372.829a7.624,7.624,0,1,0-7.624-7.624A7.633,7.633,0,0,0,410.654,372.829Zm0-10.423a2.8,2.8,0,1,1-2.8,2.8A2.8,2.8,0,0,1,410.654,362.406Z" transform="translate(-273.377 -252.466)"/>
        <path id="Trazado_902704" data-name="Trazado 902704" d="M61.762,365.205a7.624,7.624,0,1,0,7.624-7.624A7.633,7.633,0,0,0,61.762,365.205Zm10.423,0a2.8,2.8,0,1,1-2.8-2.8A2.8,2.8,0,0,1,72.185,365.205Z" transform="translate(-41.893 -252.466)"/>
        <path id="Trazado_902705" data-name="Trazado 902705" d="M234.239,419.447a2.413,2.413,0,0,0,0,4.825h10.79a2.413,2.413,0,1,0,0-4.825Z" transform="translate(-157.249 -294.43)"/>
        <path id="Trazado_902706" data-name="Trazado 902706" d="M118.517,180.319a2.412,2.412,0,0,0-3.342.69l-5.931,9.014a2.413,2.413,0,1,0,4.031,2.652l5.931-9.014A2.413,2.413,0,0,0,118.517,180.319Z" transform="translate(-73.831 -131.958)"/>
        <path id="Trazado_902707" data-name="Trazado 902707" d="M374.334,181.007a2.413,2.413,0,1,0-4.031,2.652l5.931,9.014a2.413,2.413,0,0,0,4.031-2.652Z" transform="translate(-250.908 -131.957)"/>
        <path id="Trazado_902708" data-name="Trazado 902708" d="M243.529,175.228a2.915,2.915,0,0,1,3.2,0,2.413,2.413,0,1,0,2.383-4.2,7.7,7.7,0,0,0-7.961,0,2.412,2.412,0,0,0,2.382,4.2Z" transform="translate(-162.742 -125.176)"/>
        <path id="Trazado_902709" data-name="Trazado 902709" d="M315.285,198.544a7.7,7.7,0,0,0-5.629-5.63,2.413,2.413,0,1,0-1.283,4.652,2.914,2.914,0,0,1,2.26,2.26,2.413,2.413,0,0,0,4.652-1.282Z" transform="translate(-207.969 -140.712)"/>
        <path id="Trazado_902710" data-name="Trazado 902710" d="M340.523,264.517a2.413,2.413,0,0,0,3.29-.907,7.7,7.7,0,0,0,0-7.961,2.413,2.413,0,0,0-4.2,2.383,2.914,2.914,0,0,1,0,3.2A2.412,2.412,0,0,0,340.523,264.517Z" transform="translate(-230.15 -182.496)"/>
        <path id="Trazado_902711" data-name="Trazado 902711" d="M309.657,329.79a7.7,7.7,0,0,0,5.629-5.63,2.413,2.413,0,1,0-4.652-1.282,2.914,2.914,0,0,1-2.26,2.259,2.413,2.413,0,0,0,1.282,4.652Z" transform="translate(-207.97 -227.725)"/>
        <path id="Trazado_902712" data-name="Trazado 902712" d="M246.724,354.12a2.916,2.916,0,0,1-3.2,0,2.413,2.413,0,0,0-2.383,4.2,7.7,7.7,0,0,0,7.961,0,2.412,2.412,0,0,0-2.382-4.2Z" transform="translate(-162.741 -249.904)"/>
        <path id="Trazado_902713" data-name="Trazado 902713" d="M178.41,324.161a7.7,7.7,0,0,0,5.63,5.629,2.413,2.413,0,1,0,1.282-4.652,2.914,2.914,0,0,1-2.26-2.26,2.413,2.413,0,0,0-4.652,1.282Z" transform="translate(-120.957 -227.725)"/>
        <path id="Trazado_902714" data-name="Trazado 902714" d="M159.817,254.744a2.413,2.413,0,0,0-3.289.907,7.7,7.7,0,0,0,0,7.961,2.413,2.413,0,0,0,4.2-2.383,2.915,2.915,0,0,1,0-3.2A2.411,2.411,0,0,0,159.817,254.744Z" transform="translate(-105.421 -182.497)"/>
        <path id="Trazado_902715" data-name="Trazado 902715" d="M180.094,201.512a2.413,2.413,0,0,0,2.967-1.685,2.915,2.915,0,0,1,2.26-2.26,2.413,2.413,0,0,0-1.283-4.652,7.7,7.7,0,0,0-5.63,5.63A2.413,2.413,0,0,0,180.094,201.512Z" transform="translate(-120.957 -140.713)"/>
        <path id="Trazado_902716" data-name="Trazado 902716" d="M229.371,219.766a24.109,24.109,0,0,0-43.41-14.446,2.413,2.413,0,1,0,3.861,2.894,19.284,19.284,0,1,1-3.842,11.552,19.458,19.458,0,0,1,.359-3.7,2.413,2.413,0,1,0-4.737-.921,24.108,24.108,0,1,0,47.769,4.623Z" transform="translate(-122.878 -142.632)"/>
        <path id="Trazado_902717" data-name="Trazado 902717" d="M131.5,186.084a40.082,40.082,0,0,0,79.9,4.6,2.413,2.413,0,1,0-4.794-.549,35.253,35.253,0,1,1-.121-9.054,2.413,2.413,0,0,0,4.777-.678,40.083,40.083,0,0,0-79.762,5.677Z" transform="translate(-89.196 -108.95)"/>
        <path id="Trazado_902718" data-name="Trazado 902718" d="M157.86,111.619l-40.9-62.156a40.809,40.809,0,0,0-28.2-18.15A41.476,41.476,0,0,0,56.3,40.04a2.413,2.413,0,1,0,3.048,3.741,36.631,36.631,0,0,1,28.69-7.7,36.041,36.041,0,0,1,24.9,16.033l40.9,62.156a36.565,36.565,0,0,1-30.546,56.665h-81.8A36.565,36.565,0,0,1,10.94,114.272l40.9-62.156c.342-.52.721-1.061,1.158-1.654A2.413,2.413,0,0,0,49.111,47.6c-.488.662-.914,1.271-1.3,1.864l-40.9,62.156a41.391,41.391,0,0,0,34.578,64.142h81.8a41.391,41.391,0,0,0,34.577-64.142Z" transform="translate(0 -30.826)"/>
      </g>
    </g>
  </g>
</svg>
