<svg xmlns="http://www.w3.org/2000/svg" width="154" height="154" viewBox="0 0 154 154">
  <g id="Grupo_1107716" data-name="Grupo 1107716" transform="translate(-312.102 -3058)">
    <circle id="Elipse_11699" data-name="Elipse 11699" cx="77" cy="77" r="77" transform="translate(312.102 3058)" fill="#eaeff4"/>
    <g id="Grupo_1107714" data-name="Grupo 1107714" transform="translate(357.018 3093.954)">
      <path id="Trazado_900555" data-name="Trazado 900555" d="M239.968,456.4v8.644a4.322,4.322,0,1,0,8.644,0V456.4Z" transform="translate(-211.875 -361.333)" fill="#c9c5c9"/>
      <path id="Trazado_900556" data-name="Trazado 900556" d="M215.919,392.274v17.288a4.322,4.322,0,0,0,4.322,4.322h12.966a4.322,4.322,0,0,0,4.322-4.322V392.274Z" transform="translate(-194.309 -314.492)" fill="#eceaec"/>
      <path id="Trazado_900557" data-name="Trazado 900557" d="M228.288,403.233h9.242V392.274H215.92v17.288a4.322,4.322,0,0,0,4.322,4.322h3.724v-6.329A4.322,4.322,0,0,1,228.288,403.233Z" transform="translate(-194.31 -314.492)" fill="#dbd8db"/>
      <path id="Trazado_900558" data-name="Trazado 900558" d="M169.709,103.764c-.516-.024-1.026-.023-1.536-.023s-1.021,0-1.536.023a32.667,32.667,0,0,0-30.852,31.058,32.285,32.285,0,0,0,9.185,23.939,29.367,29.367,0,0,1,8.076,20.571v2.192a4.322,4.322,0,0,0,4.322,4.322h21.61a4.322,4.322,0,0,0,4.322-4.322v-2.192a29.369,29.369,0,0,1,8.076-20.571,32.282,32.282,0,0,0,9.185-23.939A32.667,32.667,0,0,0,169.709,103.764Z" transform="translate(-135.758 -103.741)" fill="#ffefac"/>
      <path id="Trazado_900559" data-name="Trazado 900559" d="M161.389,176.959a7.987,7.987,0,0,1-2.3-4.357,32.9,32.9,0,0,0-8.993-17.806,27.8,27.8,0,0,1-7.376-13.676,26.01,26.01,0,0,1,18.713-29.955,7.165,7.165,0,0,0,5.209-7.266l0-.076a32.667,32.667,0,0,0-30.852,31.058,32.283,32.283,0,0,0,9.189,23.943,29.356,29.356,0,0,1,8.072,20.567v2.192a4.322,4.322,0,0,0,4.322,4.322h21.61a4.322,4.322,0,0,0,4.322-4.322v-2.2l-15.982.025a8.362,8.362,0,0,1-5.93-2.45Z" transform="translate(-135.759 -103.801)" fill="#ffe077"/>
    </g>
    <g id="Grupo_1107715" data-name="Grupo 1107715" transform="translate(329.064 3065.988)">
      <path id="Trazado_900560" data-name="Trazado 900560" d="M194.833,118.245a2.022,2.022,0,1,0-3.773,1.455,30.406,30.406,0,0,1-6.387,31.907,31.988,31.988,0,0,0-8.876,22.209v2.2a2.3,2.3,0,0,1-2.3,2.3h-21.61a2.3,2.3,0,0,1-2.3-2.3v-2.192a31.174,31.174,0,0,0-8.651-21.983,30.456,30.456,0,0,1,20.313-51.564A30.434,30.434,0,0,1,187.01,112.4a2.022,2.022,0,0,0,3.233-2.429,34.438,34.438,0,0,0-61.959,19.262,34.123,34.123,0,0,0,9.759,25.431,27.157,27.157,0,0,1,7.5,19.159v2.192a6.354,6.354,0,0,0,4.322,6.012V193.3a6.351,6.351,0,0,0,6.344,6.344h.139v2.3a6.344,6.344,0,0,0,12.688,0v-2.3h.139a6.351,6.351,0,0,0,6.344-6.344V182.025a6.354,6.354,0,0,0,4.322-6.012v-2.2A27.962,27.962,0,0,1,187.6,154.4a34.451,34.451,0,0,0,7.237-36.156Zm-29.84,83.7a2.3,2.3,0,1,1-4.6,0v-2.3h4.6Zm4.183-6.344H156.21a2.3,2.3,0,0,1-2.3-2.3V191h1.952a2.022,2.022,0,1,0,0-4.044H153.91v-4.6h17.566v4.6h-6.622a2.022,2.022,0,1,0,0,4.044h6.622v2.3A2.3,2.3,0,0,1,169.176,195.6Z" transform="translate(-102.325 -70.265)"/>
      <path id="Trazado_900561" data-name="Trazado 900561" d="M250.522,21.331a2.022,2.022,0,0,0,2.022-2.022V2.022a2.022,2.022,0,1,0-4.044,0V19.31A2.022,2.022,0,0,0,250.522,21.331Z" transform="translate(-190.153)"/>
      <path id="Trazado_900562" data-name="Trazado 900562" d="M420.117,216.436H402.829a2.022,2.022,0,1,0,0,4.044h17.288a2.022,2.022,0,1,0,0-4.044Z" transform="translate(-301.402 -158.089)"/>
      <path id="Trazado_900563" data-name="Trazado 900563" d="M53.4,218.458a2.022,2.022,0,0,0-2.022-2.022H34.086a2.022,2.022,0,1,0,0,4.044H51.374A2.022,2.022,0,0,0,53.4,218.458Z" transform="translate(-32.064 -158.089)"/>
      <path id="Trazado_900564" data-name="Trazado 900564" d="M358.219,96.222a2.015,2.015,0,0,0,1.43-.592l6.112-6.112a2.022,2.022,0,0,0-2.859-2.859l-6.112,6.112a2.022,2.022,0,0,0,1.43,3.451Z" transform="translate(-268.818 -62.865)"/>
      <path id="Trazado_900565" data-name="Trazado 900565" d="M124.835,324.724l-6.112,6.112a2.022,2.022,0,1,0,2.859,2.859l6.112-6.112a2.022,2.022,0,0,0-2.859-2.859Z" transform="translate(-94.929 -236.753)"/>
      <path id="Trazado_900566" data-name="Trazado 900566" d="M124.835,95.629a2.022,2.022,0,0,0,2.859-2.859l-6.112-6.112a2.022,2.022,0,1,0-2.859,2.859Z" transform="translate(-94.929 -62.864)"/>
      <path id="Trazado_900567" data-name="Trazado 900567" d="M359.649,324.724a2.022,2.022,0,1,0-2.859,2.859L362.9,333.7a2.022,2.022,0,0,0,2.859-2.859Z" transform="translate(-268.818 -236.753)"/>
      <path id="Trazado_900568" data-name="Trazado 900568" d="M308.032,57.974a2.02,2.02,0,0,0,2.642-1.094l3.308-7.986a2.022,2.022,0,0,0-3.736-1.547l-3.308,7.986a2.022,2.022,0,0,0,1.094,2.642Z" transform="translate(-232.725 -33.671)"/>
      <path id="Trazado_900569" data-name="Trazado 900569" d="M79.41,149.768l7.986,3.308a2.022,2.022,0,1,0,1.547-3.736l-7.986-3.308a2.022,2.022,0,0,0-1.547,3.736Z" transform="translate(-65.734 -106.553)"/>
      <path id="Trazado_900570" data-name="Trazado 900570" d="M399.993,278.181l-7.986-3.308a2.022,2.022,0,1,0-1.547,3.736l7.986,3.308a2.022,2.022,0,0,0,1.547-3.736Z" transform="translate(-292.932 -200.66)"/>
      <path id="Trazado_900571" data-name="Trazado 900571" d="M181.4,56.88a2.022,2.022,0,0,0,3.736-1.547l-3.308-7.986a2.022,2.022,0,0,0-3.736,1.547Z" transform="translate(-138.617 -33.671)"/>
      <path id="Trazado_900572" data-name="Trazado 900572" d="M389.366,151.983a2.02,2.02,0,0,0,2.642,1.094l7.986-3.308a2.022,2.022,0,1,0-1.547-3.736l-7.986,3.308A2.022,2.022,0,0,0,389.366,151.983Z" transform="translate(-292.932 -106.553)"/>
      <path id="Trazado_900573" data-name="Trazado 900573" d="M90.037,275.968a2.022,2.022,0,0,0-2.642-1.094l-7.986,3.308a2.022,2.022,0,1,0,1.547,3.736l7.986-3.308A2.022,2.022,0,0,0,90.037,275.968Z" transform="translate(-65.734 -200.661)"/>
      <path id="Trazado_900574" data-name="Trazado 900574" d="M182.423,184.425a2.022,2.022,0,0,0-2.022,2.022v16.472a2.022,2.022,0,0,0,1.68,1.993,15.108,15.108,0,0,0,2.081.044c.882,0,2.165,0,4.046-.015a2.022,2.022,0,1,0-.023-4.044c-1.286.007-2.665.012-3.74.014V186.447a2.022,2.022,0,0,0-2.022-2.022Z" transform="translate(-140.412 -134.708)"/>
      <path id="Trazado_900575" data-name="Trazado 900575" d="M238.808,188.748a2.022,2.022,0,1,0,0-4.044h-6.883a2.022,2.022,0,0,0-2.022,2.022v16.335a2.022,2.022,0,0,0,2.022,2.022h6.883a2.022,2.022,0,0,0,0-4.044h-4.861v-4.124H238.3a2.022,2.022,0,1,0,0-4.044h-4.354v-4.124Z" transform="translate(-176.57 -134.912)"/>
      <path id="Trazado_900576" data-name="Trazado 900576" d="M293.274,185.329h-4.531a2.022,2.022,0,0,0-2.022,2.026l.032,16a2.022,2.022,0,0,0,2.022,2.015h.008c.137,0,3.368-.013,4.659-.036,4.818-.084,8.315-4.284,8.315-9.985C301.756,189.356,298.348,185.329,293.274,185.329Zm.1,15.963c-.593.01-1.637.019-2.581.025-.006-1.889-.019-9.978-.022-11.944h2.505c3.273,0,4.439,3.088,4.439,5.977,0,2.92-1.342,5.89-4.341,5.942Z" transform="translate(-218.071 -135.368)"/>
    </g>
  </g>
</svg>
