<svg xmlns="http://www.w3.org/2000/svg" width="194.318" height="211" viewBox="0 0 194.318 211">
  <g id="Grupo_1115342" data-name="Grupo 1115342" transform="translate(-9116 7624)">
    <rect id="Rectángulo_407279" data-name="Rectángulo 407279" width="194.318" height="211" rx="12" transform="translate(9116 -7624)" fill="#3c6d9d"/>
    <g id="ingenieria_1_" data-name="ingenieria (1)" transform="translate(9134.443 -7596.557)">
      <path id="Trazado_902719" data-name="Trazado 902719" d="M99.374,101.531V84.5H87.354a35.287,35.287,0,0,0-4.083-9.869l8.5-8.5L79.724,54.089l-8.5,8.5a35.3,35.3,0,0,0-9.863-4.083V46.481H44.324V58.507a35.3,35.3,0,0,0-9.869,4.083l-8.5-8.5L13.915,66.137l8.5,8.5A35.287,35.287,0,0,0,18.327,84.5H6.306v17.028h12.02a35.3,35.3,0,0,0,4.083,9.869l-8.5,8.5L25.957,131.94l8.5-8.5a35.3,35.3,0,0,0,9.869,4.083v12.02h17.04V127.529a35.3,35.3,0,0,0,9.869-4.083l8.5,8.5L91.773,119.9l-8.508-8.5a35.3,35.3,0,0,0,4.083-9.869ZM52.841,100.1a7.084,7.084,0,1,1,7.083-7.084,7.084,7.084,0,0,1-7.083,7.084Z" transform="translate(0.415 9.952)" fill="#fe8a71"/>
      <path id="Trazado_902720" data-name="Trazado 902720" d="M47.391,69.438A18.128,18.128,0,1,0,65.518,87.565,18.128,18.128,0,0,0,47.391,69.438Zm0,25.211a7.084,7.084,0,1,1,7.083-7.084,7.084,7.084,0,0,1-7.083,7.084Z" transform="translate(5.865 15.402)" fill="#f6cd61"/>
      <path id="Trazado_902721" data-name="Trazado 902721" d="M134.113,44.6V32.75h-8.361a24.572,24.572,0,0,0-2.846-6.865l5.91-5.91L120.439,11.6l-5.91,5.91a24.572,24.572,0,0,0-6.865-2.846V6.306H95.821v8.361a24.587,24.587,0,0,0-6.865,2.846l-5.91-5.91L74.669,19.98l5.91,5.91a24.573,24.573,0,0,0-2.846,6.865H69.378V44.6h8.36a24.58,24.58,0,0,0,2.846,6.866l-5.91,5.91,8.377,8.377,5.9-5.915a24.587,24.587,0,0,0,6.865,2.846v8.36h11.848V62.682a24.572,24.572,0,0,0,6.865-2.846l5.91,5.91,8.377-8.377-5.91-5.9a24.579,24.579,0,0,0,2.846-6.866Zm-32.368-1.258a4.665,4.665,0,1,1,4.664-4.665,4.665,4.665,0,0,1-4.664,4.665Z" transform="translate(15.388 0.415)" fill="#f6cd61"/>
      <path id="Trazado_902722" data-name="Trazado 902722" d="M97.955,22.275a12.609,12.609,0,1,0,12.608,12.608A12.609,12.609,0,0,0,97.955,22.275Zm0,17.273a4.665,4.665,0,1,1,4.664-4.665,4.665,4.665,0,0,1-4.664,4.665Z" transform="translate(19.179 4.206)" fill="#fe8a71"/>
      <g id="Grupo_1115341" data-name="Grupo 1115341" transform="translate(4.557 4.557)">
        <path id="Trazado_902723" data-name="Trazado 902723" d="M38.214,95.542a16.073,16.073,0,0,1-2.994-2.511A2.17,2.17,0,1,0,32.055,96a20.363,20.363,0,0,0,3.809,3.181,2.165,2.165,0,1,0,2.351-3.637Z" transform="translate(1.831 16.284)" fill="#2b1e0c"/>
        <path id="Trazado_902724" data-name="Trazado 902724" d="M54.936,85.863a9.25,9.25,0,1,0-9.249,9.248,9.25,9.25,0,0,0,9.249-9.248Zm-14.167,0a4.919,4.919,0,1,1,4.918,4.917,4.919,4.919,0,0,1-4.918-4.917Z" transform="translate(3.011 12.548)" fill="#2b1e0c"/>
        <path id="Trazado_902725" data-name="Trazado 902725" d="M149.5,40.09a2.167,2.167,0,0,0-2.165,2.165v.59h-6.194a2.167,2.167,0,0,0-2.1,1.648,22.4,22.4,0,0,1-2.591,6.261,2.165,2.165,0,0,0,.32,2.652l4.379,4.379-5.315,5.321-4.379-4.379a2.162,2.162,0,0,0-2.652-.322,22.39,22.39,0,0,1-6.266,2.589,2.165,2.165,0,0,0-1.648,2.1v6.194h-7.509V65.6l14.294-16.157c.02-.022.032-.048.051-.072A14.758,14.758,0,1,0,106.852,28.5c-.022.021-.048.033-.071.053L90.625,42.846H86.932V35.331h6.194a2.165,2.165,0,0,0,2.1-1.648,22.382,22.382,0,0,1,2.592-6.261A2.165,2.165,0,0,0,97.5,24.77l-4.379-4.379,5.321-5.321,4.372,4.389a2.164,2.164,0,0,0,2.652.32,22.4,22.4,0,0,1,6.261-2.591,2.167,2.167,0,0,0,1.648-2.1v-6.2h7.516v6.194a2.167,2.167,0,0,0,1.648,2.1,22.387,22.387,0,0,1,6.263,2.591,2.159,2.159,0,0,0,2.652-.32l4.379-4.379,5.315,5.321-4.383,4.372a2.165,2.165,0,0,0-.32,2.652,22.379,22.379,0,0,1,2.591,6.261,2.167,2.167,0,0,0,2.1,1.648h8.36a2.165,2.165,0,1,0,0-4.331H142.78a26.821,26.821,0,0,0-1.792-4.331l4.749-4.75a2.164,2.164,0,0,0,0-3.063l-8.376-8.376a2.164,2.164,0,0,0-3.063,0l-4.75,4.75a26.617,26.617,0,0,0-4.331-1.793V6.722a2.164,2.164,0,0,0-2.165-2.165H111.209a2.164,2.164,0,0,0-2.163,2.165V13.44a26.821,26.821,0,0,0-4.331,1.792l-4.75-4.749a2.163,2.163,0,0,0-3.061,0l-8.377,8.376a2.164,2.164,0,0,0,0,3.063l4.749,4.75A26.706,26.706,0,0,0,91.485,31H84.766A2.164,2.164,0,0,0,82.6,33.168V45.016a2.164,2.164,0,0,0,2.165,2.16h.964L63.937,66.464V56.433a2.165,2.165,0,0,0-2.165-2.165H44.739a2.165,2.165,0,0,0-2.165,2.165V66.794a37.551,37.551,0,0,0-7.345,3.042L27.9,62.51a2.164,2.164,0,0,0-3.063,0L12.8,74.554a2.164,2.164,0,0,0,0,3.063l7.325,7.324a37.44,37.44,0,0,0-3.04,7.345H6.722a2.164,2.164,0,0,0-2.165,2.165v17.033a2.164,2.164,0,0,0,2.165,2.165H17.083a37.471,37.471,0,0,0,3.04,7.345L12.8,128.319a2.164,2.164,0,0,0,0,3.063l12.044,12.044a2.227,2.227,0,0,0,3.063,0l7.324-7.325a37.47,37.47,0,0,0,7.345,3.04V149.5a2.164,2.164,0,0,0,2.165,2.165H61.778a2.164,2.164,0,0,0,2.165-2.165V139.14a37.439,37.439,0,0,0,7.345-3.04l7.324,7.325a2.164,2.164,0,0,0,3.063,0l12.044-12.044a2.164,2.164,0,0,0,0-3.063l-7.325-7.324a37.551,37.551,0,0,0,3.042-7.345H99.8a2.165,2.165,0,0,0,2.165-2.165V94.451A2.165,2.165,0,0,0,99.8,92.286H89.759l19.287-21.793v.964a2.164,2.164,0,0,0,2.165,2.165h11.847a2.164,2.164,0,0,0,2.165-2.165V64.738a26.5,26.5,0,0,0,4.331-1.792l4.75,4.75a2.164,2.164,0,0,0,3.063,0l8.376-8.377a2.163,2.163,0,0,0,0-3.061l-4.753-4.75a26.822,26.822,0,0,0,1.792-4.331H149.5a2.164,2.164,0,0,0,2.165-2.165V42.255A2.165,2.165,0,0,0,149.5,40.09ZM64.656,71.611a33.184,33.184,0,0,1,5.864,2.779,2.162,2.162,0,0,0,2.653-.322l6.965-6.97,8.986,8.986L82.159,83.05a2.165,2.165,0,0,0-.322,2.653,33.185,33.185,0,0,1,2.779,5.864L73.488,104.137c.022-.389.059-.775.059-1.169A20.317,20.317,0,0,0,53.255,82.675c-.395,0-.781.037-1.169.059ZM86.387,84.941l7.325-7.324a2.164,2.164,0,0,0,0-3.063L81.669,62.51a2.227,2.227,0,0,0-3.063,0l-7.324,7.325c-.973-.53-1.971-1-2.986-1.447L91.674,47.7a26.813,26.813,0,0,0,1.6,3.805l-4.749,4.75a2.163,2.163,0,0,0,0,3.061L96.9,67.7a2.163,2.163,0,0,0,3.061,0l4.75-4.749a26.811,26.811,0,0,0,3.8,1.6L87.834,87.926c-.442-1.015-.917-2.013-1.447-2.986ZM105.465,58.4a2.165,2.165,0,0,0-2.652.322L98.434,63.1l-5.321-5.321L97.493,53.4a2.165,2.165,0,0,0,.322-2.652,22.4,22.4,0,0,1-2.577-6.212L102.4,38.2c-.017.293-.045.584-.045.881a14.791,14.791,0,0,0,14.779,14.774c.3,0,.588-.027.881-.045l-6.337,7.161a22.4,22.4,0,0,1-6.212-2.573ZM127.577,39.09a10.444,10.444,0,1,1-10.444-10.445A10.443,10.443,0,0,1,127.577,39.09ZM87.77,96.617h9.853v12.7H87.77a2.167,2.167,0,0,0-2.1,1.648,33.171,33.171,0,0,1-3.836,9.266,2.165,2.165,0,0,0,.322,2.653l6.965,6.965-8.981,8.981-6.965-6.967a2.163,2.163,0,0,0-2.653-.32,33.171,33.171,0,0,1-9.266,3.836,2.167,2.167,0,0,0-1.648,2.1v9.853H46.9v-9.856a2.167,2.167,0,0,0-1.648-2.1,33.171,33.171,0,0,1-9.266-3.836,2.165,2.165,0,0,0-2.653.32l-6.965,6.967-8.981-8.981,6.967-6.965a2.168,2.168,0,0,0,.32-2.653,33.171,33.171,0,0,1-3.836-9.266,2.167,2.167,0,0,0-2.1-1.648H8.888v-12.7h9.853a2.167,2.167,0,0,0,2.1-1.648A33.171,33.171,0,0,1,24.681,85.7a2.167,2.167,0,0,0-.32-2.653l-6.967-6.965L26.372,67.1l6.965,6.965a2.163,2.163,0,0,0,2.653.322,33.171,33.171,0,0,1,9.266-3.836,2.167,2.167,0,0,0,1.648-2.1V58.6h12.7v9.853a2.156,2.156,0,0,0,.516,1.387L40.467,87.231c-.256.209-.495.436-.742.656L39,88.528a2.167,2.167,0,0,0-.309.34,20.271,20.271,0,0,0-5.159,18.9,2.165,2.165,0,0,0,4.207-1.02A15.948,15.948,0,0,1,42.2,91.475l1.067-.944a15.944,15.944,0,0,1,22.419,22.423l-.944,1.067a15.905,15.905,0,0,1-11.489,4.908,2.165,2.165,0,1,0,0,4.331,20.214,20.214,0,0,0,14.093-5.721,2.131,2.131,0,0,0,.35-.317l.641-.723c.22-.247.447-.486.656-.742L86.383,96.1A2.156,2.156,0,0,0,87.77,96.617Z" transform="translate(-4.557 -4.557)" fill="#2b1e0c"/>
        <path id="Trazado_902726" data-name="Trazado 902726" d="M96.845,40.6a6.829,6.829,0,1,0-6.828-6.828A6.829,6.829,0,0,0,96.845,40.6Zm0-9.327a2.5,2.5,0,1,1-2.5,2.5,2.5,2.5,0,0,1,2.5-2.5Z" transform="translate(15.731 0.758)" fill="#2b1e0c"/>
      </g>
    </g>
  </g>
</svg>
