<svg xmlns="http://www.w3.org/2000/svg" width="87.781" height="87.781" viewBox="0 0 87.781 87.781">
  <g id="Grupo_1109257" data-name="Grupo 1109257" transform="translate(-493.051 -3885)">
    <g id="Grupo_1106271" data-name="Grupo 1106271" transform="translate(493.051 3885)">
      <g id="Grupo_1103990" data-name="Grupo 1103990" transform="translate(0 0)">
        <g id="Trazado_874102" data-name="Trazado 874102" transform="translate(0)" fill="#f3d02c">
          <path d="M 43.8906364440918 85.28125762939453 C 38.30183792114258 85.28125762939453 32.88154220581055 84.18724060058594 27.78030395507812 82.02960205078125 C 22.85183715820312 79.94503021240234 18.42508888244629 76.96026611328125 14.62304973602295 73.15821838378906 C 10.82099628448486 69.35617828369141 7.836236476898193 64.92942810058594 5.751663208007812 60.00096130371094 C 3.59402322769165 54.89972305297852 2.500009775161743 49.47942733764648 2.500009775161743 43.89062881469727 C 2.500009775161743 38.30183029174805 3.59402322769165 32.88153457641602 5.751663208007812 27.78029632568359 C 7.836236476898193 22.85182952880859 10.82099628448486 18.42508125305176 14.62304973602295 14.62304210662842 C 18.42508888244629 10.82098865509033 22.85183715820312 7.836228847503662 27.78030395507812 5.751655578613281 C 32.88154220581055 3.594015598297119 38.30183792114258 2.500002145767212 43.8906364440918 2.500002145767212 C 49.47943496704102 2.500002145767212 54.89973068237305 3.594015598297119 60.00096893310547 5.751655578613281 C 64.92943572998047 7.836228847503662 69.35618591308594 10.82098865509033 73.15822601318359 14.62304210662842 C 76.96027374267578 18.42508125305176 79.94503784179688 22.85182952880859 82.02960968017578 27.78029632568359 C 84.18724822998047 32.88153457641602 85.28126525878906 38.30183029174805 85.28126525878906 43.89062881469727 C 85.28126525878906 49.47942733764648 84.18724822998047 54.89972305297852 82.02960968017578 60.00096130371094 C 79.94503784179688 64.92942810058594 76.96027374267578 69.35617828369141 73.15822601318359 73.15821838378906 C 69.35618591308594 76.96026611328125 64.92943572998047 79.94503021240234 60.00096893310547 82.02960205078125 C 54.89973068237305 84.18724060058594 49.47943496704102 85.28125762939453 43.8906364440918 85.28125762939453 Z" stroke="none"/>
          <path d="M 43.8906364440918 4.999992370605469 C 38.63823699951172 4.999992370605469 33.54560470581055 6.027565002441406 28.75418472290039 8.054161071777344 C 24.12371826171875 10.0126953125 19.96407318115234 12.81754302978516 16.39080047607422 16.39079284667969 C 12.81755065917969 19.96406555175781 10.01270294189453 24.12371063232422 8.054168701171875 28.75417709350586 C 6.027572631835938 33.54559707641602 5 38.63822937011719 5 43.89062881469727 C 5 49.14302825927734 6.027572631835938 54.23566055297852 8.054168701171875 59.02707672119141 C 10.01270294189453 63.65754699707031 12.81755065917969 67.81719970703125 16.39080047607422 71.39046478271484 C 19.96407318115234 74.96371459960938 24.12371826171875 77.76856231689453 28.75418472290039 79.72709655761719 C 33.54560470581055 81.75369262695312 38.63823699951172 82.78126525878906 43.8906364440918 82.78126525878906 C 49.14303588867188 82.78126525878906 54.23566818237305 81.75369262695312 59.02708435058594 79.72709655761719 C 63.65755462646484 77.76856231689453 67.81719970703125 74.96371459960938 71.39047241210938 71.39046478271484 C 74.96372222900391 67.81719970703125 77.76856994628906 63.65754699707031 79.72710418701172 59.02707672119141 C 81.75370025634766 54.23566055297852 82.78127288818359 49.14302825927734 82.78127288818359 43.89062881469727 C 82.78127288818359 38.63822937011719 81.75370025634766 33.54559707641602 79.72710418701172 28.75417709350586 C 77.76856994628906 24.12371063232422 74.96372222900391 19.96406555175781 71.39047241210938 16.39079284667969 C 67.81719970703125 12.81754302978516 63.65755462646484 10.0126953125 59.02708435058594 8.054161071777344 C 54.23566818237305 6.027565002441406 49.14303588867188 4.999992370605469 43.8906364440918 4.999992370605469 M 43.8906364440918 -7.62939453125e-06 C 68.13075256347656 -7.62939453125e-06 87.78127288818359 19.6505126953125 87.78127288818359 43.89062881469727 C 87.78127288818359 68.13074493408203 68.13075256347656 87.78126525878906 43.8906364440918 87.78126525878906 C 19.65052032470703 87.78126525878906 0 68.13074493408203 0 43.89062881469727 C 0 19.6505126953125 19.65052032470703 -7.62939453125e-06 43.8906364440918 -7.62939453125e-06 Z" stroke="none" fill="#fff"/>
        </g>
      </g>
    </g>
    <g id="_x31_58" transform="translate(509.051 3901.2)">
      <g id="Grupo_1109078" data-name="Grupo 1109078">
        <g id="Grupo_1109077" data-name="Grupo 1109077">
          <g id="Grupo_1109076" data-name="Grupo 1109076">
            <g id="Grupo_1109070" data-name="Grupo 1109070">
              <path id="Trazado_901062" data-name="Trazado 901062" d="M14,30.1l-.5.4v7.4l-1,.5-.9-.5V31.2l-.6-.3V26l2.2-1.2.8.5Z" fill="#9ea9c9"/>
            </g>
            <g id="Grupo_1109071" data-name="Grupo 1109071">
              <path id="Trazado_901063" data-name="Trazado 901063" d="M9.4,27.5l-.6.3v7.4l-.9.6L7,35.2V28.5l-.6-.3V23.4l2.1-1.3.9.5Z" fill="#9ea9c9"/>
            </g>
            <g id="Grupo_1109072" data-name="Grupo 1109072">
              <path id="Trazado_901064" data-name="Trazado 901064" d="M18.7,32.8l-.6.4v7.4l-.9.5-.9-.5V33.9l-.6-.3V28.7l2.1-1.2.9.5Z" fill="#9ea9c9"/>
            </g>
            <g id="Grupo_1109073" data-name="Grupo 1109073">
              <path id="Trazado_901065" data-name="Trazado 901065" d="M32.1,41.2v7.4l-1,.6-.9-.5V41.9l-.6-.3V36.8l2.1-1.3.9.6v4.8Z" fill="#9ea9c9"/>
            </g>
            <g id="Grupo_1109074" data-name="Grupo 1109074">
              <path id="Trazado_901066" data-name="Trazado 901066" d="M23.3,35.5l-.5.3v7.4l-1,.6-.9-.5V36.6l-.6-.4V31.4l2.1-1.2.9.5Z" fill="#9ea9c9"/>
            </g>
            <g id="Grupo_1109075" data-name="Grupo 1109075">
              <path id="Trazado_901067" data-name="Trazado 901067" d="M28,38.2l-.6.3v7.4l-1,.6-.8-.5V39.3l-.6-.4V34.1l2.1-1.2.9.5Z" fill="#9ea9c9"/>
            </g>
          </g>
        </g>
      </g>
      <g id="Grupo_1109142" data-name="Grupo 1109142">
        <g id="Grupo_1109087" data-name="Grupo 1109087">
          <g id="Grupo_1109080" data-name="Grupo 1109080">
            <g id="Grupo_1109079" data-name="Grupo 1109079">
              <path id="Trazado_901068" data-name="Trazado 901068" d="M31.1,49.2l-.9-.5V41.3l.9.5Z" fill="#9ea9c9"/>
            </g>
          </g>
          <g id="Grupo_1109082" data-name="Grupo 1109082">
            <g id="Grupo_1109081" data-name="Grupo 1109081">
              <path id="Trazado_901069" data-name="Trazado 901069" d="M30.5,42.1l-.9-.5V36.8l.9.5Z" fill="#b0b8cf"/>
            </g>
          </g>
          <g id="Grupo_1109084" data-name="Grupo 1109084">
            <g id="Grupo_1109083" data-name="Grupo 1109083">
              <path id="Trazado_901070" data-name="Trazado 901070" d="M30.5,37.3l-.9-.5,2.1-1.3.9.6Z" fill="#979eb2"/>
            </g>
          </g>
          <g id="Grupo_1109086" data-name="Grupo 1109086">
            <g id="Grupo_1109085" data-name="Grupo 1109085">
              <path id="Trazado_901071" data-name="Trazado 901071" d="M32.6,36.1v4.8l-.5.3v7.4l-1,.6V41.8l-.6.3V37.3Z" fill="#c9cee2"/>
            </g>
          </g>
        </g>
        <g id="Grupo_1109096" data-name="Grupo 1109096">
          <g id="Grupo_1109089" data-name="Grupo 1109089">
            <g id="Grupo_1109088" data-name="Grupo 1109088">
              <path id="Trazado_901072" data-name="Trazado 901072" d="M26.5,46.5l-.9-.5V38.6l.8.5Z" fill="#9ea9c9"/>
            </g>
          </g>
          <g id="Grupo_1109091" data-name="Grupo 1109091">
            <g id="Grupo_1109090" data-name="Grupo 1109090">
              <path id="Trazado_901073" data-name="Trazado 901073" d="M25.9,39.4l-.9-.5V34.1l.8.5Z" fill="#b0b8cf"/>
            </g>
          </g>
          <g id="Grupo_1109093" data-name="Grupo 1109093">
            <g id="Grupo_1109092" data-name="Grupo 1109092">
              <path id="Trazado_901074" data-name="Trazado 901074" d="M25.8,34.6l-.8-.5,2.1-1.2.9.5Z" fill="#979eb2"/>
            </g>
          </g>
          <g id="Grupo_1109095" data-name="Grupo 1109095">
            <g id="Grupo_1109094" data-name="Grupo 1109094">
              <path id="Trazado_901075" data-name="Trazado 901075" d="M28,33.4v4.8l-.6.3v7.4l-.9.6-.1-7.4-.5.3-.1-4.8Z" fill="#c9cee2"/>
            </g>
          </g>
        </g>
        <g id="Grupo_1109105" data-name="Grupo 1109105">
          <g id="Grupo_1109098" data-name="Grupo 1109098">
            <g id="Grupo_1109097" data-name="Grupo 1109097">
              <path id="Trazado_901076" data-name="Trazado 901076" d="M21.8,43.8l-.9-.5V35.9l.9.5Z" fill="#9ea9c9"/>
            </g>
          </g>
          <g id="Grupo_1109100" data-name="Grupo 1109100">
            <g id="Grupo_1109099" data-name="Grupo 1109099">
              <path id="Trazado_901077" data-name="Trazado 901077" d="M21.2,36.7l-.9-.5V31.4l.9.5Z" fill="#b0b8cf"/>
            </g>
          </g>
          <g id="Grupo_1109102" data-name="Grupo 1109102">
            <g id="Grupo_1109101" data-name="Grupo 1109101">
              <path id="Trazado_901078" data-name="Trazado 901078" d="M21.2,31.9l-.9-.5,2.2-1.2.8.5Z" fill="#979eb2"/>
            </g>
          </g>
          <g id="Grupo_1109104" data-name="Grupo 1109104">
            <g id="Grupo_1109103" data-name="Grupo 1109103">
              <path id="Trazado_901079" data-name="Trazado 901079" d="M23.3,30.7v4.8l-.5.3v7.4l-1,.6V36.4l-.6.3V31.9Z" fill="#c9cee2"/>
            </g>
          </g>
        </g>
        <g id="Grupo_1109114" data-name="Grupo 1109114">
          <g id="Grupo_1109107" data-name="Grupo 1109107">
            <g id="Grupo_1109106" data-name="Grupo 1109106">
              <path id="Trazado_901080" data-name="Trazado 901080" d="M17.2,41.1l-.9-.5V33.2l.8.5Z" fill="#9ea9c9"/>
            </g>
          </g>
          <g id="Grupo_1109109" data-name="Grupo 1109109">
            <g id="Grupo_1109108" data-name="Grupo 1109108">
              <path id="Trazado_901081" data-name="Trazado 901081" d="M16.6,34.1l-.9-.5V28.7l.9.5Z" fill="#b0b8cf"/>
            </g>
          </g>
          <g id="Grupo_1109111" data-name="Grupo 1109111">
            <g id="Grupo_1109110" data-name="Grupo 1109110">
              <path id="Trazado_901082" data-name="Trazado 901082" d="M16.6,29.2l-.9-.5,2.1-1.2.9.5Z" fill="#979eb2"/>
            </g>
          </g>
          <g id="Grupo_1109113" data-name="Grupo 1109113">
            <g id="Grupo_1109112" data-name="Grupo 1109112">
              <path id="Trazado_901083" data-name="Trazado 901083" d="M18.7,28v4.8l-.6.4v7.3l-.9.6-.1-7.4-.5.4V29.2Z" fill="#c9cee2"/>
            </g>
          </g>
        </g>
        <g id="Grupo_1109123" data-name="Grupo 1109123">
          <g id="Grupo_1109116" data-name="Grupo 1109116">
            <g id="Grupo_1109115" data-name="Grupo 1109115">
              <path id="Trazado_901084" data-name="Trazado 901084" d="M12.5,38.4l-.9-.5V30.5l.9.5Z" fill="#9ea9c9"/>
            </g>
          </g>
          <g id="Grupo_1109118" data-name="Grupo 1109118">
            <g id="Grupo_1109117" data-name="Grupo 1109117">
              <path id="Trazado_901085" data-name="Trazado 901085" d="M11.9,31.4l-.9-.5V26l.9.5Z" fill="#b0b8cf"/>
            </g>
          </g>
          <g id="Grupo_1109120" data-name="Grupo 1109120">
            <g id="Grupo_1109119" data-name="Grupo 1109119">
              <path id="Trazado_901086" data-name="Trazado 901086" d="M11.9,26.5,11,26l2.2-1.2.8.5Z" fill="#979eb2"/>
            </g>
          </g>
          <g id="Grupo_1109122" data-name="Grupo 1109122">
            <g id="Grupo_1109121" data-name="Grupo 1109121">
              <path id="Trazado_901087" data-name="Trazado 901087" d="M14,25.3v4.8l-.5.4v7.4l-1,.5V31l-.6.4V26.5Z" fill="#c9cee2"/>
            </g>
          </g>
        </g>
        <g id="Grupo_1109132" data-name="Grupo 1109132">
          <g id="Grupo_1109125" data-name="Grupo 1109125">
            <g id="Grupo_1109124" data-name="Grupo 1109124">
              <path id="Trazado_901088" data-name="Trazado 901088" d="M7.9,35.8,7,35.2V27.9l.8.5Z" fill="#9ea9c9"/>
            </g>
          </g>
          <g id="Grupo_1109127" data-name="Grupo 1109127">
            <g id="Grupo_1109126" data-name="Grupo 1109126">
              <path id="Trazado_901089" data-name="Trazado 901089" d="M7.3,28.7l-.9-.5V23.4l.9.5Z" fill="#b0b8cf"/>
            </g>
          </g>
          <g id="Grupo_1109129" data-name="Grupo 1109129">
            <g id="Grupo_1109128" data-name="Grupo 1109128">
              <path id="Trazado_901090" data-name="Trazado 901090" d="M7.3,23.9l-.9-.5,2.1-1.3.9.5Z" fill="#979eb2"/>
            </g>
          </g>
          <g id="Grupo_1109131" data-name="Grupo 1109131">
            <g id="Grupo_1109130" data-name="Grupo 1109130">
              <path id="Trazado_901091" data-name="Trazado 901091" d="M9.4,22.6v4.9l-.6.3v7.4l-.9.6-.1-7.4-.5.3V23.9Z" fill="#c9cee2"/>
            </g>
          </g>
        </g>
        <g id="Grupo_1109141" data-name="Grupo 1109141">
          <g id="Grupo_1109134" data-name="Grupo 1109134">
            <g id="Grupo_1109133" data-name="Grupo 1109133">
              <path id="Trazado_901092" data-name="Trazado 901092" d="M7.9,35.8,7,35.2V27.9l.8.5Z" fill="#9ea9c9"/>
            </g>
          </g>
          <g id="Grupo_1109136" data-name="Grupo 1109136">
            <g id="Grupo_1109135" data-name="Grupo 1109135">
              <path id="Trazado_901093" data-name="Trazado 901093" d="M7.3,28.7l-.9-.5V23.4l.9.5Z" fill="#b0b8cf"/>
            </g>
          </g>
          <g id="Grupo_1109138" data-name="Grupo 1109138">
            <g id="Grupo_1109137" data-name="Grupo 1109137">
              <path id="Trazado_901094" data-name="Trazado 901094" d="M7.3,23.9l-.9-.5,2.1-1.3.9.5Z" fill="#979eb2"/>
            </g>
          </g>
          <g id="Grupo_1109140" data-name="Grupo 1109140">
            <g id="Grupo_1109139" data-name="Grupo 1109139">
              <path id="Trazado_901095" data-name="Trazado 901095" d="M9.4,22.6v4.9l-.6.3v7.4l-.9.6-.1-7.4-.5.3V23.9Z" fill="#c9cee2"/>
            </g>
          </g>
        </g>
      </g>
      <g id="Grupo_1109206" data-name="Grupo 1109206">
        <g id="Grupo_1109151" data-name="Grupo 1109151">
          <g id="Grupo_1109144" data-name="Grupo 1109144">
            <g id="Grupo_1109143" data-name="Grupo 1109143">
              <path id="Trazado_901096" data-name="Trazado 901096" d="M49.5,38.5l-.8-.5-.1-7.4.9.5Z" fill="#9ea9c9"/>
            </g>
          </g>
          <g id="Grupo_1109146" data-name="Grupo 1109146">
            <g id="Grupo_1109145" data-name="Grupo 1109145">
              <path id="Trazado_901097" data-name="Trazado 901097" d="M48.9,31.4l-.8-.5L48,26.1l.9.5Z" fill="#b0b8cf"/>
            </g>
          </g>
          <g id="Grupo_1109148" data-name="Grupo 1109148">
            <g id="Grupo_1109147" data-name="Grupo 1109147">
              <path id="Trazado_901098" data-name="Trazado 901098" d="M48.9,26.6l-.9-.5,2.2-1.3.9.5Z" fill="#979eb2"/>
            </g>
          </g>
          <g id="Grupo_1109150" data-name="Grupo 1109150">
            <g id="Grupo_1109149" data-name="Grupo 1109149">
              <path id="Trazado_901099" data-name="Trazado 901099" d="M51.1,25.3v4.9l-.6.3v7.4l-1,.6V31.1l-.6.3V26.6Z" fill="#c9cee2"/>
            </g>
          </g>
        </g>
        <g id="Grupo_1109160" data-name="Grupo 1109160">
          <g id="Grupo_1109153" data-name="Grupo 1109153">
            <g id="Grupo_1109152" data-name="Grupo 1109152">
              <path id="Trazado_901100" data-name="Trazado 901100" d="M44.9,35.8l-.9-.5V27.9l.9.5Z" fill="#9ea9c9"/>
            </g>
          </g>
          <g id="Grupo_1109155" data-name="Grupo 1109155">
            <g id="Grupo_1109154" data-name="Grupo 1109154">
              <path id="Trazado_901101" data-name="Trazado 901101" d="M44.3,28.7l-.9-.5V23.4l.9.5Z" fill="#b0b8cf"/>
            </g>
          </g>
          <g id="Grupo_1109157" data-name="Grupo 1109157">
            <g id="Grupo_1109156" data-name="Grupo 1109156">
              <path id="Trazado_901102" data-name="Trazado 901102" d="M44.3,23.9l-.9-.5,2.1-1.2.9.5Z" fill="#979eb2"/>
            </g>
          </g>
          <g id="Grupo_1109159" data-name="Grupo 1109159">
            <g id="Grupo_1109158" data-name="Grupo 1109158">
              <path id="Trazado_901103" data-name="Trazado 901103" d="M46.4,22.7v4.8l-.6.3.1,7.4-1,.6V28.4l-.6.3V23.9Z" fill="#c9cee2"/>
            </g>
          </g>
        </g>
        <g id="Grupo_1109169" data-name="Grupo 1109169">
          <g id="Grupo_1109162" data-name="Grupo 1109162">
            <g id="Grupo_1109161" data-name="Grupo 1109161">
              <path id="Trazado_901104" data-name="Trazado 901104" d="M40.2,33.1l-.8-.5-.1-7.4.9.5Z" fill="#9ea9c9"/>
            </g>
          </g>
          <g id="Grupo_1109164" data-name="Grupo 1109164">
            <g id="Grupo_1109163" data-name="Grupo 1109163">
              <path id="Trazado_901105" data-name="Trazado 901105" d="M39.6,26l-.8-.5V20.7l.8.5Z" fill="#b0b8cf"/>
            </g>
          </g>
          <g id="Grupo_1109166" data-name="Grupo 1109166">
            <g id="Grupo_1109165" data-name="Grupo 1109165">
              <path id="Trazado_901106" data-name="Trazado 901106" d="M39.6,21.2l-.8-.5,2.1-1.2.9.5Z" fill="#979eb2"/>
            </g>
          </g>
          <g id="Grupo_1109168" data-name="Grupo 1109168">
            <g id="Grupo_1109167" data-name="Grupo 1109167">
              <path id="Trazado_901107" data-name="Trazado 901107" d="M41.8,20v4.8l-.6.3v7.4l-1,.6V25.7l-.6.3V21.2Z" fill="#c9cee2"/>
            </g>
          </g>
        </g>
        <g id="Grupo_1109178" data-name="Grupo 1109178">
          <g id="Grupo_1109171" data-name="Grupo 1109171">
            <g id="Grupo_1109170" data-name="Grupo 1109170">
              <path id="Trazado_901108" data-name="Trazado 901108" d="M35.6,30.4l-.9-.5V22.5l.9.5Z" fill="#9ea9c9"/>
            </g>
          </g>
          <g id="Grupo_1109173" data-name="Grupo 1109173">
            <g id="Grupo_1109172" data-name="Grupo 1109172">
              <path id="Trazado_901109" data-name="Trazado 901109" d="M35,23.3l-.9-.5V18l.9.5Z" fill="#b0b8cf"/>
            </g>
          </g>
          <g id="Grupo_1109175" data-name="Grupo 1109175">
            <g id="Grupo_1109174" data-name="Grupo 1109174">
              <path id="Trazado_901110" data-name="Trazado 901110" d="M35,18.5l-.9-.5,2.1-1.2.9.5Z" fill="#979eb2"/>
            </g>
          </g>
          <g id="Grupo_1109177" data-name="Grupo 1109177">
            <g id="Grupo_1109176" data-name="Grupo 1109176">
              <path id="Trazado_901111" data-name="Trazado 901111" d="M37.1,17.3v4.8l-.5.3v7.4l-1,.6V23l-.6.3V18.5Z" fill="#c9cee2"/>
            </g>
          </g>
        </g>
        <g id="Grupo_1109187" data-name="Grupo 1109187">
          <g id="Grupo_1109180" data-name="Grupo 1109180">
            <g id="Grupo_1109179" data-name="Grupo 1109179">
              <path id="Trazado_901112" data-name="Trazado 901112" d="M30.9,27.7l-.8-.5L30,19.8l.9.5Z" fill="#9ea9c9"/>
            </g>
          </g>
          <g id="Grupo_1109182" data-name="Grupo 1109182">
            <g id="Grupo_1109181" data-name="Grupo 1109181">
              <path id="Trazado_901113" data-name="Trazado 901113" d="M30.3,20.7l-.8-.5V15.3l.8.5Z" fill="#b0b8cf"/>
            </g>
          </g>
          <g id="Grupo_1109184" data-name="Grupo 1109184">
            <g id="Grupo_1109183" data-name="Grupo 1109183">
              <path id="Trazado_901114" data-name="Trazado 901114" d="M30.3,15.8l-.8-.5,2.1-1.2.9.5Z" fill="#979eb2"/>
            </g>
          </g>
          <g id="Grupo_1109186" data-name="Grupo 1109186">
            <g id="Grupo_1109185" data-name="Grupo 1109185">
              <path id="Trazado_901115" data-name="Trazado 901115" d="M32.5,14.6v4.8l-.6.4v7.4l-1,.5V20.3l-.6.4V15.8Z" fill="#c9cee2"/>
            </g>
          </g>
        </g>
        <g id="Grupo_1109196" data-name="Grupo 1109196">
          <g id="Grupo_1109189" data-name="Grupo 1109189">
            <g id="Grupo_1109188" data-name="Grupo 1109188">
              <path id="Trazado_901116" data-name="Trazado 901116" d="M26.3,25l-.9-.5V17.1l.9.6Z" fill="#9ea9c9"/>
            </g>
          </g>
          <g id="Grupo_1109191" data-name="Grupo 1109191">
            <g id="Grupo_1109190" data-name="Grupo 1109190">
              <path id="Trazado_901117" data-name="Trazado 901117" d="M25.7,18l-.9-.5V12.6l.9.6Z" fill="#b0b8cf"/>
            </g>
          </g>
          <g id="Grupo_1109193" data-name="Grupo 1109193">
            <g id="Grupo_1109192" data-name="Grupo 1109192">
              <path id="Trazado_901118" data-name="Trazado 901118" d="M25.7,13.2l-.9-.6,2.1-1.2.9.5Z" fill="#979eb2"/>
            </g>
          </g>
          <g id="Grupo_1109195" data-name="Grupo 1109195">
            <g id="Grupo_1109194" data-name="Grupo 1109194">
              <path id="Trazado_901119" data-name="Trazado 901119" d="M27.8,11.9v4.9l-.5.3v7.4l-1,.5V17.7l-.6.3V13.2Z" fill="#c9cee2"/>
            </g>
          </g>
        </g>
        <g id="Grupo_1109205" data-name="Grupo 1109205">
          <g id="Grupo_1109198" data-name="Grupo 1109198">
            <g id="Grupo_1109197" data-name="Grupo 1109197">
              <path id="Trazado_901120" data-name="Trazado 901120" d="M26.3,25l-.9-.5V17.1l.9.6Z" fill="#9ea9c9"/>
            </g>
          </g>
          <g id="Grupo_1109200" data-name="Grupo 1109200">
            <g id="Grupo_1109199" data-name="Grupo 1109199">
              <path id="Trazado_901121" data-name="Trazado 901121" d="M25.7,18l-.9-.5V12.6l.9.6Z" fill="#b0b8cf"/>
            </g>
          </g>
          <g id="Grupo_1109202" data-name="Grupo 1109202">
            <g id="Grupo_1109201" data-name="Grupo 1109201">
              <path id="Trazado_901122" data-name="Trazado 901122" d="M25.7,13.2l-.9-.6,2.1-1.2.9.5Z" fill="#979eb2"/>
            </g>
          </g>
          <g id="Grupo_1109204" data-name="Grupo 1109204">
            <g id="Grupo_1109203" data-name="Grupo 1109203">
              <path id="Trazado_901123" data-name="Trazado 901123" d="M27.8,11.9v4.9l-.5.3v7.4l-1,.5V17.7l-.6.3V13.2Z" fill="#c9cee2"/>
            </g>
          </g>
        </g>
      </g>
      <g id="Grupo_1109218" data-name="Grupo 1109218">
        <g id="Grupo_1109217" data-name="Grupo 1109217">
          <g id="Grupo_1109207" data-name="Grupo 1109207">
            <path id="Trazado_901124" data-name="Trazado 901124" d="M21.4,6.8,4,17v6L34.6,40.6,52,30.5v-6Z" fill="#111d33"/>
          </g>
          <g id="Grupo_1109209" data-name="Grupo 1109209">
            <g id="Grupo_1109208" data-name="Grupo 1109208">
              <path id="Trazado_901125" data-name="Trazado 901125" d="M52,24.5v6L34.6,40.6v-6Z" fill="#1d2943"/>
            </g>
          </g>
          <g id="Grupo_1109211" data-name="Grupo 1109211">
            <g id="Grupo_1109210" data-name="Grupo 1109210">
              <path id="Trazado_901126" data-name="Trazado 901126" d="M34.6,34.6v6L4,23V17Z" fill="#111d33"/>
            </g>
          </g>
          <g id="Grupo_1109216" data-name="Grupo 1109216">
            <g id="Grupo_1109212" data-name="Grupo 1109212">
              <path id="Trazado_901127" data-name="Trazado 901127" d="M52,24.5,34.6,34.6,4,17,21.4,6.8Z" fill="#4c5c75"/>
            </g>
            <g id="Grupo_1109215" data-name="Grupo 1109215">
              <g id="Grupo_1109213" data-name="Grupo 1109213">
                <path id="Trazado_901128" data-name="Trazado 901128" d="M45.1,25.8l2.3-1.3-26-15L8.6,16.9l2.3,1.4,10.5-6.2Z" fill="#1d2943"/>
              </g>
              <g id="Grupo_1109214" data-name="Grupo 1109214">
                <path id="Trazado_901129" data-name="Trazado 901129" d="M45.1,25.8,21.4,12.1,10.9,18.3,34.6,32Z" fill="#111d33"/>
              </g>
            </g>
          </g>
        </g>
      </g>
      <g id="Grupo_1109237" data-name="Grupo 1109237">
        <g id="Grupo_1109220" data-name="Grupo 1109220">
          <g id="Grupo_1109219" data-name="Grupo 1109219">
            <path id="Trazado_901130" data-name="Trazado 901130" d="M25.9,9.7l-1.6.9L23.2,10l1.6-1Z" fill="#b0b8cf"/>
          </g>
        </g>
        <g id="Grupo_1109222" data-name="Grupo 1109222">
          <g id="Grupo_1109221" data-name="Grupo 1109221">
            <path id="Trazado_901131" data-name="Trazado 901131" d="M28.7,11.3l-1.5.9-1.1-.6,1.6-.9Z" fill="#b0b8cf"/>
          </g>
        </g>
        <g id="Grupo_1109224" data-name="Grupo 1109224">
          <g id="Grupo_1109223" data-name="Grupo 1109223">
            <path id="Trazado_901132" data-name="Trazado 901132" d="M31.6,13l-1.6.9-1.1-.6,1.6-.9Z" fill="#b0b8cf"/>
          </g>
        </g>
        <g id="Grupo_1109226" data-name="Grupo 1109226">
          <g id="Grupo_1109225" data-name="Grupo 1109225">
            <path id="Trazado_901133" data-name="Trazado 901133" d="M34.5,14.6l-1.6.9-1.1-.6,1.6-.9Z" fill="#b0b8cf"/>
          </g>
        </g>
        <g id="Grupo_1109228" data-name="Grupo 1109228">
          <g id="Grupo_1109227" data-name="Grupo 1109227">
            <path id="Trazado_901134" data-name="Trazado 901134" d="M37.3,16.3l-1.5.9-1.1-.6,1.6-.9Z" fill="#b0b8cf"/>
          </g>
        </g>
        <g id="Grupo_1109230" data-name="Grupo 1109230">
          <g id="Grupo_1109229" data-name="Grupo 1109229">
            <path id="Trazado_901135" data-name="Trazado 901135" d="M40.2,17.9l-1.6,1-1.1-.7,1.6-.9Z" fill="#b0b8cf"/>
          </g>
        </g>
        <g id="Grupo_1109232" data-name="Grupo 1109232">
          <g id="Grupo_1109231" data-name="Grupo 1109231">
            <path id="Trazado_901136" data-name="Trazado 901136" d="M43.1,19.6l-1.6.9-1.1-.6L42,19Z" fill="#b0b8cf"/>
          </g>
        </g>
        <g id="Grupo_1109234" data-name="Grupo 1109234">
          <g id="Grupo_1109233" data-name="Grupo 1109233">
            <path id="Trazado_901137" data-name="Trazado 901137" d="M45.9,21.2l-1.5,1-1.1-.7,1.6-.9Z" fill="#b0b8cf"/>
          </g>
        </g>
        <g id="Grupo_1109236" data-name="Grupo 1109236">
          <g id="Grupo_1109235" data-name="Grupo 1109235">
            <path id="Trazado_901138" data-name="Trazado 901138" d="M48.8,22.9l-1.6.9-1.1-.6,1.6-.9Z" fill="#b0b8cf"/>
          </g>
        </g>
      </g>
      <g id="Grupo_1109256" data-name="Grupo 1109256">
        <g id="Grupo_1109239" data-name="Grupo 1109239">
          <g id="Grupo_1109238" data-name="Grupo 1109238">
            <path id="Trazado_901139" data-name="Trazado 901139" d="M10.9,18.6l-1.6.9-1-.6L9.8,18Z" fill="#b0b8cf"/>
          </g>
        </g>
        <g id="Grupo_1109241" data-name="Grupo 1109241">
          <g id="Grupo_1109240" data-name="Grupo 1109240">
            <path id="Trazado_901140" data-name="Trazado 901140" d="M13.8,20.2l-1.6,1-1.1-.7,1.6-.9Z" fill="#b0b8cf"/>
          </g>
        </g>
        <g id="Grupo_1109243" data-name="Grupo 1109243">
          <g id="Grupo_1109242" data-name="Grupo 1109242">
            <path id="Trazado_901141" data-name="Trazado 901141" d="M16.7,21.9l-1.6.9L14,22.2l1.6-.9Z" fill="#b0b8cf"/>
          </g>
        </g>
        <g id="Grupo_1109245" data-name="Grupo 1109245">
          <g id="Grupo_1109244" data-name="Grupo 1109244">
            <path id="Trazado_901142" data-name="Trazado 901142" d="M19.5,23.5l-1.6,1-1-.7,1.5-.9Z" fill="#b0b8cf"/>
          </g>
        </g>
        <g id="Grupo_1109247" data-name="Grupo 1109247">
          <g id="Grupo_1109246" data-name="Grupo 1109246">
            <path id="Trazado_901143" data-name="Trazado 901143" d="M22.4,25.2l-1.6.9-1.1-.6,1.6-.9Z" fill="#b0b8cf"/>
          </g>
        </g>
        <g id="Grupo_1109249" data-name="Grupo 1109249">
          <g id="Grupo_1109248" data-name="Grupo 1109248">
            <path id="Trazado_901144" data-name="Trazado 901144" d="M25.3,26.8l-1.6,1-1.1-.7,1.6-.9Z" fill="#b0b8cf"/>
          </g>
        </g>
        <g id="Grupo_1109251" data-name="Grupo 1109251">
          <g id="Grupo_1109250" data-name="Grupo 1109250">
            <path id="Trazado_901145" data-name="Trazado 901145" d="M28.1,28.5l-1.6.9-1-.6,1.5-.9Z" fill="#b0b8cf"/>
          </g>
        </g>
        <g id="Grupo_1109253" data-name="Grupo 1109253">
          <g id="Grupo_1109252" data-name="Grupo 1109252">
            <path id="Trazado_901146" data-name="Trazado 901146" d="M31,30.2l-1.6.9-1.1-.6,1.6-1Z" fill="#b0b8cf"/>
          </g>
        </g>
        <g id="Grupo_1109255" data-name="Grupo 1109255">
          <g id="Grupo_1109254" data-name="Grupo 1109254">
            <path id="Trazado_901147" data-name="Trazado 901147" d="M33.8,31.8l-1.5.9-1.1-.6,1.6-.9Z" fill="#b0b8cf"/>
          </g>
        </g>
      </g>
    </g>
  </g>
</svg>
