<svg xmlns="http://www.w3.org/2000/svg" width="75.949" height="75.949" viewBox="0 0 75.949 75.949">
  <g id="Grupo_1106242" data-name="Grupo 1106242" transform="translate(-228.051 -5036)">
    <g id="Grupo_1106147" data-name="Grupo 1106147" transform="translate(228.051 5036)">
      <g id="Grupo_1103990" data-name="Grupo 1103990" transform="translate(0 0)">
        <g id="Trazado_874102" data-name="Trazado 874102" transform="translate(0)" fill="#f3d02c">
          <path d="M 37.9746208190918 73.44922637939453 C 33.18447875976562 73.44922637939453 28.53894996643066 72.51162719726562 24.16706848144531 70.66248321533203 C 19.94307899475098 68.87588500976562 16.14902114868164 66.31768035888672 12.89029121398926 63.05895614624023 C 9.631549835205078 59.80021286010742 7.073350429534912 56.00615310668945 5.286750316619873 51.78216552734375 C 3.437608957290649 47.41028213500977 2.500009059906006 42.76475524902344 2.500009059906006 37.97461318969727 C 2.500009059906006 33.18447113037109 3.437608957290649 28.53894233703613 5.286750316619873 24.16706085205078 C 7.073350429534912 19.94307136535645 9.631549835205078 16.14901351928711 12.89029121398926 12.89027214050293 C 16.14902114868164 9.631542205810547 19.94307899475098 7.073342800140381 24.16706848144531 5.286742687225342 C 28.53894996643066 3.437601327896118 33.18447875976562 2.500001430511475 37.9746208190918 2.500001430511475 C 42.76476287841797 2.500001430511475 47.4102897644043 3.437601327896118 51.78217315673828 5.286742687225342 C 56.00616073608398 7.073342800140381 59.80022048950195 9.631542205810547 63.05896377563477 12.89027214050293 C 66.31768798828125 16.14901351928711 68.87589263916016 19.94307136535645 70.66249084472656 24.16706085205078 C 72.51163482666016 28.53894233703613 73.44923400878906 33.18447113037109 73.44923400878906 37.97461318969727 C 73.44923400878906 42.76475524902344 72.51163482666016 47.41028213500977 70.66249084472656 51.78216552734375 C 68.87589263916016 56.00615310668945 66.31768798828125 59.80021286010742 63.05896377563477 63.05895614624023 C 59.80022048950195 66.31768035888672 56.00616073608398 68.87588500976562 51.78217315673828 70.66248321533203 C 47.4102897644043 72.51162719726562 42.76476287841797 73.44922637939453 37.9746208190918 73.44922637939453 Z" stroke="none"/>
          <path d="M 37.9746208190918 5 C 33.52087783813477 5 29.20300674438477 5.87115478515625 25.14094924926758 7.589256286621094 C 21.21495056152344 9.24981689453125 17.68799209594727 11.62809753417969 14.65805053710938 14.65804290771484 C 11.62810516357422 17.68798446655273 9.249824523925781 21.21494293212891 7.589263916015625 25.14094161987305 C 5.871162414550781 29.20299911499023 5.000007629394531 33.52087020874023 5.000007629394531 37.97461318969727 C 5.000007629394531 42.4283561706543 5.871162414550781 46.7462272644043 7.589263916015625 50.80828475952148 C 9.249824523925781 54.73426818847656 11.62810516357422 58.26122665405273 14.65805053710938 61.29118347167969 C 17.68800735473633 64.32112884521484 21.21496200561523 66.69941711425781 25.14094924926758 68.35997009277344 C 29.20300674438477 70.07807159423828 33.52087783813477 70.94922637939453 37.9746208190918 70.94922637939453 C 42.42836380004883 70.94922637939453 46.74623489379883 70.07807159423828 50.80829238891602 68.35997009277344 C 54.73429107666016 66.69941711425781 58.26124954223633 64.32112884521484 61.29119110107422 61.29118347167969 C 64.32113647460938 58.2612419128418 66.69941711425781 54.73428344726562 68.35997772216797 50.80828475952148 C 70.07807922363281 46.7462272644043 70.94923400878906 42.4283561706543 70.94923400878906 37.97461318969727 C 70.94923400878906 33.52087020874023 70.07807922363281 29.20299911499023 68.35997772216797 25.14094161987305 C 66.69941711425781 21.21494293212891 64.32113647460938 17.68798446655273 61.29119110107422 14.65804290771484 C 58.26124954223633 11.62809753417969 54.73429107666016 9.24981689453125 50.80829238891602 7.589256286621094 C 46.74623489379883 5.87115478515625 42.42836380004883 5 37.9746208190918 5 M 37.9746208190918 0 C 58.94741821289062 0 75.94923400878906 17.00181198120117 75.94923400878906 37.97461318969727 C 75.94923400878906 58.9473991394043 58.94741821289062 75.94922637939453 37.9746208190918 75.94922637939453 C 17.00183486938477 75.94922637939453 7.62939453125e-06 58.9473991394043 7.62939453125e-06 37.97461318969727 C 7.62939453125e-06 17.00181198120117 17.00183486938477 0 37.9746208190918 0 Z" stroke="none" fill="#3c6d9d"/>
        </g>
      </g>
    </g>
    <g id="poste-electrico" transform="translate(239.051 5047)">
      <path id="Trazado_896303" data-name="Trazado 896303" d="M30.732,25.588a9.5,9.5,0,0,1-7.919-4.238l-1.645-2.468,1.4-.937,1.645,2.468a7.83,7.83,0,0,0,13.03,0l1.645-2.468,1.4.937L38.652,21.35a9.5,9.5,0,0,1-7.919,4.238Z" transform="translate(-3.146 -2.643)" fill="#686868"/>
      <path id="Trazado_896304" data-name="Trazado 896304" d="M37,16H55.569v3.376H37Z" transform="translate(-5.615 -2.34)" fill="#939393"/>
      <path id="Trazado_896305" data-name="Trazado 896305" d="M34,12H57.633v3.376H34Z" transform="translate(-5.147 -1.716)" fill="#686868"/>
      <path id="Trazado_896306" data-name="Trazado 896306" d="M34,12v1.688H55.1a.844.844,0,0,0,.844-.844V12Z" transform="translate(-5.147 -1.716)" fill="#939393"/>
      <path id="Trazado_896307" data-name="Trazado 896307" d="M45,10.44V2h5.064v8.44" transform="translate(-6.863 -0.156)" fill="#b5b5b5"/>
      <path id="Trazado_896308" data-name="Trazado 896308" d="M45,16V54.825h5.064V16" transform="translate(-6.863 -2.34)" fill="#b5b5b5"/>
      <path id="Trazado_896309" data-name="Trazado 896309" d="M45,16V52.293h.844a1.688,1.688,0,0,0,1.688-1.688V16Z" transform="translate(-6.863 -2.34)" fill="#ccc"/>
      <g id="Grupo_1106241" data-name="Grupo 1106241" transform="translate(30.541 6.908)">
        <path id="Trazado_896310" data-name="Trazado 896310" d="M40,8h1.688v3.376H40Z" transform="translate(-36.624 -8)" fill="#474747"/>
        <path id="Trazado_896311" data-name="Trazado 896311" d="M36,8h1.688v3.376H36Z" transform="translate(-36 -8)" fill="#474747"/>
        <path id="Trazado_896312" data-name="Trazado 896312" d="M58,8h1.688v3.376H58Z" transform="translate(-39.431 -8)" fill="#474747"/>
        <path id="Trazado_896313" data-name="Trazado 896313" d="M54,8h1.688v3.376H54Z" transform="translate(-38.808 -8)" fill="#474747"/>
      </g>
      <path id="Trazado_896314" data-name="Trazado 896314" d="M45,2h2.532v8.44H45Z" transform="translate(-6.863 -0.156)" fill="#ccc"/>
      <path id="Trazado_896315" data-name="Trazado 896315" d="M5,16H23.569v3.376H5Z" transform="translate(-0.624 -2.34)" fill="#939393"/>
      <path id="Trazado_896316" data-name="Trazado 896316" d="M2,12H25.633v3.376H2Z" transform="translate(-0.156 -1.716)" fill="#686868"/>
      <path id="Trazado_896317" data-name="Trazado 896317" d="M2,12v1.688H23.1a.844.844,0,0,0,.844-.844V12Z" transform="translate(-0.156 -1.716)" fill="#939393"/>
      <path id="Trazado_896318" data-name="Trazado 896318" d="M13,10.44V2h5.064v8.44" transform="translate(-1.872 -0.156)" fill="#b5b5b5"/>
      <path id="Trazado_896319" data-name="Trazado 896319" d="M13,16V54.825h5.064V16" transform="translate(-1.872 -2.34)" fill="#b5b5b5"/>
      <path id="Trazado_896320" data-name="Trazado 896320" d="M13,16V52.293h.844a1.688,1.688,0,0,0,1.688-1.688V16Z" transform="translate(-1.872 -2.34)" fill="#ccc"/>
      <path id="Trazado_896321" data-name="Trazado 896321" d="M8,8H9.688v3.376H8Z" transform="translate(-1.092 -1.092)" fill="#474747"/>
      <path id="Trazado_896322" data-name="Trazado 896322" d="M4,8H5.688v3.376H4Z" transform="translate(-0.468 -1.092)" fill="#474747"/>
      <path id="Trazado_896323" data-name="Trazado 896323" d="M26,8h1.688v3.376H26Z" transform="translate(-3.899 -1.092)" fill="#474747"/>
      <path id="Trazado_896324" data-name="Trazado 896324" d="M22,8h1.688v3.376H22Z" transform="translate(-3.275 -1.092)" fill="#474747"/>
      <path id="Trazado_896325" data-name="Trazado 896325" d="M23,40H38.192V58.569H23Z" transform="translate(-3.431 -6.083)" fill="#f4a93c"/>
      <path id="Trazado_896326" data-name="Trazado 896326" d="M23,40V56.036H33.128a1.688,1.688,0,0,0,1.688-1.688V40Z" transform="translate(-3.431 -6.083)" fill="#f6b940"/>
      <path id="Trazado_896327" data-name="Trazado 896327" d="M27,39.376V36h8.44v3.376" transform="translate(-4.055 -5.459)" fill="#686868"/>
      <path id="Trazado_896328" data-name="Trazado 896328" d="M33.752,36.844V36H27v1.688h5.908A.844.844,0,0,0,33.752,36.844Z" transform="translate(-4.055 -5.459)" fill="#939393"/>
      <path id="Trazado_896329" data-name="Trazado 896329" d="M31.22,44,27,51.6h3.376v4.22l5.064-7.6H31.22Z" transform="translate(-4.055 -6.707)" fill="#fce797"/>
      <path id="Trazado_896330" data-name="Trazado 896330" d="M13,2h2.532v8.44H13Z" transform="translate(-1.872 -0.156)" fill="#ccc"/>
      <path id="Trazado_896331" data-name="Trazado 896331" d="M52.486,9.44H50.8V6.908H49.109V9.44H47.421V6.908H45.733V9.44H44.045v-7.6A.844.844,0,0,0,43.2,1H38.137a.844.844,0,0,0-.844.844v7.6H35.605V6.908H33.917V9.44H32.229V6.908H30.541V9.44H28.853a.844.844,0,0,0-.844.844V13.66a.844.844,0,0,0,.844.844h1.688v2.532a.844.844,0,0,0,.844.844h2.633a7.812,7.812,0,0,1-12.861,0h1.788a.844.844,0,0,0,.844-.844V14.5h1.688a.844.844,0,0,0,.844-.844V10.284a.844.844,0,0,0-.844-.844H23.789V6.908H22.1V9.44H20.413V6.908H18.725V9.44H17.036v-7.6A.844.844,0,0,0,16.192,1H11.128a.844.844,0,0,0-.844.844v7.6H8.6V6.908H6.908V9.44H5.22V6.908H3.532V9.44H1.844A.844.844,0,0,0,1,10.284V13.66a.844.844,0,0,0,.844.844H3.532v2.532a.844.844,0,0,0,.844.844h5.908V52.486a.844.844,0,0,0,.844.844h5.064a.844.844,0,0,0,.844-.844V17.881h2.081l.55.826a9.519,9.519,0,0,0,15.839,0l.55-.826h1.236V52.486a.844.844,0,0,0,.844.844H43.2a.844.844,0,0,0,.844-.844V17.881h5.908a.844.844,0,0,0,.844-.844V14.5h1.688a.844.844,0,0,0,.844-.844V10.284A.844.844,0,0,0,52.486,9.44ZM11.972,2.688h3.376V9.44H11.972Zm-9.284,8.44H24.633v1.688H2.688ZM5.22,16.192V14.5h5.064v1.688Zm6.752,35.449V14.5h3.376V51.642ZM17.036,14.5H22.1v1.688H17.036ZM38.981,2.688h3.376V9.44H38.981Zm-6.752,13.5V14.5h5.064v1.688Zm6.752,35.449V14.5h3.376V51.642ZM49.109,16.192H44.045V14.5h5.064Zm2.532-3.376H29.7V11.128H51.642Z" transform="translate(0)"/>
      <path id="Trazado_896332" data-name="Trazado 896332" d="M38.036,38.376H35.5V35.844A.844.844,0,0,0,34.66,35H26.22a.844.844,0,0,0-.844.844v2.532H22.844A.844.844,0,0,0,22,39.22V57.789a.844.844,0,0,0,.844.844H38.036a.844.844,0,0,0,.844-.844V39.22A.844.844,0,0,0,38.036,38.376ZM27.064,36.688h6.752v1.688H27.064ZM37.192,56.945h-13.5V40.064h13.5Z" transform="translate(-3.275 -5.303)"/>
      <path id="Trazado_896333" data-name="Trazado 896333" d="M26.844,52.284h2.532V55.66a.844.844,0,0,0,1.546.468l5.064-7.6a.844.844,0,0,0-.7-1.312H31.908V43.844a.844.844,0,0,0-1.582-.41l-4.22,7.6a.844.844,0,0,0,.738,1.254ZM30.22,47.1v.963a.844.844,0,0,0,.844.844h2.643l-2.643,3.967V51.44a.844.844,0,0,0-.844-.844H28.279Z" transform="translate(-3.899 -6.551)"/>
    </g>
  </g>
</svg>
