<svg xmlns="http://www.w3.org/2000/svg" width="144" height="138" viewBox="0 0 144 138">
  <g id="Grupo_1115258" data-name="Grupo 1115258" transform="translate(-239.051 -4821)">
    <rect id="Rectángulo_401557" data-name="Rectángulo 401557" width="144" height="138" rx="12" transform="translate(239.051 4821)" fill="#78b62e"/>
    <g id="mecanismo" transform="translate(249.051 4794.773)">
      <g id="Grupo_1115254" data-name="Grupo 1115254" transform="translate(2.407 46.635)">
        <g id="Grupo_1115250" data-name="Grupo 1115250" transform="translate(46.486 0)">
          <g id="Grupo_1115246" data-name="Grupo 1115246" transform="translate(0)">
            <g id="Grupo_1115245" data-name="Grupo 1115245">
              <g id="Grupo_1115244" data-name="Grupo 1115244">
                <path id="Trazado_902548" data-name="Trazado 902548" d="M245.554,122.949l.441-3.709a29.657,29.657,0,0,0,8.748-3.627l2.936,2.312a3.664,3.664,0,0,0,4.858-.288l3.986-3.987a3.665,3.665,0,0,0,.288-4.859l-2.312-2.937a29.662,29.662,0,0,0,3.626-8.749l3.708-.441a3.665,3.665,0,0,0,3.232-3.639V87.388a3.665,3.665,0,0,0-3.232-3.639l-3.708-.441a29.661,29.661,0,0,0-3.626-8.75l2.312-2.937a3.666,3.666,0,0,0-.288-4.859l-3.986-3.987a3.664,3.664,0,0,0-4.858-.288L254.743,64.8a29.657,29.657,0,0,0-8.748-3.627l-.441-3.709a3.665,3.665,0,0,0-3.639-3.232h-5.637a3.665,3.665,0,0,0-3.639,3.232l-.441,3.709a29.658,29.658,0,0,0-8.748,3.627l-2.936-2.312a3.664,3.664,0,0,0-4.858.288l-3.986,3.987a3.665,3.665,0,0,0-.288,4.859l2.312,2.937a29.66,29.66,0,0,0-3.626,8.75l-3.708.441a3.665,3.665,0,0,0-3.232,3.639v5.638a3.665,3.665,0,0,0,3.232,3.639l3.708.441a29.656,29.656,0,0,0,3.626,8.749l-2.312,2.937a3.666,3.666,0,0,0,.288,4.859l3.986,3.987a3.664,3.664,0,0,0,4.858.288l2.936-2.312a29.655,29.655,0,0,0,8.748,3.627l.441,3.709a3.665,3.665,0,0,0,3.639,3.232h5.637A3.665,3.665,0,0,0,245.554,122.949ZM218.193,90.206a20.9,20.9,0,1,1,20.9,20.906A20.9,20.9,0,0,1,218.193,90.206Z" transform="translate(-203.126 -54.232)" fill="#d1aee5"/>
              </g>
            </g>
          </g>
          <g id="Grupo_1115249" data-name="Grupo 1115249" transform="translate(26.075 26.076)">
            <g id="Grupo_1115248" data-name="Grupo 1115248" transform="translate(0 0)">
              <g id="Grupo_1115247" data-name="Grupo 1115247">
                <ellipse id="Elipse_11713" data-name="Elipse 11713" cx="9.867" cy="9.868" rx="9.867" ry="9.868" transform="translate(0 0.059) rotate(-0.172)" fill="#ccf5fc"/>
              </g>
            </g>
          </g>
        </g>
        <g id="Grupo_1115253" data-name="Grupo 1115253" transform="translate(0 43.582)">
          <g id="Grupo_1115252" data-name="Grupo 1115252">
            <g id="Grupo_1115251" data-name="Grupo 1115251">
              <path id="Trazado_902549" data-name="Trazado 902549" d="M59.1,256.384l-2.65-.315a21.2,21.2,0,0,0-2.592-6.253l1.652-2.1a2.62,2.62,0,0,0-.206-3.472L52.457,241.4a2.619,2.619,0,0,0-3.472-.206l-2.1,1.652a21.2,21.2,0,0,0-6.252-2.592l-.315-2.65a2.619,2.619,0,0,0-2.6-2.31H33.691a2.619,2.619,0,0,0-2.6,2.31l-.315,2.65a21.189,21.189,0,0,0-6.252,2.592l-2.1-1.652a2.619,2.619,0,0,0-3.472.206L16.1,244.245a2.62,2.62,0,0,0-.206,3.472l1.652,2.1a21.189,21.189,0,0,0-2.591,6.253l-2.65.315a2.619,2.619,0,0,0-2.31,2.6v4.029a2.619,2.619,0,0,0,2.31,2.6l2.65.315a21.2,21.2,0,0,0,2.591,6.253l-1.652,2.1a2.619,2.619,0,0,0,.206,3.472l2.849,2.849a2.619,2.619,0,0,0,3.472.206l2.1-1.652a21.194,21.194,0,0,0,6.252,2.592l.315,2.65a2.619,2.619,0,0,0,2.6,2.31h4.028a2.619,2.619,0,0,0,2.6-2.31l.315-2.65a21.189,21.189,0,0,0,6.252-2.592l2.1,1.652a2.619,2.619,0,0,0,3.472-.206l2.849-2.849a2.62,2.62,0,0,0,.206-3.472l-1.652-2.1a21.2,21.2,0,0,0,2.592-6.253l2.65-.315a2.619,2.619,0,0,0,2.31-2.6v-4.029A2.619,2.619,0,0,0,59.1,256.384Zm-23.4,15.1A10.481,10.481,0,1,1,46.185,261,10.48,10.48,0,0,1,35.7,271.48Z" transform="translate(-10 -235.291)" fill="#ff7d97"/>
            </g>
          </g>
        </g>
      </g>
      <g id="Grupo_1115257" data-name="Grupo 1115257" transform="translate(0 44.227)">
        <path id="Trazado_902550" data-name="Trazado 902550" d="M303.357,387.779l-1.114-6.388a2.407,2.407,0,0,0-2.785-1.958l-6.388,1.114a2.407,2.407,0,1,0,.827,4.743l.4-.07a23.338,23.338,0,0,1-31.068,7.6A2.407,2.407,0,1,0,260.859,397a27.988,27.988,0,0,0,13.825,3.666,28.294,28.294,0,0,0,7.561-1.035,27.946,27.946,0,0,0,16.2-11.971l.164.942a2.407,2.407,0,0,0,4.743-.826Z" transform="translate(-197.141 -298.72)"/>
        <path id="Trazado_902551" data-name="Trazado 902551" d="M105.65,44.318A28.155,28.155,0,0,0,75.51,68.649l-.546-.784a2.407,2.407,0,0,0-3.951,2.75l3.7,5.322a2.407,2.407,0,0,0,3.351.6l5.321-3.705a2.407,2.407,0,0,0-2.751-3.951l-.334.232a23.341,23.341,0,0,1,24.962-20,2.407,2.407,0,0,0,.383-4.8Z" transform="translate(-53.591 -44.227)"/>
        <path id="Trazado_902552" data-name="Trazado 902552" d="M30.126,281.522H26.1a5.028,5.028,0,0,1-4.991-4.433l-.124-1.045a23.533,23.533,0,0,1-3.834-1.59l-.828.652a5.028,5.028,0,0,1-6.663-.4L6.81,271.863a5.029,5.029,0,0,1-.395-6.663l.652-.828a23.526,23.526,0,0,1-1.59-3.835l-1.044-.124A5.028,5.028,0,0,1,0,255.422v-4.029A5.028,5.028,0,0,1,4.432,246.4l1.044-.124a23.576,23.576,0,0,1,1.59-3.835l-.652-.828a5.029,5.029,0,0,1,.395-6.663L9.658,232.1a5.028,5.028,0,0,1,6.663-.4l.828.652a23.536,23.536,0,0,1,3.834-1.59l.124-1.045a5.028,5.028,0,0,1,4.991-4.433h4.028a5.028,5.028,0,0,1,4.991,4.433l.124,1.045a23.543,23.543,0,0,1,3.834,1.59l.828-.652a5.028,5.028,0,0,1,6.663.4l2.849,2.849a5.029,5.029,0,0,1,.4,6.663l-.652.828a23.567,23.567,0,0,1,1.59,3.835l1.044.124a5.028,5.028,0,0,1,4.432,4.991v4.029a5.028,5.028,0,0,1-4.432,4.991l-1.045.124a23.557,23.557,0,0,1-1.59,3.835l.652.828a5.029,5.029,0,0,1-.395,6.663l-2.849,2.849a5.027,5.027,0,0,1-6.663.4l-.828-.652a23.536,23.536,0,0,1-3.834,1.59l-.124,1.045a5.029,5.029,0,0,1-4.991,4.433Zm-13.2-12.366a2.4,2.4,0,0,1,1.264.359,18.761,18.761,0,0,0,5.542,2.3,2.407,2.407,0,0,1,1.836,2.058l.315,2.65a.212.212,0,0,0,.21.187h4.028a.212.212,0,0,0,.21-.187l.315-2.65a2.407,2.407,0,0,1,1.836-2.058,18.758,18.758,0,0,0,5.542-2.3,2.407,2.407,0,0,1,2.754.157l2.1,1.652a.212.212,0,0,0,.281-.017l2.849-2.849a.213.213,0,0,0,.017-.281l-1.652-2.1a2.407,2.407,0,0,1-.157-2.753,18.766,18.766,0,0,0,2.3-5.543,2.407,2.407,0,0,1,2.058-1.836l2.65-.315a.212.212,0,0,0,.187-.211v-4.029a.212.212,0,0,0-.187-.211l-2.65-.315a2.407,2.407,0,0,1-2.058-1.836,18.769,18.769,0,0,0-2.3-5.543,2.407,2.407,0,0,1,.157-2.753l1.652-2.1a.212.212,0,0,0-.017-.281l-2.849-2.849a.212.212,0,0,0-.281-.017l-2.1,1.652a2.408,2.408,0,0,1-2.754.157,18.763,18.763,0,0,0-5.542-2.3,2.407,2.407,0,0,1-1.836-2.058l-.315-2.65a.212.212,0,0,0-.21-.187H26.1a.212.212,0,0,0-.21.187l-.315,2.65A2.407,2.407,0,0,1,23.737,235a18.761,18.761,0,0,0-5.542,2.3,2.407,2.407,0,0,1-2.754-.157l-2.1-1.652a.212.212,0,0,0-.281.017l-2.849,2.849a.213.213,0,0,0-.017.281l1.652,2.1a2.407,2.407,0,0,1,.157,2.753,18.763,18.763,0,0,0-2.3,5.543,2.407,2.407,0,0,1-2.058,1.836L5,251.181a.212.212,0,0,0-.187.211v4.029a.213.213,0,0,0,.187.211l2.65.315a2.407,2.407,0,0,1,2.058,1.836,18.773,18.773,0,0,0,2.3,5.543,2.407,2.407,0,0,1-.157,2.753l-1.652,2.1a.213.213,0,0,0,.017.281l2.849,2.849a.212.212,0,0,0,.281.017l2.1-1.652A2.409,2.409,0,0,1,16.931,269.156ZM28.112,266.3A12.888,12.888,0,1,1,41,253.407,12.9,12.9,0,0,1,28.112,266.3Zm0-20.962a8.074,8.074,0,1,0,8.073,8.074A8.082,8.082,0,0,0,28.112,245.334Z" transform="translate(0 -181.708)"/>
        <path id="Trazado_902553" data-name="Trazado 902553" d="M234.322,120.995h-5.637a6.074,6.074,0,0,1-6.029-5.355l-.248-2.086a31.984,31.984,0,0,1-6.346-2.632l-1.652,1.3a6.074,6.074,0,0,1-8.05-.477l-3.986-3.986a6.075,6.075,0,0,1-.477-8.05l1.3-1.652a32,32,0,0,1-2.631-6.348l-2.085-.248a6.075,6.075,0,0,1-5.354-6.03V79.794a6.075,6.075,0,0,1,5.354-6.03l2.085-.248a31.982,31.982,0,0,1,2.631-6.348l-1.3-1.652a6.076,6.076,0,0,1,.477-8.05l3.986-3.987a6.074,6.074,0,0,1,8.05-.477l1.652,1.3a32,32,0,0,1,6.346-2.632l.248-2.086a6.075,6.075,0,0,1,6.029-5.355h5.637a6.074,6.074,0,0,1,6.029,5.355l.248,2.086a32,32,0,0,1,6.346,2.631L248.6,53a6.074,6.074,0,0,1,8.05.477l3.986,3.986a6.076,6.076,0,0,1,.477,8.05l-1.3,1.652a32.01,32.01,0,0,1,2.631,6.348l2.085.248a6.075,6.075,0,0,1,5.355,6.03v5.638a6.075,6.075,0,0,1-5.355,6.03l-2.085.248a32,32,0,0,1-2.631,6.348l1.3,1.652a6.076,6.076,0,0,1-.477,8.05l-3.986,3.987a6.074,6.074,0,0,1-8.05.477l-1.652-1.3a31.983,31.983,0,0,1-6.346,2.631l-.248,2.086A6.074,6.074,0,0,1,234.322,120.995Zm-18.465-15.382a2.4,2.4,0,0,1,1.264.359,27.212,27.212,0,0,0,8.039,3.333,2.407,2.407,0,0,1,1.836,2.058l.441,3.709a1.258,1.258,0,0,0,1.249,1.109h5.637a1.258,1.258,0,0,0,1.249-1.109l.441-3.709a2.407,2.407,0,0,1,1.836-2.058,27.211,27.211,0,0,0,8.039-3.333,2.407,2.407,0,0,1,2.754.157l2.936,2.312a1.258,1.258,0,0,0,1.667-.1l3.986-3.987a1.259,1.259,0,0,0,.1-1.668l-2.312-2.937A2.407,2.407,0,0,1,254.859,97a27.224,27.224,0,0,0,3.333-8.04,2.407,2.407,0,0,1,2.058-1.836l3.708-.441a1.258,1.258,0,0,0,1.109-1.249V79.794a1.259,1.259,0,0,0-1.109-1.249L260.25,78.1a2.407,2.407,0,0,1-2.058-1.836,27.221,27.221,0,0,0-3.333-8.04,2.407,2.407,0,0,1,.157-2.753l2.312-2.937a1.259,1.259,0,0,0-.1-1.668l-3.986-3.987a1.258,1.258,0,0,0-1.667-.1L248.64,59.1a2.408,2.408,0,0,1-2.754.157,27.217,27.217,0,0,0-8.039-3.333,2.407,2.407,0,0,1-1.836-2.058l-.441-3.709a1.259,1.259,0,0,0-1.249-1.109h-5.637a1.258,1.258,0,0,0-1.249,1.109L227,53.862a2.407,2.407,0,0,1-1.836,2.058,27.211,27.211,0,0,0-8.039,3.333,2.407,2.407,0,0,1-2.754-.157l-2.936-2.312a1.257,1.257,0,0,0-1.667.1l-3.986,3.987a1.259,1.259,0,0,0-.1,1.668l2.312,2.937a2.407,2.407,0,0,1,.157,2.753,27.225,27.225,0,0,0-3.333,8.04,2.407,2.407,0,0,1-2.058,1.836l-3.708.441a1.258,1.258,0,0,0-1.109,1.249v5.638a1.259,1.259,0,0,0,1.109,1.249l3.708.441a2.407,2.407,0,0,1,2.058,1.836A27.219,27.219,0,0,0,208.148,97a2.407,2.407,0,0,1-.157,2.753l-2.312,2.937a1.259,1.259,0,0,0,.1,1.668l3.986,3.987a1.258,1.258,0,0,0,1.667.1l2.936-2.312a2.4,2.4,0,0,1,1.489-.516Zm22.1,9.743h0Zm-6.458-9.43a23.313,23.313,0,1,1,20.664-34.11,2.407,2.407,0,1,1-4.265,2.232,18.5,18.5,0,1,0,0,17.127,2.407,2.407,0,0,1,4.266,2.231A23.259,23.259,0,0,1,231.5,105.926Zm20.9-20.885a2.415,2.415,0,1,1,2.363-1.946A2.429,2.429,0,0,1,252.407,85.041Z" transform="translate(-146.64 -44.23)"/>
        <g id="Grupo_1115256" data-name="Grupo 1115256" transform="translate(72.59 26.108)">
          <g id="Grupo_1115255" data-name="Grupo 1115255">
            <path id="Trazado_902554" data-name="Trazado 902554" d="M313.846,177.24a12.275,12.275,0,1,1,12.274-12.275A12.288,12.288,0,0,1,313.846,177.24Zm0-19.736a7.461,7.461,0,1,0,7.46,7.461A7.469,7.469,0,0,0,313.846,157.5Z" transform="translate(-301.572 -152.69)"/>
          </g>
        </g>
      </g>
    </g>
  </g>
</svg>
