<svg xmlns="http://www.w3.org/2000/svg" width="87.781" height="87.781" viewBox="0 0 87.781 87.781">
  <g id="Grupo_1109069" data-name="Grupo 1109069" transform="translate(-1019.051 -3885)">
    <g id="Grupo_1106272" data-name="Grupo 1106272" transform="translate(1019.051 3885)">
      <g id="Grupo_1103990" data-name="Grupo 1103990" transform="translate(0 0)">
        <g id="Trazado_874102" data-name="Trazado 874102" transform="translate(0)" fill="#f3d02c">
          <path d="M 43.8906364440918 85.28125762939453 C 38.30183792114258 85.28125762939453 32.88154220581055 84.18724060058594 27.78030395507812 82.02960205078125 C 22.85183715820312 79.94503021240234 18.42508888244629 76.96026611328125 14.62304973602295 73.15821838378906 C 10.82099628448486 69.35617828369141 7.836236476898193 64.92942810058594 5.751663208007812 60.00096130371094 C 3.59402322769165 54.89972305297852 2.500009775161743 49.47942733764648 2.500009775161743 43.89062881469727 C 2.500009775161743 38.30183029174805 3.59402322769165 32.88153457641602 5.751663208007812 27.78029632568359 C 7.836236476898193 22.85182952880859 10.82099628448486 18.42508125305176 14.62304973602295 14.62304210662842 C 18.42508888244629 10.82098865509033 22.85183715820312 7.836228847503662 27.78030395507812 5.751655578613281 C 32.88154220581055 3.594015598297119 38.30183792114258 2.500002145767212 43.8906364440918 2.500002145767212 C 49.47943496704102 2.500002145767212 54.89973068237305 3.594015598297119 60.00096893310547 5.751655578613281 C 64.92943572998047 7.836228847503662 69.35618591308594 10.82098865509033 73.15822601318359 14.62304210662842 C 76.96027374267578 18.42508125305176 79.94503784179688 22.85182952880859 82.02960968017578 27.78029632568359 C 84.18724822998047 32.88153457641602 85.28126525878906 38.30183029174805 85.28126525878906 43.89062881469727 C 85.28126525878906 49.47942733764648 84.18724822998047 54.89972305297852 82.02960968017578 60.00096130371094 C 79.94503784179688 64.92942810058594 76.96027374267578 69.35617828369141 73.15822601318359 73.15821838378906 C 69.35618591308594 76.96026611328125 64.92943572998047 79.94503021240234 60.00096893310547 82.02960205078125 C 54.89973068237305 84.18724060058594 49.47943496704102 85.28125762939453 43.8906364440918 85.28125762939453 Z" stroke="none"/>
          <path d="M 43.8906364440918 4.999992370605469 C 38.63823699951172 4.999992370605469 33.54560470581055 6.027565002441406 28.75418472290039 8.054161071777344 C 24.12371826171875 10.0126953125 19.96407318115234 12.81754302978516 16.39080047607422 16.39079284667969 C 12.81755065917969 19.96406555175781 10.01270294189453 24.12371063232422 8.054168701171875 28.75417709350586 C 6.027572631835938 33.54559707641602 5 38.63822937011719 5 43.89062881469727 C 5 49.14302825927734 6.027572631835938 54.23566055297852 8.054168701171875 59.02707672119141 C 10.01270294189453 63.65754699707031 12.81755065917969 67.81719970703125 16.39080047607422 71.39046478271484 C 19.96407318115234 74.96371459960938 24.12371826171875 77.76856231689453 28.75418472290039 79.72709655761719 C 33.54560470581055 81.75369262695312 38.63823699951172 82.78126525878906 43.8906364440918 82.78126525878906 C 49.14303588867188 82.78126525878906 54.23566818237305 81.75369262695312 59.02708435058594 79.72709655761719 C 63.65755462646484 77.76856231689453 67.81719970703125 74.96371459960938 71.39047241210938 71.39046478271484 C 74.96372222900391 67.81719970703125 77.76856994628906 63.65754699707031 79.72710418701172 59.02707672119141 C 81.75370025634766 54.23566055297852 82.78127288818359 49.14302825927734 82.78127288818359 43.89062881469727 C 82.78127288818359 38.63822937011719 81.75370025634766 33.54559707641602 79.72710418701172 28.75417709350586 C 77.76856994628906 24.12371063232422 74.96372222900391 19.96406555175781 71.39047241210938 16.39079284667969 C 67.81719970703125 12.81754302978516 63.65755462646484 10.0126953125 59.02708435058594 8.054161071777344 C 54.23566818237305 6.027565002441406 49.14303588867188 4.999992370605469 43.8906364440918 4.999992370605469 M 43.8906364440918 -7.62939453125e-06 C 68.13075256347656 -7.62939453125e-06 87.78127288818359 19.6505126953125 87.78127288818359 43.89062881469727 C 87.78127288818359 68.13074493408203 68.13075256347656 87.78126525878906 43.8906364440918 87.78126525878906 C 19.65052032470703 87.78126525878906 0 68.13074493408203 0 43.89062881469727 C 0 19.6505126953125 19.65052032470703 -7.62939453125e-06 43.8906364440918 -7.62939453125e-06 Z" stroke="none" fill="#fff"/>
        </g>
      </g>
    </g>
    <g id="microprocesador" transform="translate(1038.051 3904)">
      <g id="Grupo_1109067" data-name="Grupo 1109067">
        <g id="Grupo_1109066" data-name="Grupo 1109066">
          <g id="Grupo_1109065" data-name="Grupo 1109065">
            <path id="Trazado_901046" data-name="Trazado 901046" d="M8.389,37.677V12.324a3.935,3.935,0,0,1,3.935-3.935H37.676a3.935,3.935,0,0,1,3.935,3.935V37.677a3.935,3.935,0,0,1-3.935,3.935H12.324a3.935,3.935,0,0,1-3.935-3.935Z" fill="#fff"/>
            <path id="Trazado_901047" data-name="Trazado 901047" d="M12.324,37.694l-.017-25.371,25.369-.017.017,25.37-.017.017Z" fill="#9cf"/>
            <g id="Grupo_1109064" data-name="Grupo 1109064">
              <g id="Grupo_1109060" data-name="Grupo 1109060">
                <path id="Trazado_901048" data-name="Trazado 901048" d="M18.108,8.389H14.176V5.014a.555.555,0,0,1,.555-.555h2.821a.555.555,0,0,1,.555.555Z" fill="#f99"/>
                <path id="Trazado_901049" data-name="Trazado 901049" d="M26.966,8.389H23.035V5.014a.555.555,0,0,1,.555-.555h2.821a.555.555,0,0,1,.555.555Z" fill="#f99"/>
                <path id="Trazado_901050" data-name="Trazado 901050" d="M35.824,8.389H31.893V5.014a.555.555,0,0,1,.555-.555h2.821a.555.555,0,0,1,.555.555Z" fill="#f99"/>
              </g>
              <g id="Grupo_1109061" data-name="Grupo 1109061">
                <path id="Trazado_901051" data-name="Trazado 901051" d="M31.893,41.612h3.931v3.375a.555.555,0,0,1-.555.555H32.448a.555.555,0,0,1-.555-.555Z" fill="#f99"/>
                <path id="Trazado_901052" data-name="Trazado 901052" d="M23.035,41.612h3.931v3.375a.555.555,0,0,1-.555.555H23.59a.555.555,0,0,1-.555-.555Z" fill="#f99"/>
                <path id="Trazado_901053" data-name="Trazado 901053" d="M14.176,41.612h3.931v3.375a.555.555,0,0,1-.555.555H14.732a.555.555,0,0,1-.555-.555Z" fill="#f99"/>
              </g>
              <g id="Grupo_1109062" data-name="Grupo 1109062">
                <path id="Trazado_901054" data-name="Trazado 901054" d="M41.611,18.108V14.177h3.375a.555.555,0,0,1,.555.555v2.821a.555.555,0,0,1-.555.555Z" fill="#f99"/>
                <path id="Trazado_901055" data-name="Trazado 901055" d="M41.611,26.966V23.035h3.375a.555.555,0,0,1,.555.555v2.821a.555.555,0,0,1-.555.555Z" fill="#f99"/>
                <path id="Trazado_901056" data-name="Trazado 901056" d="M41.611,35.824V31.893h3.375a.555.555,0,0,1,.555.555v2.821a.555.555,0,0,1-.555.555Z" fill="#f99"/>
              </g>
              <g id="Grupo_1109063" data-name="Grupo 1109063">
                <path id="Trazado_901057" data-name="Trazado 901057" d="M8.389,18.108V14.177H5.014a.555.555,0,0,0-.555.555v2.821a.555.555,0,0,0,.555.555Z" fill="#f99"/>
                <path id="Trazado_901058" data-name="Trazado 901058" d="M8.389,26.966V23.035H5.014a.555.555,0,0,0-.555.555v2.821a.555.555,0,0,0,.555.555Z" fill="#f99"/>
                <path id="Trazado_901059" data-name="Trazado 901059" d="M8.389,35.824V31.893H5.014a.555.555,0,0,0-.555.555v2.821a.555.555,0,0,0,.555.555Z" fill="#f99"/>
              </g>
            </g>
            <circle id="Elipse_11700" data-name="Elipse 11700" cx="1.649" cy="1.649" r="1.649" transform="translate(22.184 30.507)" fill="#fff"/>
            <circle id="Elipse_11701" data-name="Elipse 11701" cx="1.649" cy="1.649" r="1.649" transform="translate(30.184 26.21)" fill="#fff"/>
            <circle id="Elipse_11702" data-name="Elipse 11702" cx="1.649" cy="1.649" r="1.649" transform="translate(21.083 19.381)" fill="#fff"/>
          </g>
        </g>
      </g>
      <g id="Grupo_1109068" data-name="Grupo 1109068">
        <path id="Trazado_901060" data-name="Trazado 901060" d="M12.324,38.444H37.676a.78.78,0,0,0,.767-.768l-.017-25.37a.75.75,0,0,0-.75-.75h0l-25.369.017a.75.75,0,0,0-.75.75c0,3.52.006,9.712.017,25.371A.75.75,0,0,0,12.324,38.444ZM35.67,19.357v-6.3h1.257l.016,23.887h-2.3v-3.1a.75.75,0,0,0-.22-.53l-1.84-1.84V30.127a2.4,2.4,0,1,0-1.5,0v1.654a.75.75,0,0,0,.22.53l1.84,1.84v2.792H13.074V34.96H17.7a.75.75,0,0,0,.53-.22l1.834-1.834h1.506a2.4,2.4,0,1,0,0-1.5H19.75a.75.75,0,0,0-.53.22L17.385,33.46H13.071l0-5.47H25.955a.75.75,0,0,0,.53-.22l2.67-2.67a.75.75,0,0,0,.22-.53v-2l2.466-2.466H34.92A.75.75,0,0,0,35.67,19.357Zm-3.837,9.4a.9.9,0,1,1,.9-.9A.9.9,0,0,1,31.833,28.759Zm-8.9,3.4a.9.9,0,1,1,.9.9A.9.9,0,0,1,22.934,32.156Zm.006-15.572V13.067l4.406,0v2.292L23.806,18.9a2.369,2.369,0,0,0-1.074-.265,2.4,2.4,0,1,0,2.4,2.4,2.369,2.369,0,0,0-.265-1.074l3.761-3.76a.75.75,0,0,0,.22-.53v-2.6l5.323,0v5.547H31.531a.75.75,0,0,0-.53.22l-2.906,2.906a.75.75,0,0,0-.22.53v2L25.644,26.49H13.067l0-4.275h3.448a.75.75,0,0,0,.75-.75V17.334H22.19A.75.75,0,0,0,22.94,16.584Zm.691,4.446a.9.9,0,1,1-.9-.9A.9.9,0,0,1,23.631,21.03ZM21.44,13.068v2.766H16.512a.75.75,0,0,0-.75.75v4.131h-2.7l-.005-7.642Z" fill="#024"/>
        <path id="Trazado_901061" data-name="Trazado 901061" d="M5.014,31.143a1.307,1.307,0,0,0-1.305,1.305v.661H1.75a.75.75,0,0,0,0,1.5H3.709v.66a1.307,1.307,0,0,0,1.305,1.305H7.639v1.1a4.69,4.69,0,0,0,4.685,4.685h1.1v2.625a1.307,1.307,0,0,0,1.305,1.305h.661v1.958a.75.75,0,0,0,1.5,0V46.292h.661a1.307,1.307,0,0,0,1.305-1.305V42.362h3.427v2.625a1.307,1.307,0,0,0,1.305,1.305h.66v1.958a.75.75,0,0,0,1.5,0V46.292h.661a1.307,1.307,0,0,0,1.305-1.305V42.362h3.427v2.625a1.307,1.307,0,0,0,1.305,1.305h.661v1.958a.75.75,0,0,0,1.5,0V46.292h.661a1.307,1.307,0,0,0,1.305-1.305V42.362h1.1a4.69,4.69,0,0,0,4.685-4.685v-1.1h2.625a1.307,1.307,0,0,0,1.305-1.305v-.66H48.25a.75.75,0,0,0,0-1.5H46.292v-.661a1.307,1.307,0,0,0-1.305-1.305H42.361V27.716h2.625a1.307,1.307,0,0,0,1.305-1.305V25.75H48.25a.75.75,0,0,0,0-1.5H46.292v-.66a1.307,1.307,0,0,0-1.305-1.306H42.361V18.858h2.625a1.307,1.307,0,0,0,1.305-1.305v-.661H48.25a.75.75,0,0,0,0-1.5H46.292v-.661a1.307,1.307,0,0,0-1.305-1.305H42.361v-1.1a4.69,4.69,0,0,0-4.685-4.685h-1.1V5.014a1.307,1.307,0,0,0-1.305-1.305h-.661V1.75a.75.75,0,0,0-1.5,0V3.709h-.661a1.307,1.307,0,0,0-1.305,1.305V7.639H27.716V5.014a1.307,1.307,0,0,0-1.305-1.305H25.75V1.75a.75.75,0,0,0-1.5,0V3.709h-.66a1.307,1.307,0,0,0-1.305,1.305V7.639H18.858V5.014a1.307,1.307,0,0,0-1.305-1.305h-.661V1.75a.75.75,0,0,0-1.5,0V3.709h-.661a1.307,1.307,0,0,0-1.305,1.305V7.639h-1.1a4.69,4.69,0,0,0-4.685,4.685v1.1H5.014a1.307,1.307,0,0,0-1.305,1.305v.661H1.75a.75.75,0,0,0,0,1.5H3.709v.661a1.307,1.307,0,0,0,1.305,1.305H7.639v3.426H5.014A1.307,1.307,0,0,0,3.709,23.59v.66H1.75a.75.75,0,0,0,0,1.5H3.709v.661a1.307,1.307,0,0,0,1.305,1.305H7.639v3.427Zm2.625,3.931H5.209V32.643h2.43ZM42.361,14.927h2.43v2.432h-2.43Zm0,8.858h2.43v2.432h-2.43Zm0,8.858h2.43v2.431h-2.43Zm-25,12.149H14.926v-2.43h2.432Zm8.858,0H23.785v-2.43h2.431Zm8.858,0H32.643v-2.43h2.432ZM32.643,5.209h2.432v2.43H32.643Zm-8.858,0h2.431v2.43H23.785Zm-8.858,0h2.432v2.43H14.926ZM9.139,12.323a3.188,3.188,0,0,1,3.185-3.185H37.676a3.188,3.188,0,0,1,3.185,3.185V37.677a3.189,3.189,0,0,1-3.185,3.185H12.324a3.189,3.189,0,0,1-3.185-3.185Zm-3.93,5.035V14.927h2.43v2.432Zm0,8.858V23.784h2.43v2.432Z" fill="#024"/>
      </g>
    </g>
  </g>
</svg>
