<svg xmlns="http://www.w3.org/2000/svg" width="75.949" height="75.949" viewBox="0 0 75.949 75.949">
  <g id="Grupo_1106187" data-name="Grupo 1106187" transform="translate(0 0.212)">
    <g id="Grupo_1103990" data-name="Grupo 1103990" transform="translate(0 -0.212)">
      <g id="Trazado_874102" data-name="Trazado 874102" transform="translate(0)" fill="#f3d02c">
        <path d="M 37.9746208190918 73.44922637939453 C 33.18447875976562 73.44922637939453 28.53894996643066 72.51162719726562 24.16706848144531 70.66248321533203 C 19.94307899475098 68.87588500976562 16.14902114868164 66.31768035888672 12.89029121398926 63.05895614624023 C 9.631549835205078 59.80021286010742 7.073350429534912 56.00615310668945 5.286750316619873 51.78216552734375 C 3.437608957290649 47.41028213500977 2.500009059906006 42.76475524902344 2.500009059906006 37.97461318969727 C 2.500009059906006 33.18447113037109 3.437608957290649 28.53894233703613 5.286750316619873 24.16706085205078 C 7.073350429534912 19.94307136535645 9.631549835205078 16.14901351928711 12.89029121398926 12.89027214050293 C 16.14902114868164 9.631542205810547 19.94307899475098 7.073342800140381 24.16706848144531 5.286742687225342 C 28.53894996643066 3.437601327896118 33.18447875976562 2.500001430511475 37.9746208190918 2.500001430511475 C 42.76476287841797 2.500001430511475 47.4102897644043 3.437601327896118 51.78217315673828 5.286742687225342 C 56.00616073608398 7.073342800140381 59.80022048950195 9.631542205810547 63.05896377563477 12.89027214050293 C 66.31768798828125 16.14901351928711 68.87589263916016 19.94307136535645 70.66249084472656 24.16706085205078 C 72.51163482666016 28.53894233703613 73.44923400878906 33.18447113037109 73.44923400878906 37.97461318969727 C 73.44923400878906 42.76475524902344 72.51163482666016 47.41028213500977 70.66249084472656 51.78216552734375 C 68.87589263916016 56.00615310668945 66.31768798828125 59.80021286010742 63.05896377563477 63.05895614624023 C 59.80022048950195 66.31768035888672 56.00616073608398 68.87588500976562 51.78217315673828 70.66248321533203 C 47.4102897644043 72.51162719726562 42.76476287841797 73.44922637939453 37.9746208190918 73.44922637939453 Z" stroke="none"/>
        <path d="M 37.9746208190918 5 C 33.52087783813477 5 29.20300674438477 5.87115478515625 25.14094924926758 7.589256286621094 C 21.21495056152344 9.24981689453125 17.68799209594727 11.62809753417969 14.65805053710938 14.65804290771484 C 11.62810516357422 17.68798446655273 9.249824523925781 21.21494293212891 7.589263916015625 25.14094161987305 C 5.871162414550781 29.20299911499023 5.000007629394531 33.52087020874023 5.000007629394531 37.97461318969727 C 5.000007629394531 42.4283561706543 5.871162414550781 46.7462272644043 7.589263916015625 50.80828475952148 C 9.249824523925781 54.73426818847656 11.62810516357422 58.26122665405273 14.65805053710938 61.29118347167969 C 17.68800735473633 64.32112884521484 21.21496200561523 66.69941711425781 25.14094924926758 68.35997009277344 C 29.20300674438477 70.07807159423828 33.52087783813477 70.94922637939453 37.9746208190918 70.94922637939453 C 42.42836380004883 70.94922637939453 46.74623489379883 70.07807159423828 50.80829238891602 68.35997009277344 C 54.73429107666016 66.69941711425781 58.26124954223633 64.32112884521484 61.29119110107422 61.29118347167969 C 64.32113647460938 58.2612419128418 66.69941711425781 54.73428344726562 68.35997772216797 50.80828475952148 C 70.07807922363281 46.7462272644043 70.94923400878906 42.4283561706543 70.94923400878906 37.97461318969727 C 70.94923400878906 33.52087020874023 70.07807922363281 29.20299911499023 68.35997772216797 25.14094161987305 C 66.69941711425781 21.21494293212891 64.32113647460938 17.68798446655273 61.29119110107422 14.65804290771484 C 58.26124954223633 11.62809753417969 54.73429107666016 9.24981689453125 50.80829238891602 7.589256286621094 C 46.74623489379883 5.87115478515625 42.42836380004883 5 37.9746208190918 5 M 37.9746208190918 0 C 58.94741821289062 0 75.94923400878906 17.00181198120117 75.94923400878906 37.97461318969727 C 75.94923400878906 58.9473991394043 58.94741821289062 75.94922637939453 37.9746208190918 75.94922637939453 C 17.00183486938477 75.94922637939453 7.62939453125e-06 58.9473991394043 7.62939453125e-06 37.97461318969727 C 7.62939453125e-06 17.00181198120117 17.00183486938477 0 37.9746208190918 0 Z" stroke="none" fill="#3c6d9d"/>
      </g>
    </g>
    <g id="Layer_x0020_1" transform="translate(-223.51 13.398)">
      <path id="Trazado_896334" data-name="Trazado 896334" d="M333.664,42.586H301.818a.568.568,0,0,1-.568-.568V35.94c0-.807,1.244-.568,2.428-.568V26.095c-1.184,0-2.428.239-2.428-.568V17.449c0-.807,1.244-.568,2.428-.568V7.6c-1.184,0-2.428.239-2.428-.568V.958a.568.568,0,0,1,.568-.568h31.846a.568.568,0,0,1,.568.568V42.017a.568.568,0,0,1-.568.568Zm-31.278-1.136H333.1V1.526h-30.71V6.468c1.184,0,2.428-.239,2.428.568V17.448c0,.807-1.244.568-2.428.568v6.942c1.184,0,2.428-.239,2.428.568V35.939c0,.807-1.244.568-2.428.568v4.942Z" transform="translate(-55.128)" fill-rule="evenodd"/>
      <path id="Trazado_896335" data-name="Trazado 896335" d="M414.268,123.2h-26.99a.568.568,0,0,1-.568-.568v-36.2a.568.568,0,0,1,.568-.568h26.99a.568.568,0,0,1,.568.568v36.2A.568.568,0,0,1,414.268,123.2Zm-26.422-1.136H413.7V87H387.846Z" transform="translate(-138.16 -83.042)" fill-rule="evenodd"/>
      <path id="Trazado_896336" data-name="Trazado 896336" d="M720.283,654.948a.569.569,0,0,1-.554-.695l1.152-5.038c-3.087,0-2.813.254-1.226-3.317-.5,0-2.293.256-1.911-.766l2.129-5.692a.567.567,0,0,1,.532-.369H724.5a.568.568,0,0,1,.535.758L724,642.755c2.386,0,2.088-.06.629,3.358,1.011,0,2.071-.184,2.313.321a.569.569,0,0,1-.068.6l-6.142,7.7a.565.565,0,0,1-.444.214Zm-.354-6.869c2.857,0,2.479-.447,1.462,4l3.854-4.831c-2.695,0-2.415.171-.909-3.358-2.31,0-2,.126-.641-3.685h-2.9l-1.7,4.556c.439,0,2.426-.266,1.952.8l-1.119,2.517Z" transform="translate(-459.738 -620.535)" fill-rule="evenodd"/>
      <path id="Trazado_896337" data-name="Trazado 896337" d="M595.99,295.6H579.948a.568.568,0,0,1-.568-.568v-6.4a.568.568,0,0,1,.568-.568H595.99a.568.568,0,0,1,.568.568v6.4A.568.568,0,0,1,595.99,295.6Zm-15.474-1.136h14.906v-5.259H580.516Z" transform="translate(-325.356 -279.507)" fill-rule="evenodd"/>
      <path id="Trazado_896338" data-name="Trazado 896338" d="M249.118,225.879h-4.04a.568.568,0,0,1-.568-.568V214.9a.568.568,0,0,1,.568-.568h4.04a.568.568,0,0,1,.568.568v10.413A.568.568,0,0,1,249.118,225.879Zm-3.472-1.135h2.9v-9.277h-2.9Z" transform="translate(0 -207.862)" fill-rule="evenodd"/>
      <path id="Trazado_896339" data-name="Trazado 896339" d="M249.118,876.739h-4.04a.568.568,0,0,1-.568-.568V865.758a.568.568,0,0,1,.568-.568h4.04a.569.569,0,0,1,.568.568v10.413A.568.568,0,0,1,249.118,876.739Zm-3.472-1.136h2.9v-9.277h-2.9Z" transform="translate(0 -840.231)" fill-rule="evenodd"/>
      <path id="Trazado_896340" data-name="Trazado 896340" d="M548.394,1450.083h-4.047a.568.568,0,0,1-.568-.568v-3.307a.568.568,0,0,1,.568-.568h4.047a.568.568,0,0,1,.568.568v3.307A.568.568,0,0,1,548.394,1450.083Zm-3.479-1.136h2.911v-2.171h-2.911Z" transform="translate(-290.768 -1404.19)" fill-rule="evenodd"/>
      <path id="Trazado_896341" data-name="Trazado 896341" d="M795.114,1450.083h-4.047a.568.568,0,0,1-.568-.568v-3.307a.568.568,0,0,1,.568-.568h4.047a.568.568,0,0,1,.568.568v3.307A.568.568,0,0,1,795.114,1450.083Zm-3.479-1.136h2.911v-2.171h-2.911Z" transform="translate(-530.478 -1404.19)" fill-rule="evenodd"/>
      <path id="Trazado_896342" data-name="Trazado 896342" d="M1041.834,1450.083h-4.047a.568.568,0,0,1-.568-.568v-3.307a.568.568,0,0,1,.568-.568h4.047a.568.568,0,0,1,.568.568v3.307A.569.569,0,0,1,1041.834,1450.083Zm-3.479-1.136h2.911v-2.171h-2.911Z" transform="translate(-770.189 -1404.19)" fill-rule="evenodd"/>
      <path id="Trazado_896343" data-name="Trazado 896343" d="M513.578,1566.384h-2.989a.568.568,0,0,1,0-1.136h2.421v-2.394a.568.568,0,0,1,1.136,0v2.962a.568.568,0,0,1-.568.568Z" transform="translate(-257.974 -1517.529)" fill-rule="evenodd"/>
      <path id="Trazado_896344" data-name="Trazado 896344" d="M862.268,1566.365a.568.568,0,0,1-.568-.568v-2.962a.568.568,0,0,1,1.136,0v2.962A.568.568,0,0,1,862.268,1566.365Z" transform="translate(-599.655 -1517.51)" fill-rule="evenodd"/>
      <path id="Trazado_896345" data-name="Trazado 896345" d="M1111.987,1566.365H1109a.568.568,0,0,1-.568-.568v-2.962a.568.568,0,0,1,1.136,0v2.394h2.421a.568.568,0,0,1,0,1.136Z" transform="translate(-839.376 -1517.51)" fill-rule="evenodd"/>
      <path id="Trazado_896346" data-name="Trazado 896346" d="M619.35,333.319h14.906V328.06H619.35Z" transform="translate(-364.191 -318.361)" fill="#89d3e5" fill-rule="evenodd"/>
      <path id="Trazado_896347" data-name="Trazado 896347" d="M431.586,130.459h16.042a.568.568,0,0,1,.568.568v6.4a.568.568,0,0,1-.568.568H431.586a.568.568,0,0,1-.568-.568v-6.4A.568.568,0,0,1,431.586,130.459Zm6.076,9.972h4.095a.568.568,0,0,1,.535.758l-1.041,2.927c2.386,0,2.088-.061.629,3.358,1.011,0,2.071-.184,2.313.321a.569.569,0,0,1-.068.6l-6.142,7.7a.568.568,0,0,1-1-.481l1.152-5.038c-3.087,0-2.814.254-1.226-3.317-.5,0-2.293.256-1.911-.767l2.129-5.692a.568.568,0,0,1,.532-.369ZM426.68,160.917h25.854V125.85H426.68v35.068Z" transform="translate(-176.994 -121.896)" fill="#b3b3b3" fill-rule="evenodd"/>
      <path id="Trazado_896348" data-name="Trazado 896348" d="M343.09,41.682h26.99a.568.568,0,0,1,.568.568v36.2a.568.568,0,0,1-.568.568H343.09a.568.568,0,0,1-.568-.568V75.4c-.36,0-.771-.028-1.18-.032h-.112v4.942h30.71V40.39H341.23v4.942c.445,0,.9-.034,1.292-.033V42.25A.568.568,0,0,1,343.09,41.682Z" transform="translate(-93.972 -38.864)" fill="#d7d7d7" fill-rule="evenodd"/>
      <path id="Trazado_896349" data-name="Trazado 896349" d="M772.331,682.775c-2.31,0-2,.126-.641-3.685h-2.9l-1.7,4.556c.439,0,2.426-.266,1.952.8l-1.119,2.517c2.858,0,2.479-.447,1.462,4l3.854-4.831c-2.695,0-2.415.171-.909-3.358Z" transform="translate(-507.733 -659.418)" fill="#fb505a" fill-rule="evenodd"/>
      <path id="Trazado_896350" data-name="Trazado 896350" d="M287.384,263.587V254.31a14.664,14.664,0,0,1-1.811,0H284.48v9.277h1.093A14.669,14.669,0,0,1,287.384,263.587Z" transform="translate(-38.834 -246.706)" fill="#a9a9a9" fill-rule="evenodd"/>
      <path id="Trazado_896351" data-name="Trazado 896351" d="M287.384,905.17a14.665,14.665,0,0,1-1.811,0H284.48v9.277h1.1a12.838,12.838,0,0,1,1.717,0h.091Z" transform="translate(-38.834 -879.075)" fill="#a9a9a9" fill-rule="evenodd"/>
      <path id="Trazado_896352" data-name="Trazado 896352" d="M341.22,627.762c.445,0,.9-.034,1.292-.033v-6.876c-.393,0-.847-.033-1.292-.033Z" transform="translate(-93.962 -602.803)" fill="#d7d7d7" fill-rule="evenodd"/>
      <g id="Grupo_1106243" data-name="Grupo 1106243" transform="translate(254.148 42.586)">
        <path id="Trazado_896353" data-name="Trazado 896353" d="M586.671,1485.61H583.76v2.171h2.911Z" transform="translate(-583.76 -1485.61)" fill="#a9a9a9" fill-rule="evenodd"/>
        <path id="Trazado_896354" data-name="Trazado 896354" d="M830.48,1485.61v2.171h2.911v-2.171Z" transform="translate(-823.471 -1485.61)" fill="#a9a9a9" fill-rule="evenodd"/>
        <path id="Trazado_896355" data-name="Trazado 896355" d="M1077.2,1485.61v2.171h2.911v-2.171Z" transform="translate(-1063.181 -1485.61)" fill="#a9a9a9" fill-rule="evenodd"/>
      </g>
    </g>
  </g>
</svg>
