<svg xmlns="http://www.w3.org/2000/svg" width="85" height="85" viewBox="0 0 85 85">
  <g id="Grupo_1115243" data-name="Grupo 1115243" transform="translate(-180.051 -910)">
    <circle id="Elipse_11708" data-name="Elipse 11708" cx="42.5" cy="42.5" r="42.5" transform="translate(180.051 910)" fill="#3c6d9d"/>
    <g id="layer2" transform="translate(191.521 921.471)">
      <path id="path8256" d="M9.411,6.1l4.4,9.5a2.525,2.525,0,0,1-1.232,3.36,2.6,2.6,0,0,1-3.36-1.232L3.266,7.03Z" transform="translate(7.732 15.749)" fill="#e4eff8"/>
      <path id="path8258" d="M3.266,6.346l5.956,10.7a2.6,2.6,0,0,0,3.354,1.233,2.878,2.878,0,0,1-1.33-1.233L5.29,6.346Z" transform="translate(7.732 16.433)" fill="#f8f8f8"/>
      <path id="path8260" d="M6.806,6.1,4.188,6.5l4.22,9.1a2.52,2.52,0,0,1-.86,3.141,2.44,2.44,0,0,0,2.427.219,2.526,2.526,0,0,0,1.231-3.36Z" transform="translate(10.338 15.75)" fill="#c4dcf0"/>
      <path id="circle8262" d="M8.1,4.048A4.048,4.048,0,1,0,4.048,8.1,4.048,4.048,0,0,0,8.1,4.048Z" transform="translate(17.735 23.807) rotate(180)" fill="#38668c"/>
      <path id="path8264" d="M6.959,4.5a4.048,4.048,0,1,0,1.01,7.964A4.043,4.043,0,0,1,7.975,4.63,4.048,4.048,0,0,0,6.959,4.5Z" transform="translate(6.727 11.212)" fill="#f8f8f8"/>
      <path id="path8266" d="M5.09,4.5a4.048,4.048,0,0,0-1.516.3,4.043,4.043,0,0,1,0,7.5A4.047,4.047,0,1,0,5.09,4.5Z" transform="translate(8.596 11.212)" fill="#2c5170"/>
      <path id="path8268" d="M15.252,1.058V12.191L8.159,18.4q.005-.066.008-.132a4.048,4.048,0,0,0-4.048-4.048l-.15.006Z" transform="translate(9.717 1.495)" fill="#e4eff8"/>
      <path id="path8270" d="M15.252,1.058,3.969,14.221l.15-.006a4.049,4.049,0,0,1,1.734.393l9.4-10.965Z" transform="translate(9.717 1.495)" fill="#f8f8f8"/>
      <path id="path8272" d="M11.956,3.245,4.82,9.49a4.048,4.048,0,0,1,.943,2.6q0,.066-.008.132l7.092-6.2Z" transform="translate(12.122 7.673)" fill="#c4dcf0"/>
      <path id="path8274" d="M10.054,1.058V12.191l7.092,6.2q-.005-.066-.008-.132a4.048,4.048,0,0,1,4.048-4.048l.15.006Z" transform="translate(26.908 1.495)" fill="#e4eff8"/>
      <path id="path8276" d="M10.054,1.323V11.444L12.06,13.2a2.011,2.011,0,0,0,1.03-1.755V3.853l-2.168-2.53Z" transform="translate(26.908 2.242)" fill="#c4dcf0"/>
      <path id="path8278" d="M10.054,1.058V5.01l8.632,10.071a4.048,4.048,0,0,1,2.5-.866l.15.006Z" transform="translate(26.908 1.495)" fill="#c4dcf0"/>
      <path id="rect8280" d="M8.638.794H18.759a2.02,2.02,0,0,1,2.024,2.024v8.1a2.02,2.02,0,0,1-2.024,2.024H8.638a2.02,2.02,0,0,1-2.024-2.024v-8.1A2.02,2.02,0,0,1,8.638.794Z" transform="translate(17.191 0.747)" fill="#38668c"/>
      <path id="path8282" d="M9.26.794a2.02,2.02,0,0,1,2.024,2.024v8.1A2.02,2.02,0,0,1,9.26,12.939h2.024a2.02,2.02,0,0,0,2.024-2.024v-8.1A2.02,2.02,0,0,0,11.284.794Z" transform="translate(24.666 0.747)" fill="#2c5170"/>
      <path id="path8284" d="M15.487,6.1l-4.4,9.5a2.525,2.525,0,0,0,1.232,3.36,2.6,2.6,0,0,0,3.36-1.232l5.956-10.7Z" transform="translate(29.151 15.749)" fill="#e4eff8"/>
      <path id="path8286" d="M18.089,6.346l-5.956,10.7a2.943,2.943,0,0,1-.982,1.05,2.509,2.509,0,0,0,.308.182,2.6,2.6,0,0,0,3.36-1.231l5.956-10.7Z" transform="translate(30.007 16.433)" fill="#c4dcf0"/>
      <path id="path8288" d="M15.486,6.1l-4.4,9.5a2.526,2.526,0,0,0,1.231,3.36,2.409,2.409,0,0,0,2.03,0l-.006,0a2.526,2.526,0,0,1-1.231-3.36l4.27-9.211Z" transform="translate(29.151 15.75)" fill="#f8f8f8"/>
      <path id="circle8290" d="M8.1,4.048A4.048,4.048,0,1,0,4.048,8.1,4.048,4.048,0,0,0,8.1,4.048Z" transform="translate(52.144 23.807) rotate(180)" fill="#38668c"/>
      <path id="path8292" d="M15.954,4.5a4.048,4.048,0,1,0,1.01,7.964A4.043,4.043,0,0,1,16.97,4.63,4.048,4.048,0,0,0,15.954,4.5Z" transform="translate(32.14 11.212)" fill="#f8f8f8"/>
      <path id="path8294" d="M7.131,8.731a2.529,2.529,0,0,0-2.437,3.208A2.52,2.52,0,0,0,3.213,15.09a3.535,3.535,0,0,0-1,5.871,3.033,3.033,0,0,0,4.914,3.186,3.03,3.03,0,0,0,4.912-3.184,3.539,3.539,0,0,0-.992-5.877,2.518,2.518,0,0,0-1.486-3.145,2.518,2.518,0,0,0-2.433-3.21Z" transform="translate(1.495 23.172)" fill="#b4d305"/>
      <path id="path8296" d="M3.764,8.731a2.53,2.53,0,0,0-1.514.51,2.505,2.505,0,0,1,.913,2.7,2.518,2.518,0,0,1,1.486,3.145,3.539,3.539,0,0,1,.992,5.877,3.017,3.017,0,0,1-1.37,3.552,3.028,3.028,0,0,0,4.4-3.552,3.539,3.539,0,0,0-.992-5.877A2.518,2.518,0,0,0,6.2,11.941a2.518,2.518,0,0,0-2.433-3.21Z" transform="translate(4.861 23.172)" fill="#94ac04"/>
      <path id="path8298" d="M7.131,8.731a2.529,2.529,0,0,0-2.437,3.208A2.52,2.52,0,0,0,3.213,15.09a3.535,3.535,0,0,0-1,5.871,3.026,3.026,0,0,0,3.9,3.785,3.027,3.027,0,0,1-1.876-3.785,3.535,3.535,0,0,1,1-5.871,2.52,2.52,0,0,1,1.481-3.151A2.527,2.527,0,0,1,8.141,8.945a2.53,2.53,0,0,0-1.01-.213Z" transform="translate(1.494 23.172)" fill="#f8f8f8"/>
      <path id="path8300" d="M12.952,5.027a2.529,2.529,0,0,0-2.437,3.208,2.52,2.52,0,0,0-1.481,3.151,3.535,3.535,0,0,0-1,5.871,3.033,3.033,0,0,0,4.914,3.186,3.03,3.03,0,0,0,4.912-3.184,3.539,3.539,0,0,0-.992-5.877,2.518,2.518,0,0,0-1.486-3.145,2.518,2.518,0,0,0-2.433-3.21Z" transform="translate(17.94 12.707)" fill="#b4d305"/>
      <path id="path8302" d="M9.585,5.027a2.53,2.53,0,0,0-1.514.51,2.505,2.505,0,0,1,.913,2.7,2.518,2.518,0,0,1,1.486,3.145,3.539,3.539,0,0,1,.992,5.877,3.017,3.017,0,0,1-1.37,3.552,3.028,3.028,0,0,0,4.4-3.552,3.539,3.539,0,0,0-.992-5.877,2.518,2.518,0,0,0-1.486-3.145,2.518,2.518,0,0,0-2.433-3.21Z" transform="translate(21.306 12.707)" fill="#94ac04"/>
      <path id="path8304" d="M12.952,5.027a2.529,2.529,0,0,0-2.437,3.208,2.52,2.52,0,0,0-1.481,3.151,3.535,3.535,0,0,0-1,5.871,3.026,3.026,0,0,0,3.9,3.785,3.027,3.027,0,0,1-1.876-3.785,3.535,3.535,0,0,1,1-5.871,2.52,2.52,0,0,1,1.481-3.151,2.527,2.527,0,0,1,1.423-2.995,2.53,2.53,0,0,0-1.01-.213Z" transform="translate(17.94 12.707)" fill="#f8f8f8"/>
      <path id="path8306" d="M18.772,8.731a2.529,2.529,0,0,0-2.437,3.208,2.52,2.52,0,0,0-1.481,3.151,3.535,3.535,0,0,0-1,5.871,3.033,3.033,0,0,0,4.914,3.186,3.03,3.03,0,0,0,4.912-3.184,3.539,3.539,0,0,0-.992-5.877,2.518,2.518,0,0,0-1.486-3.145,2.518,2.518,0,0,0-2.433-3.21Z" transform="translate(34.384 23.172)" fill="#b4d305"/>
      <path id="path8308" d="M15.405,8.731a2.53,2.53,0,0,0-1.514.51,2.505,2.505,0,0,1,.913,2.7,2.518,2.518,0,0,1,1.486,3.145,3.539,3.539,0,0,1,.992,5.877,3.016,3.016,0,0,1-1.37,3.552,3.028,3.028,0,0,0,4.4-3.552,3.539,3.539,0,0,0-.992-5.877,2.518,2.518,0,0,0-1.486-3.145,2.518,2.518,0,0,0-2.433-3.21Z" transform="translate(37.75 23.172)" fill="#94ac04"/>
      <path id="path8310" d="M18.772,8.731a2.529,2.529,0,0,0-2.437,3.208,2.52,2.52,0,0,0-1.481,3.151,3.535,3.535,0,0,0-1,5.871,3.026,3.026,0,0,0,3.9,3.785,3.027,3.027,0,0,1-1.876-3.785,3.535,3.535,0,0,1,1-5.871,2.52,2.52,0,0,1,1.481-3.151,2.527,2.527,0,0,1,1.423-2.995,2.53,2.53,0,0,0-1.01-.213Z" transform="translate(34.383 23.172)" fill="#f8f8f8"/>
      <path id="path8312" d="M1.1,21.169q-.037-.782-.038-1.579A5.823,5.823,0,0,1,7.13,14.023c3.364,0,6.072,2.227,6.072,5.566q0,.8-.038,1.579Z" transform="translate(1.494 38.122)" fill="#ffc6a0"/>
      <path id="path8314" d="M7.13,14.023a5.823,5.823,0,0,0-6.072,5.566c0,.531.015,1.058.04,1.579H3.121c-.025-.522-.04-1.049-.04-1.579A5.719,5.719,0,0,1,8.17,14.1a7.331,7.331,0,0,0-1.04-.079Z" transform="translate(1.494 38.122)" fill="#f8f8f8"/>
      <path id="path8316" d="M3.739,14.023a6.621,6.621,0,0,0-1.481.172,5.456,5.456,0,0,1,4.519,5.394q0,.8-.038,1.579H9.774q.037-.782.038-1.579c0-3.34-2.708-5.566-6.072-5.566Z" transform="translate(4.885 38.122)" fill="#ffaf7a"/>
      <path id="path8318" d="M12.738,21.169q-.037-.782-.038-1.579a5.823,5.823,0,0,1,6.072-5.566c3.364,0,6.072,2.227,6.072,5.566q0,.8-.038,1.579Z" transform="translate(34.384 38.122)" fill="#ffc6a0"/>
      <path id="path8320" d="M18.772,14.023A5.823,5.823,0,0,0,12.7,19.589c0,.531.015,1.058.04,1.579h2.024c-.025-.522-.04-1.049-.04-1.579A5.719,5.719,0,0,1,19.812,14.1a7.331,7.331,0,0,0-1.04-.079Z" transform="translate(34.383 38.122)" fill="#f8f8f8"/>
      <path id="path8322" d="M15.38,14.023a6.621,6.621,0,0,0-1.481.172,5.456,5.456,0,0,1,4.519,5.394q0,.8-.037,1.579h3.034q.037-.782.037-1.579C21.453,16.249,18.745,14.023,15.38,14.023Z" transform="translate(37.774 38.122)" fill="#ffaf7a"/>
      <path id="path8324" d="M12.951,10.319c3.364,0,6.072,2.227,6.072,5.566,0,8.906-3.643,16.7-6.072,16.7s-6.072-7.793-6.072-16.7A5.823,5.823,0,0,1,12.951,10.319Z" transform="translate(17.939 27.657)" fill="#ffc6a0"/>
      <path id="path8326" d="M9.586,10.319a6.621,6.621,0,0,0-1.481.172,5.456,5.456,0,0,1,4.519,5.394c0,7.176-2.365,13.62-4.554,15.857a2.3,2.3,0,0,0,1.516.842c2.429,0,6.072-7.793,6.072-16.7,0-3.34-2.708-5.566-6.072-5.566Z" transform="translate(21.303 27.657)" fill="#ffaf7a"/>
      <path id="path8328" d="M12.951,10.319a5.823,5.823,0,0,0-6.072,5.566c0,8.906,3.643,16.7,6.072,16.7a1.777,1.777,0,0,0,1.014-.4C11.651,30.506,8.9,23.619,8.9,15.885A5.72,5.72,0,0,1,13.991,10.4a7.331,7.331,0,0,0-1.04-.079Z" transform="translate(17.938 27.657)" fill="#f8f8f8"/>
      <path id="path8330" d="M8.638.794A2.02,2.02,0,0,0,6.614,2.818v8.1a2.02,2.02,0,0,0,2.024,2.024h2.024a2.02,2.02,0,0,1-2.024-2.024v-8.1A2.02,2.02,0,0,1,10.662.794Z" transform="translate(17.191 0.747)" fill="#f8f8f8"/>
      <path id="path8332" d="M14.085,4.5a4.048,4.048,0,0,0-1.516.3,4.043,4.043,0,0,1,0,7.5,4.047,4.047,0,1,0,1.518-7.8Z" transform="translate(34.009 11.212)" fill="#2c5170"/>
      <path id="path8257" d="M25.831.529a3.029,3.029,0,0,0-3.01,2.633l-9.8,11.579a5.057,5.057,0,0,0-2.823,8.68l5.869,10.548a3.6,3.6,0,0,0,4.669,1.658,3.536,3.536,0,0,0,1.726-4.707l-4.185-9.033a5.111,5.111,0,0,0,.427-1.506l6.557-5.736a3.131,3.131,0,0,0,.571.049H35.948a3.163,3.163,0,0,0,.571-.049l6.557,5.736a5.105,5.105,0,0,0,.427,1.506l-4.185,9.033a3.536,3.536,0,0,0,1.726,4.707,3.6,3.6,0,0,0,4.669-1.658l5.869-10.548a5.057,5.057,0,0,0-2.823-8.68l-9.8-11.579A3.029,3.029,0,0,0,35.948.529Zm0,2.026H35.948a1.009,1.009,0,0,1,1.016,1.008v8.1a1.012,1.012,0,0,1-1.016,1.016H25.831a1.012,1.012,0,0,1-1.016-1.016v-8.1a1.009,1.009,0,0,1,1.016-1.008Zm2.024,2.022A1.012,1.012,0,1,0,28.867,5.59,1.012,1.012,0,0,0,27.855,4.577Zm6.068,0A1.012,1.012,0,1,0,34.936,5.59,1.012,1.012,0,0,0,33.923,4.577ZM22.791,6.329v5.333a3.018,3.018,0,0,0,.652,1.882l-5.037,4.4a5.033,5.033,0,0,0-2.963-2.931Zm16.2,0,7.347,8.686a5.033,5.033,0,0,0-2.963,2.931l-5.037-4.4a3.019,3.019,0,0,0,.652-1.882Zm-11.133,2.3a1.012,1.012,0,1,0,1.012,1.012A1.012,1.012,0,0,0,27.855,8.626Zm6.068,0a1.012,1.012,0,1,0,1.012,1.012A1.012,1.012,0,0,0,33.923,8.626Zm-20.239,8.1a3.034,3.034,0,1,1-3.036,3.036A3.033,3.033,0,0,1,13.684,16.722Zm13.665,3.546a1.161,1.161,0,0,0,.008.125,3.538,3.538,0,0,0-1.512,3.157,4.56,4.56,0,0,0-.976,6.717,2.738,2.738,0,0,0-.049.621,4.045,4.045,0,0,0,4.048,4.05,3.929,3.929,0,0,0,1.01-.129v2.226a6.542,6.542,0,0,0-6.068,6.505c0,.149.008.295.011.522A33.66,33.66,0,0,0,26,55.606a16.5,16.5,0,0,0,1.919,3.623H15.674q.034-.751.034-1.516A6.745,6.745,0,0,0,9.634,51.2v-2.22a3.92,3.92,0,0,0,1.014.13,4.045,4.045,0,0,0,4.048-4.05,2.835,2.835,0,0,0-.049-.621,4.56,4.56,0,0,0-.977-6.717,3.538,3.538,0,0,0-1.512-3.157c0-.041,0-.082.008-.124a3.54,3.54,0,1,0-7.081,0,1.147,1.147,0,0,0,.008.124,3.538,3.538,0,0,0-1.512,3.157A4.56,4.56,0,0,0,2.6,44.436a2.717,2.717,0,0,0-.049.621A4.045,4.045,0,0,0,6.6,49.107a3.929,3.929,0,0,0,1.01-.129v2.214a6.555,6.555,0,0,0-6.066,6.521c0,.51.015,1.015.034,1.516H1.543a1.012,1.012,0,1,0,0,2.024h58.7a1.012,1.012,0,1,0,0-2.024H60.2q.034-.751.034-1.516a6.555,6.555,0,0,0-6.066-6.521V48.978a3.925,3.925,0,0,0,1.01.129,4.045,4.045,0,0,0,4.048-4.05,2.832,2.832,0,0,0-.049-.621,4.56,4.56,0,0,0-.976-6.717,3.538,3.538,0,0,0-1.512-3.157c0-.041,0-.082.008-.124a3.54,3.54,0,1,0-7.081,0,1.106,1.106,0,0,0,.008.124,3.538,3.538,0,0,0-1.512,3.157,4.56,4.56,0,0,0-.976,6.717,2.739,2.739,0,0,0-.049.621,4.045,4.045,0,0,0,4.048,4.05,3.925,3.925,0,0,0,1.014-.13V51.2a6.745,6.745,0,0,0-6.074,6.517c0,.51.015,1.015.034,1.516H33.859a16.5,16.5,0,0,0,1.919-3.623,33.617,33.617,0,0,0,2.2-12.066,6.542,6.542,0,0,0-6.068-6.505V34.809a3.924,3.924,0,0,0,1.01.129,4.045,4.045,0,0,0,4.048-4.05,2.832,2.832,0,0,0-.049-.621,4.56,4.56,0,0,0-.976-6.717,3.538,3.538,0,0,0-1.512-3.157c0-.041,0-.082.008-.125a3.542,3.542,0,1,0-7.085,0Zm20.745-3.546a3.034,3.034,0,1,1-3.036,3.036A3.033,3.033,0,0,1,48.094,16.722ZM13.686,18.746A1.012,1.012,0,1,0,14.7,19.758,1.012,1.012,0,0,0,13.686,18.746ZM32.4,20.265a1.577,1.577,0,0,1-.059.4,1.012,1.012,0,0,0,.613,1.218,1.515,1.515,0,0,1,.965,1.419,1.545,1.545,0,0,1-.075.463,1.012,1.012,0,0,0,.567,1.255,2.524,2.524,0,0,1,.7,4.193,1.009,1.009,0,0,0-.275,1.059,2.044,2.044,0,0,1,.1.613A2.02,2.02,0,0,1,31.9,32.639V30.3l1.726-1.726A1.014,1.014,0,1,0,32.2,27.138l-1.307,1.3-1.307-1.3a1.014,1.014,0,1,0-1.433,1.435L29.875,30.3v2.34a2.02,2.02,0,0,1-3.034-1.751,2.092,2.092,0,0,1,.1-.613,1.006,1.006,0,0,0-.275-1.059,2.524,2.524,0,0,1,.7-4.193,1.012,1.012,0,0,0,.567-1.255,1.5,1.5,0,0,1-.075-.463,1.515,1.515,0,0,1,.965-1.419,1.012,1.012,0,0,0,.613-1.218,1.513,1.513,0,1,1,2.969-.4Zm15.689-1.518A1.012,1.012,0,1,0,49.1,19.758,1.012,1.012,0,0,0,48.092,18.746Zm-31.218,4.94,3.75,8.087a1.519,1.519,0,0,1-.733,2.018,1.6,1.6,0,0,1-2.054-.806L13.281,24.8c.133.011.267.015.4.015a5.027,5.027,0,0,0,3.19-1.131Zm28.03,0a5.027,5.027,0,0,0,3.19,1.131c.136,0,.27,0,.4-.015l-4.556,8.184a1.6,1.6,0,0,1-2.054.806,1.52,1.52,0,0,1-.733-2.018ZM10.138,34.433a1.575,1.575,0,0,1-.059.4,1.012,1.012,0,0,0,.613,1.218,1.515,1.515,0,0,1,.965,1.419,1.545,1.545,0,0,1-.075.463,1.012,1.012,0,0,0,.567,1.255,2.524,2.524,0,0,1,.7,4.193,1.009,1.009,0,0,0-.275,1.06,2.044,2.044,0,0,1,.1.613,2.021,2.021,0,0,1-3.038,1.749V44.475l1.734-1.734a1.015,1.015,0,1,0-1.435-1.435L8.626,42.613,7.317,41.307a1.014,1.014,0,1,0-1.433,1.435L7.61,44.467v2.34a2.02,2.02,0,0,1-3.034-1.751,2.094,2.094,0,0,1,.1-.613,1.006,1.006,0,0,0-.275-1.06,2.524,2.524,0,0,1,.7-4.193,1.012,1.012,0,0,0,.567-1.255,1.5,1.5,0,0,1-.075-.463,1.515,1.515,0,0,1,.965-1.419,1.012,1.012,0,0,0,.613-1.218,1.512,1.512,0,1,1,2.969-.4Zm44.531,0a1.577,1.577,0,0,1-.059.4,1.012,1.012,0,0,0,.613,1.218,1.515,1.515,0,0,1,.965,1.419,1.545,1.545,0,0,1-.075.463,1.012,1.012,0,0,0,.567,1.255,2.524,2.524,0,0,1,.7,4.193,1.009,1.009,0,0,0-.275,1.06,2.044,2.044,0,0,1,.1.613,2.02,2.02,0,0,1-3.034,1.751v-2.34l1.726-1.726a1.014,1.014,0,1,0-1.433-1.435l-1.309,1.307-1.307-1.307a1.015,1.015,0,1,0-1.435,1.435l1.734,1.734v2.331a2.021,2.021,0,0,1-3.038-1.749,2.1,2.1,0,0,1,.1-.613,1.006,1.006,0,0,0-.275-1.06,2.524,2.524,0,0,1,.7-4.193,1.012,1.012,0,0,0,.567-1.255,1.5,1.5,0,0,1-.075-.463,1.515,1.515,0,0,1,.965-1.419,1.012,1.012,0,0,0,.613-1.218,1.512,1.512,0,1,1,2.969-.4ZM30.889,38.99c2.791,0,5.058,1.758,5.058,4.55,0,.857-.041,1.7-.107,2.532H32.913a1.013,1.013,0,0,0,0,2.026h2.708a32.5,32.5,0,0,1-.834,4.048H32.913a1.012,1.012,0,1,0,0,2.024h1.232c-.084.231-.164.469-.251.688a14.172,14.172,0,0,1-1.83,3.4c-.594.756-1.03.971-1.174.971s-.58-.214-1.174-.971a14.171,14.171,0,0,1-1.83-3.4,27.411,27.411,0,0,1-1.16-3.728h2.141a1.012,1.012,0,1,0,0-2.024H26.319a33.17,33.17,0,0,1-.449-4.05h2.91a1.012,1.012,0,1,0,0-2.016H25.857c.254-2.5,2.412-4.05,5.033-4.05ZM11.814,54.171H10.65a1.013,1.013,0,1,0,0,2.026H13.4a4.1,4.1,0,0,1,.279,1.516c0,.509-.011,1.015-.034,1.516H3.606c-.023-.5-.038-1.007-.038-1.516a4.423,4.423,0,0,1,.027-.508H6.587a1.013,1.013,0,1,0,0-2.026H4.334a5.137,5.137,0,0,1,4.293-2.024,5.466,5.466,0,0,1,3.188,1.016Zm45.632,1.008H55.193a1.013,1.013,0,1,0,0,2.026h2.993c.015.165.027.335.027.508,0,.509-.015,1.015-.038,1.516H48.132c-.023-.5-.034-1.007-.034-1.516a4.1,4.1,0,0,1,.279-1.516H51.13a1.013,1.013,0,1,0,0-2.026H49.966a5.466,5.466,0,0,1,3.188-1.016,5.137,5.137,0,0,1,4.293,2.024Z" transform="translate(0 0)" fill="#333"/>
    </g>
  </g>
</svg>
