<svg xmlns="http://www.w3.org/2000/svg" width="75.949" height="75.949" viewBox="0 0 75.949 75.949">
  <g id="Grupo_1106330" data-name="Grupo 1106330" transform="translate(-648 -1461)">
    <g id="Grupo_1106147" data-name="Grupo 1106147" transform="translate(648 1461)">
      <g id="Grupo_1103990" data-name="Grupo 1103990" transform="translate(0 0)">
        <g id="Trazado_874102" data-name="Trazado 874102" transform="translate(0)" fill="#f3d02c">
          <path d="M 37.9746208190918 73.44922637939453 C 33.18447875976562 73.44922637939453 28.53894996643066 72.51162719726562 24.16706848144531 70.66248321533203 C 19.94307899475098 68.87588500976562 16.14902114868164 66.31768035888672 12.89029121398926 63.05895614624023 C 9.631549835205078 59.80021286010742 7.073350429534912 56.00615310668945 5.286750316619873 51.78216552734375 C 3.437608957290649 47.41028213500977 2.500009059906006 42.76475524902344 2.500009059906006 37.97461318969727 C 2.500009059906006 33.18447113037109 3.437608957290649 28.53894233703613 5.286750316619873 24.16706085205078 C 7.073350429534912 19.94307136535645 9.631549835205078 16.14901351928711 12.89029121398926 12.89027214050293 C 16.14902114868164 9.631542205810547 19.94307899475098 7.073342800140381 24.16706848144531 5.286742687225342 C 28.53894996643066 3.437601327896118 33.18447875976562 2.500001430511475 37.9746208190918 2.500001430511475 C 42.76476287841797 2.500001430511475 47.4102897644043 3.437601327896118 51.78217315673828 5.286742687225342 C 56.00616073608398 7.073342800140381 59.80022048950195 9.631542205810547 63.05896377563477 12.89027214050293 C 66.31768798828125 16.14901351928711 68.87589263916016 19.94307136535645 70.66249084472656 24.16706085205078 C 72.51163482666016 28.53894233703613 73.44923400878906 33.18447113037109 73.44923400878906 37.97461318969727 C 73.44923400878906 42.76475524902344 72.51163482666016 47.41028213500977 70.66249084472656 51.78216552734375 C 68.87589263916016 56.00615310668945 66.31768798828125 59.80021286010742 63.05896377563477 63.05895614624023 C 59.80022048950195 66.31768035888672 56.00616073608398 68.87588500976562 51.78217315673828 70.66248321533203 C 47.4102897644043 72.51162719726562 42.76476287841797 73.44922637939453 37.9746208190918 73.44922637939453 Z" stroke="none"/>
          <path d="M 37.9746208190918 5 C 33.52087783813477 5 29.20300674438477 5.87115478515625 25.14094924926758 7.589256286621094 C 21.21495056152344 9.24981689453125 17.68799209594727 11.62809753417969 14.65805053710938 14.65804290771484 C 11.62810516357422 17.68798446655273 9.249824523925781 21.21494293212891 7.589263916015625 25.14094161987305 C 5.871162414550781 29.20299911499023 5.000007629394531 33.52087020874023 5.000007629394531 37.97461318969727 C 5.000007629394531 42.4283561706543 5.871162414550781 46.7462272644043 7.589263916015625 50.80828475952148 C 9.249824523925781 54.73426818847656 11.62810516357422 58.26122665405273 14.65805053710938 61.29118347167969 C 17.68800735473633 64.32112884521484 21.21496200561523 66.69941711425781 25.14094924926758 68.35997009277344 C 29.20300674438477 70.07807159423828 33.52087783813477 70.94922637939453 37.9746208190918 70.94922637939453 C 42.42836380004883 70.94922637939453 46.74623489379883 70.07807159423828 50.80829238891602 68.35997009277344 C 54.73429107666016 66.69941711425781 58.26124954223633 64.32112884521484 61.29119110107422 61.29118347167969 C 64.32113647460938 58.2612419128418 66.69941711425781 54.73428344726562 68.35997772216797 50.80828475952148 C 70.07807922363281 46.7462272644043 70.94923400878906 42.4283561706543 70.94923400878906 37.97461318969727 C 70.94923400878906 33.52087020874023 70.07807922363281 29.20299911499023 68.35997772216797 25.14094161987305 C 66.69941711425781 21.21494293212891 64.32113647460938 17.68798446655273 61.29119110107422 14.65804290771484 C 58.26124954223633 11.62809753417969 54.73429107666016 9.24981689453125 50.80829238891602 7.589256286621094 C 46.74623489379883 5.87115478515625 42.42836380004883 5 37.9746208190918 5 M 37.9746208190918 0 C 58.94741821289062 0 75.94923400878906 17.00181198120117 75.94923400878906 37.97461318969727 C 75.94923400878906 58.9473991394043 58.94741821289062 75.94922637939453 37.9746208190918 75.94922637939453 C 17.00183486938477 75.94922637939453 7.62939453125e-06 58.9473991394043 7.62939453125e-06 37.97461318969727 C 7.62939453125e-06 17.00181198120117 17.00183486938477 0 37.9746208190918 0 Z" stroke="none" fill="#3c6d9d"/>
        </g>
      </g>
    </g>
    <path id="decimal" d="M16.763,30.907H8.691A2.691,2.691,0,0,0,6,33.6V47.052a2.691,2.691,0,0,0,2.691,2.691h8.072a2.691,2.691,0,0,0,2.691-2.691V33.6A2.691,2.691,0,0,0,16.763,30.907ZM8.691,47.052V33.6h8.072V47.052Zm29.6-16.144H30.217A2.691,2.691,0,0,0,27.526,33.6V47.052a2.691,2.691,0,0,0,2.691,2.691h8.072a2.691,2.691,0,0,0,2.691-2.691V33.6A2.691,2.691,0,0,0,38.289,30.907ZM30.217,47.052V33.6h8.072V47.052ZM24.835,48.4a1.345,1.345,0,1,1-1.345-1.345A1.345,1.345,0,0,1,24.835,48.4ZM16.763,4H8.691A2.691,2.691,0,0,0,6,6.691V20.144a2.691,2.691,0,0,0,2.691,2.691h8.072a2.691,2.691,0,0,0,2.691-2.691V6.691A2.691,2.691,0,0,0,16.763,4Zm0,16.144H8.691V6.691h8.072ZM40.584,14.37,35.2,19.751A1.347,1.347,0,0,1,33.3,17.846l3.089-3.084H23.49a1.345,1.345,0,1,1,0-2.691h12.9L33.3,8.989a1.347,1.347,0,1,1,1.905-1.905l5.381,5.381a1.345,1.345,0,0,1,0,1.905Z" transform="translate(662.484 1472.104)"/>
  </g>
</svg>
