<svg xmlns="http://www.w3.org/2000/svg" width="505" height="259" viewBox="0 0 505 259">
  <g id="Grupo_1115389" data-name="Grupo 1115389" transform="translate(-839.051 -1786)">
    <g id="Trazado_902848" data-name="Trazado 902848" transform="translate(839.051 1786)" fill="#f0f7e8">
      <path d="M 495 258.5 L 10 258.5 C 4.761687278747559 258.5 0.5 254.2383117675781 0.5 249 L 0.5 10 C 0.5 4.761687278747559 4.761687278747559 0.5 10 0.5 L 495 0.5 C 500.2383117675781 0.5 504.5 4.761687278747559 504.5 10 L 504.5 249 C 504.5 254.2383117675781 500.2383117675781 258.5 495 258.5 Z" stroke="none"/>
      <path d="M 10 1 C 5.037384033203125 1 1 5.037368774414062 1 10 L 1 249 C 1 253.9626312255859 5.037384033203125 258 10 258 L 495 258 C 499.9626159667969 258 504 253.9626312255859 504 249 L 504 10 C 504 5.037368774414062 499.9626159667969 1 495 1 L 10 1 M 10 0 L 495 0 C 500.5228881835938 0 505 4.477127075195312 505 10 L 505 249 C 505 254.5228118896484 500.5228881835938 259 495 259 L 10 259 C 4.47711181640625 259 0 254.5228118896484 0 249 L 0 10 C 0 4.477127075195312 4.47711181640625 0 10 0 Z" stroke="none" fill="#78b62e"/>
    </g>
    <g id="Grupo_1106233" data-name="Grupo 1106233">
      <g id="Polígono_1" data-name="Polígono 1" transform="translate(968.051 1809)" fill="#fff">
        <path d="M 246.1341552734375 213.5 L 0.8658278584480286 213.5 L 123.4999923706055 1.000314116477966 L 246.1341552734375 213.5 Z" stroke="none"/>
        <path d="M 123.4999923706055 2.000656127929688 L 1.731674194335938 213 L 245.268310546875 213 L 123.4999923706055 2.000656127929688 M 123.4999923706055 0 L 247 214 L -1.52587890625e-05 214 L 123.4999923706055 0 Z" stroke="none" fill="#707070"/>
      </g>
      <line id="Línea_588" data-name="Línea 588" x2="142" transform="translate(1020.551 1932.5)" fill="none" stroke="#707070" stroke-width="1"/>
      <line id="Línea_589" data-name="Línea 589" y2="89" transform="translate(1091.551 1932.5)" fill="none" stroke="#707070" stroke-width="1"/>
    </g>
    <path id="Trazado_902849" data-name="Trazado 902849" d="M10.547-6.187,15.078-22.75H21.2L13.547,0h-6L-.047-22.75H6.031Z" transform="translate(1084.051 1896)" fill="#12263f"/>
    <path id="Trazado_902850" data-name="Trazado 902850" d="M7.563,0H2.094V-22.75H7.563Z" transform="translate(1038.051 1984)" fill="#12263f"/>
    <path id="Trazado_902851" data-name="Trazado 902851" d="M10.172-8.047H7.2V0H1.719V-22.75h8.953A9.993,9.993,0,0,1,17-20.955a6.082,6.082,0,0,1,2.281,5.073,7.386,7.386,0,0,1-.961,3.933A6.821,6.821,0,0,1,15.313-9.42l4.75,9.186V0H14.188ZM7.2-12.266h3.469a3.114,3.114,0,0,0,2.352-.822,3.179,3.179,0,0,0,.789-2.295,3.217,3.217,0,0,0-.8-2.31,3.084,3.084,0,0,0-2.344-.838H7.2Z" transform="translate(1123.051 1984)" fill="#12263f"/>
  </g>
</svg>
