<svg xmlns="http://www.w3.org/2000/svg" width="75.949" height="75.949" viewBox="0 0 75.949 75.949">
  <g id="Grupo_1106331" data-name="Grupo 1106331" transform="translate(-1056.051 -1461)">
    <g id="Grupo_1106147" data-name="Grupo 1106147" transform="translate(1056.051 1461)">
      <g id="Grupo_1103990" data-name="Grupo 1103990" transform="translate(0 0)">
        <g id="Trazado_874102" data-name="Trazado 874102" transform="translate(0)" fill="#f3d02c">
          <path d="M 37.9746208190918 73.44922637939453 C 33.18447875976562 73.44922637939453 28.53894996643066 72.51162719726562 24.16706848144531 70.66248321533203 C 19.94307899475098 68.87588500976562 16.14902114868164 66.31768035888672 12.89029121398926 63.05895614624023 C 9.631549835205078 59.80021286010742 7.073350429534912 56.00615310668945 5.286750316619873 51.78216552734375 C 3.437608957290649 47.41028213500977 2.500009059906006 42.76475524902344 2.500009059906006 37.97461318969727 C 2.500009059906006 33.18447113037109 3.437608957290649 28.53894233703613 5.286750316619873 24.16706085205078 C 7.073350429534912 19.94307136535645 9.631549835205078 16.14901351928711 12.89029121398926 12.89027214050293 C 16.14902114868164 9.631542205810547 19.94307899475098 7.073342800140381 24.16706848144531 5.286742687225342 C 28.53894996643066 3.437601327896118 33.18447875976562 2.500001430511475 37.9746208190918 2.500001430511475 C 42.76476287841797 2.500001430511475 47.4102897644043 3.437601327896118 51.78217315673828 5.286742687225342 C 56.00616073608398 7.073342800140381 59.80022048950195 9.631542205810547 63.05896377563477 12.89027214050293 C 66.31768798828125 16.14901351928711 68.87589263916016 19.94307136535645 70.66249084472656 24.16706085205078 C 72.51163482666016 28.53894233703613 73.44923400878906 33.18447113037109 73.44923400878906 37.97461318969727 C 73.44923400878906 42.76475524902344 72.51163482666016 47.41028213500977 70.66249084472656 51.78216552734375 C 68.87589263916016 56.00615310668945 66.31768798828125 59.80021286010742 63.05896377563477 63.05895614624023 C 59.80022048950195 66.31768035888672 56.00616073608398 68.87588500976562 51.78217315673828 70.66248321533203 C 47.4102897644043 72.51162719726562 42.76476287841797 73.44922637939453 37.9746208190918 73.44922637939453 Z" stroke="none"/>
          <path d="M 37.9746208190918 5 C 33.52087783813477 5 29.20300674438477 5.87115478515625 25.14094924926758 7.589256286621094 C 21.21495056152344 9.24981689453125 17.68799209594727 11.62809753417969 14.65805053710938 14.65804290771484 C 11.62810516357422 17.68798446655273 9.249824523925781 21.21494293212891 7.589263916015625 25.14094161987305 C 5.871162414550781 29.20299911499023 5.000007629394531 33.52087020874023 5.000007629394531 37.97461318969727 C 5.000007629394531 42.4283561706543 5.871162414550781 46.7462272644043 7.589263916015625 50.80828475952148 C 9.249824523925781 54.73426818847656 11.62810516357422 58.26122665405273 14.65805053710938 61.29118347167969 C 17.68800735473633 64.32112884521484 21.21496200561523 66.69941711425781 25.14094924926758 68.35997009277344 C 29.20300674438477 70.07807159423828 33.52087783813477 70.94922637939453 37.9746208190918 70.94922637939453 C 42.42836380004883 70.94922637939453 46.74623489379883 70.07807159423828 50.80829238891602 68.35997009277344 C 54.73429107666016 66.69941711425781 58.26124954223633 64.32112884521484 61.29119110107422 61.29118347167969 C 64.32113647460938 58.2612419128418 66.69941711425781 54.73428344726562 68.35997772216797 50.80828475952148 C 70.07807922363281 46.7462272644043 70.94923400878906 42.4283561706543 70.94923400878906 37.97461318969727 C 70.94923400878906 33.52087020874023 70.07807922363281 29.20299911499023 68.35997772216797 25.14094161987305 C 66.69941711425781 21.21494293212891 64.32113647460938 17.68798446655273 61.29119110107422 14.65804290771484 C 58.26124954223633 11.62809753417969 54.73429107666016 9.24981689453125 50.80829238891602 7.589256286621094 C 46.74623489379883 5.87115478515625 42.42836380004883 5 37.9746208190918 5 M 37.9746208190918 0 C 58.94741821289062 0 75.94923400878906 17.00181198120117 75.94923400878906 37.97461318969727 C 75.94923400878906 58.9473991394043 58.94741821289062 75.94922637939453 37.9746208190918 75.94922637939453 C 17.00183486938477 75.94922637939453 7.62939453125e-06 58.9473991394043 7.62939453125e-06 37.97461318969727 C 7.62939453125e-06 17.00181198120117 17.00183486938477 0 37.9746208190918 0 Z" stroke="none" fill="#3c6d9d"/>
        </g>
      </g>
    </g>
    <g id="upc" transform="translate(1038.323 1447.004)">
      <path id="Trazado_896956" data-name="Trazado 896956" d="M75.757,40.562h-4.9v-.995a3.207,3.207,0,0,0-3.2-3.2h-.959V31.121A1.109,1.109,0,0,0,65.606,30h-.593a1.108,1.108,0,0,0-1.088,1.125v5.242h-3.83V31.121A1.108,1.108,0,0,0,59.007,30h-.593a1.108,1.108,0,0,0-1.088,1.125v5.242H53.5V31.121A1.108,1.108,0,0,0,52.407,30h-.593a1.109,1.109,0,0,0-1.088,1.125v5.242H46.9V31.121A1.109,1.109,0,0,0,45.808,30h-.593a1.109,1.109,0,0,0-1.088,1.125v5.242h-1.31a3.207,3.207,0,0,0-3.2,3.2v.995h-4.76a1.109,1.109,0,0,0-1.125,1.088v.593a1.109,1.109,0,0,0,1.125,1.088h4.76v3.829h-4.76a1.109,1.109,0,0,0-1.125,1.088v.593a1.109,1.109,0,0,0,1.125,1.088h4.76v3.83h-4.76a1.109,1.109,0,0,0-1.125,1.088v.593a1.109,1.109,0,0,0,1.125,1.088h4.76v3.83h-4.76a1.109,1.109,0,0,0-1.125,1.088v.593a1.109,1.109,0,0,0,1.125,1.088h4.76v1.79a3.207,3.207,0,0,0,3.2,3.2h1.31V73.41a1.108,1.108,0,0,0,1.088,1.125h.593A1.108,1.108,0,0,0,46.9,73.41V68.122h3.83V73.41a1.108,1.108,0,0,0,1.088,1.125h.593A1.108,1.108,0,0,0,53.5,73.41V68.122h3.83V73.41a1.108,1.108,0,0,0,1.088,1.125h.593a1.108,1.108,0,0,0,1.088-1.125V68.122h3.83V73.41a1.108,1.108,0,0,0,1.088,1.125h.593a1.108,1.108,0,0,0,1.088-1.125V68.122h.959a3.207,3.207,0,0,0,3.2-3.2v-1.79h4.9a1.109,1.109,0,0,0,1.125-1.088v-.593a1.109,1.109,0,0,0-1.125-1.088h-4.9V56.53h4.9a1.109,1.109,0,0,0,1.125-1.088v-.593a1.109,1.109,0,0,0-1.125-1.088h-4.9V49.93h4.9a1.109,1.109,0,0,0,1.125-1.088v-.593a1.109,1.109,0,0,0-1.125-1.088h-4.9V43.331h4.9a1.109,1.109,0,0,0,1.125-1.088V41.65a1.108,1.108,0,0,0-1.125-1.088ZM39.614,62.356h-4.76a.341.341,0,0,1-.353-.316v-.593a.341.341,0,0,1,.353-.316h4.76Zm0-6.6h-4.76a.341.341,0,0,1-.353-.316v-.593a.341.341,0,0,1,.353-.316h4.76Zm0-6.6h-4.76a.341.341,0,0,1-.353-.316v-.593a.341.341,0,0,1,.353-.316h4.76Zm0-6.6h-4.76a.341.341,0,0,1-.353-.316V41.65a.341.341,0,0,1,.353-.316h4.76ZM64.7,31.121a.341.341,0,0,1,.316-.353h.593a.341.341,0,0,1,.316.353v5.242H64.7Zm-6.6,0a.341.341,0,0,1,.316-.353h.593a.34.34,0,0,1,.316.353v5.242H58.1V31.121Zm-6.6,0a.341.341,0,0,1,.316-.353h.593a.34.34,0,0,1,.316.353v5.242H51.5Zm-6.6,0a.341.341,0,0,1,.316-.353h.593a.341.341,0,0,1,.316.353v5.242H44.9ZM46.124,73.41a.34.34,0,0,1-.316.353h-.593a.34.34,0,0,1-.316-.353V68.121h1.225Zm6.6,0a.34.34,0,0,1-.316.353h-.593a.34.34,0,0,1-.316-.353V68.121h1.225Zm6.6,0a.34.34,0,0,1-.316.353h-.593a.34.34,0,0,1-.316-.353V68.121h1.225V73.41Zm6.6,0a.34.34,0,0,1-.316.353h-.593a.34.34,0,0,1-.316-.353V68.121h1.225Zm4.162-8.492a2.433,2.433,0,0,1-2.431,2.431H42.817a2.433,2.433,0,0,1-2.431-2.431V39.567a2.433,2.433,0,0,1,2.431-2.431H67.653a2.433,2.433,0,0,1,2.431,2.431V64.918Zm5.672-3.787a.341.341,0,0,1,.353.316v.593a.341.341,0,0,1-.353.316h-4.9V61.131Zm0-6.6a.341.341,0,0,1,.353.316v.593a.341.341,0,0,1-.353.316h-4.9V54.532Zm0-6.6a.341.341,0,0,1,.353.316v.593a.341.341,0,0,1-.353.316h-4.9V47.933Zm.353-5.69a.341.341,0,0,1-.353.316h-4.9V41.334h4.9a.341.341,0,0,1,.353.316Z" fill="#333"/>
      <path id="Trazado_896957" data-name="Trazado 896957" d="M86.21,78.035H79.739a.5.5,0,0,0-.472.529V89.883a.521.521,0,0,0,.49.558H86.21a.548.548,0,0,0,.547-.547V78.582A.548.548,0,0,0,86.21,78.035Zm-.225,11.633H80.04V78.807h5.946Z" transform="translate(-37.088 -39.124)" fill="#333"/>
      <path id="Trazado_896958" data-name="Trazado 896958" d="M136.416,78.035h-6.471a.5.5,0,0,0-.472.529V89.883a.521.521,0,0,0,.49.558h6.453a.548.548,0,0,0,.547-.547V78.582A.548.548,0,0,0,136.416,78.035Zm-.225,11.633h-5.946V78.807h5.946Z" transform="translate(-77.977 -39.124)" fill="#333"/>
      <path id="Trazado_896959" data-name="Trazado 896959" d="M186.623,78.035h-6.471a.5.5,0,0,0-.472.529V89.883a.521.521,0,0,0,.49.558h6.453a.548.548,0,0,0,.547-.547V78.582A.548.548,0,0,0,186.623,78.035ZM186.4,89.668h-5.946V78.807H186.4Z" transform="translate(-118.867 -39.124)" fill="#333"/>
      <path id="Trazado_896960" data-name="Trazado 896960" d="M86.21,154.9H79.739a.5.5,0,0,0-.472.529v11.319a.521.521,0,0,0,.49.558H86.21a.548.548,0,0,0,.547-.547V155.45A.548.548,0,0,0,86.21,154.9Zm-.225,11.633H80.04V155.675h5.946Z" transform="translate(-37.088 -101.728)" fill="#333"/>
      <path id="Trazado_896961" data-name="Trazado 896961" d="M136.416,154.9h-6.471a.5.5,0,0,0-.472.529v11.319a.521.521,0,0,0,.49.558h6.453a.548.548,0,0,0,.547-.547V155.45A.548.548,0,0,0,136.416,154.9Zm-.225,11.633h-5.946V155.675h5.946Z" transform="translate(-77.977 -101.728)" fill="#333"/>
      <path id="Trazado_896962" data-name="Trazado 896962" d="M186.623,154.9h-6.471a.5.5,0,0,0-.472.529v11.319a.521.521,0,0,0,.49.558h6.453a.548.548,0,0,0,.547-.547V155.45A.548.548,0,0,0,186.623,154.9Zm-.225,11.633h-5.946V155.675H186.4Z" transform="translate(-118.867 -101.728)" fill="#333"/>
    </g>
  </g>
</svg>
