<svg xmlns="http://www.w3.org/2000/svg" width="85" height="85" viewBox="0 0 85 85">
  <g id="Grupo_1113821" data-name="Grupo 1113821" transform="translate(-180.051 -3343)">
    <circle id="Elipse_11703" data-name="Elipse 11703" cx="42.5" cy="42.5" r="42.5" transform="translate(180.051 3343)" fill="#01b9d1"/>
    <g id="dibujo-tecnico" transform="translate(194.051 3356.665)">
      <g id="Grupo_1113819" data-name="Grupo 1113819" transform="translate(0.832 1.093)">
        <path id="Trazado_901597" data-name="Trazado 901597" d="M215.064,16.911l.063-8.159a1.6,1.6,0,1,1,3.208.034l-.063,8.159Z" transform="translate(-192.032 -7.164)" fill="#ff77b7"/>
        <g id="Grupo_1113818" data-name="Grupo 1113818" transform="translate(0 7.306)">
          <g id="Grupo_1113815" data-name="Grupo 1113815" transform="translate(0 0.614)">
            <path id="Trazado_901598" data-name="Trazado 901598" d="M62.648,163.185H8.61a1.11,1.11,0,0,0-1.11,1.11v35.617a1.11,1.11,0,0,0,1.11,1.11H57.94a4.708,4.708,0,0,0,4.708-4.708Z" transform="translate(-7.5 -153.792)" fill="#fff2e8"/>
            <path id="Trazado_901599" data-name="Trazado 901599" d="M426.781,163.185v33.128a4.708,4.708,0,0,1-4.708,4.708h4.438a4.708,4.708,0,0,0,4.708-4.708V163.185Z" transform="translate(-376.071 -153.792)" fill="#ffe4cf"/>
            <path id="Trazado_901600" data-name="Trazado 901600" d="M446.508,79.648v35.617a1.11,1.11,0,0,0,1.11,1.11h.616a4.709,4.709,0,0,1,4.709,4.709V83.592a5.054,5.054,0,0,0-5.054-5.054h-.272A1.109,1.109,0,0,0,446.508,79.648Z" transform="translate(-397.795 -78.538)" fill="#f7d3b7"/>
          </g>
          <g id="Grupo_1113816" data-name="Grupo 1113816" transform="translate(11.657)">
            <path id="Trazado_901601" data-name="Trazado 901601" d="M122.267,138.66l-9.649,19.122a.554.554,0,0,0-.032.423l1.063,3.229a.554.554,0,0,0,1.021.076l10.776-21.356,10.322,21.577a.555.555,0,0,0,1.024-.055l1.13-3.2a.554.554,0,0,0-.023-.424l-9.243-19.321Z" transform="translate(-112.559 -131.375)" fill="#ffa6dd"/>
            <circle id="Elipse_11705" data-name="Elipse 11705" cx="4.358" cy="4.358" r="4.358" transform="translate(8.577)" fill="#6b78e3"/>
            <path id="Trazado_901602" data-name="Trazado 901602" d="M211.385,73a4.338,4.338,0,0,0-2.266.607,4.358,4.358,0,0,1,0,7.5A4.357,4.357,0,1,0,211.385,73Z" transform="translate(-198.404 -73.004)" fill="#616ccf"/>
          </g>
          <g id="Grupo_1113817" data-name="Grupo 1113817" transform="translate(5.401 34.185)">
            <path id="Trazado_901603" data-name="Trazado 901603" d="M56.178,389.184v-7.545a.555.555,0,0,1,.555-.555h36.8a.555.555,0,0,1,.555.555v7.545a.555.555,0,0,1-.555.555h-36.8A.555.555,0,0,1,56.178,389.184Z" transform="translate(-56.178 -381.084)" fill="#ffeb17"/>
          </g>
        </g>
      </g>
      <g id="Grupo_1113820" data-name="Grupo 1113820" transform="translate(0 0.335)">
        <path id="Trazado_901604" data-name="Trazado 901604" d="M50.927,8.18a2.012,2.012,0,0,0-2.213,1.942v7.451H30.383l-.812-1.7A5.238,5.238,0,0,0,27.91,8.2l.058-5.479C28-.441,23.128-.464,23.094,2.671l-.058,5.473a5.247,5.247,0,0,0-1.822,7.642l-.9,1.787H1.942A1.944,1.944,0,0,0,0,19.515V55.131a1.944,1.944,0,0,0,1.942,1.942H51.273a5.546,5.546,0,0,0,5.539-5.491c0-.008,0-.016,0-.025V14.066A5.893,5.893,0,0,0,50.927,8.18Zm-.549,1.942c0-.275.347-.321.549-.277a4.226,4.226,0,0,1,4.221,4.221V47.6a5.524,5.524,0,0,0-3.877-1.586c-.216.033-.893.095-.893-.277ZM37.031,35.328l-.869,2.464L26.6,17.809a5.166,5.166,0,0,0,1.7-.735ZM22.46,17.013a5.165,5.165,0,0,0,1.681.771L14.161,37.559l-.817-2.482Zm5.8,8.123-5.936-.063,3.032-6.008Zm-3.5-22.447a.772.772,0,0,1,1.544.016l-.052,4.927a5.272,5.272,0,0,0-1.544-.019Zm-1.8,7.548a3.567,3.567,0,0,1,2.5-1.006,3.525,3.525,0,0,1-.037,7.051h-.038a3.525,3.525,0,0,1-2.429-6.044ZM51.273,55.409H1.942a.278.278,0,0,1-.277-.277V19.515a.278.278,0,0,1,.277-.277H19.473l-2.914,5.775-2.811-.03a.833.833,0,0,0-.018,1.664l1.993.021-3.917,7.763a1.378,1.378,0,0,0-.079,1.058l1.063,3.229a1.4,1.4,0,0,0,2.555.191l6.146-12.18,7.572.08L34.95,39.114a1.4,1.4,0,0,0,2.559-.137l1.13-3.2a1.378,1.378,0,0,0-.057-1.06L34.83,26.87l1.993.021a.833.833,0,0,0,.018-1.664L34.03,25.2l-2.851-5.959H48.713v26.5c0,1.46,1.318,1.988,2.558,1.942a3.864,3.864,0,1,1,0,7.728Z" transform="translate(0 -0.335)" fill="#060606"/>
        <path id="Trazado_901605" data-name="Trazado 901605" d="M86.865,373.584h-36.8a1.389,1.389,0,0,0-1.387,1.387v7.545a1.389,1.389,0,0,0,1.387,1.387h36.8a1.389,1.389,0,0,0,1.387-1.387v-7.545a1.389,1.389,0,0,0-1.387-1.387Zm-.277,8.655H50.342v-6.991h2.145v1.49a.833.833,0,0,0,1.664,0v-1.49h2.122v2.6a.833.833,0,0,0,1.664,0v-2.6H60.06v1.49a.833.833,0,0,0,1.664,0v-1.49h2.122v2.6a.833.833,0,0,0,1.664,0v-2.6h2.122v1.49a.833.833,0,0,0,1.664,0v-1.49h2.122v2.6a.833.833,0,0,0,1.664,0v-2.6h2.122v1.49a.833.833,0,0,0,1.664,0v-1.49h2.122v2.6a.833.833,0,0,0,1.664,0v-2.6h2.122v1.49a.833.833,0,0,0,1.664,0v-1.49h2.145Z" transform="translate(-43.277 -332.168)" fill="#060606"/>
      </g>
    </g>
  </g>
</svg>
