<svg xmlns="http://www.w3.org/2000/svg" width="136" height="110" viewBox="0 0 136 110">
  <g id="Grupo_1106255" data-name="Grupo 1106255" transform="translate(-448.051 -2592)">
    <rect id="Rectángulo_402177" data-name="Rectángulo 402177" width="136" height="110" transform="translate(448.051 2592)" fill="#fff"/>
    <g id="Grupo_1106254" data-name="Grupo 1106254" transform="translate(1538.051 11608)">
      <text id="A" transform="translate(-1071.411 -9001)" font-size="10" font-family="Arial-BoldMT, Arial" font-weight="700"><tspan x="0" y="0">A</tspan></text>
      <text id="_" data-name=" " transform="translate(-1064.189 -9001)" font-size="10" font-family="Arial-BoldMT, Arial" font-weight="700"><tspan x="0" y="0"> </tspan></text>
      <path id="Trazado_896362" data-name="Trazado 896362" d="M156.5-109.5h38v-18h-38Z" transform="translate(-1243 -8885)" fill="none"/>
      <text id="B" transform="translate(-1030.336 -9001)" font-size="10" font-family="Arial-BoldMT, Arial" font-weight="700"><tspan x="0" y="0">B</tspan></text>
      <text id="_2" data-name=" " transform="translate(-1023.114 -9001)" font-size="10" font-family="Arial-BoldMT, Arial" font-weight="700"><tspan x="0" y="0"> </tspan></text>
      <path id="Trazado_896363" data-name="Trazado 896363" d="M197.5-109.5h40v-18h-40Z" transform="translate(-1243 -8885)" fill="none"/>
      <text id="A_A" data-name="A A" transform="translate(-1001.036 -9001)" font-size="10" font-family="Arial-BoldMT, Arial" font-weight="700" letter-spacing="-0.037em"><tspan x="0" y="0">A A</tspan></text>
      <text id="N" transform="translate(-984.553 -9001)" font-size="10" font-family="Arial-BoldMT, Arial" font-weight="700" letter-spacing="-0.037em"><tspan x="0" y="0">N</tspan></text>
      <text id="D" transform="translate(-977.332 -9001)" font-size="10" font-family="Arial-BoldMT, Arial" font-weight="700" letter-spacing="-0.037em"><tspan x="0" y="0">D</tspan></text>
      <text id="_3" data-name=" " transform="translate(-970.111 -9001)" font-size="10" font-family="Arial-BoldMT, Arial" font-weight="700" letter-spacing="-0.037em"><tspan x="0" y="0"> </tspan></text>
      <text id="B-2" data-name="B" transform="translate(-967.33 -9001)" font-size="10" font-family="Arial-BoldMT, Arial" font-weight="700" letter-spacing="-0.037em"><tspan x="0" y="0">B</tspan></text>
      <text id="_4" data-name=" " transform="translate(-960.114 -9001)" font-size="10" font-family="Arial-BoldMT, Arial" font-weight="700"><tspan x="0" y="0"> </tspan></text>
      <path id="Trazado_896364" data-name="Trazado 896364" d="M239.5-109.5h47v-18h-47Z" transform="translate(-1243 -8885)" fill="none"/>
      <path id="Trazado_896365" data-name="Trazado 896365" d="M153-131h1v4h-1Z" transform="translate(-1243 -8885)"/>
      <path id="Trazado_896366" data-name="Trazado 896366" d="M153-131h1v1h-1Z" transform="translate(-1243 -8885)"/>
      <path id="Trazado_896367" data-name="Trazado 896367" d="M154-131h41v1H154Z" transform="translate(-1243 -8885)"/>
      <path id="Trazado_896368" data-name="Trazado 896368" d="M195-131h1v1h-1Z" transform="translate(-1243 -8885)"/>
      <path id="Trazado_896369" data-name="Trazado 896369" d="M196-131h42v1H196Z" transform="translate(-1243 -8885)"/>
      <path id="Trazado_896370" data-name="Trazado 896370" d="M238-131h1v1h-1Z" transform="translate(-1243 -8885)"/>
      <path id="Trazado_896371" data-name="Trazado 896371" d="M239-131h49v1H239Z" transform="translate(-1243 -8885)"/>
      <path id="Trazado_896372" data-name="Trazado 896372" d="M288-131h1v4h-1Z" transform="translate(-1243 -8885)"/>
      <path id="Trazado_896373" data-name="Trazado 896373" d="M288-131h1v1h-1Z" transform="translate(-1243 -8885)"/>
      <path id="Trazado_896374" data-name="Trazado 896374" d="M155-129h1v1h-1Z" transform="translate(-1243 -8885)"/>
      <path id="Trazado_896375" data-name="Trazado 896375" d="M155-129h1v1h-1Z" transform="translate(-1243 -8885)"/>
      <path id="Trazado_896376" data-name="Trazado 896376" d="M156-129h38v1H156Z" transform="translate(-1243 -8885)"/>
      <path id="Trazado_896377" data-name="Trazado 896377" d="M194-129h1v1h-1Z" transform="translate(-1243 -8885)"/>
      <path id="Trazado_896378" data-name="Trazado 896378" d="M194-129h1v1h-1Z" transform="translate(-1243 -8885)"/>
      <path id="Trazado_896379" data-name="Trazado 896379" d="M155-109h1v1h-1Z" transform="translate(-1243 -8885)"/>
      <path id="Trazado_896380" data-name="Trazado 896380" d="M155-109h1v1h-1Z" transform="translate(-1243 -8885)"/>
      <path id="Trazado_896381" data-name="Trazado 896381" d="M156-109h38v1H156Z" transform="translate(-1243 -8885)"/>
      <path id="Trazado_896382" data-name="Trazado 896382" d="M194-109h1v1h-1Z" transform="translate(-1243 -8885)"/>
      <path id="Trazado_896383" data-name="Trazado 896383" d="M194-109h1v1h-1Z" transform="translate(-1243 -8885)"/>
      <path id="Trazado_896384" data-name="Trazado 896384" d="M155-128h1v19h-1Z" transform="translate(-1243 -8885)"/>
      <path id="Trazado_896385" data-name="Trazado 896385" d="M194-128h1v19h-1Z" transform="translate(-1243 -8885)"/>
      <path id="Trazado_896386" data-name="Trazado 896386" d="M153-127h1v19h-1Z" transform="translate(-1243 -8885)"/>
      <path id="Trazado_896387" data-name="Trazado 896387" d="M195-129h1v1h-1Z" transform="translate(-1243 -8885)"/>
      <path id="Trazado_896388" data-name="Trazado 896388" d="M195-129h1v1h-1Z" transform="translate(-1243 -8885)"/>
      <path id="Trazado_896389" data-name="Trazado 896389" d="M196-129h41v1H196Z" transform="translate(-1243 -8885)"/>
      <path id="Trazado_896390" data-name="Trazado 896390" d="M237-129h1v1h-1Z" transform="translate(-1243 -8885)"/>
      <path id="Trazado_896391" data-name="Trazado 896391" d="M237-129h1v1h-1Z" transform="translate(-1243 -8885)"/>
      <path id="Trazado_896392" data-name="Trazado 896392" d="M195-109h1v1h-1Z" transform="translate(-1243 -8885)"/>
      <path id="Trazado_896393" data-name="Trazado 896393" d="M195-109h1v1h-1Z" transform="translate(-1243 -8885)"/>
      <path id="Trazado_896394" data-name="Trazado 896394" d="M196-109h41v1H196Z" transform="translate(-1243 -8885)"/>
      <path id="Trazado_896395" data-name="Trazado 896395" d="M237-109h1v1h-1Z" transform="translate(-1243 -8885)"/>
      <path id="Trazado_896396" data-name="Trazado 896396" d="M237-109h1v1h-1Z" transform="translate(-1243 -8885)"/>
      <path id="Trazado_896397" data-name="Trazado 896397" d="M195-128h1v19h-1Z" transform="translate(-1243 -8885)"/>
      <path id="Trazado_896398" data-name="Trazado 896398" d="M237-128h1v19h-1Z" transform="translate(-1243 -8885)"/>
      <path id="Trazado_896399" data-name="Trazado 896399" d="M238-129h1v1h-1Z" transform="translate(-1243 -8885)"/>
      <path id="Trazado_896400" data-name="Trazado 896400" d="M238-129h1v1h-1Z" transform="translate(-1243 -8885)"/>
      <path id="Trazado_896401" data-name="Trazado 896401" d="M239-129h47v1H239Z" transform="translate(-1243 -8885)"/>
      <path id="Trazado_896402" data-name="Trazado 896402" d="M286-129h1v1h-1Z" transform="translate(-1243 -8885)"/>
      <path id="Trazado_896403" data-name="Trazado 896403" d="M286-129h1v1h-1Z" transform="translate(-1243 -8885)"/>
      <path id="Trazado_896404" data-name="Trazado 896404" d="M238-109h1v1h-1Z" transform="translate(-1243 -8885)"/>
      <path id="Trazado_896405" data-name="Trazado 896405" d="M238-109h1v1h-1Z" transform="translate(-1243 -8885)"/>
      <path id="Trazado_896406" data-name="Trazado 896406" d="M239-109h47v1H239Z" transform="translate(-1243 -8885)"/>
      <path id="Trazado_896407" data-name="Trazado 896407" d="M286-109h1v1h-1Z" transform="translate(-1243 -8885)"/>
      <path id="Trazado_896408" data-name="Trazado 896408" d="M286-109h1v1h-1Z" transform="translate(-1243 -8885)"/>
      <path id="Trazado_896409" data-name="Trazado 896409" d="M238-128h1v19h-1Z" transform="translate(-1243 -8885)"/>
      <path id="Trazado_896410" data-name="Trazado 896410" d="M286-128h1v19h-1Z" transform="translate(-1243 -8885)"/>
      <path id="Trazado_896411" data-name="Trazado 896411" d="M288-127h1v19h-1Z" transform="translate(-1243 -8885)"/>
      <text id="_0" data-name="0" transform="translate(-1070.581 -8979)" font-size="10" font-family="ArialMT, Arial"><tspan x="0" y="0">0</tspan></text>
      <text id="_5" data-name=" " transform="translate(-1065.019 -8979)" font-size="10" font-family="ArialMT, Arial"><tspan x="0" y="0"> </tspan></text>
      <path id="Trazado_896412" data-name="Trazado 896412" d="M156.5-88.5h38v-17h-38Z" transform="translate(-1243 -8885)" fill="none"/>
      <text id="_0-2" data-name="0" transform="translate(-1029.506 -8979)" font-size="10" font-family="ArialMT, Arial"><tspan x="0" y="0">0</tspan></text>
      <text id="_6" data-name=" " transform="translate(-1023.944 -8979)" font-size="10" font-family="ArialMT, Arial"><tspan x="0" y="0"> </tspan></text>
      <path id="Trazado_896413" data-name="Trazado 896413" d="M197.5-88.5h40v-17h-40Z" transform="translate(-1243 -8885)" fill="none"/>
      <text id="_0-3" data-name="0" transform="translate(-983.356 -8979)" font-size="10" font-family="ArialMT, Arial"><tspan x="0" y="0">0</tspan></text>
      <text id="_7" data-name=" " transform="translate(-977.794 -8979)" font-size="10" font-family="ArialMT, Arial"><tspan x="0" y="0"> </tspan></text>
      <path id="Trazado_896414" data-name="Trazado 896414" d="M239.5-88.5h47v-17h-47Z" transform="translate(-1243 -8885)" fill="none"/>
      <path id="Trazado_896415" data-name="Trazado 896415" d="M153-108h1v2h-1Z" transform="translate(-1243 -8885)"/>
      <path id="Trazado_896416" data-name="Trazado 896416" d="M288-108h1v2h-1Z" transform="translate(-1243 -8885)"/>
      <path id="Trazado_896417" data-name="Trazado 896417" d="M155-108h1v1h-1Z" transform="translate(-1243 -8885)"/>
      <path id="Trazado_896418" data-name="Trazado 896418" d="M155-108h1v1h-1Z" transform="translate(-1243 -8885)"/>
      <path id="Trazado_896419" data-name="Trazado 896419" d="M156-108h38v1H156Z" transform="translate(-1243 -8885)"/>
      <path id="Trazado_896420" data-name="Trazado 896420" d="M194-108h1v1h-1Z" transform="translate(-1243 -8885)"/>
      <path id="Trazado_896421" data-name="Trazado 896421" d="M194-108h1v1h-1Z" transform="translate(-1243 -8885)"/>
      <path id="Trazado_896422" data-name="Trazado 896422" d="M155-88h1v1h-1Z" transform="translate(-1243 -8885)"/>
      <path id="Trazado_896423" data-name="Trazado 896423" d="M155-88h1v1h-1Z" transform="translate(-1243 -8885)"/>
      <path id="Trazado_896424" data-name="Trazado 896424" d="M156-88h38v1H156Z" transform="translate(-1243 -8885)"/>
      <path id="Trazado_896425" data-name="Trazado 896425" d="M194-88h1v1h-1Z" transform="translate(-1243 -8885)"/>
      <path id="Trazado_896426" data-name="Trazado 896426" d="M194-88h1v1h-1Z" transform="translate(-1243 -8885)"/>
      <path id="Trazado_896427" data-name="Trazado 896427" d="M155-107h1v19h-1Z" transform="translate(-1243 -8885)"/>
      <path id="Trazado_896428" data-name="Trazado 896428" d="M194-107h1v19h-1Z" transform="translate(-1243 -8885)"/>
      <path id="Trazado_896429" data-name="Trazado 896429" d="M153-106h1v19h-1Z" transform="translate(-1243 -8885)"/>
      <path id="Trazado_896430" data-name="Trazado 896430" d="M195-108h1v1h-1Z" transform="translate(-1243 -8885)"/>
      <path id="Trazado_896431" data-name="Trazado 896431" d="M195-108h1v1h-1Z" transform="translate(-1243 -8885)"/>
      <path id="Trazado_896432" data-name="Trazado 896432" d="M196-108h41v1H196Z" transform="translate(-1243 -8885)"/>
      <path id="Trazado_896433" data-name="Trazado 896433" d="M237-108h1v1h-1Z" transform="translate(-1243 -8885)"/>
      <path id="Trazado_896434" data-name="Trazado 896434" d="M237-108h1v1h-1Z" transform="translate(-1243 -8885)"/>
      <path id="Trazado_896435" data-name="Trazado 896435" d="M195-88h1v1h-1Z" transform="translate(-1243 -8885)"/>
      <path id="Trazado_896436" data-name="Trazado 896436" d="M195-88h1v1h-1Z" transform="translate(-1243 -8885)"/>
      <path id="Trazado_896437" data-name="Trazado 896437" d="M196-88h41v1H196Z" transform="translate(-1243 -8885)"/>
      <path id="Trazado_896438" data-name="Trazado 896438" d="M237-88h1v1h-1Z" transform="translate(-1243 -8885)"/>
      <path id="Trazado_896439" data-name="Trazado 896439" d="M237-88h1v1h-1Z" transform="translate(-1243 -8885)"/>
      <path id="Trazado_896440" data-name="Trazado 896440" d="M195-107h1v19h-1Z" transform="translate(-1243 -8885)"/>
      <path id="Trazado_896441" data-name="Trazado 896441" d="M237-107h1v19h-1Z" transform="translate(-1243 -8885)"/>
      <path id="Trazado_896442" data-name="Trazado 896442" d="M238-108h1v1h-1Z" transform="translate(-1243 -8885)"/>
      <path id="Trazado_896443" data-name="Trazado 896443" d="M238-108h1v1h-1Z" transform="translate(-1243 -8885)"/>
      <path id="Trazado_896444" data-name="Trazado 896444" d="M239-108h47v1H239Z" transform="translate(-1243 -8885)"/>
      <path id="Trazado_896445" data-name="Trazado 896445" d="M286-108h1v1h-1Z" transform="translate(-1243 -8885)"/>
      <path id="Trazado_896446" data-name="Trazado 896446" d="M286-108h1v1h-1Z" transform="translate(-1243 -8885)"/>
      <path id="Trazado_896447" data-name="Trazado 896447" d="M238-88h1v1h-1Z" transform="translate(-1243 -8885)"/>
      <path id="Trazado_896448" data-name="Trazado 896448" d="M238-88h1v1h-1Z" transform="translate(-1243 -8885)"/>
      <path id="Trazado_896449" data-name="Trazado 896449" d="M239-88h47v1H239Z" transform="translate(-1243 -8885)"/>
      <path id="Trazado_896450" data-name="Trazado 896450" d="M286-88h1v1h-1Z" transform="translate(-1243 -8885)"/>
      <path id="Trazado_896451" data-name="Trazado 896451" d="M286-88h1v1h-1Z" transform="translate(-1243 -8885)"/>
      <path id="Trazado_896452" data-name="Trazado 896452" d="M238-107h1v19h-1Z" transform="translate(-1243 -8885)"/>
      <path id="Trazado_896453" data-name="Trazado 896453" d="M286-107h1v19h-1Z" transform="translate(-1243 -8885)"/>
      <path id="Trazado_896454" data-name="Trazado 896454" d="M288-106h1v19h-1Z" transform="translate(-1243 -8885)"/>
      <text id="_0-4" data-name="0" transform="translate(-1070.581 -8958)" font-size="10" font-family="ArialMT, Arial"><tspan x="0" y="0">0</tspan></text>
      <text id="_8" data-name=" " transform="translate(-1065.019 -8958)" font-size="10" font-family="ArialMT, Arial"><tspan x="0" y="0"> </tspan></text>
      <path id="Trazado_896455" data-name="Trazado 896455" d="M156.5-66.5h38v-18h-38Z" transform="translate(-1243 -8885)" fill="none"/>
      <text id="_1" data-name="1" transform="translate(-1029.506 -8958)" font-size="10" font-family="ArialMT, Arial"><tspan x="0" y="0">1</tspan></text>
      <text id="_9" data-name=" " transform="translate(-1023.944 -8958)" font-size="10" font-family="ArialMT, Arial"><tspan x="0" y="0"> </tspan></text>
      <path id="Trazado_896456" data-name="Trazado 896456" d="M197.5-66.5h40v-18h-40Z" transform="translate(-1243 -8885)" fill="none"/>
      <text id="_0-5" data-name="0" transform="translate(-983.356 -8958)" font-size="10" font-family="ArialMT, Arial"><tspan x="0" y="0">0</tspan></text>
      <text id="_10" data-name=" " transform="translate(-977.794 -8958)" font-size="10" font-family="ArialMT, Arial"><tspan x="0" y="0"> </tspan></text>
      <path id="Trazado_896457" data-name="Trazado 896457" d="M239.5-66.5h47v-18h-47Z" transform="translate(-1243 -8885)" fill="none"/>
      <path id="Trazado_896458" data-name="Trazado 896458" d="M153-87h1v2h-1Z" transform="translate(-1243 -8885)"/>
      <path id="Trazado_896459" data-name="Trazado 896459" d="M288-87h1v2h-1Z" transform="translate(-1243 -8885)"/>
      <path id="Trazado_896460" data-name="Trazado 896460" d="M155-87h1v1h-1Z" transform="translate(-1243 -8885)"/>
      <path id="Trazado_896461" data-name="Trazado 896461" d="M155-87h1v1h-1Z" transform="translate(-1243 -8885)"/>
      <path id="Trazado_896462" data-name="Trazado 896462" d="M156-87h38v1H156Z" transform="translate(-1243 -8885)"/>
      <path id="Trazado_896463" data-name="Trazado 896463" d="M194-87h1v1h-1Z" transform="translate(-1243 -8885)"/>
      <path id="Trazado_896464" data-name="Trazado 896464" d="M194-87h1v1h-1Z" transform="translate(-1243 -8885)"/>
      <path id="Trazado_896465" data-name="Trazado 896465" d="M155-66h1v1h-1Z" transform="translate(-1243 -8885)"/>
      <path id="Trazado_896466" data-name="Trazado 896466" d="M155-66h1v1h-1Z" transform="translate(-1243 -8885)"/>
      <path id="Trazado_896467" data-name="Trazado 896467" d="M156-66h38v1H156Z" transform="translate(-1243 -8885)"/>
      <path id="Trazado_896468" data-name="Trazado 896468" d="M194-66h1v1h-1Z" transform="translate(-1243 -8885)"/>
      <path id="Trazado_896469" data-name="Trazado 896469" d="M194-66h1v1h-1Z" transform="translate(-1243 -8885)"/>
      <path id="Trazado_896470" data-name="Trazado 896470" d="M155-86h1v20h-1Z" transform="translate(-1243 -8885)"/>
      <path id="Trazado_896471" data-name="Trazado 896471" d="M194-86h1v20h-1Z" transform="translate(-1243 -8885)"/>
      <path id="Trazado_896472" data-name="Trazado 896472" d="M153-85h1v20h-1Z" transform="translate(-1243 -8885)"/>
      <path id="Trazado_896473" data-name="Trazado 896473" d="M195-87h1v1h-1Z" transform="translate(-1243 -8885)"/>
      <path id="Trazado_896474" data-name="Trazado 896474" d="M195-87h1v1h-1Z" transform="translate(-1243 -8885)"/>
      <path id="Trazado_896475" data-name="Trazado 896475" d="M196-87h41v1H196Z" transform="translate(-1243 -8885)"/>
      <path id="Trazado_896476" data-name="Trazado 896476" d="M237-87h1v1h-1Z" transform="translate(-1243 -8885)"/>
      <path id="Trazado_896477" data-name="Trazado 896477" d="M237-87h1v1h-1Z" transform="translate(-1243 -8885)"/>
      <path id="Trazado_896478" data-name="Trazado 896478" d="M195-66h1v1h-1Z" transform="translate(-1243 -8885)"/>
      <path id="Trazado_896479" data-name="Trazado 896479" d="M195-66h1v1h-1Z" transform="translate(-1243 -8885)"/>
      <path id="Trazado_896480" data-name="Trazado 896480" d="M196-66h41v1H196Z" transform="translate(-1243 -8885)"/>
      <path id="Trazado_896481" data-name="Trazado 896481" d="M237-66h1v1h-1Z" transform="translate(-1243 -8885)"/>
      <path id="Trazado_896482" data-name="Trazado 896482" d="M237-66h1v1h-1Z" transform="translate(-1243 -8885)"/>
      <path id="Trazado_896483" data-name="Trazado 896483" d="M195-86h1v20h-1Z" transform="translate(-1243 -8885)"/>
      <path id="Trazado_896484" data-name="Trazado 896484" d="M237-86h1v20h-1Z" transform="translate(-1243 -8885)"/>
      <path id="Trazado_896485" data-name="Trazado 896485" d="M238-87h1v1h-1Z" transform="translate(-1243 -8885)"/>
      <path id="Trazado_896486" data-name="Trazado 896486" d="M238-87h1v1h-1Z" transform="translate(-1243 -8885)"/>
      <path id="Trazado_896487" data-name="Trazado 896487" d="M239-87h47v1H239Z" transform="translate(-1243 -8885)"/>
      <path id="Trazado_896488" data-name="Trazado 896488" d="M286-87h1v1h-1Z" transform="translate(-1243 -8885)"/>
      <path id="Trazado_896489" data-name="Trazado 896489" d="M286-87h1v1h-1Z" transform="translate(-1243 -8885)"/>
      <path id="Trazado_896490" data-name="Trazado 896490" d="M238-66h1v1h-1Z" transform="translate(-1243 -8885)"/>
      <path id="Trazado_896491" data-name="Trazado 896491" d="M238-66h1v1h-1Z" transform="translate(-1243 -8885)"/>
      <path id="Trazado_896492" data-name="Trazado 896492" d="M239-66h47v1H239Z" transform="translate(-1243 -8885)"/>
      <path id="Trazado_896493" data-name="Trazado 896493" d="M286-66h1v1h-1Z" transform="translate(-1243 -8885)"/>
      <path id="Trazado_896494" data-name="Trazado 896494" d="M286-66h1v1h-1Z" transform="translate(-1243 -8885)"/>
      <path id="Trazado_896495" data-name="Trazado 896495" d="M238-86h1v20h-1Z" transform="translate(-1243 -8885)"/>
      <path id="Trazado_896496" data-name="Trazado 896496" d="M286-86h1v20h-1Z" transform="translate(-1243 -8885)"/>
      <path id="Trazado_896497" data-name="Trazado 896497" d="M288-85h1v20h-1Z" transform="translate(-1243 -8885)"/>
      <text id="_1-2" data-name="1" transform="translate(-1070.581 -8936)" font-size="10" font-family="ArialMT, Arial"><tspan x="0" y="0">1</tspan></text>
      <text id="_11" data-name=" " transform="translate(-1065.019 -8936)" font-size="10" font-family="ArialMT, Arial"><tspan x="0" y="0"> </tspan></text>
      <path id="Trazado_896498" data-name="Trazado 896498" d="M156.5-45.5h38v-17h-38Z" transform="translate(-1243 -8885)" fill="none"/>
      <text id="_0-6" data-name="0" transform="translate(-1029.506 -8936)" font-size="10" font-family="ArialMT, Arial"><tspan x="0" y="0">0</tspan></text>
      <text id="_12" data-name=" " transform="translate(-1023.944 -8936)" font-size="10" font-family="ArialMT, Arial"><tspan x="0" y="0"> </tspan></text>
      <path id="Trazado_896499" data-name="Trazado 896499" d="M197.5-45.5h40v-17h-40Z" transform="translate(-1243 -8885)" fill="none"/>
      <text id="_0-7" data-name="0" transform="translate(-983.356 -8936)" font-size="10" font-family="ArialMT, Arial"><tspan x="0" y="0">0</tspan></text>
      <text id="_13" data-name=" " transform="translate(-977.794 -8936)" font-size="10" font-family="ArialMT, Arial"><tspan x="0" y="0"> </tspan></text>
      <path id="Trazado_896500" data-name="Trazado 896500" d="M239.5-45.5h47v-17h-47Z" transform="translate(-1243 -8885)" fill="none"/>
      <path id="Trazado_896501" data-name="Trazado 896501" d="M153-65h1v2h-1Z" transform="translate(-1243 -8885)"/>
      <path id="Trazado_896502" data-name="Trazado 896502" d="M288-65h1v2h-1Z" transform="translate(-1243 -8885)"/>
      <path id="Trazado_896503" data-name="Trazado 896503" d="M155-65h1v1h-1Z" transform="translate(-1243 -8885)"/>
      <path id="Trazado_896504" data-name="Trazado 896504" d="M155-65h1v1h-1Z" transform="translate(-1243 -8885)"/>
      <path id="Trazado_896505" data-name="Trazado 896505" d="M156-65h38v1H156Z" transform="translate(-1243 -8885)"/>
      <path id="Trazado_896506" data-name="Trazado 896506" d="M194-65h1v1h-1Z" transform="translate(-1243 -8885)"/>
      <path id="Trazado_896507" data-name="Trazado 896507" d="M194-65h1v1h-1Z" transform="translate(-1243 -8885)"/>
      <path id="Trazado_896508" data-name="Trazado 896508" d="M155-45h1v1h-1Z" transform="translate(-1243 -8885)"/>
      <path id="Trazado_896509" data-name="Trazado 896509" d="M155-45h1v1h-1Z" transform="translate(-1243 -8885)"/>
      <path id="Trazado_896510" data-name="Trazado 896510" d="M156-45h38v1H156Z" transform="translate(-1243 -8885)"/>
      <path id="Trazado_896511" data-name="Trazado 896511" d="M194-45h1v1h-1Z" transform="translate(-1243 -8885)"/>
      <path id="Trazado_896512" data-name="Trazado 896512" d="M194-45h1v1h-1Z" transform="translate(-1243 -8885)"/>
      <path id="Trazado_896513" data-name="Trazado 896513" d="M155-64h1v19h-1Z" transform="translate(-1243 -8885)"/>
      <path id="Trazado_896514" data-name="Trazado 896514" d="M194-64h1v19h-1Z" transform="translate(-1243 -8885)"/>
      <path id="Trazado_896515" data-name="Trazado 896515" d="M153-63h1v19h-1Z" transform="translate(-1243 -8885)"/>
      <path id="Trazado_896516" data-name="Trazado 896516" d="M195-65h1v1h-1Z" transform="translate(-1243 -8885)"/>
      <path id="Trazado_896517" data-name="Trazado 896517" d="M195-65h1v1h-1Z" transform="translate(-1243 -8885)"/>
      <path id="Trazado_896518" data-name="Trazado 896518" d="M196-65h41v1H196Z" transform="translate(-1243 -8885)"/>
      <path id="Trazado_896519" data-name="Trazado 896519" d="M237-65h1v1h-1Z" transform="translate(-1243 -8885)"/>
      <path id="Trazado_896520" data-name="Trazado 896520" d="M237-65h1v1h-1Z" transform="translate(-1243 -8885)"/>
      <path id="Trazado_896521" data-name="Trazado 896521" d="M195-45h1v1h-1Z" transform="translate(-1243 -8885)"/>
      <path id="Trazado_896522" data-name="Trazado 896522" d="M195-45h1v1h-1Z" transform="translate(-1243 -8885)"/>
      <path id="Trazado_896523" data-name="Trazado 896523" d="M196-45h41v1H196Z" transform="translate(-1243 -8885)"/>
      <path id="Trazado_896524" data-name="Trazado 896524" d="M237-45h1v1h-1Z" transform="translate(-1243 -8885)"/>
      <path id="Trazado_896525" data-name="Trazado 896525" d="M237-45h1v1h-1Z" transform="translate(-1243 -8885)"/>
      <path id="Trazado_896526" data-name="Trazado 896526" d="M195-64h1v19h-1Z" transform="translate(-1243 -8885)"/>
      <path id="Trazado_896527" data-name="Trazado 896527" d="M237-64h1v19h-1Z" transform="translate(-1243 -8885)"/>
      <path id="Trazado_896528" data-name="Trazado 896528" d="M238-65h1v1h-1Z" transform="translate(-1243 -8885)"/>
      <path id="Trazado_896529" data-name="Trazado 896529" d="M238-65h1v1h-1Z" transform="translate(-1243 -8885)"/>
      <path id="Trazado_896530" data-name="Trazado 896530" d="M239-65h47v1H239Z" transform="translate(-1243 -8885)"/>
      <path id="Trazado_896531" data-name="Trazado 896531" d="M286-65h1v1h-1Z" transform="translate(-1243 -8885)"/>
      <path id="Trazado_896532" data-name="Trazado 896532" d="M286-65h1v1h-1Z" transform="translate(-1243 -8885)"/>
      <path id="Trazado_896533" data-name="Trazado 896533" d="M238-45h1v1h-1Z" transform="translate(-1243 -8885)"/>
      <path id="Trazado_896534" data-name="Trazado 896534" d="M238-45h1v1h-1Z" transform="translate(-1243 -8885)"/>
      <path id="Trazado_896535" data-name="Trazado 896535" d="M239-45h47v1H239Z" transform="translate(-1243 -8885)"/>
      <path id="Trazado_896536" data-name="Trazado 896536" d="M286-45h1v1h-1Z" transform="translate(-1243 -8885)"/>
      <path id="Trazado_896537" data-name="Trazado 896537" d="M286-45h1v1h-1Z" transform="translate(-1243 -8885)"/>
      <path id="Trazado_896538" data-name="Trazado 896538" d="M238-64h1v19h-1Z" transform="translate(-1243 -8885)"/>
      <path id="Trazado_896539" data-name="Trazado 896539" d="M286-64h1v19h-1Z" transform="translate(-1243 -8885)"/>
      <path id="Trazado_896540" data-name="Trazado 896540" d="M288-63h1v19h-1Z" transform="translate(-1243 -8885)"/>
      <text id="_1-3" data-name="1" transform="translate(-1070.581 -8915)" font-size="10" font-family="ArialMT, Arial"><tspan x="0" y="0">1</tspan></text>
      <text id="_14" data-name=" " transform="translate(-1065.019 -8915)" font-size="10" font-family="ArialMT, Arial"><tspan x="0" y="0"> </tspan></text>
      <path id="Trazado_896541" data-name="Trazado 896541" d="M156.5-23.5h38v-18h-38Z" transform="translate(-1243 -8885)" fill="none"/>
      <text id="_1-4" data-name="1" transform="translate(-1029.506 -8915)" font-size="10" font-family="ArialMT, Arial"><tspan x="0" y="0">1</tspan></text>
      <text id="_15" data-name=" " transform="translate(-1023.944 -8915)" font-size="10" font-family="ArialMT, Arial"><tspan x="0" y="0"> </tspan></text>
      <path id="Trazado_896542" data-name="Trazado 896542" d="M197.5-23.5h40v-18h-40Z" transform="translate(-1243 -8885)" fill="none"/>
      <text id="_1-5" data-name="1" transform="translate(-983.356 -8915)" font-size="10" font-family="ArialMT, Arial"><tspan x="0" y="0">1</tspan></text>
      <text id="_16" data-name=" " transform="translate(-977.794 -8915)" font-size="10" font-family="ArialMT, Arial"><tspan x="0" y="0"> </tspan></text>
      <path id="Trazado_896543" data-name="Trazado 896543" d="M239.5-23.5h47v-18h-47Z" transform="translate(-1243 -8885)" fill="none"/>
      <path id="Trazado_896544" data-name="Trazado 896544" d="M153-44h1v2h-1Z" transform="translate(-1243 -8885)"/>
      <path id="Trazado_896545" data-name="Trazado 896545" d="M288-44h1v2h-1Z" transform="translate(-1243 -8885)"/>
      <path id="Trazado_896546" data-name="Trazado 896546" d="M155-44h1v1h-1Z" transform="translate(-1243 -8885)"/>
      <path id="Trazado_896547" data-name="Trazado 896547" d="M155-44h1v1h-1Z" transform="translate(-1243 -8885)"/>
      <path id="Trazado_896548" data-name="Trazado 896548" d="M156-44h38v1H156Z" transform="translate(-1243 -8885)"/>
      <path id="Trazado_896549" data-name="Trazado 896549" d="M194-44h1v1h-1Z" transform="translate(-1243 -8885)"/>
      <path id="Trazado_896550" data-name="Trazado 896550" d="M194-44h1v1h-1Z" transform="translate(-1243 -8885)"/>
      <path id="Trazado_896551" data-name="Trazado 896551" d="M155-24h1v1h-1Z" transform="translate(-1243 -8885)"/>
      <path id="Trazado_896552" data-name="Trazado 896552" d="M155-24h1v1h-1Z" transform="translate(-1243 -8885)"/>
      <path id="Trazado_896553" data-name="Trazado 896553" d="M156-24h38v1H156Z" transform="translate(-1243 -8885)"/>
      <path id="Trazado_896554" data-name="Trazado 896554" d="M194-24h1v1h-1Z" transform="translate(-1243 -8885)"/>
      <path id="Trazado_896555" data-name="Trazado 896555" d="M194-24h1v1h-1Z" transform="translate(-1243 -8885)"/>
      <path id="Trazado_896556" data-name="Trazado 896556" d="M155-43h1v19h-1Z" transform="translate(-1243 -8885)"/>
      <path id="Trazado_896557" data-name="Trazado 896557" d="M194-43h1v19h-1Z" transform="translate(-1243 -8885)"/>
      <path id="Trazado_896558" data-name="Trazado 896558" d="M153-42h1v20h-1Z" transform="translate(-1243 -8885)"/>
      <path id="Trazado_896559" data-name="Trazado 896559" d="M153-22h1v1h-1Z" transform="translate(-1243 -8885)"/>
      <path id="Trazado_896560" data-name="Trazado 896560" d="M153-22h1v1h-1Z" transform="translate(-1243 -8885)"/>
      <path id="Trazado_896561" data-name="Trazado 896561" d="M154-22h41v1H154Z" transform="translate(-1243 -8885)"/>
      <path id="Trazado_896562" data-name="Trazado 896562" d="M195-44h1v1h-1Z" transform="translate(-1243 -8885)"/>
      <path id="Trazado_896563" data-name="Trazado 896563" d="M195-44h1v1h-1Z" transform="translate(-1243 -8885)"/>
      <path id="Trazado_896564" data-name="Trazado 896564" d="M196-44h41v1H196Z" transform="translate(-1243 -8885)"/>
      <path id="Trazado_896565" data-name="Trazado 896565" d="M237-44h1v1h-1Z" transform="translate(-1243 -8885)"/>
      <path id="Trazado_896566" data-name="Trazado 896566" d="M237-44h1v1h-1Z" transform="translate(-1243 -8885)"/>
      <path id="Trazado_896567" data-name="Trazado 896567" d="M195-24h1v1h-1Z" transform="translate(-1243 -8885)"/>
      <path id="Trazado_896568" data-name="Trazado 896568" d="M195-24h1v1h-1Z" transform="translate(-1243 -8885)"/>
      <path id="Trazado_896569" data-name="Trazado 896569" d="M196-24h41v1H196Z" transform="translate(-1243 -8885)"/>
      <path id="Trazado_896570" data-name="Trazado 896570" d="M237-24h1v1h-1Z" transform="translate(-1243 -8885)"/>
      <path id="Trazado_896571" data-name="Trazado 896571" d="M237-24h1v1h-1Z" transform="translate(-1243 -8885)"/>
      <path id="Trazado_896572" data-name="Trazado 896572" d="M195-43h1v19h-1Z" transform="translate(-1243 -8885)"/>
      <path id="Trazado_896573" data-name="Trazado 896573" d="M237-43h1v19h-1Z" transform="translate(-1243 -8885)"/>
      <path id="Trazado_896574" data-name="Trazado 896574" d="M195-22h1v1h-1Z" transform="translate(-1243 -8885)"/>
      <path id="Trazado_896575" data-name="Trazado 896575" d="M196-22h42v1H196Z" transform="translate(-1243 -8885)"/>
      <path id="Trazado_896576" data-name="Trazado 896576" d="M238-44h1v1h-1Z" transform="translate(-1243 -8885)"/>
      <path id="Trazado_896577" data-name="Trazado 896577" d="M238-44h1v1h-1Z" transform="translate(-1243 -8885)"/>
      <path id="Trazado_896578" data-name="Trazado 896578" d="M239-44h47v1H239Z" transform="translate(-1243 -8885)"/>
      <path id="Trazado_896579" data-name="Trazado 896579" d="M286-44h1v1h-1Z" transform="translate(-1243 -8885)"/>
      <path id="Trazado_896580" data-name="Trazado 896580" d="M286-44h1v1h-1Z" transform="translate(-1243 -8885)"/>
      <path id="Trazado_896581" data-name="Trazado 896581" d="M238-24h1v1h-1Z" transform="translate(-1243 -8885)"/>
      <path id="Trazado_896582" data-name="Trazado 896582" d="M238-24h1v1h-1Z" transform="translate(-1243 -8885)"/>
      <path id="Trazado_896583" data-name="Trazado 896583" d="M239-24h47v1H239Z" transform="translate(-1243 -8885)"/>
      <path id="Trazado_896584" data-name="Trazado 896584" d="M286-24h1v1h-1Z" transform="translate(-1243 -8885)"/>
      <path id="Trazado_896585" data-name="Trazado 896585" d="M286-24h1v1h-1Z" transform="translate(-1243 -8885)"/>
      <path id="Trazado_896586" data-name="Trazado 896586" d="M238-43h1v19h-1Z" transform="translate(-1243 -8885)"/>
      <path id="Trazado_896587" data-name="Trazado 896587" d="M286-43h1v19h-1Z" transform="translate(-1243 -8885)"/>
      <path id="Trazado_896588" data-name="Trazado 896588" d="M238-22h1v1h-1Z" transform="translate(-1243 -8885)"/>
      <path id="Trazado_896589" data-name="Trazado 896589" d="M239-22h49v1H239Z" transform="translate(-1243 -8885)"/>
      <path id="Trazado_896590" data-name="Trazado 896590" d="M288-42h1v20h-1Z" transform="translate(-1243 -8885)"/>
      <path id="Trazado_896591" data-name="Trazado 896591" d="M288-22h1v1h-1Z" transform="translate(-1243 -8885)"/>
      <path id="Trazado_896592" data-name="Trazado 896592" d="M288-22h1v1h-1Z" transform="translate(-1243 -8885)"/>
    </g>
  </g>
</svg>
