<svg xmlns="http://www.w3.org/2000/svg" width="137" height="110" viewBox="0 0 137 110">
  <g id="Grupo_1106266" data-name="Grupo 1106266" transform="translate(403 8928)">
    <rect id="Rectángulo_402177" data-name="Rectángulo 402177" width="136" height="110" transform="translate(-403 -8928)" fill="#fff"/>
    <g id="Grupo_1106265" data-name="Grupo 1106265">
      <text id="A" transform="translate(-380.986 -8913)" font-size="10" font-family="Arial-BoldMT, Arial" font-weight="700"><tspan x="0" y="0">A</tspan></text>
      <text id="_" data-name=" " transform="translate(-373.764 -8913)" font-size="10" font-family="Arial-BoldMT, Arial" font-weight="700"><tspan x="0" y="0"> </tspan></text>
      <path id="Trazado_896593" data-name="Trazado 896593" d="M156.5-109.5h45v-18h-45Z" transform="translate(-556 -8797)" fill="none"/>
      <text id="B" transform="translate(-335.511 -8913)" font-size="10" font-family="Arial-BoldMT, Arial" font-weight="700"><tspan x="0" y="0">B</tspan></text>
      <text id="_2" data-name=" " transform="translate(-328.289 -8913)" font-size="10" font-family="Arial-BoldMT, Arial" font-weight="700"><tspan x="0" y="0"> </tspan></text>
      <path id="Trazado_896594" data-name="Trazado 896594" d="M203.5-109.5h42v-18h-42Z" transform="translate(-556 -8797)" fill="none"/>
      <text id="A_" data-name="A " transform="translate(-306.565 -8913)" font-size="10" font-family="Arial-BoldMT, Arial" font-weight="700" letter-spacing="-0.037em"><tspan x="0" y="0">A </tspan></text>
      <text id="O" transform="translate(-296.932 -8913)" font-size="10" font-family="Arial-BoldMT, Arial" font-weight="700" letter-spacing="-0.037em"><tspan x="0" y="0">O</tspan></text>
      <text id="R" transform="translate(-289.151 -8913)" font-size="10" font-family="Arial-BoldMT, Arial" font-weight="700" letter-spacing="-0.037em"><tspan x="0" y="0">R</tspan></text>
      <text id="_3" data-name=" " transform="translate(-281.931 -8913)" font-size="10" font-family="Arial-BoldMT, Arial" font-weight="700" letter-spacing="-0.037em"><tspan x="0" y="0"> </tspan></text>
      <text id="B-2" data-name="B" transform="translate(-279.15 -8913)" font-size="10" font-family="Arial-BoldMT, Arial" font-weight="700" letter-spacing="-0.037em"><tspan x="0" y="0">B</tspan></text>
      <text id="_4" data-name=" " transform="translate(-271.935 -8913)" font-size="10" font-family="Arial-BoldMT, Arial" font-weight="700"><tspan x="0" y="0"> </tspan></text>
      <path id="Trazado_896595" data-name="Trazado 896595" d="M247.5-109.5h39v-18h-39Z" transform="translate(-556 -8797)" fill="none"/>
      <path id="Trazado_896596" data-name="Trazado 896596" d="M153-131h1v4h-1Z" transform="translate(-556 -8797)"/>
      <path id="Trazado_896597" data-name="Trazado 896597" d="M153-131h1v1h-1Z" transform="translate(-556 -8797)"/>
      <path id="Trazado_896598" data-name="Trazado 896598" d="M154-131h48v1H154Z" transform="translate(-556 -8797)"/>
      <path id="Trazado_896599" data-name="Trazado 896599" d="M202-131h1v1h-1Z" transform="translate(-556 -8797)"/>
      <path id="Trazado_896600" data-name="Trazado 896600" d="M203-131h43v1H203Z" transform="translate(-556 -8797)"/>
      <path id="Trazado_896601" data-name="Trazado 896601" d="M246-131h1v1h-1Z" transform="translate(-556 -8797)"/>
      <path id="Trazado_896602" data-name="Trazado 896602" d="M247-131h42v1H247Z" transform="translate(-556 -8797)"/>
      <path id="Trazado_896603" data-name="Trazado 896603" d="M289-131h1v4h-1Z" transform="translate(-556 -8797)"/>
      <path id="Trazado_896604" data-name="Trazado 896604" d="M289-131h1v1h-1Z" transform="translate(-556 -8797)"/>
      <path id="Trazado_896605" data-name="Trazado 896605" d="M155-129h1v1h-1Z" transform="translate(-556 -8797)"/>
      <path id="Trazado_896606" data-name="Trazado 896606" d="M155-129h1v1h-1Z" transform="translate(-556 -8797)"/>
      <path id="Trazado_896607" data-name="Trazado 896607" d="M156-129h45v1H156Z" transform="translate(-556 -8797)"/>
      <path id="Trazado_896608" data-name="Trazado 896608" d="M201-129h1v1h-1Z" transform="translate(-556 -8797)"/>
      <path id="Trazado_896609" data-name="Trazado 896609" d="M201-129h1v1h-1Z" transform="translate(-556 -8797)"/>
      <path id="Trazado_896610" data-name="Trazado 896610" d="M155-109h1v1h-1Z" transform="translate(-556 -8797)"/>
      <path id="Trazado_896611" data-name="Trazado 896611" d="M155-109h1v1h-1Z" transform="translate(-556 -8797)"/>
      <path id="Trazado_896612" data-name="Trazado 896612" d="M156-109h45v1H156Z" transform="translate(-556 -8797)"/>
      <path id="Trazado_896613" data-name="Trazado 896613" d="M201-109h1v1h-1Z" transform="translate(-556 -8797)"/>
      <path id="Trazado_896614" data-name="Trazado 896614" d="M201-109h1v1h-1Z" transform="translate(-556 -8797)"/>
      <path id="Trazado_896615" data-name="Trazado 896615" d="M155-128h1v19h-1Z" transform="translate(-556 -8797)"/>
      <path id="Trazado_896616" data-name="Trazado 896616" d="M201-128h1v19h-1Z" transform="translate(-556 -8797)"/>
      <path id="Trazado_896617" data-name="Trazado 896617" d="M153-127h1v19h-1Z" transform="translate(-556 -8797)"/>
      <path id="Trazado_896618" data-name="Trazado 896618" d="M202-129h1v1h-1Z" transform="translate(-556 -8797)"/>
      <path id="Trazado_896619" data-name="Trazado 896619" d="M202-129h1v1h-1Z" transform="translate(-556 -8797)"/>
      <path id="Trazado_896620" data-name="Trazado 896620" d="M203-129h42v1H203Z" transform="translate(-556 -8797)"/>
      <path id="Trazado_896621" data-name="Trazado 896621" d="M245-129h1v1h-1Z" transform="translate(-556 -8797)"/>
      <path id="Trazado_896622" data-name="Trazado 896622" d="M245-129h1v1h-1Z" transform="translate(-556 -8797)"/>
      <path id="Trazado_896623" data-name="Trazado 896623" d="M202-109h1v1h-1Z" transform="translate(-556 -8797)"/>
      <path id="Trazado_896624" data-name="Trazado 896624" d="M202-109h1v1h-1Z" transform="translate(-556 -8797)"/>
      <path id="Trazado_896625" data-name="Trazado 896625" d="M203-109h42v1H203Z" transform="translate(-556 -8797)"/>
      <path id="Trazado_896626" data-name="Trazado 896626" d="M245-109h1v1h-1Z" transform="translate(-556 -8797)"/>
      <path id="Trazado_896627" data-name="Trazado 896627" d="M245-109h1v1h-1Z" transform="translate(-556 -8797)"/>
      <path id="Trazado_896628" data-name="Trazado 896628" d="M202-128h1v19h-1Z" transform="translate(-556 -8797)"/>
      <path id="Trazado_896629" data-name="Trazado 896629" d="M245-128h1v19h-1Z" transform="translate(-556 -8797)"/>
      <path id="Trazado_896630" data-name="Trazado 896630" d="M246-129h1v1h-1Z" transform="translate(-556 -8797)"/>
      <path id="Trazado_896631" data-name="Trazado 896631" d="M246-129h1v1h-1Z" transform="translate(-556 -8797)"/>
      <path id="Trazado_896632" data-name="Trazado 896632" d="M247-129h40v1H247Z" transform="translate(-556 -8797)"/>
      <path id="Trazado_896633" data-name="Trazado 896633" d="M287-129h1v1h-1Z" transform="translate(-556 -8797)"/>
      <path id="Trazado_896634" data-name="Trazado 896634" d="M287-129h1v1h-1Z" transform="translate(-556 -8797)"/>
      <path id="Trazado_896635" data-name="Trazado 896635" d="M246-109h1v1h-1Z" transform="translate(-556 -8797)"/>
      <path id="Trazado_896636" data-name="Trazado 896636" d="M246-109h1v1h-1Z" transform="translate(-556 -8797)"/>
      <path id="Trazado_896637" data-name="Trazado 896637" d="M247-109h40v1H247Z" transform="translate(-556 -8797)"/>
      <path id="Trazado_896638" data-name="Trazado 896638" d="M287-109h1v1h-1Z" transform="translate(-556 -8797)"/>
      <path id="Trazado_896639" data-name="Trazado 896639" d="M287-109h1v1h-1Z" transform="translate(-556 -8797)"/>
      <path id="Trazado_896640" data-name="Trazado 896640" d="M246-128h1v19h-1Z" transform="translate(-556 -8797)"/>
      <path id="Trazado_896641" data-name="Trazado 896641" d="M287-128h1v19h-1Z" transform="translate(-556 -8797)"/>
      <path id="Trazado_896642" data-name="Trazado 896642" d="M289-127h1v19h-1Z" transform="translate(-556 -8797)"/>
      <text id="_0" data-name="0" transform="translate(-380.156 -8891)" font-size="10" font-family="ArialMT, Arial"><tspan x="0" y="0">0</tspan></text>
      <text id="_5" data-name=" " transform="translate(-374.594 -8891)" font-size="10" font-family="ArialMT, Arial"><tspan x="0" y="0"> </tspan></text>
      <path id="Trazado_896643" data-name="Trazado 896643" d="M156.5-88.5h45v-17h-45Z" transform="translate(-556 -8797)" fill="none"/>
      <text id="_0-2" data-name="0" transform="translate(-334.681 -8891)" font-size="10" font-family="ArialMT, Arial"><tspan x="0" y="0">0</tspan></text>
      <text id="_6" data-name=" " transform="translate(-329.119 -8891)" font-size="10" font-family="ArialMT, Arial"><tspan x="0" y="0"> </tspan></text>
      <path id="Trazado_896644" data-name="Trazado 896644" d="M203.5-88.5h42v-17h-42Z" transform="translate(-556 -8797)" fill="none"/>
      <text id="_0-3" data-name="0" transform="translate(-292.031 -8891)" font-size="10" font-family="ArialMT, Arial"><tspan x="0" y="0">0</tspan></text>
      <text id="_7" data-name=" " transform="translate(-286.469 -8891)" font-size="10" font-family="ArialMT, Arial"><tspan x="0" y="0"> </tspan></text>
      <path id="Trazado_896645" data-name="Trazado 896645" d="M247.5-88.5h39v-17h-39Z" transform="translate(-556 -8797)" fill="none"/>
      <path id="Trazado_896646" data-name="Trazado 896646" d="M153-108h1v2h-1Z" transform="translate(-556 -8797)"/>
      <path id="Trazado_896647" data-name="Trazado 896647" d="M289-108h1v2h-1Z" transform="translate(-556 -8797)"/>
      <path id="Trazado_896648" data-name="Trazado 896648" d="M155-108h1v1h-1Z" transform="translate(-556 -8797)"/>
      <path id="Trazado_896649" data-name="Trazado 896649" d="M155-108h1v1h-1Z" transform="translate(-556 -8797)"/>
      <path id="Trazado_896650" data-name="Trazado 896650" d="M156-108h45v1H156Z" transform="translate(-556 -8797)"/>
      <path id="Trazado_896651" data-name="Trazado 896651" d="M201-108h1v1h-1Z" transform="translate(-556 -8797)"/>
      <path id="Trazado_896652" data-name="Trazado 896652" d="M201-108h1v1h-1Z" transform="translate(-556 -8797)"/>
      <path id="Trazado_896653" data-name="Trazado 896653" d="M155-88h1v1h-1Z" transform="translate(-556 -8797)"/>
      <path id="Trazado_896654" data-name="Trazado 896654" d="M155-88h1v1h-1Z" transform="translate(-556 -8797)"/>
      <path id="Trazado_896655" data-name="Trazado 896655" d="M156-88h45v1H156Z" transform="translate(-556 -8797)"/>
      <path id="Trazado_896656" data-name="Trazado 896656" d="M201-88h1v1h-1Z" transform="translate(-556 -8797)"/>
      <path id="Trazado_896657" data-name="Trazado 896657" d="M201-88h1v1h-1Z" transform="translate(-556 -8797)"/>
      <path id="Trazado_896658" data-name="Trazado 896658" d="M155-107h1v19h-1Z" transform="translate(-556 -8797)"/>
      <path id="Trazado_896659" data-name="Trazado 896659" d="M201-107h1v19h-1Z" transform="translate(-556 -8797)"/>
      <path id="Trazado_896660" data-name="Trazado 896660" d="M153-106h1v19h-1Z" transform="translate(-556 -8797)"/>
      <path id="Trazado_896661" data-name="Trazado 896661" d="M202-108h1v1h-1Z" transform="translate(-556 -8797)"/>
      <path id="Trazado_896662" data-name="Trazado 896662" d="M202-108h1v1h-1Z" transform="translate(-556 -8797)"/>
      <path id="Trazado_896663" data-name="Trazado 896663" d="M203-108h42v1H203Z" transform="translate(-556 -8797)"/>
      <path id="Trazado_896664" data-name="Trazado 896664" d="M245-108h1v1h-1Z" transform="translate(-556 -8797)"/>
      <path id="Trazado_896665" data-name="Trazado 896665" d="M245-108h1v1h-1Z" transform="translate(-556 -8797)"/>
      <path id="Trazado_896666" data-name="Trazado 896666" d="M202-88h1v1h-1Z" transform="translate(-556 -8797)"/>
      <path id="Trazado_896667" data-name="Trazado 896667" d="M202-88h1v1h-1Z" transform="translate(-556 -8797)"/>
      <path id="Trazado_896668" data-name="Trazado 896668" d="M203-88h42v1H203Z" transform="translate(-556 -8797)"/>
      <path id="Trazado_896669" data-name="Trazado 896669" d="M245-88h1v1h-1Z" transform="translate(-556 -8797)"/>
      <path id="Trazado_896670" data-name="Trazado 896670" d="M245-88h1v1h-1Z" transform="translate(-556 -8797)"/>
      <path id="Trazado_896671" data-name="Trazado 896671" d="M202-107h1v19h-1Z" transform="translate(-556 -8797)"/>
      <path id="Trazado_896672" data-name="Trazado 896672" d="M245-107h1v19h-1Z" transform="translate(-556 -8797)"/>
      <path id="Trazado_896673" data-name="Trazado 896673" d="M246-108h1v1h-1Z" transform="translate(-556 -8797)"/>
      <path id="Trazado_896674" data-name="Trazado 896674" d="M246-108h1v1h-1Z" transform="translate(-556 -8797)"/>
      <path id="Trazado_896675" data-name="Trazado 896675" d="M247-108h40v1H247Z" transform="translate(-556 -8797)"/>
      <path id="Trazado_896676" data-name="Trazado 896676" d="M287-108h1v1h-1Z" transform="translate(-556 -8797)"/>
      <path id="Trazado_896677" data-name="Trazado 896677" d="M287-108h1v1h-1Z" transform="translate(-556 -8797)"/>
      <path id="Trazado_896678" data-name="Trazado 896678" d="M246-88h1v1h-1Z" transform="translate(-556 -8797)"/>
      <path id="Trazado_896679" data-name="Trazado 896679" d="M246-88h1v1h-1Z" transform="translate(-556 -8797)"/>
      <path id="Trazado_896680" data-name="Trazado 896680" d="M247-88h40v1H247Z" transform="translate(-556 -8797)"/>
      <path id="Trazado_896681" data-name="Trazado 896681" d="M287-88h1v1h-1Z" transform="translate(-556 -8797)"/>
      <path id="Trazado_896682" data-name="Trazado 896682" d="M287-88h1v1h-1Z" transform="translate(-556 -8797)"/>
      <path id="Trazado_896683" data-name="Trazado 896683" d="M246-107h1v19h-1Z" transform="translate(-556 -8797)"/>
      <path id="Trazado_896684" data-name="Trazado 896684" d="M287-107h1v19h-1Z" transform="translate(-556 -8797)"/>
      <path id="Trazado_896685" data-name="Trazado 896685" d="M289-106h1v19h-1Z" transform="translate(-556 -8797)"/>
      <text id="_0-4" data-name="0" transform="translate(-380.156 -8870)" font-size="10" font-family="ArialMT, Arial"><tspan x="0" y="0">0</tspan></text>
      <text id="_8" data-name=" " transform="translate(-374.594 -8870)" font-size="10" font-family="ArialMT, Arial"><tspan x="0" y="0"> </tspan></text>
      <path id="Trazado_896686" data-name="Trazado 896686" d="M156.5-66.5h45v-18h-45Z" transform="translate(-556 -8797)" fill="none"/>
      <text id="_1" data-name="1" transform="translate(-334.681 -8870)" font-size="10" font-family="ArialMT, Arial"><tspan x="0" y="0">1</tspan></text>
      <text id="_9" data-name=" " transform="translate(-329.119 -8870)" font-size="10" font-family="ArialMT, Arial"><tspan x="0" y="0"> </tspan></text>
      <path id="Trazado_896687" data-name="Trazado 896687" d="M203.5-66.5h42v-18h-42Z" transform="translate(-556 -8797)" fill="none"/>
      <text id="_1-2" data-name="1" transform="translate(-292.031 -8870)" font-size="10" font-family="ArialMT, Arial"><tspan x="0" y="0">1</tspan></text>
      <text id="_10" data-name=" " transform="translate(-286.469 -8870)" font-size="10" font-family="ArialMT, Arial"><tspan x="0" y="0"> </tspan></text>
      <path id="Trazado_896688" data-name="Trazado 896688" d="M247.5-66.5h39v-18h-39Z" transform="translate(-556 -8797)" fill="none"/>
      <path id="Trazado_896689" data-name="Trazado 896689" d="M153-87h1v2h-1Z" transform="translate(-556 -8797)"/>
      <path id="Trazado_896690" data-name="Trazado 896690" d="M289-87h1v2h-1Z" transform="translate(-556 -8797)"/>
      <path id="Trazado_896691" data-name="Trazado 896691" d="M155-87h1v1h-1Z" transform="translate(-556 -8797)"/>
      <path id="Trazado_896692" data-name="Trazado 896692" d="M155-87h1v1h-1Z" transform="translate(-556 -8797)"/>
      <path id="Trazado_896693" data-name="Trazado 896693" d="M156-87h45v1H156Z" transform="translate(-556 -8797)"/>
      <path id="Trazado_896694" data-name="Trazado 896694" d="M201-87h1v1h-1Z" transform="translate(-556 -8797)"/>
      <path id="Trazado_896695" data-name="Trazado 896695" d="M201-87h1v1h-1Z" transform="translate(-556 -8797)"/>
      <path id="Trazado_896696" data-name="Trazado 896696" d="M155-66h1v1h-1Z" transform="translate(-556 -8797)"/>
      <path id="Trazado_896697" data-name="Trazado 896697" d="M155-66h1v1h-1Z" transform="translate(-556 -8797)"/>
      <path id="Trazado_896698" data-name="Trazado 896698" d="M156-66h45v1H156Z" transform="translate(-556 -8797)"/>
      <path id="Trazado_896699" data-name="Trazado 896699" d="M201-66h1v1h-1Z" transform="translate(-556 -8797)"/>
      <path id="Trazado_896700" data-name="Trazado 896700" d="M201-66h1v1h-1Z" transform="translate(-556 -8797)"/>
      <path id="Trazado_896701" data-name="Trazado 896701" d="M155-86h1v20h-1Z" transform="translate(-556 -8797)"/>
      <path id="Trazado_896702" data-name="Trazado 896702" d="M201-86h1v20h-1Z" transform="translate(-556 -8797)"/>
      <path id="Trazado_896703" data-name="Trazado 896703" d="M153-85h1v20h-1Z" transform="translate(-556 -8797)"/>
      <path id="Trazado_896704" data-name="Trazado 896704" d="M202-87h1v1h-1Z" transform="translate(-556 -8797)"/>
      <path id="Trazado_896705" data-name="Trazado 896705" d="M202-87h1v1h-1Z" transform="translate(-556 -8797)"/>
      <path id="Trazado_896706" data-name="Trazado 896706" d="M203-87h42v1H203Z" transform="translate(-556 -8797)"/>
      <path id="Trazado_896707" data-name="Trazado 896707" d="M245-87h1v1h-1Z" transform="translate(-556 -8797)"/>
      <path id="Trazado_896708" data-name="Trazado 896708" d="M245-87h1v1h-1Z" transform="translate(-556 -8797)"/>
      <path id="Trazado_896709" data-name="Trazado 896709" d="M202-66h1v1h-1Z" transform="translate(-556 -8797)"/>
      <path id="Trazado_896710" data-name="Trazado 896710" d="M202-66h1v1h-1Z" transform="translate(-556 -8797)"/>
      <path id="Trazado_896711" data-name="Trazado 896711" d="M203-66h42v1H203Z" transform="translate(-556 -8797)"/>
      <path id="Trazado_896712" data-name="Trazado 896712" d="M245-66h1v1h-1Z" transform="translate(-556 -8797)"/>
      <path id="Trazado_896713" data-name="Trazado 896713" d="M245-66h1v1h-1Z" transform="translate(-556 -8797)"/>
      <path id="Trazado_896714" data-name="Trazado 896714" d="M202-86h1v20h-1Z" transform="translate(-556 -8797)"/>
      <path id="Trazado_896715" data-name="Trazado 896715" d="M245-86h1v20h-1Z" transform="translate(-556 -8797)"/>
      <path id="Trazado_896716" data-name="Trazado 896716" d="M246-87h1v1h-1Z" transform="translate(-556 -8797)"/>
      <path id="Trazado_896717" data-name="Trazado 896717" d="M246-87h1v1h-1Z" transform="translate(-556 -8797)"/>
      <path id="Trazado_896718" data-name="Trazado 896718" d="M247-87h40v1H247Z" transform="translate(-556 -8797)"/>
      <path id="Trazado_896719" data-name="Trazado 896719" d="M287-87h1v1h-1Z" transform="translate(-556 -8797)"/>
      <path id="Trazado_896720" data-name="Trazado 896720" d="M287-87h1v1h-1Z" transform="translate(-556 -8797)"/>
      <path id="Trazado_896721" data-name="Trazado 896721" d="M246-66h1v1h-1Z" transform="translate(-556 -8797)"/>
      <path id="Trazado_896722" data-name="Trazado 896722" d="M246-66h1v1h-1Z" transform="translate(-556 -8797)"/>
      <path id="Trazado_896723" data-name="Trazado 896723" d="M247-66h40v1H247Z" transform="translate(-556 -8797)"/>
      <path id="Trazado_896724" data-name="Trazado 896724" d="M287-66h1v1h-1Z" transform="translate(-556 -8797)"/>
      <path id="Trazado_896725" data-name="Trazado 896725" d="M287-66h1v1h-1Z" transform="translate(-556 -8797)"/>
      <path id="Trazado_896726" data-name="Trazado 896726" d="M246-86h1v20h-1Z" transform="translate(-556 -8797)"/>
      <path id="Trazado_896727" data-name="Trazado 896727" d="M287-86h1v20h-1Z" transform="translate(-556 -8797)"/>
      <path id="Trazado_896728" data-name="Trazado 896728" d="M289-85h1v20h-1Z" transform="translate(-556 -8797)"/>
      <text id="_1-3" data-name="1" transform="translate(-380.156 -8848)" font-size="10" font-family="ArialMT, Arial"><tspan x="0" y="0">1</tspan></text>
      <text id="_11" data-name=" " transform="translate(-374.594 -8848)" font-size="10" font-family="ArialMT, Arial"><tspan x="0" y="0"> </tspan></text>
      <path id="Trazado_896729" data-name="Trazado 896729" d="M156.5-45.5h45v-17h-45Z" transform="translate(-556 -8797)" fill="none"/>
      <text id="_0-5" data-name="0" transform="translate(-334.681 -8848)" font-size="10" font-family="ArialMT, Arial"><tspan x="0" y="0">0</tspan></text>
      <text id="_12" data-name=" " transform="translate(-329.119 -8848)" font-size="10" font-family="ArialMT, Arial"><tspan x="0" y="0"> </tspan></text>
      <path id="Trazado_896730" data-name="Trazado 896730" d="M203.5-45.5h42v-17h-42Z" transform="translate(-556 -8797)" fill="none"/>
      <text id="_1-4" data-name="1" transform="translate(-292.031 -8848)" font-size="10" font-family="ArialMT, Arial"><tspan x="0" y="0">1</tspan></text>
      <text id="_13" data-name=" " transform="translate(-286.469 -8848)" font-size="10" font-family="ArialMT, Arial"><tspan x="0" y="0"> </tspan></text>
      <path id="Trazado_896731" data-name="Trazado 896731" d="M247.5-45.5h39v-17h-39Z" transform="translate(-556 -8797)" fill="none"/>
      <path id="Trazado_896732" data-name="Trazado 896732" d="M153-65h1v2h-1Z" transform="translate(-556 -8797)"/>
      <path id="Trazado_896733" data-name="Trazado 896733" d="M289-65h1v2h-1Z" transform="translate(-556 -8797)"/>
      <path id="Trazado_896734" data-name="Trazado 896734" d="M155-65h1v1h-1Z" transform="translate(-556 -8797)"/>
      <path id="Trazado_896735" data-name="Trazado 896735" d="M155-65h1v1h-1Z" transform="translate(-556 -8797)"/>
      <path id="Trazado_896736" data-name="Trazado 896736" d="M156-65h45v1H156Z" transform="translate(-556 -8797)"/>
      <path id="Trazado_896737" data-name="Trazado 896737" d="M201-65h1v1h-1Z" transform="translate(-556 -8797)"/>
      <path id="Trazado_896738" data-name="Trazado 896738" d="M201-65h1v1h-1Z" transform="translate(-556 -8797)"/>
      <path id="Trazado_896739" data-name="Trazado 896739" d="M155-45h1v1h-1Z" transform="translate(-556 -8797)"/>
      <path id="Trazado_896740" data-name="Trazado 896740" d="M155-45h1v1h-1Z" transform="translate(-556 -8797)"/>
      <path id="Trazado_896741" data-name="Trazado 896741" d="M156-45h45v1H156Z" transform="translate(-556 -8797)"/>
      <path id="Trazado_896742" data-name="Trazado 896742" d="M201-45h1v1h-1Z" transform="translate(-556 -8797)"/>
      <path id="Trazado_896743" data-name="Trazado 896743" d="M201-45h1v1h-1Z" transform="translate(-556 -8797)"/>
      <path id="Trazado_896744" data-name="Trazado 896744" d="M155-64h1v19h-1Z" transform="translate(-556 -8797)"/>
      <path id="Trazado_896745" data-name="Trazado 896745" d="M201-64h1v19h-1Z" transform="translate(-556 -8797)"/>
      <path id="Trazado_896746" data-name="Trazado 896746" d="M153-63h1v19h-1Z" transform="translate(-556 -8797)"/>
      <path id="Trazado_896747" data-name="Trazado 896747" d="M202-65h1v1h-1Z" transform="translate(-556 -8797)"/>
      <path id="Trazado_896748" data-name="Trazado 896748" d="M202-65h1v1h-1Z" transform="translate(-556 -8797)"/>
      <path id="Trazado_896749" data-name="Trazado 896749" d="M203-65h42v1H203Z" transform="translate(-556 -8797)"/>
      <path id="Trazado_896750" data-name="Trazado 896750" d="M245-65h1v1h-1Z" transform="translate(-556 -8797)"/>
      <path id="Trazado_896751" data-name="Trazado 896751" d="M245-65h1v1h-1Z" transform="translate(-556 -8797)"/>
      <path id="Trazado_896752" data-name="Trazado 896752" d="M202-45h1v1h-1Z" transform="translate(-556 -8797)"/>
      <path id="Trazado_896753" data-name="Trazado 896753" d="M202-45h1v1h-1Z" transform="translate(-556 -8797)"/>
      <path id="Trazado_896754" data-name="Trazado 896754" d="M203-45h42v1H203Z" transform="translate(-556 -8797)"/>
      <path id="Trazado_896755" data-name="Trazado 896755" d="M245-45h1v1h-1Z" transform="translate(-556 -8797)"/>
      <path id="Trazado_896756" data-name="Trazado 896756" d="M245-45h1v1h-1Z" transform="translate(-556 -8797)"/>
      <path id="Trazado_896757" data-name="Trazado 896757" d="M202-64h1v19h-1Z" transform="translate(-556 -8797)"/>
      <path id="Trazado_896758" data-name="Trazado 896758" d="M245-64h1v19h-1Z" transform="translate(-556 -8797)"/>
      <path id="Trazado_896759" data-name="Trazado 896759" d="M246-65h1v1h-1Z" transform="translate(-556 -8797)"/>
      <path id="Trazado_896760" data-name="Trazado 896760" d="M246-65h1v1h-1Z" transform="translate(-556 -8797)"/>
      <path id="Trazado_896761" data-name="Trazado 896761" d="M247-65h40v1H247Z" transform="translate(-556 -8797)"/>
      <path id="Trazado_896762" data-name="Trazado 896762" d="M287-65h1v1h-1Z" transform="translate(-556 -8797)"/>
      <path id="Trazado_896763" data-name="Trazado 896763" d="M287-65h1v1h-1Z" transform="translate(-556 -8797)"/>
      <path id="Trazado_896764" data-name="Trazado 896764" d="M246-45h1v1h-1Z" transform="translate(-556 -8797)"/>
      <path id="Trazado_896765" data-name="Trazado 896765" d="M246-45h1v1h-1Z" transform="translate(-556 -8797)"/>
      <path id="Trazado_896766" data-name="Trazado 896766" d="M247-45h40v1H247Z" transform="translate(-556 -8797)"/>
      <path id="Trazado_896767" data-name="Trazado 896767" d="M287-45h1v1h-1Z" transform="translate(-556 -8797)"/>
      <path id="Trazado_896768" data-name="Trazado 896768" d="M287-45h1v1h-1Z" transform="translate(-556 -8797)"/>
      <path id="Trazado_896769" data-name="Trazado 896769" d="M246-64h1v19h-1Z" transform="translate(-556 -8797)"/>
      <path id="Trazado_896770" data-name="Trazado 896770" d="M287-64h1v19h-1Z" transform="translate(-556 -8797)"/>
      <path id="Trazado_896771" data-name="Trazado 896771" d="M289-63h1v19h-1Z" transform="translate(-556 -8797)"/>
      <text id="_1-5" data-name="1" transform="translate(-380.156 -8827)" font-size="10" font-family="ArialMT, Arial"><tspan x="0" y="0">1</tspan></text>
      <text id="_14" data-name=" " transform="translate(-374.594 -8827)" font-size="10" font-family="ArialMT, Arial"><tspan x="0" y="0"> </tspan></text>
      <path id="Trazado_896772" data-name="Trazado 896772" d="M156.5-23.5h45v-18h-45Z" transform="translate(-556 -8797)" fill="none"/>
      <text id="_1-6" data-name="1" transform="translate(-334.681 -8827)" font-size="10" font-family="ArialMT, Arial"><tspan x="0" y="0">1</tspan></text>
      <text id="_15" data-name=" " transform="translate(-329.119 -8827)" font-size="10" font-family="ArialMT, Arial"><tspan x="0" y="0"> </tspan></text>
      <path id="Trazado_896773" data-name="Trazado 896773" d="M203.5-23.5h42v-18h-42Z" transform="translate(-556 -8797)" fill="none"/>
      <text id="_1-7" data-name="1" transform="translate(-292.031 -8827)" font-size="10" font-family="ArialMT, Arial"><tspan x="0" y="0">1</tspan></text>
      <text id="_16" data-name=" " transform="translate(-286.469 -8827)" font-size="10" font-family="ArialMT, Arial"><tspan x="0" y="0"> </tspan></text>
      <path id="Trazado_896774" data-name="Trazado 896774" d="M247.5-23.5h39v-18h-39Z" transform="translate(-556 -8797)" fill="none"/>
      <path id="Trazado_896775" data-name="Trazado 896775" d="M153-44h1v2h-1Z" transform="translate(-556 -8797)"/>
      <path id="Trazado_896776" data-name="Trazado 896776" d="M289-44h1v2h-1Z" transform="translate(-556 -8797)"/>
      <path id="Trazado_896777" data-name="Trazado 896777" d="M155-44h1v1h-1Z" transform="translate(-556 -8797)"/>
      <path id="Trazado_896778" data-name="Trazado 896778" d="M155-44h1v1h-1Z" transform="translate(-556 -8797)"/>
      <path id="Trazado_896779" data-name="Trazado 896779" d="M156-44h45v1H156Z" transform="translate(-556 -8797)"/>
      <path id="Trazado_896780" data-name="Trazado 896780" d="M201-44h1v1h-1Z" transform="translate(-556 -8797)"/>
      <path id="Trazado_896781" data-name="Trazado 896781" d="M201-44h1v1h-1Z" transform="translate(-556 -8797)"/>
      <path id="Trazado_896782" data-name="Trazado 896782" d="M155-24h1v1h-1Z" transform="translate(-556 -8797)"/>
      <path id="Trazado_896783" data-name="Trazado 896783" d="M155-24h1v1h-1Z" transform="translate(-556 -8797)"/>
      <path id="Trazado_896784" data-name="Trazado 896784" d="M156-24h45v1H156Z" transform="translate(-556 -8797)"/>
      <path id="Trazado_896785" data-name="Trazado 896785" d="M201-24h1v1h-1Z" transform="translate(-556 -8797)"/>
      <path id="Trazado_896786" data-name="Trazado 896786" d="M201-24h1v1h-1Z" transform="translate(-556 -8797)"/>
      <path id="Trazado_896787" data-name="Trazado 896787" d="M155-43h1v19h-1Z" transform="translate(-556 -8797)"/>
      <path id="Trazado_896788" data-name="Trazado 896788" d="M201-43h1v19h-1Z" transform="translate(-556 -8797)"/>
      <path id="Trazado_896789" data-name="Trazado 896789" d="M153-42h1v20h-1Z" transform="translate(-556 -8797)"/>
      <path id="Trazado_896790" data-name="Trazado 896790" d="M153-22h1v1h-1Z" transform="translate(-556 -8797)"/>
      <path id="Trazado_896791" data-name="Trazado 896791" d="M153-22h1v1h-1Z" transform="translate(-556 -8797)"/>
      <path id="Trazado_896792" data-name="Trazado 896792" d="M154-22h48v1H154Z" transform="translate(-556 -8797)"/>
      <path id="Trazado_896793" data-name="Trazado 896793" d="M202-44h1v1h-1Z" transform="translate(-556 -8797)"/>
      <path id="Trazado_896794" data-name="Trazado 896794" d="M202-44h1v1h-1Z" transform="translate(-556 -8797)"/>
      <path id="Trazado_896795" data-name="Trazado 896795" d="M203-44h42v1H203Z" transform="translate(-556 -8797)"/>
      <path id="Trazado_896796" data-name="Trazado 896796" d="M245-44h1v1h-1Z" transform="translate(-556 -8797)"/>
      <path id="Trazado_896797" data-name="Trazado 896797" d="M245-44h1v1h-1Z" transform="translate(-556 -8797)"/>
      <path id="Trazado_896798" data-name="Trazado 896798" d="M202-24h1v1h-1Z" transform="translate(-556 -8797)"/>
      <path id="Trazado_896799" data-name="Trazado 896799" d="M202-24h1v1h-1Z" transform="translate(-556 -8797)"/>
      <path id="Trazado_896800" data-name="Trazado 896800" d="M203-24h42v1H203Z" transform="translate(-556 -8797)"/>
      <path id="Trazado_896801" data-name="Trazado 896801" d="M245-24h1v1h-1Z" transform="translate(-556 -8797)"/>
      <path id="Trazado_896802" data-name="Trazado 896802" d="M245-24h1v1h-1Z" transform="translate(-556 -8797)"/>
      <path id="Trazado_896803" data-name="Trazado 896803" d="M202-43h1v19h-1Z" transform="translate(-556 -8797)"/>
      <path id="Trazado_896804" data-name="Trazado 896804" d="M245-43h1v19h-1Z" transform="translate(-556 -8797)"/>
      <path id="Trazado_896805" data-name="Trazado 896805" d="M202-22h1v1h-1Z" transform="translate(-556 -8797)"/>
      <path id="Trazado_896806" data-name="Trazado 896806" d="M203-22h43v1H203Z" transform="translate(-556 -8797)"/>
      <path id="Trazado_896807" data-name="Trazado 896807" d="M246-44h1v1h-1Z" transform="translate(-556 -8797)"/>
      <path id="Trazado_896808" data-name="Trazado 896808" d="M246-44h1v1h-1Z" transform="translate(-556 -8797)"/>
      <path id="Trazado_896809" data-name="Trazado 896809" d="M247-44h40v1H247Z" transform="translate(-556 -8797)"/>
      <path id="Trazado_896810" data-name="Trazado 896810" d="M287-44h1v1h-1Z" transform="translate(-556 -8797)"/>
      <path id="Trazado_896811" data-name="Trazado 896811" d="M287-44h1v1h-1Z" transform="translate(-556 -8797)"/>
      <path id="Trazado_896812" data-name="Trazado 896812" d="M246-24h1v1h-1Z" transform="translate(-556 -8797)"/>
      <path id="Trazado_896813" data-name="Trazado 896813" d="M246-24h1v1h-1Z" transform="translate(-556 -8797)"/>
      <path id="Trazado_896814" data-name="Trazado 896814" d="M247-24h40v1H247Z" transform="translate(-556 -8797)"/>
      <path id="Trazado_896815" data-name="Trazado 896815" d="M287-24h1v1h-1Z" transform="translate(-556 -8797)"/>
      <path id="Trazado_896816" data-name="Trazado 896816" d="M287-24h1v1h-1Z" transform="translate(-556 -8797)"/>
      <path id="Trazado_896817" data-name="Trazado 896817" d="M246-43h1v19h-1Z" transform="translate(-556 -8797)"/>
      <path id="Trazado_896818" data-name="Trazado 896818" d="M287-43h1v19h-1Z" transform="translate(-556 -8797)"/>
      <path id="Trazado_896819" data-name="Trazado 896819" d="M246-22h1v1h-1Z" transform="translate(-556 -8797)"/>
      <path id="Trazado_896820" data-name="Trazado 896820" d="M247-22h42v1H247Z" transform="translate(-556 -8797)"/>
      <path id="Trazado_896821" data-name="Trazado 896821" d="M289-42h1v20h-1Z" transform="translate(-556 -8797)"/>
      <path id="Trazado_896822" data-name="Trazado 896822" d="M289-22h1v1h-1Z" transform="translate(-556 -8797)"/>
      <path id="Trazado_896823" data-name="Trazado 896823" d="M289-22h1v1h-1Z" transform="translate(-556 -8797)"/>
    </g>
  </g>
</svg>
