<svg xmlns="http://www.w3.org/2000/svg" width="93" height="67" viewBox="0 0 93 67">
  <g id="Grupo_1106268" data-name="Grupo 1106268" transform="translate(337 8696)">
    <rect id="Rectángulo_402177" data-name="Rectángulo 402177" width="93" height="67" transform="translate(-337 -8696)" fill="#fff"/>
    <g id="Grupo_1106267" data-name="Grupo 1106267">
      <text id="A" transform="translate(-314.286 -8681)" font-size="10" font-family="Arial-BoldMT, Arial" font-weight="700"><tspan x="0" y="0">A</tspan></text>
      <text id="_" data-name=" " transform="translate(-307.064 -8681)" font-size="10" font-family="Arial-BoldMT, Arial" font-weight="700"><tspan x="0" y="0"> </tspan></text>
      <path id="Trazado_896824" data-name="Trazado 896824" d="M178.5-66.5h46v-18h-46Z" transform="translate(-512 -8608)" fill="none"/>
      <text id="NOT_" data-name="NOT " transform="translate(-282.294 -8681)" font-size="10" font-family="Arial-BoldMT, Arial" font-weight="700" letter-spacing="0em"><tspan x="0" y="0">NOT </tspan></text>
      <text id="A-2" data-name="A" transform="translate(-258.776 -8681)" font-size="10" font-family="Arial-BoldMT, Arial" font-weight="700" letter-spacing="0em"><tspan x="0" y="0">A</tspan></text>
      <text id="_2" data-name=" " transform="translate(-251.556 -8681)" font-size="10" font-family="Arial-BoldMT, Arial" font-weight="700"><tspan x="0" y="0"> </tspan></text>
      <path id="Trazado_896825" data-name="Trazado 896825" d="M226.5-66.5h38v-18h-38Z" transform="translate(-512 -8608)" fill="none"/>
      <path id="Trazado_896826" data-name="Trazado 896826" d="M175-88h1v4h-1Z" transform="translate(-512 -8608)"/>
      <path id="Trazado_896827" data-name="Trazado 896827" d="M175-88h1v1h-1Z" transform="translate(-512 -8608)"/>
      <path id="Trazado_896828" data-name="Trazado 896828" d="M176-88h50v1H176Z" transform="translate(-512 -8608)"/>
      <path id="Trazado_896829" data-name="Trazado 896829" d="M226-88h1v1h-1Z" transform="translate(-512 -8608)"/>
      <path id="Trazado_896830" data-name="Trazado 896830" d="M227-88h40v1H227Z" transform="translate(-512 -8608)"/>
      <path id="Trazado_896831" data-name="Trazado 896831" d="M267-88h1v4h-1Z" transform="translate(-512 -8608)"/>
      <path id="Trazado_896832" data-name="Trazado 896832" d="M267-88h1v1h-1Z" transform="translate(-512 -8608)"/>
      <path id="Trazado_896833" data-name="Trazado 896833" d="M177-86h1v1h-1Z" transform="translate(-512 -8608)"/>
      <path id="Trazado_896834" data-name="Trazado 896834" d="M177-86h1v1h-1Z" transform="translate(-512 -8608)"/>
      <path id="Trazado_896835" data-name="Trazado 896835" d="M178-86h47v1H178Z" transform="translate(-512 -8608)"/>
      <path id="Trazado_896836" data-name="Trazado 896836" d="M225-86h1v1h-1Z" transform="translate(-512 -8608)"/>
      <path id="Trazado_896837" data-name="Trazado 896837" d="M225-86h1v1h-1Z" transform="translate(-512 -8608)"/>
      <path id="Trazado_896838" data-name="Trazado 896838" d="M177-66h1v1h-1Z" transform="translate(-512 -8608)"/>
      <path id="Trazado_896839" data-name="Trazado 896839" d="M177-66h1v1h-1Z" transform="translate(-512 -8608)"/>
      <path id="Trazado_896840" data-name="Trazado 896840" d="M178-66h47v1H178Z" transform="translate(-512 -8608)"/>
      <path id="Trazado_896841" data-name="Trazado 896841" d="M225-66h1v1h-1Z" transform="translate(-512 -8608)"/>
      <path id="Trazado_896842" data-name="Trazado 896842" d="M225-66h1v1h-1Z" transform="translate(-512 -8608)"/>
      <path id="Trazado_896843" data-name="Trazado 896843" d="M177-85h1v19h-1Z" transform="translate(-512 -8608)"/>
      <path id="Trazado_896844" data-name="Trazado 896844" d="M225-85h1v19h-1Z" transform="translate(-512 -8608)"/>
      <path id="Trazado_896845" data-name="Trazado 896845" d="M175-84h1v19h-1Z" transform="translate(-512 -8608)"/>
      <path id="Trazado_896846" data-name="Trazado 896846" d="M226-86h1v1h-1Z" transform="translate(-512 -8608)"/>
      <path id="Trazado_896847" data-name="Trazado 896847" d="M226-86h1v1h-1Z" transform="translate(-512 -8608)"/>
      <path id="Trazado_896848" data-name="Trazado 896848" d="M227-86h38v1H227Z" transform="translate(-512 -8608)"/>
      <path id="Trazado_896849" data-name="Trazado 896849" d="M265-86h1v1h-1Z" transform="translate(-512 -8608)"/>
      <path id="Trazado_896850" data-name="Trazado 896850" d="M265-86h1v1h-1Z" transform="translate(-512 -8608)"/>
      <path id="Trazado_896851" data-name="Trazado 896851" d="M226-66h1v1h-1Z" transform="translate(-512 -8608)"/>
      <path id="Trazado_896852" data-name="Trazado 896852" d="M226-66h1v1h-1Z" transform="translate(-512 -8608)"/>
      <path id="Trazado_896853" data-name="Trazado 896853" d="M227-66h38v1H227Z" transform="translate(-512 -8608)"/>
      <path id="Trazado_896854" data-name="Trazado 896854" d="M265-66h1v1h-1Z" transform="translate(-512 -8608)"/>
      <path id="Trazado_896855" data-name="Trazado 896855" d="M265-66h1v1h-1Z" transform="translate(-512 -8608)"/>
      <path id="Trazado_896856" data-name="Trazado 896856" d="M226-85h1v19h-1Z" transform="translate(-512 -8608)"/>
      <path id="Trazado_896857" data-name="Trazado 896857" d="M265-85h1v19h-1Z" transform="translate(-512 -8608)"/>
      <path id="Trazado_896858" data-name="Trazado 896858" d="M267-84h1v19h-1Z" transform="translate(-512 -8608)"/>
      <text id="_0" data-name="0" transform="translate(-313.456 -8659)" font-size="10" font-family="ArialMT, Arial"><tspan x="0" y="0">0</tspan></text>
      <text id="_3" data-name=" " transform="translate(-307.894 -8659)" font-size="10" font-family="ArialMT, Arial"><tspan x="0" y="0"> </tspan></text>
      <path id="Trazado_896859" data-name="Trazado 896859" d="M178.5-45.5h46v-17h-46Z" transform="translate(-512 -8608)" fill="none"/>
      <text id="_1" data-name="1" transform="translate(-269.706 -8659)" font-size="10" font-family="ArialMT, Arial"><tspan x="0" y="0">1</tspan></text>
      <text id="_4" data-name=" " transform="translate(-264.144 -8659)" font-size="10" font-family="ArialMT, Arial"><tspan x="0" y="0"> </tspan></text>
      <path id="Trazado_896860" data-name="Trazado 896860" d="M226.5-45.5h38v-17h-38Z" transform="translate(-512 -8608)" fill="none"/>
      <path id="Trazado_896861" data-name="Trazado 896861" d="M175-65h1v2h-1Z" transform="translate(-512 -8608)"/>
      <path id="Trazado_896862" data-name="Trazado 896862" d="M267-65h1v2h-1Z" transform="translate(-512 -8608)"/>
      <path id="Trazado_896863" data-name="Trazado 896863" d="M177-65h1v1h-1Z" transform="translate(-512 -8608)"/>
      <path id="Trazado_896864" data-name="Trazado 896864" d="M177-65h1v1h-1Z" transform="translate(-512 -8608)"/>
      <path id="Trazado_896865" data-name="Trazado 896865" d="M178-65h47v1H178Z" transform="translate(-512 -8608)"/>
      <path id="Trazado_896866" data-name="Trazado 896866" d="M225-65h1v1h-1Z" transform="translate(-512 -8608)"/>
      <path id="Trazado_896867" data-name="Trazado 896867" d="M225-65h1v1h-1Z" transform="translate(-512 -8608)"/>
      <path id="Trazado_896868" data-name="Trazado 896868" d="M177-45h1v1h-1Z" transform="translate(-512 -8608)"/>
      <path id="Trazado_896869" data-name="Trazado 896869" d="M177-45h1v1h-1Z" transform="translate(-512 -8608)"/>
      <path id="Trazado_896870" data-name="Trazado 896870" d="M178-45h47v1H178Z" transform="translate(-512 -8608)"/>
      <path id="Trazado_896871" data-name="Trazado 896871" d="M225-45h1v1h-1Z" transform="translate(-512 -8608)"/>
      <path id="Trazado_896872" data-name="Trazado 896872" d="M225-45h1v1h-1Z" transform="translate(-512 -8608)"/>
      <path id="Trazado_896873" data-name="Trazado 896873" d="M177-64h1v19h-1Z" transform="translate(-512 -8608)"/>
      <path id="Trazado_896874" data-name="Trazado 896874" d="M225-64h1v19h-1Z" transform="translate(-512 -8608)"/>
      <path id="Trazado_896875" data-name="Trazado 896875" d="M175-63h1v19h-1Z" transform="translate(-512 -8608)"/>
      <path id="Trazado_896876" data-name="Trazado 896876" d="M226-65h1v1h-1Z" transform="translate(-512 -8608)"/>
      <path id="Trazado_896877" data-name="Trazado 896877" d="M226-65h1v1h-1Z" transform="translate(-512 -8608)"/>
      <path id="Trazado_896878" data-name="Trazado 896878" d="M227-65h38v1H227Z" transform="translate(-512 -8608)"/>
      <path id="Trazado_896879" data-name="Trazado 896879" d="M265-65h1v1h-1Z" transform="translate(-512 -8608)"/>
      <path id="Trazado_896880" data-name="Trazado 896880" d="M265-65h1v1h-1Z" transform="translate(-512 -8608)"/>
      <path id="Trazado_896881" data-name="Trazado 896881" d="M226-45h1v1h-1Z" transform="translate(-512 -8608)"/>
      <path id="Trazado_896882" data-name="Trazado 896882" d="M226-45h1v1h-1Z" transform="translate(-512 -8608)"/>
      <path id="Trazado_896883" data-name="Trazado 896883" d="M227-45h38v1H227Z" transform="translate(-512 -8608)"/>
      <path id="Trazado_896884" data-name="Trazado 896884" d="M265-45h1v1h-1Z" transform="translate(-512 -8608)"/>
      <path id="Trazado_896885" data-name="Trazado 896885" d="M265-45h1v1h-1Z" transform="translate(-512 -8608)"/>
      <path id="Trazado_896886" data-name="Trazado 896886" d="M226-64h1v19h-1Z" transform="translate(-512 -8608)"/>
      <path id="Trazado_896887" data-name="Trazado 896887" d="M265-64h1v19h-1Z" transform="translate(-512 -8608)"/>
      <path id="Trazado_896888" data-name="Trazado 896888" d="M267-63h1v19h-1Z" transform="translate(-512 -8608)"/>
      <text id="_1-2" data-name="1" transform="translate(-313.456 -8638)" font-size="10" font-family="ArialMT, Arial"><tspan x="0" y="0">1</tspan></text>
      <text id="_5" data-name=" " transform="translate(-307.894 -8638)" font-size="10" font-family="ArialMT, Arial"><tspan x="0" y="0"> </tspan></text>
      <path id="Trazado_896889" data-name="Trazado 896889" d="M178.5-23.5h46v-18h-46Z" transform="translate(-512 -8608)" fill="none"/>
      <text id="_0-2" data-name="0" transform="translate(-269.706 -8638)" font-size="10" font-family="ArialMT, Arial"><tspan x="0" y="0">0</tspan></text>
      <text id="_6" data-name=" " transform="translate(-264.144 -8638)" font-size="10" font-family="ArialMT, Arial"><tspan x="0" y="0"> </tspan></text>
      <path id="Trazado_896890" data-name="Trazado 896890" d="M226.5-23.5h38v-18h-38Z" transform="translate(-512 -8608)" fill="none"/>
      <path id="Trazado_896891" data-name="Trazado 896891" d="M175-44h1v2h-1Z" transform="translate(-512 -8608)"/>
      <path id="Trazado_896892" data-name="Trazado 896892" d="M267-44h1v2h-1Z" transform="translate(-512 -8608)"/>
      <path id="Trazado_896893" data-name="Trazado 896893" d="M177-44h1v1h-1Z" transform="translate(-512 -8608)"/>
      <path id="Trazado_896894" data-name="Trazado 896894" d="M177-44h1v1h-1Z" transform="translate(-512 -8608)"/>
      <path id="Trazado_896895" data-name="Trazado 896895" d="M178-44h47v1H178Z" transform="translate(-512 -8608)"/>
      <path id="Trazado_896896" data-name="Trazado 896896" d="M225-44h1v1h-1Z" transform="translate(-512 -8608)"/>
      <path id="Trazado_896897" data-name="Trazado 896897" d="M225-44h1v1h-1Z" transform="translate(-512 -8608)"/>
      <path id="Trazado_896898" data-name="Trazado 896898" d="M177-24h1v1h-1Z" transform="translate(-512 -8608)"/>
      <path id="Trazado_896899" data-name="Trazado 896899" d="M177-24h1v1h-1Z" transform="translate(-512 -8608)"/>
      <path id="Trazado_896900" data-name="Trazado 896900" d="M178-24h47v1H178Z" transform="translate(-512 -8608)"/>
      <path id="Trazado_896901" data-name="Trazado 896901" d="M225-24h1v1h-1Z" transform="translate(-512 -8608)"/>
      <path id="Trazado_896902" data-name="Trazado 896902" d="M225-24h1v1h-1Z" transform="translate(-512 -8608)"/>
      <path id="Trazado_896903" data-name="Trazado 896903" d="M177-43h1v19h-1Z" transform="translate(-512 -8608)"/>
      <path id="Trazado_896904" data-name="Trazado 896904" d="M225-43h1v19h-1Z" transform="translate(-512 -8608)"/>
      <path id="Trazado_896905" data-name="Trazado 896905" d="M175-42h1v20h-1Z" transform="translate(-512 -8608)"/>
      <path id="Trazado_896906" data-name="Trazado 896906" d="M175-22h1v1h-1Z" transform="translate(-512 -8608)"/>
      <path id="Trazado_896907" data-name="Trazado 896907" d="M175-22h1v1h-1Z" transform="translate(-512 -8608)"/>
      <path id="Trazado_896908" data-name="Trazado 896908" d="M176-22h50v1H176Z" transform="translate(-512 -8608)"/>
      <path id="Trazado_896909" data-name="Trazado 896909" d="M226-44h1v1h-1Z" transform="translate(-512 -8608)"/>
      <path id="Trazado_896910" data-name="Trazado 896910" d="M226-44h1v1h-1Z" transform="translate(-512 -8608)"/>
      <path id="Trazado_896911" data-name="Trazado 896911" d="M227-44h38v1H227Z" transform="translate(-512 -8608)"/>
      <path id="Trazado_896912" data-name="Trazado 896912" d="M265-44h1v1h-1Z" transform="translate(-512 -8608)"/>
      <path id="Trazado_896913" data-name="Trazado 896913" d="M265-44h1v1h-1Z" transform="translate(-512 -8608)"/>
      <path id="Trazado_896914" data-name="Trazado 896914" d="M226-24h1v1h-1Z" transform="translate(-512 -8608)"/>
      <path id="Trazado_896915" data-name="Trazado 896915" d="M226-24h1v1h-1Z" transform="translate(-512 -8608)"/>
      <path id="Trazado_896916" data-name="Trazado 896916" d="M227-24h38v1H227Z" transform="translate(-512 -8608)"/>
      <path id="Trazado_896917" data-name="Trazado 896917" d="M265-24h1v1h-1Z" transform="translate(-512 -8608)"/>
      <path id="Trazado_896918" data-name="Trazado 896918" d="M265-24h1v1h-1Z" transform="translate(-512 -8608)"/>
      <path id="Trazado_896919" data-name="Trazado 896919" d="M226-43h1v19h-1Z" transform="translate(-512 -8608)"/>
      <path id="Trazado_896920" data-name="Trazado 896920" d="M265-43h1v19h-1Z" transform="translate(-512 -8608)"/>
      <path id="Trazado_896921" data-name="Trazado 896921" d="M226-22h1v1h-1Z" transform="translate(-512 -8608)"/>
      <path id="Trazado_896922" data-name="Trazado 896922" d="M227-22h40v1H227Z" transform="translate(-512 -8608)"/>
      <path id="Trazado_896923" data-name="Trazado 896923" d="M267-42h1v20h-1Z" transform="translate(-512 -8608)"/>
      <path id="Trazado_896924" data-name="Trazado 896924" d="M267-22h1v1h-1Z" transform="translate(-512 -8608)"/>
      <path id="Trazado_896925" data-name="Trazado 896925" d="M267-22h1v1h-1Z" transform="translate(-512 -8608)"/>
    </g>
  </g>
</svg>
