<svg xmlns="http://www.w3.org/2000/svg" width="194.318" height="211" viewBox="0 0 194.318 211">
  <g id="Grupo_1115333" data-name="Grupo 1115333" transform="translate(-219.051 -3659)">
    <rect id="Rectángulo_401557" data-name="Rectángulo 401557" width="194.318" height="211" rx="12" transform="translate(219.051 3659)" fill="#3c6d9d"/>
    <g id="maquina-de-sierra" transform="translate(231.051 3693)">
      <path id="Trazado_902688" data-name="Trazado 902688" d="M301.762,8.983A8.1,8.1,0,0,0,296.37,7.56a32.726,32.726,0,0,0-29.585,32.572V82.25h60.348a6.893,6.893,0,0,0,4.149-1.387l11.727-8.835a6.892,6.892,0,0,0,2.747-5.507V43.211a6.9,6.9,0,0,0-2.956-5.659Zm26.89,57.19-2.172,1.636a6.893,6.893,0,0,1-4.149,1.387h-36.72a4.466,4.466,0,0,1-4.465-4.467v-24.6a18.387,18.387,0,0,1,11.1-16.873,5.951,5.951,0,0,1,5.749.6l30.448,21.2a6.894,6.894,0,0,1,2.955,5.659v9.955A6.9,6.9,0,0,1,328.652,66.172Zm0,0" transform="translate(-178.156 -5.025)" fill="#f70"/>
      <path id="Trazado_902689" data-name="Trazado 902689" d="M131.329,100.523l.228-.274a4.9,4.9,0,0,1,8.3,1.315l.132.33a4.9,4.9,0,0,0,7.141,2.32l.3-.188a4.9,4.9,0,0,1,7.485,3.813l.025.356a4.9,4.9,0,0,0,6.075,4.413l.345-.087a4.9,4.9,0,0,1,5.94,5.94l-.087.345a4.9,4.9,0,0,0,4.413,6.075l.354.025a4.9,4.9,0,0,1,3.814,7.484l-.188.3a4.9,4.9,0,0,0,2.32,7.14l.33.134a4.9,4.9,0,0,1,1.313,8.3l-.273.228a4.9,4.9,0,0,0,0,7.508l.273.228a4.9,4.9,0,0,1-1.313,8.3l-.33.132a4.9,4.9,0,0,0-2.32,7.141l.188.3a4.9,4.9,0,0,1-3.814,7.485l-.354.025a4.9,4.9,0,0,0-4.413,6.075l.087.345a4.9,4.9,0,0,1-5.94,5.94l-.345-.087a4.9,4.9,0,0,0-6.075,4.413l-.025.354a4.9,4.9,0,0,1-7.485,3.814l-.3-.188a4.9,4.9,0,0,0-7.141,2.32l-.132.33a4.9,4.9,0,0,1-8.3,1.313l-.228-.273a4.9,4.9,0,0,0-7.509,0l-.228.273a4.9,4.9,0,0,1-8.3-1.313l-.132-.33a4.9,4.9,0,0,0-7.141-2.32l-.3.188a4.9,4.9,0,0,1-7.484-3.814l-.025-.354a4.9,4.9,0,0,0-6.075-4.413l-.345.087a4.9,4.9,0,0,1-5.94-5.94l.087-.345a4.9,4.9,0,0,0-4.413-6.075l-.356-.025a4.9,4.9,0,0,1-3.813-7.485l.188-.3a4.9,4.9,0,0,0-2.32-7.141l-.33-.132a4.9,4.9,0,0,1-1.315-8.3l.274-.228a4.9,4.9,0,0,0,0-7.508l-.274-.228a4.9,4.9,0,0,1,1.315-8.3l.33-.134a4.9,4.9,0,0,0,2.32-7.14l-.188-.3A4.9,4.9,0,0,1,83.17,124.9l.356-.025a4.9,4.9,0,0,0,4.413-6.075l-.087-.345a4.9,4.9,0,0,1,5.94-5.94l.345.087a4.9,4.9,0,0,0,6.075-4.413l.025-.356a4.9,4.9,0,0,1,7.484-3.813l.3.188a4.9,4.9,0,0,0,7.141-2.32l.132-.33a4.9,4.9,0,0,1,8.3-1.315l.228.274A4.9,4.9,0,0,0,131.329,100.523Zm0,0" transform="translate(-49.302 -65.775)" fill="#deecf1"/>
      <path id="Trazado_902690" data-name="Trazado 902690" d="M197.537,180.457a37.7,37.7,0,1,1-37.7-37.7A37.7,37.7,0,0,1,197.537,180.457Zm0,0" transform="translate(-81.567 -95.335)" fill="#8ebac5"/>
      <path id="Trazado_902691" data-name="Trazado 902691" d="M173.547,132.729a61.446,61.446,0,0,0-122.891,0Zm0,0" transform="translate(-33.828 -47.606)" fill="#cc98e8"/>
      <path id="Trazado_902692" data-name="Trazado 902692" d="M225.612,71.289q-2.513,0-4.975.2a61.45,61.45,0,0,1,56.458,61.237h9.964A61.447,61.447,0,0,0,225.612,71.289Zm0,0" transform="translate(-147.339 -47.606)" fill="#bf80e2"/>
      <path id="Trazado_902693" data-name="Trazado 902693" d="M151.167,232.457H15.4a7.9,7.9,0,1,0,0,15.8h135.77a7.9,7.9,0,1,0,0-15.8Zm0,0" transform="translate(-5.008 -155.232)" fill="#bf80e2"/>
      <path id="Trazado_902694" data-name="Trazado 902694" d="M214.607,214.426a20.8,20.8,0,1,1-20.8-20.8A20.8,20.8,0,0,1,214.607,214.426Zm0,0" transform="translate(-115.535 -129.303)" fill="#f70"/>
      <path id="Trazado_902695" data-name="Trazado 902695" d="M225.784,193.629a20.724,20.724,0,0,0-4.89.583,20.8,20.8,0,0,1,0,40.43,20.8,20.8,0,1,0,4.89-41.013Zm0,0" transform="translate(-147.511 -129.303)" fill="#f66700"/>
      <path id="Trazado_902696" data-name="Trazado 902696" d="M132.611,303.59c-1.536-2.872-5.885-.553-4.346,2.324,15.138,28.308,55.752,28.3,70.888,0,1.536-2.873-2.808-5.2-4.346-2.326a35.254,35.254,0,0,1-62.2,0Zm0,0" transform="translate(-85.437 -201.856)"/>
      <path id="Trazado_902697" data-name="Trazado 902697" d="M166.08,30.5C124.6,2.607,124.718-.571,117.991.071A35.17,35.17,0,0,0,88.664,22.064a63.778,63.778,0,0,0-60.2,23A2.465,2.465,0,0,0,32.3,48.157C64.167,8.6,127.6,25.341,136.364,74.773H99.1a23.278,23.278,0,0,0-41.66,0H20.179a58.353,58.353,0,0,1,6.749-18.719c1.609-2.833-2.675-5.271-4.285-2.434a63.261,63.261,0,0,0-7.464,21.154H10.365a10.365,10.365,0,0,0,0,20.731H22.144a7.47,7.47,0,0,0,4.84,5.684,2.432,2.432,0,0,1,1.152,3.549,7.331,7.331,0,0,0-.507,7.551,7.493,7.493,0,0,0,6.408,4.028,2.434,2.434,0,0,1,2.194,3.02,7.38,7.38,0,0,0,9.189,9.189,2.4,2.4,0,0,1,2.022.393,2.552,2.552,0,0,1,1.023,2.155,7.364,7.364,0,0,0,11.254,5.735,2.489,2.489,0,0,1,3.984,1.3,7.363,7.363,0,0,0,12.474,1.975,2.491,2.491,0,0,1,4.19,0A7.363,7.363,0,0,0,92.84,138.1a2.49,2.49,0,0,1,3.985-1.3,7.305,7.305,0,0,0,7.25.319,7.492,7.492,0,0,0,4.027-6.408,2.406,2.406,0,0,1,1-1.8,2.548,2.548,0,0,1,2.367-.306,7.373,7.373,0,0,0,8.845-9.276,2.4,2.4,0,0,1,.392-2.022,2.557,2.557,0,0,1,2.157-1.023A7.364,7.364,0,0,0,128.6,105.04a2.49,2.49,0,0,1,1.294-3.985,7.308,7.308,0,0,0,4.51-5.55h11.779a10.375,10.375,0,0,0,7.771-17.217c.646-.4.219-.134,12.415-9.3a9.412,9.412,0,0,0,3.728-7.479V38.187A9.368,9.368,0,0,0,166.08,30.5Zm-59-2.407c1.91-3.9,7.815-9.716,11.359-7.249C148.552,42.614,150.8,41.568,150.8,45.689v9.957a4.452,4.452,0,0,1-1.766,3.54c-1.625,1.059-2.647,2.529-4.839,2.529h-6.425A64.232,64.232,0,0,0,107.084,28.1ZM78.271,66.8a18.34,18.34,0,1,1-18.339,18.34A18.361,18.361,0,0,1,78.271,66.8ZM10.365,90.574a5.436,5.436,0,0,1,0-10.872H55.644a23.353,23.353,0,0,0,0,10.872Zm113.1,10.6c-1.608,4.951,2.293,6.452,1.056,8.881a2.542,2.542,0,0,1-2.357,1.348,7.347,7.347,0,0,0-5.449,3.017,7.652,7.652,0,0,0-1.1,6.461,2.435,2.435,0,0,1-2.954,2.952,7.39,7.39,0,0,0-6.46,1.1c-4.308,3.13-1.878,6.539-4.365,7.807s-3.819-2.7-8.881-1.056c-4.933,1.6-3.884,5.65-6.565,6.075-2.747.433-2.806-3.749-8.12-3.749a7.654,7.654,0,0,0-5.873,2.908,2.434,2.434,0,0,1-4.124-.654,7.391,7.391,0,0,0-4.687-4.58,7.648,7.648,0,0,0-6.483.95,2.435,2.435,0,0,1-3.722-1.9,7.389,7.389,0,0,0-3.042-5.8c-4.212-3.06-6.845.187-8.774-1.742-1.945-1.947,1.354-4.516-1.739-8.772-3.126-4.3-6.512-1.826-7.806-4.365-1.321-2.593,2.739-3.7,1.055-8.881-1.4-4.324-4.865-4.207-5.748-5.666H57.443a23.278,23.278,0,0,0,41.66,0h30.112C128.341,96.946,124.871,96.847,123.466,101.17Zm22.712-10.6H100.9a23.348,23.348,0,0,0,0-10.871h45.279a5.435,5.435,0,1,1,0,10.871ZM165.164,61.5a4.454,4.454,0,0,1-1.766,3.54c-11.629,8.418-11.834,9.73-14.4,9.73h-7.636a63.7,63.7,0,0,0-1.882-8.13h4.712c4.258,0,6.459-2.7,7.806-3.519a9.412,9.412,0,0,0,3.728-7.479c-.628-6.651,2-13.457-4.012-17.641L121.259,16.8c-6.572-4.574-15.321,2.325-18.657,9.237a63.453,63.453,0,0,0-9.02-2.963,30.239,30.239,0,0,1,24.877-18.1c3.663-.348,1.655.1,44.8,29.571C166.581,36.858,164.56,39.316,165.164,61.5Zm0,0" transform="translate(0 0)"/>
    </g>
  </g>
</svg>
